<?xml version="1.0" encoding="utf-8" standalone="no"?>
<!DOCTYPE svg PUBLIC "-//W3C//DTD SVG 1.1//EN"
  "http://www.w3.org/Graphics/SVG/1.1/DTD/svg11.dtd">
<!-- Created with matplotlib (http://matplotlib.org/) -->
<svg height="345pt" version="1.1" viewBox="0 0 460 345" width="460pt" xmlns="http://www.w3.org/2000/svg" xmlns:xlink="http://www.w3.org/1999/xlink">
 <defs>
  <style type="text/css">
*{stroke-linecap:butt;stroke-linejoin:round;}
  </style>
 </defs>
 <g id="figure_1">
  <g id="patch_1">
   <path d="M 0 345.6 
L 460.8 345.6 
L 460.8 0 
L 0 0 
z
" style="fill:#ffffff;"/>
  </g>
  <g id="patch_2">
   <path d="M 57.6 307.584 
L 414.72 307.584 
L 414.72 41.472 
L 57.6 41.472 
z
" style="fill:#ffffff;"/>
  </g>
  <g id="pane3d_1">
   <g id="patch_3">
    <path d="M 104.941774 248.782626 
L 207.151387 183.537994 
L 205.449705 58.866209 
L 97.541237 117.48717 
" style="fill:#f2f2f2;opacity:0.5;stroke:#f2f2f2;stroke-linejoin:miter;"/>
   </g>
  </g>
  <g id="pane3d_2">
   <g id="patch_4">
    <path d="M 207.151387 183.537994 
L 372.72135 220.013954 
L 379.648599 91.582742 
L 205.449705 58.866209 
" style="fill:#e6e6e6;opacity:0.5;stroke:#e6e6e6;stroke-linejoin:miter;"/>
   </g>
  </g>
  <g id="pane3d_3">
   <g id="patch_5">
    <path d="M 104.941774 248.782626 
L 279.143747 291.264825 
L 372.72135 220.013954 
L 207.151387 183.537994 
" style="fill:#ececec;opacity:0.5;stroke:#ececec;stroke-linejoin:miter;"/>
   </g>
  </g>
  <g id="axis3d_1">
   <g id="line2d_1">
    <path d="M 104.941774 248.782626 
L 279.143747 291.264825 
" style="fill:none;stroke:#000000;stroke-linecap:square;stroke-width:0.8;"/>
   </g>
   <g id="Line3DCollection_1">
    <path d="M 115.562252 251.372616 
L 217.277438 185.768818 
L 216.081723 60.863023 
" style="fill:none;stroke:#b0b0b0;stroke-width:0.8;"/>
    <path d="M 148.306252 259.357813 
L 248.470984 192.640925 
L 248.851709 67.017599 
" style="fill:none;stroke:#b0b0b0;stroke-width:0.8;"/>
    <path d="M 181.629397 267.484245 
L 280.175868 199.625682 
L 282.186433 73.278239 
" style="fill:none;stroke:#b0b0b0;stroke-width:0.8;"/>
    <path d="M 215.547191 275.755692 
L 312.404765 206.725883 
L 316.10062 79.647709 
" style="fill:none;stroke:#b0b0b0;stroke-width:0.8;"/>
    <path d="M 250.075693 284.176071 
L 345.170776 213.944413 
L 350.609512 86.128871 
" style="fill:none;stroke:#b0b0b0;stroke-width:0.8;"/>
   </g>
   <g id="xtick_1">
    <g id="line2d_2">
     <path d="M 116.438581 250.807405 
L 113.806326 252.505145 
" style="fill:none;stroke:#000000;stroke-linecap:square;stroke-width:0.8;"/>
    </g>
    <g id="text_1">
     <!-- 0 -->
     <defs>
      <path d="M 31.78125 66.40625 
Q 24.171875 66.40625 20.328125 58.90625 
Q 16.5 51.421875 16.5 36.375 
Q 16.5 21.390625 20.328125 13.890625 
Q 24.171875 6.390625 31.78125 6.390625 
Q 39.453125 6.390625 43.28125 13.890625 
Q 47.125 21.390625 47.125 36.375 
Q 47.125 51.421875 43.28125 58.90625 
Q 39.453125 66.40625 31.78125 66.40625 
z
M 31.78125 74.21875 
Q 44.046875 74.21875 50.515625 64.515625 
Q 56.984375 54.828125 56.984375 36.375 
Q 56.984375 17.96875 50.515625 8.265625 
Q 44.046875 -1.421875 31.78125 -1.421875 
Q 19.53125 -1.421875 13.0625 8.265625 
Q 6.59375 17.96875 6.59375 36.375 
Q 6.59375 54.828125 13.0625 64.515625 
Q 19.53125 74.21875 31.78125 74.21875 
z
" id="DejaVuSans-30"/>
     </defs>
     <g transform="translate(105.060879 272.84452)scale(0.1 -0.1)">
      <use xlink:href="#DejaVuSans-30"/>
     </g>
    </g>
   </g>
   <g id="xtick_2">
    <g id="line2d_3">
     <path d="M 149.169762 258.782653 
L 146.575981 260.510297 
" style="fill:none;stroke:#000000;stroke-linecap:square;stroke-width:0.8;"/>
    </g>
    <g id="text_2">
     <!-- 2 -->
     <defs>
      <path d="M 19.1875 8.296875 
L 53.609375 8.296875 
L 53.609375 0 
L 7.328125 0 
L 7.328125 8.296875 
Q 12.9375 14.109375 22.625 23.890625 
Q 32.328125 33.6875 34.8125 36.53125 
Q 39.546875 41.84375 41.421875 45.53125 
Q 43.3125 49.21875 43.3125 52.78125 
Q 43.3125 58.59375 39.234375 62.25 
Q 35.15625 65.921875 28.609375 65.921875 
Q 23.96875 65.921875 18.8125 64.3125 
Q 13.671875 62.703125 7.8125 59.421875 
L 7.8125 69.390625 
Q 13.765625 71.78125 18.9375 73 
Q 24.125 74.21875 28.421875 74.21875 
Q 39.75 74.21875 46.484375 68.546875 
Q 53.21875 62.890625 53.21875 53.421875 
Q 53.21875 48.921875 51.53125 44.890625 
Q 49.859375 40.875 45.40625 35.40625 
Q 44.1875 33.984375 37.640625 27.21875 
Q 31.109375 20.453125 19.1875 8.296875 
z
" id="DejaVuSans-32"/>
     </defs>
     <g transform="translate(137.80125 280.96635)scale(0.1 -0.1)">
      <use xlink:href="#DejaVuSans-32"/>
     </g>
    </g>
   </g>
   <g id="xtick_3">
    <g id="line2d_4">
     <path d="M 182.479498 266.89887 
L 179.925969 268.657216 
" style="fill:none;stroke:#000000;stroke-linecap:square;stroke-width:0.8;"/>
    </g>
    <g id="text_3">
     <!-- 4 -->
     <defs>
      <path d="M 37.796875 64.3125 
L 12.890625 25.390625 
L 37.796875 25.390625 
z
M 35.203125 72.90625 
L 47.609375 72.90625 
L 47.609375 25.390625 
L 58.015625 25.390625 
L 58.015625 17.1875 
L 47.609375 17.1875 
L 47.609375 0 
L 37.796875 0 
L 37.796875 17.1875 
L 4.890625 17.1875 
L 4.890625 26.703125 
z
" id="DejaVuSans-34"/>
     </defs>
     <g transform="translate(171.121785 289.232101)scale(0.1 -0.1)">
      <use xlink:href="#DejaVuSans-34"/>
     </g>
    </g>
   </g>
   <g id="xtick_4">
    <g id="line2d_5">
     <path d="M 216.383263 275.159828 
L 213.871843 276.949702 
" style="fill:none;stroke:#000000;stroke-linecap:square;stroke-width:0.8;"/>
    </g>
    <g id="text_4">
     <!-- 6 -->
     <defs>
      <path d="M 33.015625 40.375 
Q 26.375 40.375 22.484375 35.828125 
Q 18.609375 31.296875 18.609375 23.390625 
Q 18.609375 15.53125 22.484375 10.953125 
Q 26.375 6.390625 33.015625 6.390625 
Q 39.65625 6.390625 43.53125 10.953125 
Q 47.40625 15.53125 47.40625 23.390625 
Q 47.40625 31.296875 43.53125 35.828125 
Q 39.65625 40.375 33.015625 40.375 
z
M 52.59375 71.296875 
L 52.59375 62.3125 
Q 48.875 64.0625 45.09375 64.984375 
Q 41.3125 65.921875 37.59375 65.921875 
Q 27.828125 65.921875 22.671875 59.328125 
Q 17.53125 52.734375 16.796875 39.40625 
Q 19.671875 43.65625 24.015625 45.921875 
Q 28.375 48.1875 33.59375 48.1875 
Q 44.578125 48.1875 50.953125 41.515625 
Q 57.328125 34.859375 57.328125 23.390625 
Q 57.328125 12.15625 50.6875 5.359375 
Q 44.046875 -1.421875 33.015625 -1.421875 
Q 20.359375 -1.421875 13.671875 8.265625 
Q 6.984375 17.96875 6.984375 36.375 
Q 6.984375 53.65625 15.1875 63.9375 
Q 23.390625 74.21875 37.203125 74.21875 
Q 40.921875 74.21875 44.703125 73.484375 
Q 48.484375 72.75 52.59375 71.296875 
z
" id="DejaVuSans-36"/>
     </defs>
     <g transform="translate(205.038042 297.64563)scale(0.1 -0.1)">
      <use xlink:href="#DejaVuSans-36"/>
     </g>
    </g>
   </g>
   <g id="xtick_5">
    <g id="line2d_6">
     <path d="M 250.897092 283.569434 
L 248.429719 285.391691 
" style="fill:none;stroke:#000000;stroke-linecap:square;stroke-width:0.8;"/>
    </g>
    <g id="text_5">
     <!-- 8 -->
     <defs>
      <path d="M 31.78125 34.625 
Q 24.75 34.625 20.71875 30.859375 
Q 16.703125 27.09375 16.703125 20.515625 
Q 16.703125 13.921875 20.71875 10.15625 
Q 24.75 6.390625 31.78125 6.390625 
Q 38.8125 6.390625 42.859375 10.171875 
Q 46.921875 13.96875 46.921875 20.515625 
Q 46.921875 27.09375 42.890625 30.859375 
Q 38.875 34.625 31.78125 34.625 
z
M 21.921875 38.8125 
Q 15.578125 40.375 12.03125 44.71875 
Q 8.5 49.078125 8.5 55.328125 
Q 8.5 64.0625 14.71875 69.140625 
Q 20.953125 74.21875 31.78125 74.21875 
Q 42.671875 74.21875 48.875 69.140625 
Q 55.078125 64.0625 55.078125 55.328125 
Q 55.078125 49.078125 51.53125 44.71875 
Q 48 40.375 41.703125 38.8125 
Q 48.828125 37.15625 52.796875 32.3125 
Q 56.78125 27.484375 56.78125 20.515625 
Q 56.78125 9.90625 50.3125 4.234375 
Q 43.84375 -1.421875 31.78125 -1.421875 
Q 19.734375 -1.421875 13.25 4.234375 
Q 6.78125 9.90625 6.78125 20.515625 
Q 6.78125 27.484375 10.78125 32.3125 
Q 14.796875 37.15625 21.921875 38.8125 
z
M 18.3125 54.390625 
Q 18.3125 48.734375 21.84375 45.5625 
Q 25.390625 42.390625 31.78125 42.390625 
Q 38.140625 42.390625 41.71875 45.5625 
Q 45.3125 48.734375 45.3125 54.390625 
Q 45.3125 60.0625 41.71875 63.234375 
Q 38.140625 66.40625 31.78125 66.40625 
Q 25.390625 66.40625 21.84375 63.234375 
Q 18.3125 60.0625 18.3125 54.390625 
z
" id="DejaVuSans-38"/>
     </defs>
     <g transform="translate(239.566142 306.210938)scale(0.1 -0.1)">
      <use xlink:href="#DejaVuSans-38"/>
     </g>
    </g>
   </g>
  </g>
  <g id="axis3d_2">
   <g id="line2d_7">
    <path d="M 372.72135 220.013954 
L 279.143747 291.264825 
" style="fill:none;stroke:#000000;stroke-linecap:square;stroke-width:0.8;"/>
   </g>
   <g id="Line3DCollection_2">
    <path d="M 104.930092 113.473196 
L 111.915028 244.331309 
L 285.548062 286.38852 
" style="fill:none;stroke:#b0b0b0;stroke-width:0.8;"/>
    <path d="M 126.984969 101.491948 
L 132.751513 231.030517 
L 304.667047 271.831144 
" style="fill:none;stroke:#b0b0b0;stroke-width:0.8;"/>
    <path d="M 148.366618 89.876429 
L 152.983668 218.115494 
L 323.206496 257.715032 
" style="fill:none;stroke:#b0b0b0;stroke-width:0.8;"/>
    <path d="M 169.105401 78.610146 
L 172.637407 205.569698 
L 341.192365 244.020421 
" style="fill:none;stroke:#b0b0b0;stroke-width:0.8;"/>
    <path d="M 189.229881 67.677581 
L 191.737187 193.377517 
L 358.649085 230.728709 
" style="fill:none;stroke:#b0b0b0;stroke-width:0.8;"/>
   </g>
   <g id="xtick_6">
    <g id="line2d_8">
     <path d="M 284.094906 286.036538 
L 288.457621 287.09327 
" style="fill:none;stroke:#000000;stroke-linecap:square;stroke-width:0.8;"/>
    </g>
    <g id="text_6">
     <!-- 0 -->
     <g transform="translate(295.066159 306.144728)scale(0.1 -0.1)">
      <use xlink:href="#DejaVuSans-30"/>
     </g>
    </g>
   </g>
   <g id="xtick_7">
    <g id="line2d_9">
     <path d="M 303.229241 271.48991 
L 307.545822 272.514362 
" style="fill:none;stroke:#000000;stroke-linecap:square;stroke-width:0.8;"/>
    </g>
    <g id="text_7">
     <!-- 2 -->
     <g transform="translate(313.980212 291.407653)scale(0.1 -0.1)">
      <use xlink:href="#DejaVuSans-32"/>
     </g>
    </g>
   </g>
   <g id="xtick_8">
    <g id="line2d_10">
     <path d="M 321.783784 257.384061 
L 326.055002 258.37769 
" style="fill:none;stroke:#000000;stroke-linecap:square;stroke-width:0.8;"/>
    </g>
    <g id="text_8">
     <!-- 4 -->
     <g transform="translate(332.321224 277.117069)scale(0.1 -0.1)">
      <use xlink:href="#DejaVuSans-34"/>
     </g>
    </g>
   </g>
   <g id="xtick_9">
    <g id="line2d_11">
     <path d="M 339.784494 243.699257 
L 344.011113 244.663433 
" style="fill:none;stroke:#000000;stroke-linecap:square;stroke-width:0.8;"/>
    </g>
    <g id="text_9">
     <!-- 6 -->
     <g transform="translate(350.114849 263.252987)scale(0.1 -0.1)">
      <use xlink:href="#DejaVuSans-36"/>
     </g>
    </g>
   </g>
   <g id="xtick_10">
    <g id="line2d_12">
     <path d="M 357.255803 230.416924 
L 361.438579 231.352936 
" style="fill:none;stroke:#000000;stroke-linecap:square;stroke-width:0.8;"/>
    </g>
    <g id="text_10">
     <!-- 8 -->
     <g transform="translate(367.385231 249.796595)scale(0.1 -0.1)">
      <use xlink:href="#DejaVuSans-38"/>
     </g>
    </g>
   </g>
  </g>
  <g id="axis3d_3">
   <g id="line2d_13">
    <path d="M 372.72135 220.013954 
L 379.648599 91.582742 
" style="fill:none;stroke:#000000;stroke-linecap:square;stroke-width:0.8;"/>
   </g>
   <g id="Line3DCollection_3">
    <path d="M 373.923937 197.717979 
L 206.855439 161.855676 
L 103.65885 226.021818 
" style="fill:none;stroke:#b0b0b0;stroke-width:0.8;"/>
    <path d="M 375.213831 173.803337 
L 206.538254 138.617475 
L 102.281933 201.593479 
" style="fill:none;stroke:#b0b0b0;stroke-width:0.8;"/>
    <path d="M 376.529002 149.420062 
L 206.215118 114.943303 
L 100.877126 176.670315 
" style="fill:none;stroke:#b0b0b0;stroke-width:0.8;"/>
    <path d="M 377.870201 124.554242 
L 205.885862 90.820776 
L 99.443572 151.237138 
" style="fill:none;stroke:#b0b0b0;stroke-width:0.8;"/>
    <path d="M 379.238207 99.191409 
L 205.550312 66.237034 
L 97.980379 125.278129 
" style="fill:none;stroke:#b0b0b0;stroke-width:0.8;"/>
   </g>
   <g id="xtick_11">
    <g id="line2d_14">
     <path d="M 372.529523 197.418659 
L 376.715689 198.317246 
" style="fill:none;stroke:#000000;stroke-linecap:square;stroke-width:0.8;"/>
    </g>
    <g id="text_11">
     <!-- −0.1 -->
     <defs>
      <path d="M 10.59375 35.5 
L 73.1875 35.5 
L 73.1875 27.203125 
L 10.59375 27.203125 
z
" id="DejaVuSans-2212"/>
      <path d="M 10.6875 12.40625 
L 21 12.40625 
L 21 0 
L 10.6875 0 
z
" id="DejaVuSans-2e"/>
      <path d="M 12.40625 8.296875 
L 28.515625 8.296875 
L 28.515625 63.921875 
L 10.984375 60.40625 
L 10.984375 69.390625 
L 28.421875 72.90625 
L 38.28125 72.90625 
L 38.28125 8.296875 
L 54.390625 8.296875 
L 54.390625 0 
L 12.40625 0 
z
" id="DejaVuSans-31"/>
     </defs>
     <g transform="translate(380.278613 203.379392)scale(0.1 -0.1)">
      <use xlink:href="#DejaVuSans-2212"/>
      <use x="83.789062" xlink:href="#DejaVuSans-30"/>
      <use x="147.412109" xlink:href="#DejaVuSans-2e"/>
      <use x="179.199219" xlink:href="#DejaVuSans-31"/>
     </g>
    </g>
   </g>
   <g id="xtick_12">
    <g id="line2d_15">
     <path d="M 373.805437 173.509545 
L 378.033601 174.391544 
" style="fill:none;stroke:#000000;stroke-linecap:square;stroke-width:0.8;"/>
    </g>
    <g id="text_12">
     <!-- 0.0 -->
     <g transform="translate(385.934465 179.500557)scale(0.1 -0.1)">
      <use xlink:href="#DejaVuSans-30"/>
      <use x="63.623047" xlink:href="#DejaVuSans-2e"/>
      <use x="95.410156" xlink:href="#DejaVuSans-30"/>
     </g>
    </g>
   </g>
   <g id="xtick_13">
    <g id="line2d_16">
     <path d="M 375.106346 149.132072 
L 379.377358 149.996656 
" style="fill:none;stroke:#000000;stroke-linecap:square;stroke-width:0.8;"/>
    </g>
    <g id="text_13">
     <!-- 0.1 -->
     <g transform="translate(387.429136 155.154868)scale(0.1 -0.1)">
      <use xlink:href="#DejaVuSans-30"/>
      <use x="63.623047" xlink:href="#DejaVuSans-2e"/>
      <use x="95.410156" xlink:href="#DejaVuSans-31"/>
     </g>
    </g>
   </g>
   <g id="xtick_14">
    <g id="line2d_17">
     <path d="M 376.43299 124.272343 
L 380.747726 125.118647 
" style="fill:none;stroke:#000000;stroke-linecap:square;stroke-width:0.8;"/>
    </g>
    <g id="text_14">
     <!-- 0.2 -->
     <g transform="translate(388.953318 130.328499)scale(0.1 -0.1)">
      <use xlink:href="#DejaVuSans-30"/>
      <use x="63.623047" xlink:href="#DejaVuSans-2e"/>
      <use x="95.410156" xlink:href="#DejaVuSans-32"/>
     </g>
    </g>
   </g>
   <g id="xtick_15">
    <g id="line2d_18">
     <path d="M 377.786141 98.915904 
L 382.145505 99.74302 
" style="fill:none;stroke:#000000;stroke-linecap:square;stroke-width:0.8;"/>
    </g>
    <g id="text_15">
     <!-- 0.3 -->
     <defs>
      <path d="M 40.578125 39.3125 
Q 47.65625 37.796875 51.625 33 
Q 55.609375 28.21875 55.609375 21.1875 
Q 55.609375 10.40625 48.1875 4.484375 
Q 40.765625 -1.421875 27.09375 -1.421875 
Q 22.515625 -1.421875 17.65625 -0.515625 
Q 12.796875 0.390625 7.625 2.203125 
L 7.625 11.71875 
Q 11.71875 9.328125 16.59375 8.109375 
Q 21.484375 6.890625 26.8125 6.890625 
Q 36.078125 6.890625 40.9375 10.546875 
Q 45.796875 14.203125 45.796875 21.1875 
Q 45.796875 27.640625 41.28125 31.265625 
Q 36.765625 34.90625 28.71875 34.90625 
L 20.21875 34.90625 
L 20.21875 43.015625 
L 29.109375 43.015625 
Q 36.375 43.015625 40.234375 45.921875 
Q 44.09375 48.828125 44.09375 54.296875 
Q 44.09375 59.90625 40.109375 62.90625 
Q 36.140625 65.921875 28.71875 65.921875 
Q 24.65625 65.921875 20.015625 65.03125 
Q 15.375 64.15625 9.8125 62.3125 
L 9.8125 71.09375 
Q 15.4375 72.65625 20.34375 73.4375 
Q 25.25 74.21875 29.59375 74.21875 
Q 40.828125 74.21875 47.359375 69.109375 
Q 53.90625 64.015625 53.90625 55.328125 
Q 53.90625 49.265625 50.4375 45.09375 
Q 46.96875 40.921875 40.578125 39.3125 
z
" id="DejaVuSans-33"/>
     </defs>
     <g transform="translate(390.507893 105.007072)scale(0.1 -0.1)">
      <use xlink:href="#DejaVuSans-30"/>
      <use x="63.623047" xlink:href="#DejaVuSans-2e"/>
      <use x="95.410156" xlink:href="#DejaVuSans-33"/>
     </g>
    </g>
   </g>
  </g>
  <g id="axes_1">
   <g id="Poly3DCollection_1">
    <path clip-path="url(#pc8641c7135)" d="M 172.76273 197.420673 
L 182.082184 171.857441 
L 198.187743 179.793525 
L 188.777464 202.633867 
L 172.76273 197.420673 
z
" style="fill:#6300a7;"/>
    <path clip-path="url(#pc8641c7135)" d="M 182.082184 171.857441 
L 191.384539 144.857169 
L 207.487643 149.487374 
L 198.187743 179.793525 
L 182.082184 171.857441 
z
" style="fill:#b02991;"/>
    <path clip-path="url(#pc8641c7135)" d="M 200.701555 117.391448 
L 210.183968 101.602658 
L 226.34652 109.850512 
L 216.883959 124.416213 
L 200.701555 117.391448 
z
" style="fill:#fca537;"/>
    <path clip-path="url(#pc8641c7135)" d="M 191.384539 144.857169 
L 200.701555 117.391448 
L 216.883959 124.416213 
L 207.487643 149.487374 
L 191.384539 144.857169 
z
" style="fill:#e56b5d;"/>
    <path clip-path="url(#pc8641c7135)" d="M 198.187743 179.793525 
L 207.487643 149.487374 
L 223.783957 164.708951 
L 214.391475 189.609468 
L 198.187743 179.793525 
z
" style="fill:#9d189d;"/>
    <path clip-path="url(#pc8641c7135)" d="M 188.777464 202.633867 
L 198.187743 179.793525 
L 214.391475 189.609468 
L 204.933559 209.716049 
L 188.777464 202.633867 
z
" style="fill:#5302a3;"/>
    <path clip-path="url(#pc8641c7135)" d="M 163.021789 209.35911 
L 172.76273 197.420673 
L 188.777464 202.633867 
L 179.039528 212.960375 
L 163.021789 209.35911 
z
" style="fill:#330597;"/>
    <path clip-path="url(#pc8641c7135)" d="M 216.883959 124.416213 
L 226.34652 109.850512 
L 242.582766 115.982409 
L 233.164013 134.212983 
L 216.883959 124.416213 
z
" style="fill:#f89540;"/>
    <path clip-path="url(#pc8641c7135)" d="M 207.487643 149.487374 
L 216.883959 124.416213 
L 233.164013 134.212983 
L 223.783957 164.708951 
L 207.487643 149.487374 
z
" style="fill:#db5c68;"/>
    <path clip-path="url(#pc8641c7135)" d="M 214.391475 189.609468 
L 223.783957 164.708951 
L 240.061704 172.276673 
L 230.628184 194.26575 
L 214.391475 189.609468 
z
" style="fill:#8707a6;"/>
    <path clip-path="url(#pc8641c7135)" d="M 223.783957 164.708951 
L 233.164013 134.212983 
L 249.477751 150.219532 
L 240.061704 172.276673 
L 223.783957 164.708951 
z
" style="fill:#c5407e;"/>
    <path clip-path="url(#pc8641c7135)" d="M 233.164013 134.212983 
L 242.582766 115.982409 
L 258.923209 121.631751 
L 249.477751 150.219532 
L 233.164013 134.212983 
z
" style="fill:#f07f4f;"/>
    <path clip-path="url(#pc8641c7135)" d="M 204.933559 209.716049 
L 214.391475 189.609468 
L 230.628184 194.26575 
L 221.168551 215.281784 
L 204.933559 209.716049 
z
" style="fill:#44039e;"/>
    <path clip-path="url(#pc8641c7135)" d="M 249.477751 150.219532 
L 258.923209 121.631751 
L 275.285656 133.676238 
L 265.868305 155.897702 
L 249.477751 150.219532 
z
" style="fill:#e26561;"/>
    <path clip-path="url(#pc8641c7135)" d="M 179.039528 212.960375 
L 188.777464 202.633867 
L 204.933559 209.716049 
L 195.179531 215.790332 
L 179.039528 212.960375 
z
" style="fill:#2f0596;"/>
    <path clip-path="url(#pc8641c7135)" d="M 240.061704 172.276673 
L 249.477751 150.219532 
L 265.868305 155.897702 
L 256.471295 172.29276 
L 240.061704 172.276673 
z
" style="fill:#ba3388;"/>
    <path clip-path="url(#pc8641c7135)" d="M 230.628184 194.26575 
L 240.061704 172.276673 
L 256.471295 172.29276 
L 246.978286 203.282663 
L 230.628184 194.26575 
z
" style="fill:#8004a8;"/>
    <path clip-path="url(#pc8641c7135)" d="M 221.168551 215.281784 
L 230.628184 194.26575 
L 246.978286 203.282663 
L 237.519905 223.204301 
L 221.168551 215.281784 
z
" style="fill:#370499;"/>
    <path clip-path="url(#pc8641c7135)" d="M 265.868305 155.897702 
L 275.285656 133.676238 
L 291.820624 138.468489 
L 282.509925 153.088409 
L 265.868305 155.897702 
z
" style="fill:#de6164;"/>
    <path clip-path="url(#pc8641c7135)" d="M 195.179531 215.790332 
L 204.933559 209.716049 
L 221.168551 215.281784 
L 211.485975 220.036336 
L 195.179531 215.790332 
z
" style="fill:#2c0594;"/>
    <path clip-path="url(#pc8641c7135)" d="M 152.856267 212.335701 
L 163.021789 209.35911 
L 179.039528 212.960375 
L 168.790788 209.851331 
L 152.856267 212.335701 
z
" style="fill:#3a049a;"/>
    <path clip-path="url(#pc8641c7135)" d="M 246.978286 203.282663 
L 256.471295 172.29276 
L 273.051853 173.553331 
L 263.455772 205.768424 
L 246.978286 203.282663 
z
" style="fill:#7d03a8;"/>
    <path clip-path="url(#pc8641c7135)" d="M 237.519905 223.204301 
L 246.978286 203.282663 
L 263.455772 205.768424 
L 253.992352 224.012641 
L 237.519905 223.204301 
z
" style="fill:#2e0595;"/>
    <path clip-path="url(#pc8641c7135)" d="M 282.509925 153.088409 
L 291.820624 138.468489 
L 307.898573 164.923257 
L 298.895904 171.007237 
L 282.509925 153.088409 
z
" style="fill:#d35171;"/>
    <path clip-path="url(#pc8641c7135)" d="M 298.895904 171.007237 
L 307.898573 164.923257 
L 324.579921 168.424923 
L 315.662356 174.560843 
L 298.895904 171.007237 
z
" style="fill:#b7318a;"/>
    <path clip-path="url(#pc8641c7135)" d="M 256.471295 172.29276 
L 265.868305 155.897702 
L 282.509925 153.088409 
L 273.051853 173.553331 
L 256.471295 172.29276 
z
" style="fill:#c23c81;"/>
    <path clip-path="url(#pc8641c7135)" d="M 211.485975 220.036336 
L 221.168551 215.281784 
L 237.519905 223.204301 
L 227.940524 227.116933 
L 211.485975 220.036336 
z
" style="fill:#20068f;"/>
    <path clip-path="url(#pc8641c7135)" d="M 315.662356 174.560843 
L 324.579921 168.424923 
L 341.40357 171.95646 
L 332.572896 178.145068 
L 315.662356 174.560843 
z
" style="fill:#b7318a;"/>
    <path clip-path="url(#pc8641c7135)" d="M 273.051853 173.553331 
L 282.509925 153.088409 
L 298.895904 171.007237 
L 289.759382 177.181673 
L 273.051853 173.553331 
z
" style="fill:#c03a83;"/>
    <path clip-path="url(#pc8641c7135)" d="M 168.790788 209.851331 
L 179.039528 212.960375 
L 195.179531 215.790332 
L 184.959287 207.994326 
L 168.790788 209.851331 
z
" style="fill:#4b03a1;"/>
    <path clip-path="url(#pc8641c7135)" d="M 227.940524 227.116933 
L 237.519905 223.204301 
L 253.992352 224.012641 
L 244.487845 236.924779 
L 227.940524 227.116933 
z
" style="fill:#0d0887;"/>
    <path clip-path="url(#pc8641c7135)" d="M 263.455772 205.768424 
L 273.051853 173.553331 
L 289.759382 177.181673 
L 280.486 183.4486 
L 263.455772 205.768424 
z
" style="fill:#9511a1;"/>
    <path clip-path="url(#pc8641c7135)" d="M 289.759382 177.181673 
L 298.895904 171.007237 
L 315.662356 174.560843 
L 306.611641 180.788022 
L 289.759382 177.181673 
z
" style="fill:#b7318a;"/>
    <path clip-path="url(#pc8641c7135)" d="M 332.572896 178.145068 
L 341.40357 171.95646 
L 358.371347 175.518252 
L 349.629394 181.760194 
L 332.572896 178.145068 
z
" style="fill:#b7318a;"/>
    <path clip-path="url(#pc8641c7135)" d="M 184.959287 207.994326 
L 195.179531 215.790332 
L 211.485975 220.036336 
L 201.523373 217.318068 
L 184.959287 207.994326 
z
" style="fill:#5102a3;"/>
    <path clip-path="url(#pc8641c7135)" d="M 253.992352 224.012641 
L 263.455772 205.768424 
L 280.486 183.4486 
L 271.07266 189.81011 
L 253.992352 224.012641 
z
" style="fill:#6e00a8;"/>
    <path clip-path="url(#pc8641c7135)" d="M 141.827715 198.386469 
L 152.856267 212.335701 
L 168.790788 209.851331 
L 158.088238 200.169015 
L 141.827715 198.386469 
z
" style="fill:#7701a8;"/>
    <path clip-path="url(#pc8641c7135)" d="M 306.611641 180.788022 
L 315.662356 174.560843 
L 332.572896 178.145068 
L 323.609791 184.426478 
L 306.611641 180.788022 
z
" style="fill:#b7318a;"/>
    <path clip-path="url(#pc8641c7135)" d="M 201.523373 217.318068 
L 211.485975 220.036336 
L 227.940524 227.116933 
L 218.077339 218.346234 
L 201.523373 217.318068 
z
" style="fill:#46039f;"/>
    <path clip-path="url(#pc8641c7135)" d="M 280.486 183.4486 
L 289.759382 177.181673 
L 306.611641 180.788022 
L 297.42488 187.103616 
L 280.486 183.4486 
z
" style="fill:#b7318a;"/>
    <path clip-path="url(#pc8641c7135)" d="M 244.487845 236.924779 
L 253.992352 224.012641 
L 271.07266 189.81011 
L 261.516168 196.268362 
L 244.487845 236.924779 
z
" style="fill:#5801a4;"/>
    <path clip-path="url(#pc8641c7135)" d="M 218.077339 218.346234 
L 227.940524 227.116933 
L 244.487845 236.924779 
L 234.83782 228.903699 
L 218.077339 218.346234 
z
" style="fill:#3c049b;"/>
    <path clip-path="url(#pc8641c7135)" d="M 323.609791 184.426478 
L 332.572896 178.145068 
L 349.629394 181.760194 
L 340.755769 188.096151 
L 323.609791 184.426478 
z
" style="fill:#b7318a;"/>
    <path clip-path="url(#pc8641c7135)" d="M 158.088238 200.169015 
L 168.790788 209.851331 
L 184.959287 207.994326 
L 174.381449 196.969625 
L 158.088238 200.169015 
z
" style="fill:#8808a6;"/>
    <path clip-path="url(#pc8641c7135)" d="M 297.42488 187.103616 
L 306.611641 180.788022 
L 323.609791 184.426478 
L 314.511291 190.801509 
L 297.42488 187.103616 
z
" style="fill:#b7318a;"/>
    <path clip-path="url(#pc8641c7135)" d="M 271.07266 189.81011 
L 280.486 183.4486 
L 297.42488 187.103616 
L 288.099178 193.496089 
L 271.07266 189.81011 
z
" style="fill:#b7318a;"/>
    <path clip-path="url(#pc8641c7135)" d="M 174.381449 196.969625 
L 184.959287 207.994326 
L 201.523373 217.318068 
L 191.030419 199.608948 
L 174.381449 196.969625 
z
" style="fill:#9410a2;"/>
    <path clip-path="url(#pc8641c7135)" d="M 314.511291 190.801509 
L 323.609791 184.426478 
L 340.755769 188.096151 
L 331.747476 194.528266 
L 314.511291 190.801509 
z
" style="fill:#b7318a;"/>
    <path clip-path="url(#pc8641c7135)" d="M 234.83782 228.903699 
L 244.487845 236.924779 
L 261.516168 196.268362 
L 251.782465 209.815129 
L 234.83782 228.903699 
z
" style="fill:#6600a7;"/>
    <path clip-path="url(#pc8641c7135)" d="M 288.099178 193.496089 
L 297.42488 187.103616 
L 314.511291 190.801509 
L 305.274185 197.276239 
L 288.099178 193.496089 
z
" style="fill:#b7318a;"/>
    <path clip-path="url(#pc8641c7135)" d="M 130.339984 181.653553 
L 141.827715 198.386469 
L 158.088238 200.169015 
L 146.806372 183.039238 
L 130.339984 181.653553 
z
" style="fill:#c03a83;"/>
    <path clip-path="url(#pc8641c7135)" d="M 191.030419 199.608948 
L 201.523373 217.318068 
L 218.077339 218.346234 
L 207.765206 196.591398 
L 191.030419 199.608948 
z
" style="fill:#99159f;"/>
    <path clip-path="url(#pc8641c7135)" d="M 261.516168 196.268362 
L 271.07266 189.81011 
L 288.099178 193.496089 
L 278.630949 199.979311 
L 261.516168 196.268362 
z
" style="fill:#b7318a;"/>
    <path clip-path="url(#pc8641c7135)" d="M 305.274185 197.276239 
L 314.511291 190.801509 
L 331.747476 194.528266 
L 322.601424 201.058743 
L 305.274185 197.276239 
z
" style="fill:#b7318a;"/>
    <path clip-path="url(#pc8641c7135)" d="M 146.806372 183.039238 
L 158.088238 200.169015 
L 174.381449 196.969625 
L 163.52388 186.795263 
L 146.806372 183.039238 
z
" style="fill:#c7427c;"/>
    <path clip-path="url(#pc8641c7135)" d="M 207.765206 196.591398 
L 218.077339 218.346234 
L 234.83782 228.903699 
L 224.749535 194.578063 
L 207.765206 196.591398 
z
" style="fill:#a31e9a;"/>
    <path clip-path="url(#pc8641c7135)" d="M 278.630949 199.979311 
L 288.099178 193.496089 
L 305.274185 197.276239 
L 295.899983 203.643957 
L 278.630949 199.979311 
z
" style="fill:#b7318a;"/>
    <path clip-path="url(#pc8641c7135)" d="M 251.782465 209.815129 
L 261.516168 196.268362 
L 278.630949 199.979311 
L 269.020061 206.271123 
L 251.782465 209.815129 
z
" style="fill:#b02991;"/>
    <path clip-path="url(#pc8641c7135)" d="M 295.899983 203.643957 
L 305.274185 197.276239 
L 322.601424 201.058743 
L 313.320372 207.488171 
L 295.899983 203.643957 
z
" style="fill:#b7318a;"/>
    <path clip-path="url(#pc8641c7135)" d="M 163.52388 186.795263 
L 174.381449 196.969625 
L 191.030419 199.608948 
L 180.119241 179.531151 
L 163.52388 186.795263 
z
" style="fill:#d04d73;"/>
    <path clip-path="url(#pc8641c7135)" d="M 224.749535 194.578063 
L 234.83782 228.903699 
L 251.782465 209.815129 
L 241.962857 203.468143 
L 224.749535 194.578063 
z
" style="fill:#b22b8f;"/>
    <path clip-path="url(#pc8641c7135)" d="M 269.020061 206.271123 
L 278.630949 199.979311 
L 295.899983 203.643957 
L 286.38609 209.741713 
L 269.020061 206.271123 
z
" style="fill:#b83289;"/>
    <path clip-path="url(#pc8641c7135)" d="M 118.98333 175.138947 
L 130.339984 181.653553 
L 146.806372 183.039238 
L 135.666407 178.014752 
L 118.98333 175.138947 
z
" style="fill:#e66c5c;"/>
    <path clip-path="url(#pc8641c7135)" d="M 180.119241 179.531151 
L 191.030419 199.608948 
L 207.765206 196.591398 
L 197.153391 180.023861 
L 180.119241 179.531151 
z
" style="fill:#df6263;"/>
    <path clip-path="url(#pc8641c7135)" d="M 241.962857 203.468143 
L 251.782465 209.815129 
L 269.020061 206.271123 
L 259.324117 203.730887 
L 241.962857 203.468143 
z
" style="fill:#c03a83;"/>
    <path clip-path="url(#pc8641c7135)" d="M 286.38609 209.741713 
L 295.899983 203.643957 
L 313.320372 207.488171 
L 303.902068 213.689944 
L 286.38609 209.741713 
z
" style="fill:#b83289;"/>
    <path clip-path="url(#pc8641c7135)" d="M 135.666407 178.014752 
L 146.806372 183.039238 
L 163.52388 186.795263 
L 152.394846 177.659561 
L 135.666407 178.014752 
z
" style="fill:#e97257;"/>
    <path clip-path="url(#pc8641c7135)" d="M 259.324117 203.730887 
L 269.020061 206.271123 
L 286.38609 209.741713 
L 276.740527 214.489357 
L 259.324117 203.730887 
z
" style="fill:#c43e7f;"/>
    <path clip-path="url(#pc8641c7135)" d="M 197.153391 180.023861 
L 207.765206 196.591398 
L 224.749535 194.578063 
L 214.36343 178.300382 
L 197.153391 180.023861 
z
" style="fill:#e87059;"/>
    <path clip-path="url(#pc8641c7135)" d="M 152.394846 177.659561 
L 163.52388 186.795263 
L 180.119241 179.531151 
L 169.251266 174.544942 
L 152.394846 177.659561 
z
" style="fill:#f1834c;"/>
    <path clip-path="url(#pc8641c7135)" d="M 276.740527 214.489357 
L 286.38609 209.741713 
L 303.902068 213.689944 
L 294.361161 218.663595 
L 276.740527 214.489357 
z
" style="fill:#bd3786;"/>
    <path clip-path="url(#pc8641c7135)" d="M 214.36343 178.300382 
L 224.749535 194.578063 
L 241.962857 203.468143 
L 231.808262 176.674246 
L 214.36343 178.300382 
z
" style="fill:#ee7b51;"/>
    <path clip-path="url(#pc8641c7135)" d="M 169.251266 174.544942 
L 180.119241 179.531151 
L 197.153391 180.023861 
L 186.110075 160.165385 
L 169.251266 174.544942 
z
" style="fill:#fca338;"/>
    <path clip-path="url(#pc8641c7135)" d="M 231.808262 176.674246 
L 241.962857 203.468143 
L 259.324117 203.730887 
L 249.427099 193.579357 
L 231.808262 176.674246 
z
" style="fill:#ed7953;"/>
    <path clip-path="url(#pc8641c7135)" d="M 249.427099 193.579357 
L 259.324117 203.730887 
L 276.740527 214.489357 
L 267.04423 208.285682 
L 249.427099 193.579357 
z
" style="fill:#de6164;"/>
    <path clip-path="url(#pc8641c7135)" d="M 267.04423 208.285682 
L 276.740527 214.489357 
L 294.361161 218.663595 
L 284.701534 221.113276 
L 267.04423 208.285682 
z
" style="fill:#ce4b75;"/>
    <path clip-path="url(#pc8641c7135)" d="M 186.110075 160.165385 
L 197.153391 180.023861 
L 214.36343 178.300382 
L 203.471382 151.878175 
L 186.110075 160.165385 
z
" style="fill:#fcce25;"/>
    <path clip-path="url(#pc8641c7135)" d="M 257.096037 200.588152 
L 267.04423 208.285682 
L 284.701534 221.113276 
L 274.860838 222.951156 
L 257.096037 200.588152 
z
" style="fill:#e4695e;"/>
    <path clip-path="url(#pc8641c7135)" d="M 203.471382 151.878175 
L 214.36343 178.300382 
L 231.808262 176.674246 
L 221.140468 140.401776 
L 203.471382 151.878175 
z
" style="fill:#f0f921;"/>
    <path clip-path="url(#pc8641c7135)" d="M 239.22314 169.69768 
L 249.427099 193.579357 
L 267.04423 208.285682 
L 257.096037 200.588152 
L 239.22314 169.69768 
z
" style="fill:#fca537;"/>
    <path clip-path="url(#pc8641c7135)" d="M 221.140468 140.401776 
L 231.808262 176.674246 
L 249.427099 193.579357 
L 239.22314 169.69768 
L 221.140468 140.401776 
z
" style="fill:#f0f724;"/>
   </g>
  </g>
 </g>
 <defs>
  <clipPath id="pc8641c7135">
   <rect height="266.112" width="357.12" x="57.6" y="41.472"/>
  </clipPath>
 </defs>
</svg>
