<?xml version="1.0" encoding="utf-8" standalone="no"?>
<!DOCTYPE svg PUBLIC "-//W3C//DTD SVG 1.1//EN"
  "http://www.w3.org/Graphics/SVG/1.1/DTD/svg11.dtd">
<!-- Created with matplotlib (http://matplotlib.org/) -->
<svg height="345pt" version="1.1" viewBox="0 0 460 345" width="460pt" xmlns="http://www.w3.org/2000/svg" xmlns:xlink="http://www.w3.org/1999/xlink">
 <defs>
  <style type="text/css">
*{stroke-linecap:butt;stroke-linejoin:round;}
  </style>
 </defs>
 <g id="figure_1">
  <g id="patch_1">
   <path d="M 0 345.6 
L 460.8 345.6 
L 460.8 0 
L 0 0 
z
" style="fill:#ffffff;"/>
  </g>
  <g id="patch_2">
   <path d="M 57.6 307.584 
L 414.72 307.584 
L 414.72 41.472 
L 57.6 41.472 
z
" style="fill:#ffffff;"/>
  </g>
  <g id="pane3d_1">
   <g id="patch_3">
    <path d="M 104.941774 248.782626 
L 207.151387 183.537994 
L 205.449705 58.866209 
L 97.541237 117.48717 
" style="fill:#f2f2f2;opacity:0.5;stroke:#f2f2f2;stroke-linejoin:miter;"/>
   </g>
  </g>
  <g id="pane3d_2">
   <g id="patch_4">
    <path d="M 207.151387 183.537994 
L 372.72135 220.013954 
L 379.648599 91.582742 
L 205.449705 58.866209 
" style="fill:#e6e6e6;opacity:0.5;stroke:#e6e6e6;stroke-linejoin:miter;"/>
   </g>
  </g>
  <g id="pane3d_3">
   <g id="patch_5">
    <path d="M 104.941774 248.782626 
L 279.143747 291.264825 
L 372.72135 220.013954 
L 207.151387 183.537994 
" style="fill:#ececec;opacity:0.5;stroke:#ececec;stroke-linejoin:miter;"/>
   </g>
  </g>
  <g id="axis3d_1">
   <g id="line2d_1">
    <path d="M 104.941774 248.782626 
L 279.143747 291.264825 
" style="fill:none;stroke:#000000;stroke-linecap:square;stroke-width:0.8;"/>
   </g>
   <g id="Line3DCollection_1">
    <path d="M 115.562252 251.372616 
L 217.277438 185.768818 
L 216.081723 60.863023 
" style="fill:none;stroke:#b0b0b0;stroke-width:0.8;"/>
    <path d="M 148.306252 259.357813 
L 248.470984 192.640925 
L 248.851709 67.017599 
" style="fill:none;stroke:#b0b0b0;stroke-width:0.8;"/>
    <path d="M 181.629397 267.484245 
L 280.175868 199.625682 
L 282.186433 73.278239 
" style="fill:none;stroke:#b0b0b0;stroke-width:0.8;"/>
    <path d="M 215.547191 275.755692 
L 312.404765 206.725883 
L 316.10062 79.647709 
" style="fill:none;stroke:#b0b0b0;stroke-width:0.8;"/>
    <path d="M 250.075693 284.176071 
L 345.170776 213.944413 
L 350.609512 86.128871 
" style="fill:none;stroke:#b0b0b0;stroke-width:0.8;"/>
   </g>
   <g id="xtick_1">
    <g id="line2d_2">
     <path d="M 116.438581 250.807405 
L 113.806326 252.505145 
" style="fill:none;stroke:#000000;stroke-linecap:square;stroke-width:0.8;"/>
    </g>
    <g id="text_1">
     <!-- 0 -->
     <defs>
      <path d="M 31.78125 66.40625 
Q 24.171875 66.40625 20.328125 58.90625 
Q 16.5 51.421875 16.5 36.375 
Q 16.5 21.390625 20.328125 13.890625 
Q 24.171875 6.390625 31.78125 6.390625 
Q 39.453125 6.390625 43.28125 13.890625 
Q 47.125 21.390625 47.125 36.375 
Q 47.125 51.421875 43.28125 58.90625 
Q 39.453125 66.40625 31.78125 66.40625 
z
M 31.78125 74.21875 
Q 44.046875 74.21875 50.515625 64.515625 
Q 56.984375 54.828125 56.984375 36.375 
Q 56.984375 17.96875 50.515625 8.265625 
Q 44.046875 -1.421875 31.78125 -1.421875 
Q 19.53125 -1.421875 13.0625 8.265625 
Q 6.59375 17.96875 6.59375 36.375 
Q 6.59375 54.828125 13.0625 64.515625 
Q 19.53125 74.21875 31.78125 74.21875 
z
" id="DejaVuSans-30"/>
     </defs>
     <g transform="translate(105.060879 272.84452)scale(0.1 -0.1)">
      <use xlink:href="#DejaVuSans-30"/>
     </g>
    </g>
   </g>
   <g id="xtick_2">
    <g id="line2d_3">
     <path d="M 149.169762 258.782653 
L 146.575981 260.510297 
" style="fill:none;stroke:#000000;stroke-linecap:square;stroke-width:0.8;"/>
    </g>
    <g id="text_2">
     <!-- 2 -->
     <defs>
      <path d="M 19.1875 8.296875 
L 53.609375 8.296875 
L 53.609375 0 
L 7.328125 0 
L 7.328125 8.296875 
Q 12.9375 14.109375 22.625 23.890625 
Q 32.328125 33.6875 34.8125 36.53125 
Q 39.546875 41.84375 41.421875 45.53125 
Q 43.3125 49.21875 43.3125 52.78125 
Q 43.3125 58.59375 39.234375 62.25 
Q 35.15625 65.921875 28.609375 65.921875 
Q 23.96875 65.921875 18.8125 64.3125 
Q 13.671875 62.703125 7.8125 59.421875 
L 7.8125 69.390625 
Q 13.765625 71.78125 18.9375 73 
Q 24.125 74.21875 28.421875 74.21875 
Q 39.75 74.21875 46.484375 68.546875 
Q 53.21875 62.890625 53.21875 53.421875 
Q 53.21875 48.921875 51.53125 44.890625 
Q 49.859375 40.875 45.40625 35.40625 
Q 44.1875 33.984375 37.640625 27.21875 
Q 31.109375 20.453125 19.1875 8.296875 
z
" id="DejaVuSans-32"/>
     </defs>
     <g transform="translate(137.80125 280.96635)scale(0.1 -0.1)">
      <use xlink:href="#DejaVuSans-32"/>
     </g>
    </g>
   </g>
   <g id="xtick_3">
    <g id="line2d_4">
     <path d="M 182.479498 266.89887 
L 179.925969 268.657216 
" style="fill:none;stroke:#000000;stroke-linecap:square;stroke-width:0.8;"/>
    </g>
    <g id="text_3">
     <!-- 4 -->
     <defs>
      <path d="M 37.796875 64.3125 
L 12.890625 25.390625 
L 37.796875 25.390625 
z
M 35.203125 72.90625 
L 47.609375 72.90625 
L 47.609375 25.390625 
L 58.015625 25.390625 
L 58.015625 17.1875 
L 47.609375 17.1875 
L 47.609375 0 
L 37.796875 0 
L 37.796875 17.1875 
L 4.890625 17.1875 
L 4.890625 26.703125 
z
" id="DejaVuSans-34"/>
     </defs>
     <g transform="translate(171.121785 289.232101)scale(0.1 -0.1)">
      <use xlink:href="#DejaVuSans-34"/>
     </g>
    </g>
   </g>
   <g id="xtick_4">
    <g id="line2d_5">
     <path d="M 216.383263 275.159828 
L 213.871843 276.949702 
" style="fill:none;stroke:#000000;stroke-linecap:square;stroke-width:0.8;"/>
    </g>
    <g id="text_4">
     <!-- 6 -->
     <defs>
      <path d="M 33.015625 40.375 
Q 26.375 40.375 22.484375 35.828125 
Q 18.609375 31.296875 18.609375 23.390625 
Q 18.609375 15.53125 22.484375 10.953125 
Q 26.375 6.390625 33.015625 6.390625 
Q 39.65625 6.390625 43.53125 10.953125 
Q 47.40625 15.53125 47.40625 23.390625 
Q 47.40625 31.296875 43.53125 35.828125 
Q 39.65625 40.375 33.015625 40.375 
z
M 52.59375 71.296875 
L 52.59375 62.3125 
Q 48.875 64.0625 45.09375 64.984375 
Q 41.3125 65.921875 37.59375 65.921875 
Q 27.828125 65.921875 22.671875 59.328125 
Q 17.53125 52.734375 16.796875 39.40625 
Q 19.671875 43.65625 24.015625 45.921875 
Q 28.375 48.1875 33.59375 48.1875 
Q 44.578125 48.1875 50.953125 41.515625 
Q 57.328125 34.859375 57.328125 23.390625 
Q 57.328125 12.15625 50.6875 5.359375 
Q 44.046875 -1.421875 33.015625 -1.421875 
Q 20.359375 -1.421875 13.671875 8.265625 
Q 6.984375 17.96875 6.984375 36.375 
Q 6.984375 53.65625 15.1875 63.9375 
Q 23.390625 74.21875 37.203125 74.21875 
Q 40.921875 74.21875 44.703125 73.484375 
Q 48.484375 72.75 52.59375 71.296875 
z
" id="DejaVuSans-36"/>
     </defs>
     <g transform="translate(205.038042 297.64563)scale(0.1 -0.1)">
      <use xlink:href="#DejaVuSans-36"/>
     </g>
    </g>
   </g>
   <g id="xtick_5">
    <g id="line2d_6">
     <path d="M 250.897092 283.569434 
L 248.429719 285.391691 
" style="fill:none;stroke:#000000;stroke-linecap:square;stroke-width:0.8;"/>
    </g>
    <g id="text_5">
     <!-- 8 -->
     <defs>
      <path d="M 31.78125 34.625 
Q 24.75 34.625 20.71875 30.859375 
Q 16.703125 27.09375 16.703125 20.515625 
Q 16.703125 13.921875 20.71875 10.15625 
Q 24.75 6.390625 31.78125 6.390625 
Q 38.8125 6.390625 42.859375 10.171875 
Q 46.921875 13.96875 46.921875 20.515625 
Q 46.921875 27.09375 42.890625 30.859375 
Q 38.875 34.625 31.78125 34.625 
z
M 21.921875 38.8125 
Q 15.578125 40.375 12.03125 44.71875 
Q 8.5 49.078125 8.5 55.328125 
Q 8.5 64.0625 14.71875 69.140625 
Q 20.953125 74.21875 31.78125 74.21875 
Q 42.671875 74.21875 48.875 69.140625 
Q 55.078125 64.0625 55.078125 55.328125 
Q 55.078125 49.078125 51.53125 44.71875 
Q 48 40.375 41.703125 38.8125 
Q 48.828125 37.15625 52.796875 32.3125 
Q 56.78125 27.484375 56.78125 20.515625 
Q 56.78125 9.90625 50.3125 4.234375 
Q 43.84375 -1.421875 31.78125 -1.421875 
Q 19.734375 -1.421875 13.25 4.234375 
Q 6.78125 9.90625 6.78125 20.515625 
Q 6.78125 27.484375 10.78125 32.3125 
Q 14.796875 37.15625 21.921875 38.8125 
z
M 18.3125 54.390625 
Q 18.3125 48.734375 21.84375 45.5625 
Q 25.390625 42.390625 31.78125 42.390625 
Q 38.140625 42.390625 41.71875 45.5625 
Q 45.3125 48.734375 45.3125 54.390625 
Q 45.3125 60.0625 41.71875 63.234375 
Q 38.140625 66.40625 31.78125 66.40625 
Q 25.390625 66.40625 21.84375 63.234375 
Q 18.3125 60.0625 18.3125 54.390625 
z
" id="DejaVuSans-38"/>
     </defs>
     <g transform="translate(239.566142 306.210938)scale(0.1 -0.1)">
      <use xlink:href="#DejaVuSans-38"/>
     </g>
    </g>
   </g>
  </g>
  <g id="axis3d_2">
   <g id="line2d_7">
    <path d="M 372.72135 220.013954 
L 279.143747 291.264825 
" style="fill:none;stroke:#000000;stroke-linecap:square;stroke-width:0.8;"/>
   </g>
   <g id="Line3DCollection_2">
    <path d="M 104.930092 113.473196 
L 111.915028 244.331309 
L 285.548062 286.38852 
" style="fill:none;stroke:#b0b0b0;stroke-width:0.8;"/>
    <path d="M 126.984969 101.491948 
L 132.751513 231.030517 
L 304.667047 271.831144 
" style="fill:none;stroke:#b0b0b0;stroke-width:0.8;"/>
    <path d="M 148.366618 89.876429 
L 152.983668 218.115494 
L 323.206496 257.715032 
" style="fill:none;stroke:#b0b0b0;stroke-width:0.8;"/>
    <path d="M 169.105401 78.610146 
L 172.637407 205.569698 
L 341.192365 244.020421 
" style="fill:none;stroke:#b0b0b0;stroke-width:0.8;"/>
    <path d="M 189.229881 67.677581 
L 191.737187 193.377517 
L 358.649085 230.728709 
" style="fill:none;stroke:#b0b0b0;stroke-width:0.8;"/>
   </g>
   <g id="xtick_6">
    <g id="line2d_8">
     <path d="M 284.094906 286.036538 
L 288.457621 287.09327 
" style="fill:none;stroke:#000000;stroke-linecap:square;stroke-width:0.8;"/>
    </g>
    <g id="text_6">
     <!-- 0 -->
     <g transform="translate(295.066159 306.144728)scale(0.1 -0.1)">
      <use xlink:href="#DejaVuSans-30"/>
     </g>
    </g>
   </g>
   <g id="xtick_7">
    <g id="line2d_9">
     <path d="M 303.229241 271.48991 
L 307.545822 272.514362 
" style="fill:none;stroke:#000000;stroke-linecap:square;stroke-width:0.8;"/>
    </g>
    <g id="text_7">
     <!-- 2 -->
     <g transform="translate(313.980212 291.407653)scale(0.1 -0.1)">
      <use xlink:href="#DejaVuSans-32"/>
     </g>
    </g>
   </g>
   <g id="xtick_8">
    <g id="line2d_10">
     <path d="M 321.783784 257.384061 
L 326.055002 258.37769 
" style="fill:none;stroke:#000000;stroke-linecap:square;stroke-width:0.8;"/>
    </g>
    <g id="text_8">
     <!-- 4 -->
     <g transform="translate(332.321224 277.117069)scale(0.1 -0.1)">
      <use xlink:href="#DejaVuSans-34"/>
     </g>
    </g>
   </g>
   <g id="xtick_9">
    <g id="line2d_11">
     <path d="M 339.784494 243.699257 
L 344.011113 244.663433 
" style="fill:none;stroke:#000000;stroke-linecap:square;stroke-width:0.8;"/>
    </g>
    <g id="text_9">
     <!-- 6 -->
     <g transform="translate(350.114849 263.252987)scale(0.1 -0.1)">
      <use xlink:href="#DejaVuSans-36"/>
     </g>
    </g>
   </g>
   <g id="xtick_10">
    <g id="line2d_12">
     <path d="M 357.255803 230.416924 
L 361.438579 231.352936 
" style="fill:none;stroke:#000000;stroke-linecap:square;stroke-width:0.8;"/>
    </g>
    <g id="text_10">
     <!-- 8 -->
     <g transform="translate(367.385231 249.796595)scale(0.1 -0.1)">
      <use xlink:href="#DejaVuSans-38"/>
     </g>
    </g>
   </g>
  </g>
  <g id="axis3d_3">
   <g id="line2d_13">
    <path d="M 372.72135 220.013954 
L 379.648599 91.582742 
" style="fill:none;stroke:#000000;stroke-linecap:square;stroke-width:0.8;"/>
   </g>
   <g id="Line3DCollection_3">
    <path d="M 372.853105 217.571211 
L 207.118952 181.161682 
L 104.801255 246.28962 
" style="fill:none;stroke:#b0b0b0;stroke-width:0.8;"/>
    <path d="M 373.715548 201.581516 
L 206.906706 165.6117 
L 103.881215 229.966877 
" style="fill:none;stroke:#b0b0b0;stroke-width:0.8;"/>
    <path d="M 374.589346 185.381291 
L 206.691782 149.865584 
L 102.948659 213.422088 
" style="fill:none;stroke:#b0b0b0;stroke-width:0.8;"/>
    <path d="M 375.474726 168.966351 
L 206.474131 133.919599 
L 102.00333 196.650689 
" style="fill:none;stroke:#b0b0b0;stroke-width:0.8;"/>
    <path d="M 376.371919 152.332399 
L 206.253699 117.769915 
L 101.044965 179.647993 
" style="fill:none;stroke:#b0b0b0;stroke-width:0.8;"/>
    <path d="M 377.281162 135.475021 
L 206.030433 101.412605 
L 100.07329 162.409182 
" style="fill:none;stroke:#b0b0b0;stroke-width:0.8;"/>
    <path d="M 378.202701 118.389686 
L 205.804279 84.843638 
L 99.088027 144.929303 
" style="fill:none;stroke:#b0b0b0;stroke-width:0.8;"/>
    <path d="M 379.136787 101.071739 
L 205.575179 68.058879 
L 98.08889 127.203264 
" style="fill:none;stroke:#b0b0b0;stroke-width:0.8;"/>
   </g>
   <g id="xtick_11">
    <g id="line2d_14">
     <path d="M 371.47029 217.267425 
L 375.621611 218.179414 
" style="fill:none;stroke:#000000;stroke-linecap:square;stroke-width:0.8;"/>
    </g>
    <g id="text_11">
     <!-- 0.0 -->
     <defs>
      <path d="M 10.6875 12.40625 
L 21 12.40625 
L 21 0 
L 10.6875 0 
z
" id="DejaVuSans-2e"/>
     </defs>
     <g transform="translate(383.25137 223.203694)scale(0.1 -0.1)">
      <use xlink:href="#DejaVuSans-30"/>
      <use x="63.623047" xlink:href="#DejaVuSans-2e"/>
      <use x="95.410156" xlink:href="#DejaVuSans-30"/>
     </g>
    </g>
   </g>
   <g id="xtick_12">
    <g id="line2d_15">
     <path d="M 372.323392 201.281318 
L 376.502775 202.18254 
" style="fill:none;stroke:#000000;stroke-linecap:square;stroke-width:0.8;"/>
    </g>
    <g id="text_12">
     <!-- 0.2 -->
     <g transform="translate(384.231609 207.237242)scale(0.1 -0.1)">
      <use xlink:href="#DejaVuSans-30"/>
      <use x="63.623047" xlink:href="#DejaVuSans-2e"/>
      <use x="95.410156" xlink:href="#DejaVuSans-32"/>
     </g>
    </g>
   </g>
   <g id="xtick_13">
    <g id="line2d_16">
     <path d="M 373.187722 185.084803 
L 377.39555 185.974893 
" style="fill:none;stroke:#000000;stroke-linecap:square;stroke-width:0.8;"/>
    </g>
    <g id="text_13">
     <!-- 0.4 -->
     <g transform="translate(385.224725 191.061045)scale(0.1 -0.1)">
      <use xlink:href="#DejaVuSans-30"/>
      <use x="63.623047" xlink:href="#DejaVuSans-2e"/>
      <use x="95.410156" xlink:href="#DejaVuSans-34"/>
     </g>
    </g>
   </g>
   <g id="xtick_14">
    <g id="line2d_17">
     <path d="M 374.063503 168.673697 
L 378.300165 169.552281 
" style="fill:none;stroke:#000000;stroke-linecap:square;stroke-width:0.8;"/>
    </g>
    <g id="text_14">
     <!-- 0.6 -->
     <g transform="translate(386.230973 174.67094)scale(0.1 -0.1)">
      <use xlink:href="#DejaVuSans-30"/>
      <use x="63.623047" xlink:href="#DejaVuSans-2e"/>
      <use x="95.410156" xlink:href="#DejaVuSans-36"/>
     </g>
    </g>
   </g>
   <g id="xtick_15">
    <g id="line2d_18">
     <path d="M 374.950966 152.043707 
L 379.216859 152.910398 
" style="fill:none;stroke:#000000;stroke-linecap:square;stroke-width:0.8;"/>
    </g>
    <g id="text_15">
     <!-- 0.8 -->
     <g transform="translate(387.250616 158.062658)scale(0.1 -0.1)">
      <use xlink:href="#DejaVuSans-30"/>
      <use x="63.623047" xlink:href="#DejaVuSans-2e"/>
      <use x="95.410156" xlink:href="#DejaVuSans-38"/>
     </g>
    </g>
   </g>
   <g id="xtick_16">
    <g id="line2d_19">
     <path d="M 375.850344 135.190426 
L 380.145874 136.044823 
" style="fill:none;stroke:#000000;stroke-linecap:square;stroke-width:0.8;"/>
    </g>
    <g id="text_16">
     <!-- 1.0 -->
     <defs>
      <path d="M 12.40625 8.296875 
L 28.515625 8.296875 
L 28.515625 63.921875 
L 10.984375 60.40625 
L 10.984375 69.390625 
L 28.421875 72.90625 
L 38.28125 72.90625 
L 38.28125 8.296875 
L 54.390625 8.296875 
L 54.390625 0 
L 12.40625 0 
z
" id="DejaVuSans-31"/>
     </defs>
     <g transform="translate(388.283924 141.231812)scale(0.1 -0.1)">
      <use xlink:href="#DejaVuSans-31"/>
      <use x="63.623047" xlink:href="#DejaVuSans-2e"/>
      <use x="95.410156" xlink:href="#DejaVuSans-30"/>
     </g>
    </g>
   </g>
   <g id="xtick_17">
    <g id="line2d_20">
     <path d="M 376.76188 118.109325 
L 381.087461 118.951016 
" style="fill:none;stroke:#000000;stroke-linecap:square;stroke-width:0.8;"/>
    </g>
    <g id="text_17">
     <!-- 1.2 -->
     <g transform="translate(389.331171 124.173899)scale(0.1 -0.1)">
      <use xlink:href="#DejaVuSans-31"/>
      <use x="63.623047" xlink:href="#DejaVuSans-2e"/>
      <use x="95.410156" xlink:href="#DejaVuSans-32"/>
     </g>
    </g>
   </g>
   <g id="xtick_18">
    <g id="line2d_21">
     <path d="M 377.685822 100.795753 
L 382.041877 101.624311 
" style="fill:none;stroke:#000000;stroke-linecap:square;stroke-width:0.8;"/>
    </g>
    <g id="text_18">
     <!-- 1.4 -->
     <g transform="translate(390.392644 106.884292)scale(0.1 -0.1)">
      <use xlink:href="#DejaVuSans-31"/>
      <use x="63.623047" xlink:href="#DejaVuSans-2e"/>
      <use x="95.410156" xlink:href="#DejaVuSans-34"/>
     </g>
    </g>
   </g>
  </g>
  <g id="axes_1">
   <g id="Poly3DCollection_1">
    <path clip-path="url(#pf19b8e0832)" d="M 201.74889 183.557619 
L 211.141512 181.21011 
L 226.773354 184.273442 
L 217.476683 186.830838 
L 201.74889 183.557619 
z
" style="fill:#4b03a1;"/>
    <path clip-path="url(#pf19b8e0832)" d="M 217.476683 186.830838 
L 226.773354 184.273442 
L 242.536613 189.581248 
L 233.344539 192.56197 
L 217.476683 186.830838 
z
" style="fill:#46039f;"/>
    <path clip-path="url(#pf19b8e0832)" d="M 233.344539 192.56197 
L 242.536613 189.581248 
L 258.414311 193.715514 
L 249.316487 197.926899 
L 233.344539 192.56197 
z
" style="fill:#3c049b;"/>
    <path clip-path="url(#pf19b8e0832)" d="M 192.055598 178.916937 
L 201.74889 183.557619 
L 217.476683 186.830838 
L 207.95655 184.662851 
L 192.055598 178.916937 
z
" style="fill:#7501a8;"/>
    <path clip-path="url(#pf19b8e0832)" d="M 249.316487 197.926899 
L 258.414311 193.715514 
L 274.402571 198.780823 
L 265.3932 203.756734 
L 249.316487 197.926899 
z
" style="fill:#310597;"/>
    <path clip-path="url(#pf19b8e0832)" d="M 207.95655 184.662851 
L 217.476683 186.830838 
L 233.344539 192.56197 
L 223.980613 193.262793 
L 207.95655 184.662851 
z
" style="fill:#6700a8;"/>
    <path clip-path="url(#pf19b8e0832)" d="M 265.3932 203.756734 
L 274.402571 198.780823 
L 290.524429 202.824024 
L 281.588862 208.748369 
L 265.3932 203.756734 
z
" style="fill:#260591;"/>
    <path clip-path="url(#pf19b8e0832)" d="M 223.980613 193.262793 
L 233.344539 192.56197 
L 249.316487 197.926899 
L 240.072197 200.547359 
L 223.980613 193.262793 
z
" style="fill:#5302a3;"/>
    <path clip-path="url(#pf19b8e0832)" d="M 281.588862 208.748369 
L 290.524429 202.824024 
L 306.734073 208.387409 
L 297.880773 214.679848 
L 281.588862 208.748369 
z
" style="fill:#19068c;"/>
    <path clip-path="url(#pf19b8e0832)" d="M 240.072197 200.547359 
L 249.316487 197.926899 
L 265.3932 203.756734 
L 256.24804 208.193015 
L 240.072197 200.547359 
z
" style="fill:#41049d;"/>
    <path clip-path="url(#pf19b8e0832)" d="M 297.880773 214.679848 
L 306.734073 208.387409 
L 323.119039 212.009252 
L 314.347814 218.354508 
L 297.880773 214.679848 
z
" style="fill:#0d0887;"/>
    <path clip-path="url(#pf19b8e0832)" d="M 256.24804 208.193015 
L 265.3932 203.756734 
L 281.588862 208.748369 
L 272.533954 213.750735 
L 256.24804 208.193015 
z
" style="fill:#2f0596;"/>
    <path clip-path="url(#pf19b8e0832)" d="M 182.007604 168.704101 
L 192.055598 178.916937 
L 207.95655 184.662851 
L 197.860897 160.834125 
L 182.007604 168.704101 
z
" style="fill:#c13b82;"/>
    <path clip-path="url(#pf19b8e0832)" d="M 272.533954 213.750735 
L 281.588862 208.748369 
L 297.880773 214.679848 
L 288.898166 221.064191 
L 272.533954 213.750735 
z
" style="fill:#20068f;"/>
    <path clip-path="url(#pf19b8e0832)" d="M 214.417155 191.997161 
L 223.980613 193.262793 
L 240.072197 200.547359 
L 230.673559 205.078031 
L 214.417155 191.997161 
z
" style="fill:#7100a8;"/>
    <path clip-path="url(#pf19b8e0832)" d="M 314.347814 218.354508 
L 323.119039 212.009252 
L 339.641325 215.66145 
L 330.953872 222.060191 
L 314.347814 218.354508 
z
" style="fill:#0d0887;"/>
    <path clip-path="url(#pf19b8e0832)" d="M 230.673559 205.078031 
L 240.072197 200.547359 
L 256.24804 208.193015 
L 246.954679 212.970314 
L 230.673559 205.078031 
z
" style="fill:#4c02a1;"/>
    <path clip-path="url(#pf19b8e0832)" d="M 197.860897 160.834125 
L 207.95655 184.662851 
L 223.980613 193.262793 
L 214.417155 191.997161 
L 197.860897 160.834125 
z
" style="fill:#b7318a;"/>
    <path clip-path="url(#pf19b8e0832)" d="M 288.898166 221.064191 
L 297.880773 214.679848 
L 314.347814 218.354508 
L 305.447938 224.792833 
L 288.898166 221.064191 
z
" style="fill:#0d0887;"/>
    <path clip-path="url(#pf19b8e0832)" d="M 330.953872 222.060191 
L 339.641325 215.66145 
L 356.302663 219.344384 
L 347.700713 225.797289 
L 330.953872 222.060191 
z
" style="fill:#0d0887;"/>
    <path clip-path="url(#pf19b8e0832)" d="M 246.954679 212.970314 
L 256.24804 208.193015 
L 272.533954 213.750735 
L 263.335436 218.924764 
L 246.954679 212.970314 
z
" style="fill:#38049a;"/>
    <path clip-path="url(#pf19b8e0832)" d="M 263.335436 218.924764 
L 272.533954 213.750735 
L 288.898166 221.064191 
L 279.783398 227.542468 
L 263.335436 218.924764 
z
" style="fill:#240691;"/>
    <path clip-path="url(#pf19b8e0832)" d="M 305.447938 224.792833 
L 314.347814 218.354508 
L 330.953872 222.060191 
L 322.138454 228.553184 
L 305.447938 224.792833 
z
" style="fill:#0d0887;"/>
    <path clip-path="url(#pf19b8e0832)" d="M 221.081725 204.560233 
L 230.673559 205.078031 
L 246.954679 212.970314 
L 237.510706 216.730604 
L 221.081725 204.560233 
z
" style="fill:#6400a7;"/>
    <path clip-path="url(#pf19b8e0832)" d="M 279.783398 227.542468 
L 288.898166 221.064191 
L 305.447938 224.792833 
L 296.41656 231.326289 
L 279.783398 227.542468 
z
" style="fill:#0d0887;"/>
    <path clip-path="url(#pf19b8e0832)" d="M 322.138454 228.553184 
L 330.953872 222.060191 
L 347.700713 225.797289 
L 338.971516 232.34565 
L 322.138454 228.553184 
z
" style="fill:#0d0887;"/>
    <path clip-path="url(#pf19b8e0832)" d="M 237.510706 216.730604 
L 246.954679 212.970314 
L 263.335436 218.924764 
L 253.98874 224.689692 
L 237.510706 216.730604 
z
" style="fill:#44039e;"/>
    <path clip-path="url(#pf19b8e0832)" d="M 204.397159 173.224331 
L 214.417155 191.997161 
L 230.673559 205.078031 
L 221.081725 204.560233 
L 204.397159 173.224331 
z
" style="fill:#b12a90;"/>
    <path clip-path="url(#pf19b8e0832)" d="M 296.41656 231.326289 
L 305.447938 224.792833 
L 322.138454 228.553184 
L 313.192224 235.142527 
L 296.41656 231.326289 
z
" style="fill:#0d0887;"/>
    <path clip-path="url(#pf19b8e0832)" d="M 253.98874 224.689692 
L 263.335436 218.924764 
L 279.783398 227.542468 
L 270.533529 234.116766 
L 253.98874 224.689692 
z
" style="fill:#280592;"/>
    <path clip-path="url(#pf19b8e0832)" d="M 152.793956 210.603424 
L 162.262793 185.478387 
L 178.580443 194.807655 
L 168.970779 215.965802 
L 152.793956 210.603424 
z
" style="fill:#8a09a5;"/>
    <path clip-path="url(#pf19b8e0832)" d="M 211.451036 217.143664 
L 221.081725 204.560233 
L 237.510706 216.730604 
L 227.927389 224.664984 
L 211.451036 217.143664 
z
" style="fill:#6001a6;"/>
    <path clip-path="url(#pf19b8e0832)" d="M 270.533529 234.116766 
L 279.783398 227.542468 
L 296.41656 231.326289 
L 287.250742 237.957 
L 270.533529 234.116766 
z
" style="fill:#0d0887;"/>
    <path clip-path="url(#pf19b8e0832)" d="M 194.893863 200.532339 
L 204.397159 173.224331 
L 221.081725 204.560233 
L 211.451036 217.143664 
L 194.893863 200.532339 
z
" style="fill:#a31e9a;"/>
    <path clip-path="url(#pf19b8e0832)" d="M 142.797568 222.486539 
L 152.793956 210.603424 
L 168.970779 215.965802 
L 159.001672 227.299764 
L 142.797568 222.486539 
z
" style="fill:#5502a4;"/>
    <path clip-path="url(#pf19b8e0832)" d="M 168.970779 215.965802 
L 178.580443 194.807655 
L 194.893863 200.532339 
L 185.192295 218.201849 
L 168.970779 215.965802 
z
" style="fill:#8004a8;"/>
    <path clip-path="url(#pf19b8e0832)" d="M 313.192224 235.142527 
L 322.138454 228.553184 
L 338.971516 232.34565 
L 330.112229 238.991601 
L 313.192224 235.142527 
z
" style="fill:#0d0887;"/>
    <path clip-path="url(#pf19b8e0832)" d="M 171.429958 149.266391 
L 182.007604 168.704101 
L 197.860897 160.834125 
L 186.436089 92.3221 
L 171.429958 149.266391 
z
" style="fill:#f9dc24;"/>
    <path clip-path="url(#pf19b8e0832)" d="M 227.927389 224.664984 
L 237.510706 216.730604 
L 253.98874 224.689692 
L 244.494216 232.51154 
L 227.927389 224.664984 
z
" style="fill:#43039e;"/>
    <path clip-path="url(#pf19b8e0832)" d="M 185.192295 218.201849 
L 194.893863 200.532339 
L 211.451036 217.143664 
L 201.687164 227.466469 
L 185.192295 218.201849 
z
" style="fill:#6e00a8;"/>
    <path clip-path="url(#pf19b8e0832)" d="M 287.250742 237.957 
L 296.41656 231.326289 
L 313.192224 235.142527 
L 304.112247 241.830381 
L 287.250742 237.957 
z
" style="fill:#0d0887;"/>
    <path clip-path="url(#pf19b8e0832)" d="M 244.494216 232.51154 
L 253.98874 224.689692 
L 270.533529 234.116766 
L 261.146518 240.671218 
L 244.494216 232.51154 
z
" style="fill:#260591;"/>
    <path clip-path="url(#pf19b8e0832)" d="M 162.262793 185.478387 
L 171.429958 149.266391 
L 186.436089 92.3221 
L 178.580443 194.807655 
L 162.262793 185.478387 
z
" style="fill:#fa9e3b;"/>
    <path clip-path="url(#pf19b8e0832)" d="M 159.001672 227.299764 
L 168.970779 215.965802 
L 185.192295 218.201849 
L 175.348344 232.759997 
L 159.001672 227.299764 
z
" style="fill:#5002a2;"/>
    <path clip-path="url(#pf19b8e0832)" d="M 201.687164 227.466469 
L 211.451036 217.143664 
L 227.927389 224.664984 
L 218.222955 233.881466 
L 201.687164 227.466469 
z
" style="fill:#4b03a1;"/>
    <path clip-path="url(#pf19b8e0832)" d="M 178.580443 194.807655 
L 186.436089 92.3221 
L 204.397159 173.224331 
L 194.893863 200.532339 
L 178.580443 194.807655 
z
" style="fill:#f0804e;"/>
    <path clip-path="url(#pf19b8e0832)" d="M 132.556638 231.351995 
L 142.797568 222.486539 
L 159.001672 227.299764 
L 148.836954 236.495852 
L 132.556638 231.351995 
z
" style="fill:#3f049c;"/>
    <path clip-path="url(#pf19b8e0832)" d="M 261.146518 240.671218 
L 270.533529 234.116766 
L 287.250742 237.957 
L 277.947772 244.666818 
L 261.146518 240.671218 
z
" style="fill:#0d0887;"/>
    <path clip-path="url(#pf19b8e0832)" d="M 186.436089 92.3221 
L 197.860897 160.834125 
L 214.417155 191.997161 
L 204.397159 173.224331 
L 186.436089 92.3221 
z
" style="fill:#f0f921;"/>
    <path clip-path="url(#pf19b8e0832)" d="M 175.348344 232.759997 
L 185.192295 218.201849 
L 201.687164 227.466469 
L 191.819336 238.502096 
L 175.348344 232.759997 
z
" style="fill:#44039e;"/>
    <path clip-path="url(#pf19b8e0832)" d="M 304.112247 241.830381 
L 313.192224 235.142527 
L 330.112229 238.991601 
L 321.119922 245.737339 
L 304.112247 241.830381 
z
" style="fill:#0d0887;"/>
    <path clip-path="url(#pf19b8e0832)" d="M 218.222955 233.881466 
L 227.927389 224.664984 
L 244.494216 232.51154 
L 234.86629 240.17254 
L 218.222955 233.881466 
z
" style="fill:#38049a;"/>
    <path clip-path="url(#pf19b8e0832)" d="M 148.836954 236.495852 
L 159.001672 227.299764 
L 175.348344 232.759997 
L 165.238084 241.579139 
L 148.836954 236.495852 
z
" style="fill:#370499;"/>
    <path clip-path="url(#pf19b8e0832)" d="M 191.819336 238.502096 
L 201.687164 227.466469 
L 218.222955 233.881466 
L 208.400598 243.753184 
L 191.819336 238.502096 
z
" style="fill:#350498;"/>
    <path clip-path="url(#pf19b8e0832)" d="M 234.86629 240.17254 
L 244.494216 232.51154 
L 261.146518 240.671218 
L 251.618843 246.984106 
L 234.86629 240.17254 
z
" style="fill:#220690;"/>
    <path clip-path="url(#pf19b8e0832)" d="M 277.947772 244.666818 
L 287.250742 237.957 
L 304.112247 241.830381 
L 294.895534 248.617611 
L 277.947772 244.666818 
z
" style="fill:#0d0887;"/>
    <path clip-path="url(#pf19b8e0832)" d="M 122.206293 240.845019 
L 132.556638 231.351995 
L 148.836954 236.495852 
L 138.525225 245.451174 
L 122.206293 240.845019 
z
" style="fill:#2f0596;"/>
    <path clip-path="url(#pf19b8e0832)" d="M 165.238084 241.579139 
L 175.348344 232.759997 
L 191.819336 238.502096 
L 181.771641 246.935392 
L 165.238084 241.579139 
z
" style="fill:#2e0595;"/>
    <path clip-path="url(#pf19b8e0832)" d="M 251.618843 246.984106 
L 261.146518 240.671218 
L 277.947772 244.666818 
L 268.505144 251.383851 
L 251.618843 246.984106 
z
" style="fill:#100788;"/>
    <path clip-path="url(#pf19b8e0832)" d="M 208.400598 243.753184 
L 218.222955 233.881466 
L 234.86629 240.17254 
L 225.101735 248.109726 
L 208.400598 243.753184 
z
" style="fill:#2a0593;"/>
    <path clip-path="url(#pf19b8e0832)" d="M 294.895534 248.617611 
L 304.112247 241.830381 
L 321.119922 245.737339 
L 311.991582 252.584913 
L 294.895534 248.617611 
z
" style="fill:#0d0887;"/>
    <path clip-path="url(#pf19b8e0832)" d="M 138.525225 245.451174 
L 148.836954 236.495852 
L 165.238084 241.579139 
L 154.960779 249.626719 
L 138.525225 245.451174 
z
" style="fill:#2a0593;"/>
    <path clip-path="url(#pf19b8e0832)" d="M 181.771641 246.935392 
L 191.819336 238.502096 
L 208.400598 243.753184 
L 198.416003 251.52927 
L 181.771641 246.935392 
z
" style="fill:#240691;"/>
    <path clip-path="url(#pf19b8e0832)" d="M 225.101735 248.109726 
L 234.86629 240.17254 
L 251.618843 246.984106 
L 241.942679 254.25739 
L 225.101735 248.109726 
z
" style="fill:#1d068e;"/>
    <path clip-path="url(#pf19b8e0832)" d="M 268.505144 251.383851 
L 277.947772 244.666818 
L 294.895534 248.617611 
L 285.539168 255.4949 
L 268.505144 251.383851 
z
" style="fill:#0d0887;"/>
    <path clip-path="url(#pf19b8e0832)" d="M 154.960779 249.626719 
L 165.238084 241.579139 
L 181.771641 246.935392 
L 171.551804 254.330318 
L 154.960779 249.626719 
z
" style="fill:#240691;"/>
    <path clip-path="url(#pf19b8e0832)" d="M 198.416003 251.52927 
L 208.400598 243.753184 
L 225.101735 248.109726 
L 215.195676 255.955392 
L 198.416003 251.52927 
z
" style="fill:#20068f;"/>
    <path clip-path="url(#pf19b8e0832)" d="M 241.942679 254.25739 
L 251.618843 246.984106 
L 268.505144 251.383851 
L 258.91623 258.417571 
L 241.942679 254.25739 
z
" style="fill:#0d0887;"/>
    <path clip-path="url(#pf19b8e0832)" d="M 285.539168 255.4949 
L 294.895534 248.617611 
L 311.991582 252.584913 
L 302.724085 259.537082 
L 285.539168 255.4949 
z
" style="fill:#0d0887;"/>
    <path clip-path="url(#pf19b8e0832)" d="M 171.551804 254.330318 
L 181.771641 246.935392 
L 198.416003 251.52927 
L 188.27726 258.984408 
L 171.551804 254.330318 
z
" style="fill:#1d068e;"/>
    <path clip-path="url(#pf19b8e0832)" d="M 215.195676 255.955392 
L 225.101735 248.109726 
L 241.942679 254.25739 
L 232.121059 261.393213 
L 215.195676 255.955392 
z
" style="fill:#16078a;"/>
    <path clip-path="url(#pf19b8e0832)" d="M 258.91623 258.417571 
L 268.505144 251.383851 
L 285.539168 255.4949 
L 276.039262 262.500678 
L 258.91623 258.417571 
z
" style="fill:#0d0887;"/>
    <path clip-path="url(#pf19b8e0832)" d="M 188.27726 258.984408 
L 198.416003 251.52927 
L 215.195676 255.955392 
L 205.139675 263.522002 
L 188.27726 258.984408 
z
" style="fill:#19068c;"/>
    <path clip-path="url(#pf19b8e0832)" d="M 232.121059 261.393213 
L 241.942679 254.25739 
L 258.91623 258.417571 
L 249.181298 265.469565 
L 232.121059 261.393213 
z
" style="fill:#0d0887;"/>
    <path clip-path="url(#pf19b8e0832)" d="M 276.039262 262.500678 
L 285.539168 255.4949 
L 302.724085 259.537082 
L 293.314281 266.593845 
L 276.039262 262.500678 
z
" style="fill:#0d0887;"/>
    <path clip-path="url(#pf19b8e0832)" d="M 205.139675 263.522002 
L 215.195676 255.955392 
L 232.121059 261.393213 
L 222.144562 268.003213 
L 205.139675 263.522002 
z
" style="fill:#130789;"/>
    <path clip-path="url(#pf19b8e0832)" d="M 249.181298 265.469565 
L 258.91623 258.417571 
L 276.039262 262.500678 
L 266.393093 269.608109 
L 249.181298 265.469565 
z
" style="fill:#0d0887;"/>
    <path clip-path="url(#pf19b8e0832)" d="M 222.144562 268.003213 
L 232.121059 261.393213 
L 249.181298 265.469565 
L 239.295813 272.46046 
L 222.144562 268.003213 
z
" style="fill:#0d0887;"/>
    <path clip-path="url(#pf19b8e0832)" d="M 266.393093 269.608109 
L 276.039262 262.500678 
L 293.314281 266.593845 
L 283.75875 273.762588 
L 266.393093 269.608109 
z
" style="fill:#0d0887;"/>
    <path clip-path="url(#pf19b8e0832)" d="M 239.295813 272.46046 
L 249.181298 265.469565 
L 266.393093 269.608109 
L 256.597188 276.817806 
L 239.295813 272.46046 
z
" style="fill:#0d0887;"/>
    <path clip-path="url(#pf19b8e0832)" d="M 256.597188 276.817806 
L 266.393093 269.608109 
L 283.75875 273.762588 
L 274.054137 281.044268 
L 256.597188 276.817806 
z
" style="fill:#0d0887;"/>
   </g>
  </g>
 </g>
 <defs>
  <clipPath id="pf19b8e0832">
   <rect height="266.112" width="357.12" x="57.6" y="41.472"/>
  </clipPath>
 </defs>
</svg>
