<?xml version="1.0" encoding="utf-8" standalone="no"?>
<!DOCTYPE svg PUBLIC "-//W3C//DTD SVG 1.1//EN"
  "http://www.w3.org/Graphics/SVG/1.1/DTD/svg11.dtd">
<!-- Created with matplotlib (http://matplotlib.org/) -->
<svg height="345pt" version="1.1" viewBox="0 0 460 345" width="460pt" xmlns="http://www.w3.org/2000/svg" xmlns:xlink="http://www.w3.org/1999/xlink">
 <defs>
  <style type="text/css">
*{stroke-linecap:butt;stroke-linejoin:round;}
  </style>
 </defs>
 <g id="figure_1">
  <g id="patch_1">
   <path d="M 0 345.6 
L 460.8 345.6 
L 460.8 0 
L 0 0 
z
" style="fill:#ffffff;"/>
  </g>
  <g id="patch_2">
   <path d="M 57.6 307.584 
L 414.72 307.584 
L 414.72 41.472 
L 57.6 41.472 
z
" style="fill:#ffffff;"/>
  </g>
  <g id="pane3d_1">
   <g id="patch_3">
    <path d="M 104.941774 248.782626 
L 207.151387 183.537994 
L 205.449705 58.866209 
L 97.541237 117.48717 
" style="fill:#f2f2f2;opacity:0.5;stroke:#f2f2f2;stroke-linejoin:miter;"/>
   </g>
  </g>
  <g id="pane3d_2">
   <g id="patch_4">
    <path d="M 207.151387 183.537994 
L 372.72135 220.013954 
L 379.648599 91.582742 
L 205.449705 58.866209 
" style="fill:#e6e6e6;opacity:0.5;stroke:#e6e6e6;stroke-linejoin:miter;"/>
   </g>
  </g>
  <g id="pane3d_3">
   <g id="patch_5">
    <path d="M 104.941774 248.782626 
L 279.143747 291.264825 
L 372.72135 220.013954 
L 207.151387 183.537994 
" style="fill:#ececec;opacity:0.5;stroke:#ececec;stroke-linejoin:miter;"/>
   </g>
  </g>
  <g id="axis3d_1">
   <g id="line2d_1">
    <path d="M 104.941774 248.782626 
L 279.143747 291.264825 
" style="fill:none;stroke:#000000;stroke-linecap:square;stroke-width:0.8;"/>
   </g>
   <g id="Line3DCollection_1">
    <path d="M 115.562252 251.372616 
L 217.277438 185.768818 
L 216.081723 60.863023 
" style="fill:none;stroke:#b0b0b0;stroke-width:0.8;"/>
    <path d="M 148.306252 259.357813 
L 248.470984 192.640925 
L 248.851709 67.017599 
" style="fill:none;stroke:#b0b0b0;stroke-width:0.8;"/>
    <path d="M 181.629397 267.484245 
L 280.175868 199.625682 
L 282.186433 73.278239 
" style="fill:none;stroke:#b0b0b0;stroke-width:0.8;"/>
    <path d="M 215.547191 275.755692 
L 312.404765 206.725883 
L 316.10062 79.647709 
" style="fill:none;stroke:#b0b0b0;stroke-width:0.8;"/>
    <path d="M 250.075693 284.176071 
L 345.170776 213.944413 
L 350.609512 86.128871 
" style="fill:none;stroke:#b0b0b0;stroke-width:0.8;"/>
   </g>
   <g id="xtick_1">
    <g id="line2d_2">
     <path d="M 116.438581 250.807405 
L 113.806326 252.505145 
" style="fill:none;stroke:#000000;stroke-linecap:square;stroke-width:0.8;"/>
    </g>
    <g id="text_1">
     <!-- 0 -->
     <defs>
      <path d="M 31.78125 66.40625 
Q 24.171875 66.40625 20.328125 58.90625 
Q 16.5 51.421875 16.5 36.375 
Q 16.5 21.390625 20.328125 13.890625 
Q 24.171875 6.390625 31.78125 6.390625 
Q 39.453125 6.390625 43.28125 13.890625 
Q 47.125 21.390625 47.125 36.375 
Q 47.125 51.421875 43.28125 58.90625 
Q 39.453125 66.40625 31.78125 66.40625 
z
M 31.78125 74.21875 
Q 44.046875 74.21875 50.515625 64.515625 
Q 56.984375 54.828125 56.984375 36.375 
Q 56.984375 17.96875 50.515625 8.265625 
Q 44.046875 -1.421875 31.78125 -1.421875 
Q 19.53125 -1.421875 13.0625 8.265625 
Q 6.59375 17.96875 6.59375 36.375 
Q 6.59375 54.828125 13.0625 64.515625 
Q 19.53125 74.21875 31.78125 74.21875 
z
" id="DejaVuSans-30"/>
     </defs>
     <g transform="translate(105.060879 272.84452)scale(0.1 -0.1)">
      <use xlink:href="#DejaVuSans-30"/>
     </g>
    </g>
   </g>
   <g id="xtick_2">
    <g id="line2d_3">
     <path d="M 149.169762 258.782653 
L 146.575981 260.510297 
" style="fill:none;stroke:#000000;stroke-linecap:square;stroke-width:0.8;"/>
    </g>
    <g id="text_2">
     <!-- 2 -->
     <defs>
      <path d="M 19.1875 8.296875 
L 53.609375 8.296875 
L 53.609375 0 
L 7.328125 0 
L 7.328125 8.296875 
Q 12.9375 14.109375 22.625 23.890625 
Q 32.328125 33.6875 34.8125 36.53125 
Q 39.546875 41.84375 41.421875 45.53125 
Q 43.3125 49.21875 43.3125 52.78125 
Q 43.3125 58.59375 39.234375 62.25 
Q 35.15625 65.921875 28.609375 65.921875 
Q 23.96875 65.921875 18.8125 64.3125 
Q 13.671875 62.703125 7.8125 59.421875 
L 7.8125 69.390625 
Q 13.765625 71.78125 18.9375 73 
Q 24.125 74.21875 28.421875 74.21875 
Q 39.75 74.21875 46.484375 68.546875 
Q 53.21875 62.890625 53.21875 53.421875 
Q 53.21875 48.921875 51.53125 44.890625 
Q 49.859375 40.875 45.40625 35.40625 
Q 44.1875 33.984375 37.640625 27.21875 
Q 31.109375 20.453125 19.1875 8.296875 
z
" id="DejaVuSans-32"/>
     </defs>
     <g transform="translate(137.80125 280.96635)scale(0.1 -0.1)">
      <use xlink:href="#DejaVuSans-32"/>
     </g>
    </g>
   </g>
   <g id="xtick_3">
    <g id="line2d_4">
     <path d="M 182.479498 266.89887 
L 179.925969 268.657216 
" style="fill:none;stroke:#000000;stroke-linecap:square;stroke-width:0.8;"/>
    </g>
    <g id="text_3">
     <!-- 4 -->
     <defs>
      <path d="M 37.796875 64.3125 
L 12.890625 25.390625 
L 37.796875 25.390625 
z
M 35.203125 72.90625 
L 47.609375 72.90625 
L 47.609375 25.390625 
L 58.015625 25.390625 
L 58.015625 17.1875 
L 47.609375 17.1875 
L 47.609375 0 
L 37.796875 0 
L 37.796875 17.1875 
L 4.890625 17.1875 
L 4.890625 26.703125 
z
" id="DejaVuSans-34"/>
     </defs>
     <g transform="translate(171.121785 289.232101)scale(0.1 -0.1)">
      <use xlink:href="#DejaVuSans-34"/>
     </g>
    </g>
   </g>
   <g id="xtick_4">
    <g id="line2d_5">
     <path d="M 216.383263 275.159828 
L 213.871843 276.949702 
" style="fill:none;stroke:#000000;stroke-linecap:square;stroke-width:0.8;"/>
    </g>
    <g id="text_4">
     <!-- 6 -->
     <defs>
      <path d="M 33.015625 40.375 
Q 26.375 40.375 22.484375 35.828125 
Q 18.609375 31.296875 18.609375 23.390625 
Q 18.609375 15.53125 22.484375 10.953125 
Q 26.375 6.390625 33.015625 6.390625 
Q 39.65625 6.390625 43.53125 10.953125 
Q 47.40625 15.53125 47.40625 23.390625 
Q 47.40625 31.296875 43.53125 35.828125 
Q 39.65625 40.375 33.015625 40.375 
z
M 52.59375 71.296875 
L 52.59375 62.3125 
Q 48.875 64.0625 45.09375 64.984375 
Q 41.3125 65.921875 37.59375 65.921875 
Q 27.828125 65.921875 22.671875 59.328125 
Q 17.53125 52.734375 16.796875 39.40625 
Q 19.671875 43.65625 24.015625 45.921875 
Q 28.375 48.1875 33.59375 48.1875 
Q 44.578125 48.1875 50.953125 41.515625 
Q 57.328125 34.859375 57.328125 23.390625 
Q 57.328125 12.15625 50.6875 5.359375 
Q 44.046875 -1.421875 33.015625 -1.421875 
Q 20.359375 -1.421875 13.671875 8.265625 
Q 6.984375 17.96875 6.984375 36.375 
Q 6.984375 53.65625 15.1875 63.9375 
Q 23.390625 74.21875 37.203125 74.21875 
Q 40.921875 74.21875 44.703125 73.484375 
Q 48.484375 72.75 52.59375 71.296875 
z
" id="DejaVuSans-36"/>
     </defs>
     <g transform="translate(205.038042 297.64563)scale(0.1 -0.1)">
      <use xlink:href="#DejaVuSans-36"/>
     </g>
    </g>
   </g>
   <g id="xtick_5">
    <g id="line2d_6">
     <path d="M 250.897092 283.569434 
L 248.429719 285.391691 
" style="fill:none;stroke:#000000;stroke-linecap:square;stroke-width:0.8;"/>
    </g>
    <g id="text_5">
     <!-- 8 -->
     <defs>
      <path d="M 31.78125 34.625 
Q 24.75 34.625 20.71875 30.859375 
Q 16.703125 27.09375 16.703125 20.515625 
Q 16.703125 13.921875 20.71875 10.15625 
Q 24.75 6.390625 31.78125 6.390625 
Q 38.8125 6.390625 42.859375 10.171875 
Q 46.921875 13.96875 46.921875 20.515625 
Q 46.921875 27.09375 42.890625 30.859375 
Q 38.875 34.625 31.78125 34.625 
z
M 21.921875 38.8125 
Q 15.578125 40.375 12.03125 44.71875 
Q 8.5 49.078125 8.5 55.328125 
Q 8.5 64.0625 14.71875 69.140625 
Q 20.953125 74.21875 31.78125 74.21875 
Q 42.671875 74.21875 48.875 69.140625 
Q 55.078125 64.0625 55.078125 55.328125 
Q 55.078125 49.078125 51.53125 44.71875 
Q 48 40.375 41.703125 38.8125 
Q 48.828125 37.15625 52.796875 32.3125 
Q 56.78125 27.484375 56.78125 20.515625 
Q 56.78125 9.90625 50.3125 4.234375 
Q 43.84375 -1.421875 31.78125 -1.421875 
Q 19.734375 -1.421875 13.25 4.234375 
Q 6.78125 9.90625 6.78125 20.515625 
Q 6.78125 27.484375 10.78125 32.3125 
Q 14.796875 37.15625 21.921875 38.8125 
z
M 18.3125 54.390625 
Q 18.3125 48.734375 21.84375 45.5625 
Q 25.390625 42.390625 31.78125 42.390625 
Q 38.140625 42.390625 41.71875 45.5625 
Q 45.3125 48.734375 45.3125 54.390625 
Q 45.3125 60.0625 41.71875 63.234375 
Q 38.140625 66.40625 31.78125 66.40625 
Q 25.390625 66.40625 21.84375 63.234375 
Q 18.3125 60.0625 18.3125 54.390625 
z
" id="DejaVuSans-38"/>
     </defs>
     <g transform="translate(239.566142 306.210938)scale(0.1 -0.1)">
      <use xlink:href="#DejaVuSans-38"/>
     </g>
    </g>
   </g>
  </g>
  <g id="axis3d_2">
   <g id="line2d_7">
    <path d="M 372.72135 220.013954 
L 279.143747 291.264825 
" style="fill:none;stroke:#000000;stroke-linecap:square;stroke-width:0.8;"/>
   </g>
   <g id="Line3DCollection_2">
    <path d="M 104.930092 113.473196 
L 111.915028 244.331309 
L 285.548062 286.38852 
" style="fill:none;stroke:#b0b0b0;stroke-width:0.8;"/>
    <path d="M 126.984969 101.491948 
L 132.751513 231.030517 
L 304.667047 271.831144 
" style="fill:none;stroke:#b0b0b0;stroke-width:0.8;"/>
    <path d="M 148.366618 89.876429 
L 152.983668 218.115494 
L 323.206496 257.715032 
" style="fill:none;stroke:#b0b0b0;stroke-width:0.8;"/>
    <path d="M 169.105401 78.610146 
L 172.637407 205.569698 
L 341.192365 244.020421 
" style="fill:none;stroke:#b0b0b0;stroke-width:0.8;"/>
    <path d="M 189.229881 67.677581 
L 191.737187 193.377517 
L 358.649085 230.728709 
" style="fill:none;stroke:#b0b0b0;stroke-width:0.8;"/>
   </g>
   <g id="xtick_6">
    <g id="line2d_8">
     <path d="M 284.094906 286.036538 
L 288.457621 287.09327 
" style="fill:none;stroke:#000000;stroke-linecap:square;stroke-width:0.8;"/>
    </g>
    <g id="text_6">
     <!-- 0 -->
     <g transform="translate(295.066159 306.144728)scale(0.1 -0.1)">
      <use xlink:href="#DejaVuSans-30"/>
     </g>
    </g>
   </g>
   <g id="xtick_7">
    <g id="line2d_9">
     <path d="M 303.229241 271.48991 
L 307.545822 272.514362 
" style="fill:none;stroke:#000000;stroke-linecap:square;stroke-width:0.8;"/>
    </g>
    <g id="text_7">
     <!-- 2 -->
     <g transform="translate(313.980212 291.407653)scale(0.1 -0.1)">
      <use xlink:href="#DejaVuSans-32"/>
     </g>
    </g>
   </g>
   <g id="xtick_8">
    <g id="line2d_10">
     <path d="M 321.783784 257.384061 
L 326.055002 258.37769 
" style="fill:none;stroke:#000000;stroke-linecap:square;stroke-width:0.8;"/>
    </g>
    <g id="text_8">
     <!-- 4 -->
     <g transform="translate(332.321224 277.117069)scale(0.1 -0.1)">
      <use xlink:href="#DejaVuSans-34"/>
     </g>
    </g>
   </g>
   <g id="xtick_9">
    <g id="line2d_11">
     <path d="M 339.784494 243.699257 
L 344.011113 244.663433 
" style="fill:none;stroke:#000000;stroke-linecap:square;stroke-width:0.8;"/>
    </g>
    <g id="text_9">
     <!-- 6 -->
     <g transform="translate(350.114849 263.252987)scale(0.1 -0.1)">
      <use xlink:href="#DejaVuSans-36"/>
     </g>
    </g>
   </g>
   <g id="xtick_10">
    <g id="line2d_12">
     <path d="M 357.255803 230.416924 
L 361.438579 231.352936 
" style="fill:none;stroke:#000000;stroke-linecap:square;stroke-width:0.8;"/>
    </g>
    <g id="text_10">
     <!-- 8 -->
     <g transform="translate(367.385231 249.796595)scale(0.1 -0.1)">
      <use xlink:href="#DejaVuSans-38"/>
     </g>
    </g>
   </g>
  </g>
  <g id="axis3d_3">
   <g id="line2d_13">
    <path d="M 372.72135 220.013954 
L 379.648599 91.582742 
" style="fill:none;stroke:#000000;stroke-linecap:square;stroke-width:0.8;"/>
   </g>
   <g id="Line3DCollection_3">
    <path d="M 372.957312 215.639215 
L 207.093301 179.282367 
L 104.69011 244.317753 
" style="fill:none;stroke:#b0b0b0;stroke-width:0.8;"/>
    <path d="M 373.735006 201.220759 
L 206.901918 165.260961 
L 103.860453 229.598525 
" style="fill:none;stroke:#b0b0b0;stroke-width:0.8;"/>
    <path d="M 374.521921 186.631362 
L 206.708362 151.080306 
L 103.020633 214.699002 
" style="fill:none;stroke:#b0b0b0;stroke-width:0.8;"/>
    <path d="M 375.31822 171.867967 
L 206.512596 136.737673 
L 102.170463 199.615852 
" style="fill:none;stroke:#b0b0b0;stroke-width:0.8;"/>
    <path d="M 376.124074 156.927442 
L 206.31458 122.230271 
L 101.309751 184.345658 
" style="fill:none;stroke:#b0b0b0;stroke-width:0.8;"/>
    <path d="M 376.939654 141.80658 
L 206.114276 107.555244 
L 100.438298 168.88492 
" style="fill:none;stroke:#b0b0b0;stroke-width:0.8;"/>
    <path d="M 377.765139 126.502096 
L 205.911645 92.709671 
L 99.555903 153.230048 
" style="fill:none;stroke:#b0b0b0;stroke-width:0.8;"/>
    <path d="M 378.600709 111.010626 
L 205.706644 77.690561 
L 98.662358 137.377364 
" style="fill:none;stroke:#b0b0b0;stroke-width:0.8;"/>
    <path d="M 379.44655 95.32872 
L 205.499234 62.494853 
L 97.757451 121.323095 
" style="fill:none;stroke:#b0b0b0;stroke-width:0.8;"/>
   </g>
   <g id="xtick_11">
    <g id="line2d_14">
     <path d="M 371.573369 215.335859 
L 375.72808 216.246558 
" style="fill:none;stroke:#000000;stroke-linecap:square;stroke-width:0.8;"/>
    </g>
    <g id="text_11">
     <!-- −0.15 -->
     <defs>
      <path d="M 10.59375 35.5 
L 73.1875 35.5 
L 73.1875 27.203125 
L 10.59375 27.203125 
z
" id="DejaVuSans-2212"/>
      <path d="M 10.6875 12.40625 
L 21 12.40625 
L 21 0 
L 10.6875 0 
z
" id="DejaVuSans-2e"/>
      <path d="M 12.40625 8.296875 
L 28.515625 8.296875 
L 28.515625 63.921875 
L 10.984375 60.40625 
L 10.984375 69.390625 
L 28.421875 72.90625 
L 38.28125 72.90625 
L 38.28125 8.296875 
L 54.390625 8.296875 
L 54.390625 0 
L 12.40625 0 
z
" id="DejaVuSans-31"/>
      <path d="M 10.796875 72.90625 
L 49.515625 72.90625 
L 49.515625 64.59375 
L 19.828125 64.59375 
L 19.828125 46.734375 
Q 21.96875 47.46875 24.109375 47.828125 
Q 26.265625 48.1875 28.421875 48.1875 
Q 40.625 48.1875 47.75 41.5 
Q 54.890625 34.8125 54.890625 23.390625 
Q 54.890625 11.625 47.5625 5.09375 
Q 40.234375 -1.421875 26.90625 -1.421875 
Q 22.3125 -1.421875 17.546875 -0.640625 
Q 12.796875 0.140625 7.71875 1.703125 
L 7.71875 11.625 
Q 12.109375 9.234375 16.796875 8.0625 
Q 21.484375 6.890625 26.703125 6.890625 
Q 35.15625 6.890625 40.078125 11.328125 
Q 45.015625 15.765625 45.015625 23.390625 
Q 45.015625 31 40.078125 35.4375 
Q 35.15625 39.890625 26.703125 39.890625 
Q 22.75 39.890625 18.8125 39.015625 
Q 14.890625 38.140625 10.796875 36.28125 
z
" id="DejaVuSans-35"/>
     </defs>
     <g transform="translate(375.998718 221.274481)scale(0.1 -0.1)">
      <use xlink:href="#DejaVuSans-2212"/>
      <use x="83.789062" xlink:href="#DejaVuSans-30"/>
      <use x="147.412109" xlink:href="#DejaVuSans-2e"/>
      <use x="179.199219" xlink:href="#DejaVuSans-31"/>
      <use x="242.822266" xlink:href="#DejaVuSans-35"/>
     </g>
    </g>
   </g>
   <g id="xtick_12">
    <g id="line2d_15">
     <path d="M 372.342639 200.920643 
L 376.522656 201.821619 
" style="fill:none;stroke:#000000;stroke-linecap:square;stroke-width:0.8;"/>
    </g>
    <g id="text_12">
     <!-- −0.10 -->
     <g transform="translate(376.882631 206.877015)scale(0.1 -0.1)">
      <use xlink:href="#DejaVuSans-2212"/>
      <use x="83.789062" xlink:href="#DejaVuSans-30"/>
      <use x="147.412109" xlink:href="#DejaVuSans-2e"/>
      <use x="179.199219" xlink:href="#DejaVuSans-31"/>
      <use x="242.822266" xlink:href="#DejaVuSans-30"/>
     </g>
    </g>
   </g>
   <g id="xtick_13">
    <g id="line2d_16">
     <path d="M 373.121027 186.334585 
L 377.326659 187.225542 
" style="fill:none;stroke:#000000;stroke-linecap:square;stroke-width:0.8;"/>
    </g>
    <g id="text_13">
     <!-- −0.05 -->
     <g transform="translate(377.776999 192.309244)scale(0.1 -0.1)">
      <use xlink:href="#DejaVuSans-2212"/>
      <use x="83.789062" xlink:href="#DejaVuSans-30"/>
      <use x="147.412109" xlink:href="#DejaVuSans-2e"/>
      <use x="179.199219" xlink:href="#DejaVuSans-30"/>
      <use x="242.822266" xlink:href="#DejaVuSans-35"/>
     </g>
    </g>
   </g>
   <g id="xtick_14">
    <g id="line2d_17">
     <path d="M 373.908695 171.574629 
L 378.140258 172.455264 
" style="fill:none;stroke:#000000;stroke-linecap:square;stroke-width:0.8;"/>
    </g>
    <g id="text_14">
     <!-- 0.00 -->
     <g transform="translate(382.871854 177.56813)scale(0.1 -0.1)">
      <use xlink:href="#DejaVuSans-30"/>
      <use x="63.623047" xlink:href="#DejaVuSans-2e"/>
      <use x="95.410156" xlink:href="#DejaVuSans-30"/>
      <use x="159.033203" xlink:href="#DejaVuSans-30"/>
     </g>
    </g>
   </g>
   <g id="xtick_15">
    <g id="line2d_18">
     <path d="M 374.705809 156.637648 
L 378.963626 157.507648 
" style="fill:none;stroke:#000000;stroke-linecap:square;stroke-width:0.8;"/>
    </g>
    <g id="text_15">
     <!-- 0.05 -->
     <g transform="translate(383.787698 162.65056)scale(0.1 -0.1)">
      <use xlink:href="#DejaVuSans-30"/>
      <use x="63.623047" xlink:href="#DejaVuSans-2e"/>
      <use x="95.410156" xlink:href="#DejaVuSans-30"/>
      <use x="159.033203" xlink:href="#DejaVuSans-35"/>
     </g>
    </g>
   </g>
   <g id="xtick_16">
    <g id="line2d_19">
     <path d="M 375.512542 141.520437 
L 379.796939 142.37948 
" style="fill:none;stroke:#000000;stroke-linecap:square;stroke-width:0.8;"/>
    </g>
    <g id="text_16">
     <!-- 0.10 -->
     <g transform="translate(384.714572 147.553345)scale(0.1 -0.1)">
      <use xlink:href="#DejaVuSans-30"/>
      <use x="63.623047" xlink:href="#DejaVuSans-2e"/>
      <use x="95.410156" xlink:href="#DejaVuSans-31"/>
      <use x="159.033203" xlink:href="#DejaVuSans-30"/>
     </g>
    </g>
   </g>
   <g id="xtick_17">
    <g id="line2d_20">
     <path d="M 376.329068 126.219715 
L 380.640378 127.067469 
" style="fill:none;stroke:#000000;stroke-linecap:square;stroke-width:0.8;"/>
    </g>
    <g id="text_17">
     <!-- 0.15 -->
     <g transform="translate(385.652674 132.273222)scale(0.1 -0.1)">
      <use xlink:href="#DejaVuSans-30"/>
      <use x="63.623047" xlink:href="#DejaVuSans-2e"/>
      <use x="95.410156" xlink:href="#DejaVuSans-31"/>
      <use x="159.033203" xlink:href="#DejaVuSans-35"/>
     </g>
    </g>
   </g>
   <g id="xtick_18">
    <g id="line2d_21">
     <path d="M 377.155566 110.732118 
L 381.49413 111.568245 
" style="fill:none;stroke:#000000;stroke-linecap:square;stroke-width:0.8;"/>
    </g>
    <g id="text_18">
     <!-- 0.20 -->
     <g transform="translate(386.602212 116.806847)scale(0.1 -0.1)">
      <use xlink:href="#DejaVuSans-30"/>
      <use x="63.623047" xlink:href="#DejaVuSans-2e"/>
      <use x="95.410156" xlink:href="#DejaVuSans-32"/>
      <use x="159.033203" xlink:href="#DejaVuSans-30"/>
     </g>
    </g>
   </g>
   <g id="xtick_19">
    <g id="line2d_22">
     <path d="M 377.992221 95.054204 
L 382.358385 95.878351 
" style="fill:none;stroke:#000000;stroke-linecap:square;stroke-width:0.8;"/>
    </g>
    <g id="text_19">
     <!-- 0.25 -->
     <g transform="translate(387.563394 101.150792)scale(0.1 -0.1)">
      <use xlink:href="#DejaVuSans-30"/>
      <use x="63.623047" xlink:href="#DejaVuSans-2e"/>
      <use x="95.410156" xlink:href="#DejaVuSans-32"/>
      <use x="159.033203" xlink:href="#DejaVuSans-35"/>
     </g>
    </g>
   </g>
  </g>
  <g id="axes_1">
   <g id="Poly3DCollection_1">
    <path clip-path="url(#pf53ff11045)" d="M 265.574289 185.515036 
L 274.673558 178.802561 
L 290.595987 199.271198 
L 281.580393 209.260181 
L 265.574289 185.515036 
z
" style="fill:#41049d;"/>
    <path clip-path="url(#pf53ff11045)" d="M 249.41864 167.706573 
L 258.621055 164.430878 
L 274.673558 178.802561 
L 265.574289 185.515036 
L 249.41864 167.706573 
z
" style="fill:#7e03a8;"/>
    <path clip-path="url(#pf53ff11045)" d="M 256.29539 200.578954 
L 265.574289 185.515036 
L 281.580393 209.260181 
L 272.49233 216.981475 
L 256.29539 200.578954 
z
" style="fill:#2c0594;"/>
    <path clip-path="url(#pf53ff11045)" d="M 281.580393 209.260181 
L 290.595987 199.271198 
L 307.950056 163.001693 
L 298.848429 173.049703 
L 281.580393 209.260181 
z
" style="fill:#5302a3;"/>
    <path clip-path="url(#pf53ff11045)" d="M 233.168223 135.573489 
L 242.570644 135.313826 
L 258.621055 164.430878 
L 249.41864 167.706573 
L 233.168223 135.573489 
z
" style="fill:#c33d80;"/>
    <path clip-path="url(#pf53ff11045)" d="M 240.064552 179.949653 
L 249.41864 167.706573 
L 265.574289 185.515036 
L 256.29539 200.578954 
L 240.064552 179.949653 
z
" style="fill:#6f00a8;"/>
    <path clip-path="url(#pf53ff11045)" d="M 216.840896 119.881605 
L 226.344135 109.434658 
L 242.570644 135.313826 
L 233.168223 135.573489 
L 216.840896 119.881605 
z
" style="fill:#ec7754;"/>
    <path clip-path="url(#pf53ff11045)" d="M 200.514015 105.543432 
L 210.090555 93.836616 
L 226.344135 109.434658 
L 216.840896 119.881605 
L 200.514015 105.543432 
z
" style="fill:#fca636;"/>
    <path clip-path="url(#pf53ff11045)" d="M 223.710307 154.015252 
L 233.168223 135.573489 
L 249.41864 167.706573 
L 240.064552 179.949653 
L 223.710307 154.015252 
z
" style="fill:#b6308b;"/>
    <path clip-path="url(#pf53ff11045)" d="M 246.974902 204.671484 
L 256.29539 200.578954 
L 272.49233 216.981475 
L 263.299214 222.884893 
L 246.974902 204.671484 
z
" style="fill:#260591;"/>
    <path clip-path="url(#pf53ff11045)" d="M 272.49233 216.981475 
L 281.580393 209.260181 
L 298.848429 173.049703 
L 289.783922 175.931306 
L 272.49233 216.981475 
z
" style="fill:#4c02a1;"/>
    <path clip-path="url(#pf53ff11045)" d="M 230.588205 184.739456 
L 240.064552 179.949653 
L 256.29539 200.578954 
L 246.974902 204.671484 
L 230.588205 184.739456 
z
" style="fill:#6700a8;"/>
    <path clip-path="url(#pf53ff11045)" d="M 207.252444 131.843785 
L 216.840896 119.881605 
L 233.168223 135.573489 
L 223.710307 154.015252 
L 207.252444 131.843785 
z
" style="fill:#e4695e;"/>
    <path clip-path="url(#pf53ff11045)" d="M 190.657202 107.941 
L 200.514015 105.543432 
L 216.840896 119.881605 
L 207.252444 131.843785 
L 190.657202 107.941 
z
" style="fill:#fa9e3b;"/>
    <path clip-path="url(#pf53ff11045)" d="M 214.057782 158.582366 
L 223.710307 154.015252 
L 240.064552 179.949653 
L 230.588205 184.739456 
L 214.057782 158.582366 
z
" style="fill:#ae2892;"/>
    <path clip-path="url(#pf53ff11045)" d="M 298.848429 173.049703 
L 307.950056 163.001693 
L 324.332765 175.798659 
L 315.487844 180.374687 
L 298.848429 173.049703 
z
" style="fill:#a21d9a;"/>
    <path clip-path="url(#pf53ff11045)" d="M 237.507409 214.410707 
L 246.974902 204.671484 
L 263.299214 222.884893 
L 253.960715 229.943769 
L 237.507409 214.410707 
z
" style="fill:#220690;"/>
    <path clip-path="url(#pf53ff11045)" d="M 263.299214 222.884893 
L 272.49233 216.981475 
L 289.783922 175.931306 
L 280.420839 187.538015 
L 263.299214 222.884893 
z
" style="fill:#4b03a1;"/>
    <path clip-path="url(#pf53ff11045)" d="M 315.487844 180.374687 
L 324.332765 175.798659 
L 341.109361 179.253058 
L 332.33959 184.473382 
L 315.487844 180.374687 
z
" style="fill:#9613a1;"/>
    <path clip-path="url(#pf53ff11045)" d="M 220.946888 187.910261 
L 230.588205 184.739456 
L 246.974902 204.671484 
L 237.507409 214.410707 
L 220.946888 187.910261 
z
" style="fill:#6c00a8;"/>
    <path clip-path="url(#pf53ff11045)" d="M 197.400311 134.116912 
L 207.252444 131.843785 
L 223.710307 154.015252 
L 214.057782 158.582366 
L 197.400311 134.116912 
z
" style="fill:#e06363;"/>
    <path clip-path="url(#pf53ff11045)" d="M 180.764941 116.162626 
L 190.657202 107.941 
L 207.252444 131.843785 
L 197.400311 134.116912 
L 180.764941 116.162626 
z
" style="fill:#fa9b3d;"/>
    <path clip-path="url(#pf53ff11045)" d="M 253.960715 229.943769 
L 263.299214 222.884893 
L 280.420839 187.538015 
L 270.936695 200.983948 
L 253.960715 229.943769 
z
" style="fill:#3f049c;"/>
    <path clip-path="url(#pf53ff11045)" d="M 332.33959 184.473382 
L 341.109361 179.253058 
L 358.354769 175.869448 
L 349.327026 188.664072 
L 332.33959 184.473382 
z
" style="fill:#9a169f;"/>
    <path clip-path="url(#pf53ff11045)" d="M 289.783922 175.931306 
L 298.848429 173.049703 
L 315.487844 180.374687 
L 306.534469 183.706253 
L 289.783922 175.931306 
z
" style="fill:#a62098;"/>
    <path clip-path="url(#pf53ff11045)" d="M 227.882857 216.351861 
L 237.507409 214.410707 
L 253.960715 229.943769 
L 244.495262 231.787102 
L 227.882857 216.351861 
z
" style="fill:#2c0594;"/>
    <path clip-path="url(#pf53ff11045)" d="M 204.079375 151.605276 
L 214.057782 158.582366 
L 230.588205 184.739456 
L 220.946888 187.910261 
L 204.079375 151.605276 
z
" style="fill:#c03a83;"/>
    <path clip-path="url(#pf53ff11045)" d="M 306.534469 183.706253 
L 315.487844 180.374687 
L 332.33959 184.473382 
L 323.482872 188.23289 
L 306.534469 183.706253 
z
" style="fill:#9e199d;"/>
    <path clip-path="url(#pf53ff11045)" d="M 211.109624 188.877555 
L 220.946888 187.910261 
L 237.507409 214.410707 
L 227.882857 216.351861 
L 211.109624 188.877555 
z
" style="fill:#7801a8;"/>
    <path clip-path="url(#pf53ff11045)" d="M 187.398224 137.652211 
L 197.400311 134.116912 
L 214.057782 158.582366 
L 204.079375 151.605276 
L 187.398224 137.652211 
z
" style="fill:#e97158;"/>
    <path clip-path="url(#pf53ff11045)" d="M 170.700992 122.928199 
L 180.764941 116.162626 
L 197.400311 134.116912 
L 187.398224 137.652211 
L 170.700992 122.928199 
z
" style="fill:#fa9c3c;"/>
    <path clip-path="url(#pf53ff11045)" d="M 244.495262 231.787102 
L 253.960715 229.943769 
L 270.936695 200.983948 
L 261.318067 220.064558 
L 244.495262 231.787102 
z
" style="fill:#370499;"/>
    <path clip-path="url(#pf53ff11045)" d="M 323.482872 188.23289 
L 332.33959 184.473382 
L 349.327026 188.664072 
L 340.515111 194.064473 
L 323.482872 188.23289 
z
" style="fill:#9a169f;"/>
    <path clip-path="url(#pf53ff11045)" d="M 280.420839 187.538015 
L 289.783922 175.931306 
L 306.534469 183.706253 
L 297.483874 184.516285 
L 280.420839 187.538015 
z
" style="fill:#a72197;"/>
    <path clip-path="url(#pf53ff11045)" d="M 218.121726 223.081715 
L 227.882857 216.351861 
L 244.495262 231.787102 
L 234.868481 241.039612 
L 218.121726 223.081715 
z
" style="fill:#310597;"/>
    <path clip-path="url(#pf53ff11045)" d="M 194.166026 161.657337 
L 204.079375 151.605276 
L 220.946888 187.910261 
L 211.109624 188.877555 
L 194.166026 161.657337 
z
" style="fill:#c6417d;"/>
    <path clip-path="url(#pf53ff11045)" d="M 201.325389 205.051144 
L 211.109624 188.877555 
L 227.882857 216.351861 
L 218.121726 223.081715 
L 201.325389 205.051144 
z
" style="fill:#7100a8;"/>
    <path clip-path="url(#pf53ff11045)" d="M 234.868481 241.039612 
L 244.495262 231.787102 
L 261.318067 220.064558 
L 251.70239 228.005289 
L 234.868481 241.039612 
z
" style="fill:#2a0593;"/>
    <path clip-path="url(#pf53ff11045)" d="M 297.483874 184.516285 
L 306.534469 183.706253 
L 323.482872 188.23289 
L 314.527584 190.2538 
L 297.483874 184.516285 
z
" style="fill:#ab2494;"/>
    <path clip-path="url(#pf53ff11045)" d="M 177.37765 147.247945 
L 187.398224 137.652211 
L 204.079375 151.605276 
L 194.166026 161.657337 
L 177.37765 147.247945 
z
" style="fill:#ea7457;"/>
    <path clip-path="url(#pf53ff11045)" d="M 160.538991 131.241426 
L 170.700992 122.928199 
L 187.398224 137.652211 
L 177.37765 147.247945 
L 160.538991 131.241426 
z
" style="fill:#f9983e;"/>
    <path clip-path="url(#pf53ff11045)" d="M 208.28749 235.357774 
L 218.121726 223.081715 
L 234.868481 241.039612 
L 225.113834 249.94868 
L 208.28749 235.357774 
z
" style="fill:#220690;"/>
    <path clip-path="url(#pf53ff11045)" d="M 270.936695 200.983948 
L 280.420839 187.538015 
L 297.483874 184.516285 
L 288.435553 175.868897 
L 270.936695 200.983948 
z
" style="fill:#a72197;"/>
    <path clip-path="url(#pf53ff11045)" d="M 314.527584 190.2538 
L 323.482872 188.23289 
L 340.515111 194.064473 
L 331.590025 198.809442 
L 314.527584 190.2538 
z
" style="fill:#a31e9a;"/>
    <path clip-path="url(#pf53ff11045)" d="M 184.152061 172.631708 
L 194.166026 161.657337 
L 211.109624 188.877555 
L 201.325389 205.051144 
L 184.152061 172.631708 
z
" style="fill:#be3885;"/>
    <path clip-path="url(#pf53ff11045)" d="M 191.22359 209.13214 
L 201.325389 205.051144 
L 218.121726 223.081715 
L 208.28749 235.357774 
L 191.22359 209.13214 
z
" style="fill:#6900a8;"/>
    <path clip-path="url(#pf53ff11045)" d="M 225.113834 249.94868 
L 234.868481 241.039612 
L 251.70239 228.005289 
L 241.950606 234.305188 
L 225.113834 249.94868 
z
" style="fill:#220690;"/>
    <path clip-path="url(#pf53ff11045)" d="M 167.068503 151.343699 
L 177.37765 147.247945 
L 194.166026 161.657337 
L 184.152061 172.631708 
L 167.068503 151.343699 
z
" style="fill:#e76f5a;"/>
    <path clip-path="url(#pf53ff11045)" d="M 150.268197 140.385934 
L 160.538991 131.241426 
L 177.37765 147.247945 
L 167.068503 151.343699 
L 150.268197 140.385934 
z
" style="fill:#f79143;"/>
    <path clip-path="url(#pf53ff11045)" d="M 174.204461 190.418253 
L 184.152061 172.631708 
L 201.325389 205.051144 
L 191.22359 209.13214 
L 174.204461 190.418253 
z
" style="fill:#ab2494;"/>
    <path clip-path="url(#pf53ff11045)" d="M 198.296743 244.775197 
L 208.28749 235.357774 
L 225.113834 249.94868 
L 215.21089 257.374999 
L 198.296743 244.775197 
z
" style="fill:#100788;"/>
    <path clip-path="url(#pf53ff11045)" d="M 181.312271 228.196875 
L 191.22359 209.13214 
L 208.28749 235.357774 
L 198.296743 244.775197 
L 181.312271 228.196875 
z
" style="fill:#5002a2;"/>
    <path clip-path="url(#pf53ff11045)" d="M 261.318067 220.064558 
L 270.936695 200.983948 
L 288.435553 175.868897 
L 279.234715 160.486185 
L 261.318067 220.064558 
z
" style="fill:#aa2395;"/>
    <path clip-path="url(#pf53ff11045)" d="M 288.435553 175.868897 
L 297.483874 184.516285 
L 314.527584 190.2538 
L 305.325592 195.305082 
L 288.435553 175.868897 
z
" style="fill:#c13b82;"/>
    <path clip-path="url(#pf53ff11045)" d="M 156.971527 167.000574 
L 167.068503 151.343699 
L 184.152061 172.631708 
L 174.204461 190.418253 
L 156.971527 167.000574 
z
" style="fill:#db5c68;"/>
    <path clip-path="url(#pf53ff11045)" d="M 305.325592 195.305082 
L 314.527584 190.2538 
L 331.590025 198.809442 
L 322.666974 199.081915 
L 305.325592 195.305082 
z
" style="fill:#ad2793;"/>
    <path clip-path="url(#pf53ff11045)" d="M 164.025275 202.819235 
L 174.204461 190.418253 
L 191.22359 209.13214 
L 181.312271 228.196875 
L 164.025275 202.819235 
z
" style="fill:#9511a1;"/>
    <path clip-path="url(#pf53ff11045)" d="M 139.83914 148.971967 
L 150.268197 140.385934 
L 167.068503 151.343699 
L 156.971527 167.000574 
L 139.83914 148.971967 
z
" style="fill:#f3874a;"/>
    <path clip-path="url(#pf53ff11045)" d="M 215.21089 257.374999 
L 225.113834 249.94868 
L 241.950606 234.305188 
L 232.040283 239.515635 
L 215.21089 257.374999 
z
" style="fill:#220690;"/>
    <path clip-path="url(#pf53ff11045)" d="M 188.13885 252.67323 
L 198.296743 244.775197 
L 215.21089 257.374999 
L 205.125454 262.57027 
L 188.13885 252.67323 
z
" style="fill:#0d0887;"/>
    <path clip-path="url(#pf53ff11045)" d="M 146.685852 179.866442 
L 156.971527 167.000574 
L 174.204461 190.418253 
L 164.025275 202.819235 
L 146.685852 179.866442 
z
" style="fill:#cb4679;"/>
    <path clip-path="url(#pf53ff11045)" d="M 170.951128 233.498172 
L 181.312271 228.196875 
L 198.296743 244.775197 
L 188.13885 252.67323 
L 170.951128 233.498172 
z
" style="fill:#46039f;"/>
    <path clip-path="url(#pf53ff11045)" d="M 251.70239 228.005289 
L 261.318067 220.064558 
L 279.234715 160.486185 
L 269.180692 192.19796 
L 251.70239 228.005289 
z
" style="fill:#9e199d;"/>
    <path clip-path="url(#pf53ff11045)" d="M 129.474969 162.259509 
L 139.83914 148.971967 
L 156.971527 167.000574 
L 146.685852 179.866442 
L 129.474969 162.259509 
z
" style="fill:#ea7457;"/>
    <path clip-path="url(#pf53ff11045)" d="M 153.49238 208.442279 
L 164.025275 202.819235 
L 181.312271 228.196875 
L 170.951128 233.498172 
L 153.49238 208.442279 
z
" style="fill:#8b0aa5;"/>
    <path clip-path="url(#pf53ff11045)" d="M 205.125454 262.57027 
L 215.21089 257.374999 
L 232.040283 239.515635 
L 222.06707 258.15551 
L 205.125454 262.57027 
z
" style="fill:#19068c;"/>
    <path clip-path="url(#pf53ff11045)" d="M 241.950606 234.305188 
L 251.70239 228.005289 
L 269.180692 192.19796 
L 259.306538 206.087766 
L 241.950606 234.305188 
z
" style="fill:#8808a6;"/>
    <path clip-path="url(#pf53ff11045)" d="M 135.961658 184.979401 
L 146.685852 179.866442 
L 164.025275 202.819235 
L 153.49238 208.442279 
L 135.961658 184.979401 
z
" style="fill:#c6417d;"/>
    <path clip-path="url(#pf53ff11045)" d="M 118.620534 167.74267 
L 129.474969 162.259509 
L 146.685852 179.866442 
L 135.961658 184.979401 
L 118.620534 167.74267 
z
" style="fill:#e76e5b;"/>
    <path clip-path="url(#pf53ff11045)" d="M 279.234715 160.486185 
L 288.435553 175.868897 
L 305.325592 195.305082 
L 297.445919 134.42555 
L 279.234715 160.486185 
z
" style="fill:#f1834c;"/>
    <path clip-path="url(#pf53ff11045)" d="M 232.040283 239.515635 
L 241.950606 234.305188 
L 259.306538 206.087766 
L 249.344287 217.799859 
L 232.040283 239.515635 
z
" style="fill:#8305a7;"/>
    <path clip-path="url(#pf53ff11045)" d="M 222.06707 258.15551 
L 232.040283 239.515635 
L 249.344287 217.799859 
L 239.270274 236.347575 
L 222.06707 258.15551 
z
" style="fill:#6700a8;"/>
    <path clip-path="url(#pf53ff11045)" d="M 297.445919 134.42555 
L 305.325592 195.305082 
L 322.666974 199.081915 
L 315.722706 125.957265 
L 297.445919 134.42555 
z
" style="fill:#fca636;"/>
    <path clip-path="url(#pf53ff11045)" d="M 269.180692 192.19796 
L 279.234715 160.486185 
L 297.445919 134.42555 
L 287.435659 153.04095 
L 269.180692 192.19796 
z
" style="fill:#f89441;"/>
    <path clip-path="url(#pf53ff11045)" d="M 259.306538 206.087766 
L 269.180692 192.19796 
L 287.435659 153.04095 
L 277.241635 180.181483 
L 259.306538 206.087766 
z
" style="fill:#e3685f;"/>
    <path clip-path="url(#pf53ff11045)" d="M 249.344287 217.799859 
L 259.306538 206.087766 
L 277.241635 180.181483 
L 267.18544 194.986834 
L 249.344287 217.799859 
z
" style="fill:#d24f71;"/>
    <path clip-path="url(#pf53ff11045)" d="M 239.270274 236.347575 
L 249.344287 217.799859 
L 267.18544 194.986834 
L 257.021823 211.928872 
L 239.270274 236.347575 
z
" style="fill:#bd3786;"/>
    <path clip-path="url(#pf53ff11045)" d="M 287.435659 153.04095 
L 297.445919 134.42555 
L 315.722706 125.957265 
L 305.649968 145.661572 
L 287.435659 153.04095 
z
" style="fill:#f0f921;"/>
    <path clip-path="url(#pf53ff11045)" d="M 277.241635 180.181483 
L 287.435659 153.04095 
L 305.649968 145.661572 
L 295.4782 167.521222 
L 277.241635 180.181483 
z
" style="fill:#febb2b;"/>
    <path clip-path="url(#pf53ff11045)" d="M 267.18544 194.986834 
L 277.241635 180.181483 
L 295.4782 167.521222 
L 285.361361 184.26553 
L 267.18544 194.986834 
z
" style="fill:#f79143;"/>
    <path clip-path="url(#pf53ff11045)" d="M 257.021823 211.928872 
L 267.18544 194.986834 
L 285.361361 184.26553 
L 275.232725 196.170458 
L 257.021823 211.928872 
z
" style="fill:#ec7754;"/>
   </g>
  </g>
 </g>
 <defs>
  <clipPath id="pf53ff11045">
   <rect height="266.112" width="357.12" x="57.6" y="41.472"/>
  </clipPath>
 </defs>
</svg>
