<?xml version="1.0" encoding="utf-8" standalone="no"?>
<!DOCTYPE svg PUBLIC "-//W3C//DTD SVG 1.1//EN"
  "http://www.w3.org/Graphics/SVG/1.1/DTD/svg11.dtd">
<!-- Created with matplotlib (http://matplotlib.org/) -->
<svg height="345pt" version="1.1" viewBox="0 0 460 345" width="460pt" xmlns="http://www.w3.org/2000/svg" xmlns:xlink="http://www.w3.org/1999/xlink">
 <defs>
  <style type="text/css">
*{stroke-linecap:butt;stroke-linejoin:round;}
  </style>
 </defs>
 <g id="figure_1">
  <g id="patch_1">
   <path d="M 0 345.6 
L 460.8 345.6 
L 460.8 0 
L 0 0 
z
" style="fill:#ffffff;"/>
  </g>
  <g id="patch_2">
   <path d="M 57.6 307.584 
L 414.72 307.584 
L 414.72 41.472 
L 57.6 41.472 
z
" style="fill:#ffffff;"/>
  </g>
  <g id="pane3d_1">
   <g id="patch_3">
    <path d="M 104.941774 248.782626 
L 207.151387 183.537994 
L 205.449705 58.866209 
L 97.541237 117.48717 
" style="fill:#f2f2f2;opacity:0.5;stroke:#f2f2f2;stroke-linejoin:miter;"/>
   </g>
  </g>
  <g id="pane3d_2">
   <g id="patch_4">
    <path d="M 207.151387 183.537994 
L 372.72135 220.013954 
L 379.648599 91.582742 
L 205.449705 58.866209 
" style="fill:#e6e6e6;opacity:0.5;stroke:#e6e6e6;stroke-linejoin:miter;"/>
   </g>
  </g>
  <g id="pane3d_3">
   <g id="patch_5">
    <path d="M 104.941774 248.782626 
L 279.143747 291.264825 
L 372.72135 220.013954 
L 207.151387 183.537994 
" style="fill:#ececec;opacity:0.5;stroke:#ececec;stroke-linejoin:miter;"/>
   </g>
  </g>
  <g id="axis3d_1">
   <g id="line2d_1">
    <path d="M 104.941774 248.782626 
L 279.143747 291.264825 
" style="fill:none;stroke:#000000;stroke-linecap:square;stroke-width:0.8;"/>
   </g>
   <g id="Line3DCollection_1">
    <path d="M 115.562252 251.372616 
L 217.277438 185.768818 
L 216.081723 60.863023 
" style="fill:none;stroke:#b0b0b0;stroke-width:0.8;"/>
    <path d="M 148.306252 259.357813 
L 248.470984 192.640925 
L 248.851709 67.017599 
" style="fill:none;stroke:#b0b0b0;stroke-width:0.8;"/>
    <path d="M 181.629397 267.484245 
L 280.175868 199.625682 
L 282.186433 73.278239 
" style="fill:none;stroke:#b0b0b0;stroke-width:0.8;"/>
    <path d="M 215.547191 275.755692 
L 312.404765 206.725883 
L 316.10062 79.647709 
" style="fill:none;stroke:#b0b0b0;stroke-width:0.8;"/>
    <path d="M 250.075693 284.176071 
L 345.170776 213.944413 
L 350.609512 86.128871 
" style="fill:none;stroke:#b0b0b0;stroke-width:0.8;"/>
   </g>
   <g id="xtick_1">
    <g id="line2d_2">
     <path d="M 116.438581 250.807405 
L 113.806326 252.505145 
" style="fill:none;stroke:#000000;stroke-linecap:square;stroke-width:0.8;"/>
    </g>
    <g id="text_1">
     <!-- 0 -->
     <defs>
      <path d="M 31.78125 66.40625 
Q 24.171875 66.40625 20.328125 58.90625 
Q 16.5 51.421875 16.5 36.375 
Q 16.5 21.390625 20.328125 13.890625 
Q 24.171875 6.390625 31.78125 6.390625 
Q 39.453125 6.390625 43.28125 13.890625 
Q 47.125 21.390625 47.125 36.375 
Q 47.125 51.421875 43.28125 58.90625 
Q 39.453125 66.40625 31.78125 66.40625 
z
M 31.78125 74.21875 
Q 44.046875 74.21875 50.515625 64.515625 
Q 56.984375 54.828125 56.984375 36.375 
Q 56.984375 17.96875 50.515625 8.265625 
Q 44.046875 -1.421875 31.78125 -1.421875 
Q 19.53125 -1.421875 13.0625 8.265625 
Q 6.59375 17.96875 6.59375 36.375 
Q 6.59375 54.828125 13.0625 64.515625 
Q 19.53125 74.21875 31.78125 74.21875 
z
" id="DejaVuSans-30"/>
     </defs>
     <g transform="translate(105.060879 272.84452)scale(0.1 -0.1)">
      <use xlink:href="#DejaVuSans-30"/>
     </g>
    </g>
   </g>
   <g id="xtick_2">
    <g id="line2d_3">
     <path d="M 149.169762 258.782653 
L 146.575981 260.510297 
" style="fill:none;stroke:#000000;stroke-linecap:square;stroke-width:0.8;"/>
    </g>
    <g id="text_2">
     <!-- 2 -->
     <defs>
      <path d="M 19.1875 8.296875 
L 53.609375 8.296875 
L 53.609375 0 
L 7.328125 0 
L 7.328125 8.296875 
Q 12.9375 14.109375 22.625 23.890625 
Q 32.328125 33.6875 34.8125 36.53125 
Q 39.546875 41.84375 41.421875 45.53125 
Q 43.3125 49.21875 43.3125 52.78125 
Q 43.3125 58.59375 39.234375 62.25 
Q 35.15625 65.921875 28.609375 65.921875 
Q 23.96875 65.921875 18.8125 64.3125 
Q 13.671875 62.703125 7.8125 59.421875 
L 7.8125 69.390625 
Q 13.765625 71.78125 18.9375 73 
Q 24.125 74.21875 28.421875 74.21875 
Q 39.75 74.21875 46.484375 68.546875 
Q 53.21875 62.890625 53.21875 53.421875 
Q 53.21875 48.921875 51.53125 44.890625 
Q 49.859375 40.875 45.40625 35.40625 
Q 44.1875 33.984375 37.640625 27.21875 
Q 31.109375 20.453125 19.1875 8.296875 
z
" id="DejaVuSans-32"/>
     </defs>
     <g transform="translate(137.80125 280.96635)scale(0.1 -0.1)">
      <use xlink:href="#DejaVuSans-32"/>
     </g>
    </g>
   </g>
   <g id="xtick_3">
    <g id="line2d_4">
     <path d="M 182.479498 266.89887 
L 179.925969 268.657216 
" style="fill:none;stroke:#000000;stroke-linecap:square;stroke-width:0.8;"/>
    </g>
    <g id="text_3">
     <!-- 4 -->
     <defs>
      <path d="M 37.796875 64.3125 
L 12.890625 25.390625 
L 37.796875 25.390625 
z
M 35.203125 72.90625 
L 47.609375 72.90625 
L 47.609375 25.390625 
L 58.015625 25.390625 
L 58.015625 17.1875 
L 47.609375 17.1875 
L 47.609375 0 
L 37.796875 0 
L 37.796875 17.1875 
L 4.890625 17.1875 
L 4.890625 26.703125 
z
" id="DejaVuSans-34"/>
     </defs>
     <g transform="translate(171.121785 289.232101)scale(0.1 -0.1)">
      <use xlink:href="#DejaVuSans-34"/>
     </g>
    </g>
   </g>
   <g id="xtick_4">
    <g id="line2d_5">
     <path d="M 216.383263 275.159828 
L 213.871843 276.949702 
" style="fill:none;stroke:#000000;stroke-linecap:square;stroke-width:0.8;"/>
    </g>
    <g id="text_4">
     <!-- 6 -->
     <defs>
      <path d="M 33.015625 40.375 
Q 26.375 40.375 22.484375 35.828125 
Q 18.609375 31.296875 18.609375 23.390625 
Q 18.609375 15.53125 22.484375 10.953125 
Q 26.375 6.390625 33.015625 6.390625 
Q 39.65625 6.390625 43.53125 10.953125 
Q 47.40625 15.53125 47.40625 23.390625 
Q 47.40625 31.296875 43.53125 35.828125 
Q 39.65625 40.375 33.015625 40.375 
z
M 52.59375 71.296875 
L 52.59375 62.3125 
Q 48.875 64.0625 45.09375 64.984375 
Q 41.3125 65.921875 37.59375 65.921875 
Q 27.828125 65.921875 22.671875 59.328125 
Q 17.53125 52.734375 16.796875 39.40625 
Q 19.671875 43.65625 24.015625 45.921875 
Q 28.375 48.1875 33.59375 48.1875 
Q 44.578125 48.1875 50.953125 41.515625 
Q 57.328125 34.859375 57.328125 23.390625 
Q 57.328125 12.15625 50.6875 5.359375 
Q 44.046875 -1.421875 33.015625 -1.421875 
Q 20.359375 -1.421875 13.671875 8.265625 
Q 6.984375 17.96875 6.984375 36.375 
Q 6.984375 53.65625 15.1875 63.9375 
Q 23.390625 74.21875 37.203125 74.21875 
Q 40.921875 74.21875 44.703125 73.484375 
Q 48.484375 72.75 52.59375 71.296875 
z
" id="DejaVuSans-36"/>
     </defs>
     <g transform="translate(205.038042 297.64563)scale(0.1 -0.1)">
      <use xlink:href="#DejaVuSans-36"/>
     </g>
    </g>
   </g>
   <g id="xtick_5">
    <g id="line2d_6">
     <path d="M 250.897092 283.569434 
L 248.429719 285.391691 
" style="fill:none;stroke:#000000;stroke-linecap:square;stroke-width:0.8;"/>
    </g>
    <g id="text_5">
     <!-- 8 -->
     <defs>
      <path d="M 31.78125 34.625 
Q 24.75 34.625 20.71875 30.859375 
Q 16.703125 27.09375 16.703125 20.515625 
Q 16.703125 13.921875 20.71875 10.15625 
Q 24.75 6.390625 31.78125 6.390625 
Q 38.8125 6.390625 42.859375 10.171875 
Q 46.921875 13.96875 46.921875 20.515625 
Q 46.921875 27.09375 42.890625 30.859375 
Q 38.875 34.625 31.78125 34.625 
z
M 21.921875 38.8125 
Q 15.578125 40.375 12.03125 44.71875 
Q 8.5 49.078125 8.5 55.328125 
Q 8.5 64.0625 14.71875 69.140625 
Q 20.953125 74.21875 31.78125 74.21875 
Q 42.671875 74.21875 48.875 69.140625 
Q 55.078125 64.0625 55.078125 55.328125 
Q 55.078125 49.078125 51.53125 44.71875 
Q 48 40.375 41.703125 38.8125 
Q 48.828125 37.15625 52.796875 32.3125 
Q 56.78125 27.484375 56.78125 20.515625 
Q 56.78125 9.90625 50.3125 4.234375 
Q 43.84375 -1.421875 31.78125 -1.421875 
Q 19.734375 -1.421875 13.25 4.234375 
Q 6.78125 9.90625 6.78125 20.515625 
Q 6.78125 27.484375 10.78125 32.3125 
Q 14.796875 37.15625 21.921875 38.8125 
z
M 18.3125 54.390625 
Q 18.3125 48.734375 21.84375 45.5625 
Q 25.390625 42.390625 31.78125 42.390625 
Q 38.140625 42.390625 41.71875 45.5625 
Q 45.3125 48.734375 45.3125 54.390625 
Q 45.3125 60.0625 41.71875 63.234375 
Q 38.140625 66.40625 31.78125 66.40625 
Q 25.390625 66.40625 21.84375 63.234375 
Q 18.3125 60.0625 18.3125 54.390625 
z
" id="DejaVuSans-38"/>
     </defs>
     <g transform="translate(239.566142 306.210938)scale(0.1 -0.1)">
      <use xlink:href="#DejaVuSans-38"/>
     </g>
    </g>
   </g>
  </g>
  <g id="axis3d_2">
   <g id="line2d_7">
    <path d="M 372.72135 220.013954 
L 279.143747 291.264825 
" style="fill:none;stroke:#000000;stroke-linecap:square;stroke-width:0.8;"/>
   </g>
   <g id="Line3DCollection_2">
    <path d="M 104.930092 113.473196 
L 111.915028 244.331309 
L 285.548062 286.38852 
" style="fill:none;stroke:#b0b0b0;stroke-width:0.8;"/>
    <path d="M 126.984969 101.491948 
L 132.751513 231.030517 
L 304.667047 271.831144 
" style="fill:none;stroke:#b0b0b0;stroke-width:0.8;"/>
    <path d="M 148.366618 89.876429 
L 152.983668 218.115494 
L 323.206496 257.715032 
" style="fill:none;stroke:#b0b0b0;stroke-width:0.8;"/>
    <path d="M 169.105401 78.610146 
L 172.637407 205.569698 
L 341.192365 244.020421 
" style="fill:none;stroke:#b0b0b0;stroke-width:0.8;"/>
    <path d="M 189.229881 67.677581 
L 191.737187 193.377517 
L 358.649085 230.728709 
" style="fill:none;stroke:#b0b0b0;stroke-width:0.8;"/>
   </g>
   <g id="xtick_6">
    <g id="line2d_8">
     <path d="M 284.094906 286.036538 
L 288.457621 287.09327 
" style="fill:none;stroke:#000000;stroke-linecap:square;stroke-width:0.8;"/>
    </g>
    <g id="text_6">
     <!-- 0 -->
     <g transform="translate(295.066159 306.144728)scale(0.1 -0.1)">
      <use xlink:href="#DejaVuSans-30"/>
     </g>
    </g>
   </g>
   <g id="xtick_7">
    <g id="line2d_9">
     <path d="M 303.229241 271.48991 
L 307.545822 272.514362 
" style="fill:none;stroke:#000000;stroke-linecap:square;stroke-width:0.8;"/>
    </g>
    <g id="text_7">
     <!-- 2 -->
     <g transform="translate(313.980212 291.407653)scale(0.1 -0.1)">
      <use xlink:href="#DejaVuSans-32"/>
     </g>
    </g>
   </g>
   <g id="xtick_8">
    <g id="line2d_10">
     <path d="M 321.783784 257.384061 
L 326.055002 258.37769 
" style="fill:none;stroke:#000000;stroke-linecap:square;stroke-width:0.8;"/>
    </g>
    <g id="text_8">
     <!-- 4 -->
     <g transform="translate(332.321224 277.117069)scale(0.1 -0.1)">
      <use xlink:href="#DejaVuSans-34"/>
     </g>
    </g>
   </g>
   <g id="xtick_9">
    <g id="line2d_11">
     <path d="M 339.784494 243.699257 
L 344.011113 244.663433 
" style="fill:none;stroke:#000000;stroke-linecap:square;stroke-width:0.8;"/>
    </g>
    <g id="text_9">
     <!-- 6 -->
     <g transform="translate(350.114849 263.252987)scale(0.1 -0.1)">
      <use xlink:href="#DejaVuSans-36"/>
     </g>
    </g>
   </g>
   <g id="xtick_10">
    <g id="line2d_12">
     <path d="M 357.255803 230.416924 
L 361.438579 231.352936 
" style="fill:none;stroke:#000000;stroke-linecap:square;stroke-width:0.8;"/>
    </g>
    <g id="text_10">
     <!-- 8 -->
     <g transform="translate(367.385231 249.796595)scale(0.1 -0.1)">
      <use xlink:href="#DejaVuSans-38"/>
     </g>
    </g>
   </g>
  </g>
  <g id="axis3d_3">
   <g id="line2d_13">
    <path d="M 372.72135 220.013954 
L 379.648599 91.582742 
" style="fill:none;stroke:#000000;stroke-linecap:square;stroke-width:0.8;"/>
   </g>
   <g id="Line3DCollection_3">
    <path d="M 372.853105 217.571211 
L 207.118952 181.161682 
L 104.801255 246.28962 
" style="fill:none;stroke:#b0b0b0;stroke-width:0.8;"/>
    <path d="M 374.077778 194.865773 
L 206.817596 159.083155 
L 103.494677 223.109168 
" style="fill:none;stroke:#b0b0b0;stroke-width:0.8;"/>
    <path d="M 375.325411 171.734643 
L 206.510828 136.608181 
L 102.162784 199.479613 
" style="fill:none;stroke:#b0b0b0;stroke-width:0.8;"/>
    <path d="M 376.596658 148.165736 
L 206.198502 113.725985 
L 100.804835 175.387776 
" style="fill:none;stroke:#b0b0b0;stroke-width:0.8;"/>
    <path d="M 377.892193 124.146506 
L 205.880466 90.425398 
L 99.420057 150.819958 
" style="fill:none;stroke:#b0b0b0;stroke-width:0.8;"/>
    <path d="M 379.212721 99.663921 
L 205.556561 66.694839 
L 98.007647 125.76191 
" style="fill:none;stroke:#b0b0b0;stroke-width:0.8;"/>
   </g>
   <g id="xtick_11">
    <g id="line2d_14">
     <path d="M 371.47029 217.267425 
L 375.621611 218.179414 
" style="fill:none;stroke:#000000;stroke-linecap:square;stroke-width:0.8;"/>
    </g>
    <g id="text_11">
     <!-- 0.00 -->
     <defs>
      <path d="M 10.6875 12.40625 
L 21 12.40625 
L 21 0 
L 10.6875 0 
z
" id="DejaVuSans-2e"/>
     </defs>
     <g transform="translate(380.07012 223.203694)scale(0.1 -0.1)">
      <use xlink:href="#DejaVuSans-30"/>
      <use x="63.623047" xlink:href="#DejaVuSans-2e"/>
      <use x="95.410156" xlink:href="#DejaVuSans-30"/>
      <use x="159.033203" xlink:href="#DejaVuSans-30"/>
     </g>
    </g>
   </g>
   <g id="xtick_12">
    <g id="line2d_15">
     <path d="M 372.681697 194.567104 
L 376.872871 195.463738 
" style="fill:none;stroke:#000000;stroke-linecap:square;stroke-width:0.8;"/>
    </g>
    <g id="text_12">
     <!-- 0.02 -->
     <g transform="translate(381.462055 200.531402)scale(0.1 -0.1)">
      <use xlink:href="#DejaVuSans-30"/>
      <use x="63.623047" xlink:href="#DejaVuSans-2e"/>
      <use x="95.410156" xlink:href="#DejaVuSans-30"/>
      <use x="159.033203" xlink:href="#DejaVuSans-32"/>
     </g>
    </g>
   </g>
   <g id="xtick_13">
    <g id="line2d_16">
     <path d="M 373.915808 171.441337 
L 378.147606 172.321878 
" style="fill:none;stroke:#000000;stroke-linecap:square;stroke-width:0.8;"/>
    </g>
    <g id="text_13">
     <!-- 0.04 -->
     <g transform="translate(382.880027 177.43501)scale(0.1 -0.1)">
      <use xlink:href="#DejaVuSans-30"/>
      <use x="63.623047" xlink:href="#DejaVuSans-2e"/>
      <use x="95.410156" xlink:href="#DejaVuSans-30"/>
      <use x="159.033203" xlink:href="#DejaVuSans-34"/>
     </g>
    </g>
   </g>
   <g id="xtick_14">
    <g id="line2d_17">
     <path d="M 375.173267 147.87805 
L 379.446484 148.741725 
" style="fill:none;stroke:#000000;stroke-linecap:square;stroke-width:0.8;"/>
    </g>
    <g id="text_14">
     <!-- 0.06 -->
     <g transform="translate(384.324773 153.902506)scale(0.1 -0.1)">
      <use xlink:href="#DejaVuSans-30"/>
      <use x="63.623047" xlink:href="#DejaVuSans-2e"/>
      <use x="95.410156" xlink:href="#DejaVuSans-30"/>
      <use x="159.033203" xlink:href="#DejaVuSans-36"/>
     </g>
    </g>
   </g>
   <g id="xtick_15">
    <g id="line2d_18">
     <path d="M 376.454743 123.864709 
L 380.770197 124.710709 
" style="fill:none;stroke:#000000;stroke-linecap:square;stroke-width:0.8;"/>
    </g>
    <g id="text_15">
     <!-- 0.08 -->
     <g transform="translate(385.79706 129.92142)scale(0.1 -0.1)">
      <use xlink:href="#DejaVuSans-30"/>
      <use x="63.623047" xlink:href="#DejaVuSans-2e"/>
      <use x="95.410156" xlink:href="#DejaVuSans-30"/>
      <use x="159.033203" xlink:href="#DejaVuSans-38"/>
     </g>
    </g>
   </g>
   <g id="xtick_16">
    <g id="line2d_19">
     <path d="M 377.760932 99.388295 
L 382.119464 100.215774 
" style="fill:none;stroke:#000000;stroke-linecap:square;stroke-width:0.8;"/>
    </g>
    <g id="text_16">
     <!-- 0.10 -->
     <defs>
      <path d="M 12.40625 8.296875 
L 28.515625 8.296875 
L 28.515625 63.921875 
L 10.984375 60.40625 
L 10.984375 69.390625 
L 28.421875 72.90625 
L 38.28125 72.90625 
L 38.28125 8.296875 
L 54.390625 8.296875 
L 54.390625 0 
L 12.40625 0 
z
" id="DejaVuSans-31"/>
     </defs>
     <g transform="translate(387.297682 105.478802)scale(0.1 -0.1)">
      <use xlink:href="#DejaVuSans-30"/>
      <use x="63.623047" xlink:href="#DejaVuSans-2e"/>
      <use x="95.410156" xlink:href="#DejaVuSans-31"/>
      <use x="159.033203" xlink:href="#DejaVuSans-30"/>
     </g>
    </g>
   </g>
  </g>
  <g id="axes_1">
   <g id="Poly3DCollection_1">
    <path clip-path="url(#pf26064ebb4)" d="M 298.129294 203.98807 
L 306.734073 208.387409 
L 327.187357 90.63402 
L 318.005317 96.505624 
L 298.129294 203.98807 
z
" style="fill:#2f0596;"/>
    <path clip-path="url(#pf26064ebb4)" d="M 199.988971 72.373427 
L 209.767507 66.97936 
L 226.118431 70.080663 
L 216.419647 75.523566 
L 199.988971 72.373427 
z
" style="fill:#f0f921;"/>
    <path clip-path="url(#pf26064ebb4)" d="M 283.580458 88.395944 
L 292.942617 82.762034 
L 306.734073 208.387409 
L 298.129294 203.98807 
L 283.580458 88.395944 
z
" style="fill:#a72197;"/>
    <path clip-path="url(#pf26064ebb4)" d="M 216.419647 75.523566 
L 226.118431 70.080663 
L 242.609589 73.209368 
L 232.992256 78.698404 
L 216.419647 75.523566 
z
" style="fill:#f0f921;"/>
    <path clip-path="url(#pf26064ebb4)" d="M 288.946548 218.598913 
L 298.129294 203.98807 
L 318.005317 96.505624 
L 308.682548 102.477779 
L 288.946548 218.598913 
z
" style="fill:#280592;"/>
    <path clip-path="url(#pf26064ebb4)" d="M 190.064411 77.853754 
L 199.988971 72.373427 
L 216.419647 75.523566 
L 206.575357 81.051515 
L 190.064411 77.853754 
z
" style="fill:#f0f921;"/>
    <path clip-path="url(#pf26064ebb4)" d="M 232.992256 78.698404 
L 242.609589 73.209368 
L 259.24276 76.3684 
L 249.708673 81.904762 
L 232.992256 78.698404 
z
" style="fill:#f0f921;"/>
    <path clip-path="url(#pf26064ebb4)" d="M 274.075199 94.125118 
L 283.580458 88.395944 
L 298.129294 203.98807 
L 288.946548 218.598913 
L 274.075199 94.125118 
z
" style="fill:#aa2395;"/>
    <path clip-path="url(#pf26064ebb4)" d="M 206.575357 81.051515 
L 216.419647 75.523566 
L 232.992256 78.698404 
L 223.230009 84.277261 
L 206.575357 81.051515 
z
" style="fill:#f0f921;"/>
    <path clip-path="url(#pf26064ebb4)" d="M 249.708673 81.904762 
L 259.24276 76.3684 
L 276.01981 79.551478 
L 266.570753 85.137527 
L 249.708673 81.904762 
z
" style="fill:#f0f921;"/>
    <path clip-path="url(#pf26064ebb4)" d="M 179.990626 83.42355 
L 190.064411 77.853754 
L 206.575357 81.051515 
L 196.582311 86.6672 
L 179.990626 83.42355 
z
" style="fill:#f0f921;"/>
    <path clip-path="url(#pf26064ebb4)" d="M 223.230009 84.277261 
L 232.992256 78.698404 
L 249.708673 81.904762 
L 240.03025 87.533415 
L 223.230009 84.277261 
z
" style="fill:#f0f921;"/>
    <path clip-path="url(#pf26064ebb4)" d="M 266.570753 85.137527 
L 276.01981 79.551478 
L 292.942617 82.762034 
L 283.580458 88.395944 
L 266.570753 85.137527 
z
" style="fill:#f0f921;"/>
    <path clip-path="url(#pf26064ebb4)" d="M 280.349826 191.994601 
L 288.946548 218.598913 
L 308.682548 102.477779 
L 299.214783 108.602491 
L 280.349826 191.994601 
z
" style="fill:#6a00a8;"/>
    <path clip-path="url(#pf26064ebb4)" d="M 196.582311 86.6672 
L 206.575357 81.051515 
L 223.230009 84.277261 
L 213.319505 89.936656 
L 196.582311 86.6672 
z
" style="fill:#f0f921;"/>
    <path clip-path="url(#pf26064ebb4)" d="M 264.423652 99.950438 
L 274.075199 94.125118 
L 288.946548 218.598913 
L 280.349826 191.994601 
L 264.423652 99.950438 
z
" style="fill:#bd3786;"/>
    <path clip-path="url(#pf26064ebb4)" d="M 240.03025 87.533415 
L 249.708673 81.904762 
L 266.570753 85.137527 
L 256.977969 90.81794 
L 240.03025 87.533415 
z
" style="fill:#f0f921;"/>
    <path clip-path="url(#pf26064ebb4)" d="M 169.763994 89.07356 
L 179.990626 83.42355 
L 196.582311 86.6672 
L 186.437266 92.377589 
L 169.763994 89.07356 
z
" style="fill:#f0f921;"/>
    <path clip-path="url(#pf26064ebb4)" d="M 213.319505 89.936656 
L 223.230009 84.277261 
L 240.03025 87.533415 
L 230.204255 93.249059 
L 213.319505 89.936656 
z
" style="fill:#f0f921;"/>
    <path clip-path="url(#pf26064ebb4)" d="M 256.977969 90.81794 
L 266.570753 85.137527 
L 283.580458 88.395944 
L 274.075199 94.125118 
L 256.977969 90.81794 
z
" style="fill:#f0f921;"/>
    <path clip-path="url(#pf26064ebb4)" d="M 186.437266 92.377589 
L 196.582311 86.6672 
L 213.319505 89.936656 
L 203.257593 95.698752 
L 186.437266 92.377589 
z
" style="fill:#f0f921;"/>
    <path clip-path="url(#pf26064ebb4)" d="M 304.112247 241.830381 
L 316.855836 111.98856 
L 334.660914 115.310141 
L 321.119922 245.737339 
L 304.112247 241.830381 
z
" style="fill:#0d0887;"/>
    <path clip-path="url(#pf26064ebb4)" d="M 230.204255 93.249059 
L 240.03025 87.533415 
L 256.977969 90.81794 
L 247.238291 96.58316 
L 230.204255 93.249059 
z
" style="fill:#f0f921;"/>
    <path clip-path="url(#pf26064ebb4)" d="M 318.005317 96.505624 
L 327.187357 90.63402 
L 344.553392 93.838496 
L 335.460829 99.811556 
L 318.005317 96.505624 
z
" style="fill:#f2f227;"/>
    <path clip-path="url(#pf26064ebb4)" d="M 271.140599 184.226757 
L 280.349826 191.994601 
L 299.214783 108.602491 
L 289.593763 115.174803 
L 271.140599 184.226757 
z
" style="fill:#a72197;"/>
    <path clip-path="url(#pf26064ebb4)" d="M 159.381423 94.820231 
L 169.763994 89.07356 
L 186.437266 92.377589 
L 176.136734 98.180769 
L 159.381423 94.820231 
z
" style="fill:#f0f921;"/>
    <path clip-path="url(#pf26064ebb4)" d="M 203.257593 95.698752 
L 213.319505 89.936656 
L 230.204255 93.249059 
L 220.227332 99.057471 
L 203.257593 95.698752 
z
" style="fill:#f0f921;"/>
    <path clip-path="url(#pf26064ebb4)" d="M 254.622523 105.871256 
L 264.423652 99.950438 
L 280.349826 191.994601 
L 271.140599 184.226757 
L 254.622523 105.871256 
z
" style="fill:#db5c68;"/>
    <path clip-path="url(#pf26064ebb4)" d="M 247.238291 96.58316 
L 256.977969 90.81794 
L 274.075199 94.125118 
L 264.423652 99.950438 
L 247.238291 96.58316 
z
" style="fill:#f0f921;"/>
    <path clip-path="url(#pf26064ebb4)" d="M 335.460829 99.811556 
L 344.553392 93.838496 
L 362.125389 95.98692 
L 353.074824 103.091551 
L 335.460829 99.811556 
z
" style="fill:#f1f426;"/>
    <path clip-path="url(#pf26064ebb4)" d="M 176.136734 98.180769 
L 186.437266 92.377589 
L 203.257593 95.698752 
L 193.04062 101.547483 
L 176.136734 98.180769 
z
" style="fill:#f0f921;"/>
    <path clip-path="url(#pf26064ebb4)" d="M 220.227332 99.057471 
L 230.204255 93.249059 
L 247.238291 96.58316 
L 237.34832 102.453307 
L 220.227332 99.057471 
z
" style="fill:#f0f921;"/>
    <path clip-path="url(#pf26064ebb4)" d="M 308.682548 102.477779 
L 318.005317 96.505624 
L 335.460829 99.811556 
L 326.230188 105.838455 
L 308.682548 102.477779 
z
" style="fill:#f3f027;"/>
    <path clip-path="url(#pf26064ebb4)" d="M 148.839254 100.660541 
L 159.381423 94.820231 
L 176.136734 98.180769 
L 165.676861 104.068295 
L 148.839254 100.660541 
z
" style="fill:#f0f921;"/>
    <path clip-path="url(#pf26064ebb4)" d="M 193.04062 101.547483 
L 203.257593 95.698752 
L 220.227332 99.057471 
L 210.096109 104.966947 
L 193.04062 101.547483 
z
" style="fill:#f0f921;"/>
    <path clip-path="url(#pf26064ebb4)" d="M 237.34832 102.453307 
L 247.238291 96.58316 
L 264.423652 99.950438 
L 254.622523 105.871256 
L 237.34832 102.453307 
z
" style="fill:#f0f921;"/>
    <path clip-path="url(#pf26064ebb4)" d="M 326.230188 105.838455 
L 335.460829 99.811556 
L 353.074824 103.091551 
L 343.937803 109.181684 
L 326.230188 105.838455 
z
" style="fill:#f2f227;"/>
    <path clip-path="url(#pf26064ebb4)" d="M 165.676861 104.068295 
L 176.136734 98.180769 
L 193.04062 101.547483 
L 182.665487 107.508428 
L 165.676861 104.068295 
z
" style="fill:#f0f921;"/>
    <path clip-path="url(#pf26064ebb4)" d="M 289.593763 115.174803 
L 299.214783 108.602491 
L 316.855836 111.98856 
L 304.112247 241.830381 
L 289.593763 115.174803 
z
" style="fill:#e97257;"/>
    <path clip-path="url(#pf26064ebb4)" d="M 210.096109 104.966947 
L 220.227332 99.057471 
L 237.34832 102.453307 
L 227.304617 108.408068 
L 210.096109 104.966947 
z
" style="fill:#f0f921;"/>
    <path clip-path="url(#pf26064ebb4)" d="M 299.214783 108.602491 
L 308.682548 102.477779 
L 326.230188 105.838455 
L 316.855836 111.98856 
L 299.214783 108.602491 
z
" style="fill:#f3f027;"/>
    <path clip-path="url(#pf26064ebb4)" d="M 297.636263 125.902995 
L 304.112247 241.830381 
L 321.119922 245.737339 
L 315.617778 129.518325 
L 297.636263 125.902995 
z
" style="fill:#9511a1;"/>
    <path clip-path="url(#pf26064ebb4)" d="M 138.133806 106.59581 
L 148.839254 100.660541 
L 165.676861 104.068295 
L 155.054639 110.065374 
L 138.133806 106.59581 
z
" style="fill:#f0f921;"/>
    <path clip-path="url(#pf26064ebb4)" d="M 244.668382 111.882242 
L 254.622523 105.871256 
L 271.140599 184.226757 
L 262.087391 127.652144 
L 244.668382 111.882242 
z
" style="fill:#fa9e3b;"/>
    <path clip-path="url(#pf26064ebb4)" d="M 182.665487 107.508428 
L 193.04062 101.547483 
L 210.096109 104.966947 
L 199.807098 110.979036 
L 182.665487 107.508428 
z
" style="fill:#f0f921;"/>
    <path clip-path="url(#pf26064ebb4)" d="M 227.304617 108.408068 
L 237.34832 102.453307 
L 254.622523 105.871256 
L 244.668382 111.882242 
L 227.304617 108.408068 
z
" style="fill:#f0f921;"/>
    <path clip-path="url(#pf26064ebb4)" d="M 262.087391 127.652144 
L 271.140599 184.226757 
L 289.593763 115.174803 
L 279.819981 122.20314 
L 262.087391 127.652144 
z
" style="fill:#f68d45;"/>
    <path clip-path="url(#pf26064ebb4)" d="M 316.855836 111.98856 
L 326.230188 105.838455 
L 343.937803 109.181684 
L 334.660914 115.310141 
L 316.855836 111.98856 
z
" style="fill:#f3f027;"/>
    <path clip-path="url(#pf26064ebb4)" d="M 155.054639 110.065374 
L 165.676861 104.068295 
L 182.665487 107.508428 
L 172.128156 113.562142 
L 155.054639 110.065374 
z
" style="fill:#f0f921;"/>
    <path clip-path="url(#pf26064ebb4)" d="M 279.819981 122.20314 
L 289.593763 115.174803 
L 304.112247 241.830381 
L 297.636263 125.902995 
L 279.819981 122.20314 
z
" style="fill:#e87059;"/>
    <path clip-path="url(#pf26064ebb4)" d="M 199.807098 110.979036 
L 210.096109 104.966947 
L 227.304617 108.408068 
L 217.103699 114.471829 
L 199.807098 110.979036 
z
" style="fill:#f0f921;"/>
    <path clip-path="url(#pf26064ebb4)" d="M 127.261119 112.62395 
L 138.133806 106.59581 
L 155.054639 110.065374 
L 144.265359 116.145127 
L 127.261119 112.62395 
z
" style="fill:#f0f921;"/>
    <path clip-path="url(#pf26064ebb4)" d="M 172.128156 113.562142 
L 182.665487 107.508428 
L 199.807098 110.979036 
L 189.356671 117.094081 
L 172.128156 113.562142 
z
" style="fill:#f0f921;"/>
    <path clip-path="url(#pf26064ebb4)" d="M 217.103699 114.471829 
L 227.304617 108.408068 
L 244.668382 111.882242 
L 234.557591 117.986541 
L 217.103699 114.471829 
z
" style="fill:#f0f921;"/>
    <path clip-path="url(#pf26064ebb4)" d="M 144.265359 116.145127 
L 155.054639 110.065374 
L 172.128156 113.562142 
L 161.424745 119.709462 
L 144.265359 116.145127 
z
" style="fill:#f0f921;"/>
    <path clip-path="url(#pf26064ebb4)" d="M 234.557591 117.986541 
L 244.668382 111.882242 
L 262.087391 127.652144 
L 252.149386 126.464107 
L 234.557591 117.986541 
z
" style="fill:#f6e626;"/>
    <path clip-path="url(#pf26064ebb4)" d="M 189.356671 117.094081 
L 199.807098 110.979036 
L 217.103699 114.471829 
L 206.74209 120.650985 
L 189.356671 117.094081 
z
" style="fill:#f0f921;"/>
    <path clip-path="url(#pf26064ebb4)" d="M 116.215849 118.718701 
L 127.261119 112.62395 
L 144.265359 116.145127 
L 133.30463 122.302992 
L 116.215849 118.718701 
z
" style="fill:#f0f921;"/>
    <path clip-path="url(#pf26064ebb4)" d="M 161.424745 119.709462 
L 172.128156 113.562142 
L 189.356671 117.094081 
L 178.741794 123.342714 
L 161.424745 119.709462 
z
" style="fill:#f0f921;"/>
    <path clip-path="url(#pf26064ebb4)" d="M 252.149386 126.464107 
L 262.087391 127.652144 
L 279.819981 122.20314 
L 269.906246 128.630922 
L 252.149386 126.464107 
z
" style="fill:#fada24;"/>
    <path clip-path="url(#pf26064ebb4)" d="M 206.74209 120.650985 
L 217.103699 114.471829 
L 234.557591 117.986541 
L 224.286837 124.251451 
L 206.74209 120.650985 
z
" style="fill:#f0f921;"/>
    <path clip-path="url(#pf26064ebb4)" d="M 133.30463 122.302992 
L 144.265359 116.145127 
L 161.424745 119.709462 
L 150.55098 125.94437 
L 133.30463 122.302992 
z
" style="fill:#f0f921;"/>
    <path clip-path="url(#pf26064ebb4)" d="M 178.741794 123.342714 
L 189.356671 117.094081 
L 206.74209 120.650985 
L 196.217252 127.007638 
L 178.741794 123.342714 
z
" style="fill:#f0f921;"/>
    <path clip-path="url(#pf26064ebb4)" d="M 224.286837 124.251451 
L 234.557591 117.986541 
L 252.149386 126.464107 
L 241.992101 129.860829 
L 224.286837 124.251451 
z
" style="fill:#f2f227;"/>
    <path clip-path="url(#pf26064ebb4)" d="M 269.906246 128.630922 
L 279.819981 122.20314 
L 297.636263 125.902995 
L 287.823079 132.111391 
L 269.906246 128.630922 
z
" style="fill:#f6e626;"/>
    <path clip-path="url(#pf26064ebb4)" d="M 150.55098 125.94437 
L 161.424745 119.709462 
L 178.741794 123.342714 
L 167.956736 129.6491 
L 150.55098 125.94437 
z
" style="fill:#f0f921;"/>
    <path clip-path="url(#pf26064ebb4)" d="M 196.217252 127.007638 
L 206.74209 120.650985 
L 224.286837 124.251451 
L 213.852903 130.66417 
L 196.217252 127.007638 
z
" style="fill:#f0f921;"/>
    <path clip-path="url(#pf26064ebb4)" d="M 241.992101 129.860829 
L 252.149386 126.464107 
L 269.906246 128.630922 
L 259.842565 134.220861 
L 241.992101 129.860829 
z
" style="fill:#f6e826;"/>
    <path clip-path="url(#pf26064ebb4)" d="M 287.823079 132.111391 
L 297.636263 125.902995 
L 315.617778 129.518325 
L 305.904848 135.741624 
L 287.823079 132.111391 
z
" style="fill:#f6e626;"/>
    <path clip-path="url(#pf26064ebb4)" d="M 167.956736 129.6491 
L 178.741794 123.342714 
L 196.217252 127.007638 
L 185.524436 133.461465 
L 167.956736 129.6491 
z
" style="fill:#f0f724;"/>
    <path clip-path="url(#pf26064ebb4)" d="M 213.852903 130.66417 
L 224.286837 124.251451 
L 241.992101 129.860829 
L 231.657405 135.815683 
L 213.852903 130.66417 
z
" style="fill:#f1f426;"/>
    <path clip-path="url(#pf26064ebb4)" d="M 259.842565 134.220861 
L 269.906246 128.630922 
L 287.823079 132.111391 
L 277.856023 138.118078 
L 259.842565 134.220861 
z
" style="fill:#f6e826;"/>
    <path clip-path="url(#pf26064ebb4)" d="M 185.524436 133.461465 
L 196.217252 127.007638 
L 213.852903 130.66417 
L 203.255906 137.458371 
L 185.524436 133.461465 
z
" style="fill:#f0f724;"/>
    <path clip-path="url(#pf26064ebb4)" d="M 231.657405 135.815683 
L 241.992101 129.860829 
L 259.842565 134.220861 
L 249.610063 140.067502 
L 231.657405 135.815683 
z
" style="fill:#f4ed27;"/>
    <path clip-path="url(#pf26064ebb4)" d="M 277.856023 138.118078 
L 287.823079 132.111391 
L 305.904848 135.741624 
L 296.036121 141.977396 
L 277.856023 138.118078 
z
" style="fill:#f6e826;"/>
    <path clip-path="url(#pf26064ebb4)" d="M 203.255906 137.458371 
L 213.852903 130.66417 
L 231.657405 135.815683 
L 221.150339 141.656244 
L 203.255906 137.458371 
z
" style="fill:#f1f426;"/>
    <path clip-path="url(#pf26064ebb4)" d="M 249.610063 140.067502 
L 259.842565 134.220861 
L 277.856023 138.118078 
L 267.724002 144.266468 
L 249.610063 140.067502 
z
" style="fill:#f5eb27;"/>
    <path clip-path="url(#pf26064ebb4)" d="M 221.150339 141.656244 
L 231.657405 135.815683 
L 249.610063 140.067502 
L 239.206477 146.135851 
L 221.150339 141.656244 
z
" style="fill:#f3f027;"/>
    <path clip-path="url(#pf26064ebb4)" d="M 267.724002 144.266468 
L 277.856023 138.118078 
L 296.036121 141.977396 
L 286.007863 148.161983 
L 267.724002 144.266468 
z
" style="fill:#f5e926;"/>
    <path clip-path="url(#pf26064ebb4)" d="M 239.206477 146.135851 
L 249.610063 140.067502 
L 267.724002 144.266468 
L 257.423683 150.520273 
L 239.206477 146.135851 
z
" style="fill:#f4ed27;"/>
    <path clip-path="url(#pf26064ebb4)" d="M 257.423683 150.520273 
L 267.724002 144.266468 
L 286.007863 148.161983 
L 275.809566 154.630305 
L 257.423683 150.520273 
z
" style="fill:#f5eb27;"/>
   </g>
  </g>
 </g>
 <defs>
  <clipPath id="pf26064ebb4">
   <rect height="266.112" width="357.12" x="57.6" y="41.472"/>
  </clipPath>
 </defs>
</svg>
