<?xml version="1.0" encoding="utf-8" standalone="no"?>
<!DOCTYPE svg PUBLIC "-//W3C//DTD SVG 1.1//EN"
  "http://www.w3.org/Graphics/SVG/1.1/DTD/svg11.dtd">
<!-- Created with matplotlib (http://matplotlib.org/) -->
<svg height="345pt" version="1.1" viewBox="0 0 460 345" width="460pt" xmlns="http://www.w3.org/2000/svg" xmlns:xlink="http://www.w3.org/1999/xlink">
 <defs>
  <style type="text/css">
*{stroke-linecap:butt;stroke-linejoin:round;}
  </style>
 </defs>
 <g id="figure_1">
  <g id="patch_1">
   <path d="M 0 345.6 
L 460.8 345.6 
L 460.8 0 
L 0 0 
z
" style="fill:#ffffff;"/>
  </g>
  <g id="patch_2">
   <path d="M 57.6 307.584 
L 414.72 307.584 
L 414.72 41.472 
L 57.6 41.472 
z
" style="fill:#ffffff;"/>
  </g>
  <g id="pane3d_1">
   <g id="patch_3">
    <path d="M 104.941774 248.782626 
L 207.151387 183.537994 
L 205.449705 58.866209 
L 97.541237 117.48717 
" style="fill:#f2f2f2;opacity:0.5;stroke:#f2f2f2;stroke-linejoin:miter;"/>
   </g>
  </g>
  <g id="pane3d_2">
   <g id="patch_4">
    <path d="M 207.151387 183.537994 
L 372.72135 220.013954 
L 379.648599 91.582742 
L 205.449705 58.866209 
" style="fill:#e6e6e6;opacity:0.5;stroke:#e6e6e6;stroke-linejoin:miter;"/>
   </g>
  </g>
  <g id="pane3d_3">
   <g id="patch_5">
    <path d="M 104.941774 248.782626 
L 279.143747 291.264825 
L 372.72135 220.013954 
L 207.151387 183.537994 
" style="fill:#ececec;opacity:0.5;stroke:#ececec;stroke-linejoin:miter;"/>
   </g>
  </g>
  <g id="axis3d_1">
   <g id="line2d_1">
    <path d="M 104.941774 248.782626 
L 279.143747 291.264825 
" style="fill:none;stroke:#000000;stroke-linecap:square;stroke-width:0.8;"/>
   </g>
   <g id="Line3DCollection_1">
    <path d="M 115.562252 251.372616 
L 217.277438 185.768818 
L 216.081723 60.863023 
" style="fill:none;stroke:#b0b0b0;stroke-width:0.8;"/>
    <path d="M 148.306252 259.357813 
L 248.470984 192.640925 
L 248.851709 67.017599 
" style="fill:none;stroke:#b0b0b0;stroke-width:0.8;"/>
    <path d="M 181.629397 267.484245 
L 280.175868 199.625682 
L 282.186433 73.278239 
" style="fill:none;stroke:#b0b0b0;stroke-width:0.8;"/>
    <path d="M 215.547191 275.755692 
L 312.404765 206.725883 
L 316.10062 79.647709 
" style="fill:none;stroke:#b0b0b0;stroke-width:0.8;"/>
    <path d="M 250.075693 284.176071 
L 345.170776 213.944413 
L 350.609512 86.128871 
" style="fill:none;stroke:#b0b0b0;stroke-width:0.8;"/>
   </g>
   <g id="xtick_1">
    <g id="line2d_2">
     <path d="M 116.438581 250.807405 
L 113.806326 252.505145 
" style="fill:none;stroke:#000000;stroke-linecap:square;stroke-width:0.8;"/>
    </g>
    <g id="text_1">
     <!-- 0 -->
     <defs>
      <path d="M 31.78125 66.40625 
Q 24.171875 66.40625 20.328125 58.90625 
Q 16.5 51.421875 16.5 36.375 
Q 16.5 21.390625 20.328125 13.890625 
Q 24.171875 6.390625 31.78125 6.390625 
Q 39.453125 6.390625 43.28125 13.890625 
Q 47.125 21.390625 47.125 36.375 
Q 47.125 51.421875 43.28125 58.90625 
Q 39.453125 66.40625 31.78125 66.40625 
z
M 31.78125 74.21875 
Q 44.046875 74.21875 50.515625 64.515625 
Q 56.984375 54.828125 56.984375 36.375 
Q 56.984375 17.96875 50.515625 8.265625 
Q 44.046875 -1.421875 31.78125 -1.421875 
Q 19.53125 -1.421875 13.0625 8.265625 
Q 6.59375 17.96875 6.59375 36.375 
Q 6.59375 54.828125 13.0625 64.515625 
Q 19.53125 74.21875 31.78125 74.21875 
z
" id="DejaVuSans-30"/>
     </defs>
     <g transform="translate(105.060879 272.84452)scale(0.1 -0.1)">
      <use xlink:href="#DejaVuSans-30"/>
     </g>
    </g>
   </g>
   <g id="xtick_2">
    <g id="line2d_3">
     <path d="M 149.169762 258.782653 
L 146.575981 260.510297 
" style="fill:none;stroke:#000000;stroke-linecap:square;stroke-width:0.8;"/>
    </g>
    <g id="text_2">
     <!-- 2 -->
     <defs>
      <path d="M 19.1875 8.296875 
L 53.609375 8.296875 
L 53.609375 0 
L 7.328125 0 
L 7.328125 8.296875 
Q 12.9375 14.109375 22.625 23.890625 
Q 32.328125 33.6875 34.8125 36.53125 
Q 39.546875 41.84375 41.421875 45.53125 
Q 43.3125 49.21875 43.3125 52.78125 
Q 43.3125 58.59375 39.234375 62.25 
Q 35.15625 65.921875 28.609375 65.921875 
Q 23.96875 65.921875 18.8125 64.3125 
Q 13.671875 62.703125 7.8125 59.421875 
L 7.8125 69.390625 
Q 13.765625 71.78125 18.9375 73 
Q 24.125 74.21875 28.421875 74.21875 
Q 39.75 74.21875 46.484375 68.546875 
Q 53.21875 62.890625 53.21875 53.421875 
Q 53.21875 48.921875 51.53125 44.890625 
Q 49.859375 40.875 45.40625 35.40625 
Q 44.1875 33.984375 37.640625 27.21875 
Q 31.109375 20.453125 19.1875 8.296875 
z
" id="DejaVuSans-32"/>
     </defs>
     <g transform="translate(137.80125 280.96635)scale(0.1 -0.1)">
      <use xlink:href="#DejaVuSans-32"/>
     </g>
    </g>
   </g>
   <g id="xtick_3">
    <g id="line2d_4">
     <path d="M 182.479498 266.89887 
L 179.925969 268.657216 
" style="fill:none;stroke:#000000;stroke-linecap:square;stroke-width:0.8;"/>
    </g>
    <g id="text_3">
     <!-- 4 -->
     <defs>
      <path d="M 37.796875 64.3125 
L 12.890625 25.390625 
L 37.796875 25.390625 
z
M 35.203125 72.90625 
L 47.609375 72.90625 
L 47.609375 25.390625 
L 58.015625 25.390625 
L 58.015625 17.1875 
L 47.609375 17.1875 
L 47.609375 0 
L 37.796875 0 
L 37.796875 17.1875 
L 4.890625 17.1875 
L 4.890625 26.703125 
z
" id="DejaVuSans-34"/>
     </defs>
     <g transform="translate(171.121785 289.232101)scale(0.1 -0.1)">
      <use xlink:href="#DejaVuSans-34"/>
     </g>
    </g>
   </g>
   <g id="xtick_4">
    <g id="line2d_5">
     <path d="M 216.383263 275.159828 
L 213.871843 276.949702 
" style="fill:none;stroke:#000000;stroke-linecap:square;stroke-width:0.8;"/>
    </g>
    <g id="text_4">
     <!-- 6 -->
     <defs>
      <path d="M 33.015625 40.375 
Q 26.375 40.375 22.484375 35.828125 
Q 18.609375 31.296875 18.609375 23.390625 
Q 18.609375 15.53125 22.484375 10.953125 
Q 26.375 6.390625 33.015625 6.390625 
Q 39.65625 6.390625 43.53125 10.953125 
Q 47.40625 15.53125 47.40625 23.390625 
Q 47.40625 31.296875 43.53125 35.828125 
Q 39.65625 40.375 33.015625 40.375 
z
M 52.59375 71.296875 
L 52.59375 62.3125 
Q 48.875 64.0625 45.09375 64.984375 
Q 41.3125 65.921875 37.59375 65.921875 
Q 27.828125 65.921875 22.671875 59.328125 
Q 17.53125 52.734375 16.796875 39.40625 
Q 19.671875 43.65625 24.015625 45.921875 
Q 28.375 48.1875 33.59375 48.1875 
Q 44.578125 48.1875 50.953125 41.515625 
Q 57.328125 34.859375 57.328125 23.390625 
Q 57.328125 12.15625 50.6875 5.359375 
Q 44.046875 -1.421875 33.015625 -1.421875 
Q 20.359375 -1.421875 13.671875 8.265625 
Q 6.984375 17.96875 6.984375 36.375 
Q 6.984375 53.65625 15.1875 63.9375 
Q 23.390625 74.21875 37.203125 74.21875 
Q 40.921875 74.21875 44.703125 73.484375 
Q 48.484375 72.75 52.59375 71.296875 
z
" id="DejaVuSans-36"/>
     </defs>
     <g transform="translate(205.038042 297.64563)scale(0.1 -0.1)">
      <use xlink:href="#DejaVuSans-36"/>
     </g>
    </g>
   </g>
   <g id="xtick_5">
    <g id="line2d_6">
     <path d="M 250.897092 283.569434 
L 248.429719 285.391691 
" style="fill:none;stroke:#000000;stroke-linecap:square;stroke-width:0.8;"/>
    </g>
    <g id="text_5">
     <!-- 8 -->
     <defs>
      <path d="M 31.78125 34.625 
Q 24.75 34.625 20.71875 30.859375 
Q 16.703125 27.09375 16.703125 20.515625 
Q 16.703125 13.921875 20.71875 10.15625 
Q 24.75 6.390625 31.78125 6.390625 
Q 38.8125 6.390625 42.859375 10.171875 
Q 46.921875 13.96875 46.921875 20.515625 
Q 46.921875 27.09375 42.890625 30.859375 
Q 38.875 34.625 31.78125 34.625 
z
M 21.921875 38.8125 
Q 15.578125 40.375 12.03125 44.71875 
Q 8.5 49.078125 8.5 55.328125 
Q 8.5 64.0625 14.71875 69.140625 
Q 20.953125 74.21875 31.78125 74.21875 
Q 42.671875 74.21875 48.875 69.140625 
Q 55.078125 64.0625 55.078125 55.328125 
Q 55.078125 49.078125 51.53125 44.71875 
Q 48 40.375 41.703125 38.8125 
Q 48.828125 37.15625 52.796875 32.3125 
Q 56.78125 27.484375 56.78125 20.515625 
Q 56.78125 9.90625 50.3125 4.234375 
Q 43.84375 -1.421875 31.78125 -1.421875 
Q 19.734375 -1.421875 13.25 4.234375 
Q 6.78125 9.90625 6.78125 20.515625 
Q 6.78125 27.484375 10.78125 32.3125 
Q 14.796875 37.15625 21.921875 38.8125 
z
M 18.3125 54.390625 
Q 18.3125 48.734375 21.84375 45.5625 
Q 25.390625 42.390625 31.78125 42.390625 
Q 38.140625 42.390625 41.71875 45.5625 
Q 45.3125 48.734375 45.3125 54.390625 
Q 45.3125 60.0625 41.71875 63.234375 
Q 38.140625 66.40625 31.78125 66.40625 
Q 25.390625 66.40625 21.84375 63.234375 
Q 18.3125 60.0625 18.3125 54.390625 
z
" id="DejaVuSans-38"/>
     </defs>
     <g transform="translate(239.566142 306.210938)scale(0.1 -0.1)">
      <use xlink:href="#DejaVuSans-38"/>
     </g>
    </g>
   </g>
  </g>
  <g id="axis3d_2">
   <g id="line2d_7">
    <path d="M 372.72135 220.013954 
L 279.143747 291.264825 
" style="fill:none;stroke:#000000;stroke-linecap:square;stroke-width:0.8;"/>
   </g>
   <g id="Line3DCollection_2">
    <path d="M 104.930092 113.473196 
L 111.915028 244.331309 
L 285.548062 286.38852 
" style="fill:none;stroke:#b0b0b0;stroke-width:0.8;"/>
    <path d="M 126.984969 101.491948 
L 132.751513 231.030517 
L 304.667047 271.831144 
" style="fill:none;stroke:#b0b0b0;stroke-width:0.8;"/>
    <path d="M 148.366618 89.876429 
L 152.983668 218.115494 
L 323.206496 257.715032 
" style="fill:none;stroke:#b0b0b0;stroke-width:0.8;"/>
    <path d="M 169.105401 78.610146 
L 172.637407 205.569698 
L 341.192365 244.020421 
" style="fill:none;stroke:#b0b0b0;stroke-width:0.8;"/>
    <path d="M 189.229881 67.677581 
L 191.737187 193.377517 
L 358.649085 230.728709 
" style="fill:none;stroke:#b0b0b0;stroke-width:0.8;"/>
   </g>
   <g id="xtick_6">
    <g id="line2d_8">
     <path d="M 284.094906 286.036538 
L 288.457621 287.09327 
" style="fill:none;stroke:#000000;stroke-linecap:square;stroke-width:0.8;"/>
    </g>
    <g id="text_6">
     <!-- 0 -->
     <g transform="translate(295.066159 306.144728)scale(0.1 -0.1)">
      <use xlink:href="#DejaVuSans-30"/>
     </g>
    </g>
   </g>
   <g id="xtick_7">
    <g id="line2d_9">
     <path d="M 303.229241 271.48991 
L 307.545822 272.514362 
" style="fill:none;stroke:#000000;stroke-linecap:square;stroke-width:0.8;"/>
    </g>
    <g id="text_7">
     <!-- 2 -->
     <g transform="translate(313.980212 291.407653)scale(0.1 -0.1)">
      <use xlink:href="#DejaVuSans-32"/>
     </g>
    </g>
   </g>
   <g id="xtick_8">
    <g id="line2d_10">
     <path d="M 321.783784 257.384061 
L 326.055002 258.37769 
" style="fill:none;stroke:#000000;stroke-linecap:square;stroke-width:0.8;"/>
    </g>
    <g id="text_8">
     <!-- 4 -->
     <g transform="translate(332.321224 277.117069)scale(0.1 -0.1)">
      <use xlink:href="#DejaVuSans-34"/>
     </g>
    </g>
   </g>
   <g id="xtick_9">
    <g id="line2d_11">
     <path d="M 339.784494 243.699257 
L 344.011113 244.663433 
" style="fill:none;stroke:#000000;stroke-linecap:square;stroke-width:0.8;"/>
    </g>
    <g id="text_9">
     <!-- 6 -->
     <g transform="translate(350.114849 263.252987)scale(0.1 -0.1)">
      <use xlink:href="#DejaVuSans-36"/>
     </g>
    </g>
   </g>
   <g id="xtick_10">
    <g id="line2d_12">
     <path d="M 357.255803 230.416924 
L 361.438579 231.352936 
" style="fill:none;stroke:#000000;stroke-linecap:square;stroke-width:0.8;"/>
    </g>
    <g id="text_10">
     <!-- 8 -->
     <g transform="translate(367.385231 249.796595)scale(0.1 -0.1)">
      <use xlink:href="#DejaVuSans-38"/>
     </g>
    </g>
   </g>
  </g>
  <g id="axis3d_3">
   <g id="line2d_13">
    <path d="M 372.72135 220.013954 
L 379.648599 91.582742 
" style="fill:none;stroke:#000000;stroke-linecap:square;stroke-width:0.8;"/>
   </g>
   <g id="Line3DCollection_3">
    <path d="M 372.853105 217.571211 
L 207.118952 181.161682 
L 104.801255 246.28962 
" style="fill:none;stroke:#b0b0b0;stroke-width:0.8;"/>
    <path d="M 373.780876 200.370331 
L 206.890633 164.434166 
L 103.811508 228.73018 
" style="fill:none;stroke:#b0b0b0;stroke-width:0.8;"/>
    <path d="M 374.721795 182.925697 
L 206.659215 147.479578 
L 102.807269 210.913638 
" style="fill:none;stroke:#b0b0b0;stroke-width:0.8;"/>
    <path d="M 375.676142 165.232091 
L 206.424634 130.293261 
L 101.788218 192.834307 
" style="fill:none;stroke:#b0b0b0;stroke-width:0.8;"/>
    <path d="M 376.644208 147.284144 
L 206.186825 112.870434 
L 100.754025 174.486329 
" style="fill:none;stroke:#b0b0b0;stroke-width:0.8;"/>
    <path d="M 377.626291 129.076334 
L 205.94572 95.20618 
L 99.704349 155.863671 
" style="fill:none;stroke:#b0b0b0;stroke-width:0.8;"/>
    <path d="M 378.622696 110.602974 
L 205.701251 77.295446 
L 98.63884 136.960119 
" style="fill:none;stroke:#b0b0b0;stroke-width:0.8;"/>
   </g>
   <g id="xtick_11">
    <g id="line2d_14">
     <path d="M 371.47029 217.267425 
L 375.621611 218.179414 
" style="fill:none;stroke:#000000;stroke-linecap:square;stroke-width:0.8;"/>
    </g>
    <g id="text_11">
     <!-- 0.00 -->
     <defs>
      <path d="M 10.6875 12.40625 
L 21 12.40625 
L 21 0 
L 10.6875 0 
z
" id="DejaVuSans-2e"/>
     </defs>
     <g transform="translate(380.07012 223.203694)scale(0.1 -0.1)">
      <use xlink:href="#DejaVuSans-30"/>
      <use x="63.623047" xlink:href="#DejaVuSans-2e"/>
      <use x="95.410156" xlink:href="#DejaVuSans-30"/>
      <use x="159.033203" xlink:href="#DejaVuSans-30"/>
     </g>
    </g>
   </g>
   <g id="xtick_12">
    <g id="line2d_15">
     <path d="M 372.388012 200.070408 
L 376.569522 200.970805 
" style="fill:none;stroke:#000000;stroke-linecap:square;stroke-width:0.8;"/>
    </g>
    <g id="text_12">
     <!-- 0.02 -->
     <g transform="translate(381.124609 206.027837)scale(0.1 -0.1)">
      <use xlink:href="#DejaVuSans-30"/>
      <use x="63.623047" xlink:href="#DejaVuSans-2e"/>
      <use x="95.410156" xlink:href="#DejaVuSans-30"/>
      <use x="159.033203" xlink:href="#DejaVuSans-32"/>
     </g>
    </g>
   </g>
   <g id="xtick_13">
    <g id="line2d_16">
     <path d="M 373.318735 182.629777 
L 377.530875 183.518161 
" style="fill:none;stroke:#000000;stroke-linecap:square;stroke-width:0.8;"/>
    </g>
    <g id="text_13">
     <!-- 0.04 -->
     <g transform="translate(382.194007 188.609134)scale(0.1 -0.1)">
      <use xlink:href="#DejaVuSans-30"/>
      <use x="63.623047" xlink:href="#DejaVuSans-2e"/>
      <use x="95.410156" xlink:href="#DejaVuSans-30"/>
      <use x="159.033203" xlink:href="#DejaVuSans-34"/>
     </g>
    </g>
   </g>
   <g id="xtick_14">
    <g id="line2d_17">
     <path d="M 374.262736 164.940319 
L 378.505959 165.816254 
" style="fill:none;stroke:#000000;stroke-linecap:square;stroke-width:0.8;"/>
    </g>
    <g id="text_14">
     <!-- 0.06 -->
     <g transform="translate(383.278632 170.942399)scale(0.1 -0.1)">
      <use xlink:href="#DejaVuSans-30"/>
      <use x="63.623047" xlink:href="#DejaVuSans-2e"/>
      <use x="95.410156" xlink:href="#DejaVuSans-30"/>
      <use x="159.033203" xlink:href="#DejaVuSans-36"/>
     </g>
    </g>
   </g>
   <g id="xtick_15">
    <g id="line2d_18">
     <path d="M 375.220302 146.996671 
L 379.495069 147.859706 
" style="fill:none;stroke:#000000;stroke-linecap:square;stroke-width:0.8;"/>
    </g>
    <g id="text_15">
     <!-- 0.08 -->
     <g transform="translate(384.378813 153.022295)scale(0.1 -0.1)">
      <use xlink:href="#DejaVuSans-30"/>
      <use x="63.623047" xlink:href="#DejaVuSans-2e"/>
      <use x="95.410156" xlink:href="#DejaVuSans-30"/>
      <use x="159.033203" xlink:href="#DejaVuSans-38"/>
     </g>
    </g>
   </g>
   <g id="xtick_16">
    <g id="line2d_19">
     <path d="M 376.191727 128.793315 
L 380.49851 129.642982 
" style="fill:none;stroke:#000000;stroke-linecap:square;stroke-width:0.8;"/>
    </g>
    <g id="text_16">
     <!-- 0.10 -->
     <defs>
      <path d="M 12.40625 8.296875 
L 28.515625 8.296875 
L 28.515625 63.921875 
L 10.984375 60.40625 
L 10.984375 69.390625 
L 28.421875 72.90625 
L 38.28125 72.90625 
L 38.28125 8.296875 
L 54.390625 8.296875 
L 54.390625 0 
L 12.40625 0 
z
" id="DejaVuSans-31"/>
     </defs>
     <g transform="translate(385.494886 134.843332)scale(0.1 -0.1)">
      <use xlink:href="#DejaVuSans-30"/>
      <use x="63.623047" xlink:href="#DejaVuSans-2e"/>
      <use x="95.410156" xlink:href="#DejaVuSans-31"/>
      <use x="159.033203" xlink:href="#DejaVuSans-30"/>
     </g>
    </g>
   </g>
   <g id="xtick_17">
    <g id="line2d_20">
     <path d="M 377.177315 110.32457 
L 381.516596 111.160387 
" style="fill:none;stroke:#000000;stroke-linecap:square;stroke-width:0.8;"/>
    </g>
    <g id="text_17">
     <!-- 0.12 -->
     <g transform="translate(386.627198 116.399862)scale(0.1 -0.1)">
      <use xlink:href="#DejaVuSans-30"/>
      <use x="63.623047" xlink:href="#DejaVuSans-2e"/>
      <use x="95.410156" xlink:href="#DejaVuSans-31"/>
      <use x="159.033203" xlink:href="#DejaVuSans-32"/>
     </g>
    </g>
   </g>
  </g>
  <g id="axes_1">
   <g id="Poly3DCollection_1">
    <path clip-path="url(#pafdf48813d)" d="M 297.880773 214.679848 
L 306.734073 208.387409 
L 323.119039 212.009252 
L 314.347819 218.354366 
L 297.880773 214.679848 
z
" style="fill:#0d0887;"/>
    <path clip-path="url(#pafdf48813d)" d="M 314.347819 218.354366 
L 323.119039 212.009252 
L 339.641325 215.661449 
L 330.953872 222.060179 
L 314.347819 218.354366 
z
" style="fill:#0d0887;"/>
    <path clip-path="url(#pafdf48813d)" d="M 288.898166 221.064191 
L 297.880773 214.679848 
L 314.347819 218.354366 
L 305.44798 224.791269 
L 288.898166 221.064191 
z
" style="fill:#0d0887;"/>
    <path clip-path="url(#pafdf48813d)" d="M 330.953872 222.060179 
L 339.641325 215.661449 
L 356.302663 219.344384 
L 347.700713 225.797289 
L 330.953872 222.060179 
z
" style="fill:#0d0887;"/>
    <path clip-path="url(#pafdf48813d)" d="M 305.44798 224.791269 
L 314.347819 218.354366 
L 330.953872 222.060179 
L 322.138455 228.553139 
L 305.44798 224.791269 
z
" style="fill:#0d0887;"/>
    <path clip-path="url(#pafdf48813d)" d="M 279.783398 227.542468 
L 288.898166 221.064191 
L 305.44798 224.791269 
L 296.417048 231.304894 
L 279.783398 227.542468 
z
" style="fill:#0d0887;"/>
    <path clip-path="url(#pafdf48813d)" d="M 322.138455 228.553139 
L 330.953872 222.060179 
L 347.700713 225.797289 
L 338.971516 232.34565 
L 322.138455 228.553139 
z
" style="fill:#0d0887;"/>
    <path clip-path="url(#pafdf48813d)" d="M 296.417048 231.304894 
L 305.44798 224.791269 
L 322.138455 228.553139 
L 313.192359 235.137993 
L 296.417048 231.304894 
z
" style="fill:#0d0887;"/>
    <path clip-path="url(#pafdf48813d)" d="M 270.533529 234.116766 
L 279.783398 227.542468 
L 296.417048 231.304894 
L 287.253738 237.800018 
L 270.533529 234.116766 
z
" style="fill:#0d0887;"/>
    <path clip-path="url(#pafdf48813d)" d="M 199.995888 72.810369 
L 209.767498 66.978597 
L 226.119126 70.201945 
L 216.423998 75.981647 
L 199.995888 72.810369 
z
" style="fill:#f0f921;"/>
    <path clip-path="url(#pafdf48813d)" d="M 313.192359 235.137993 
L 322.138455 228.553139 
L 338.971516 232.34565 
L 330.112229 238.991601 
L 313.192359 235.137993 
z
" style="fill:#0d0887;"/>
    <path clip-path="url(#pafdf48813d)" d="M 283.57364 88.807939 
L 292.942068 82.789299 
L 306.734073 208.387409 
L 297.880773 214.679848 
L 283.57364 88.807939 
z
" style="fill:#e16462;"/>
    <path clip-path="url(#pafdf48813d)" d="M 287.253738 237.800018 
L 296.417048 231.304894 
L 313.192359 235.137993 
L 304.112247 241.830381 
L 287.253738 237.800018 
z
" style="fill:#0d0887;"/>
    <path clip-path="url(#pafdf48813d)" d="M 216.423998 75.981647 
L 226.119126 70.201945 
L 242.609536 73.293542 
L 232.994033 79.272734 
L 216.423998 75.981647 
z
" style="fill:#f0f921;"/>
    <path clip-path="url(#pafdf48813d)" d="M 261.145536 240.789236 
L 270.533529 234.116766 
L 287.253738 237.800018 
L 277.952291 244.37124 
L 261.145536 240.789236 
z
" style="fill:#0d0887;"/>
    <path clip-path="url(#pafdf48813d)" d="M 190.09211 79.259599 
L 199.995888 72.810369 
L 216.423998 75.981647 
L 206.593781 82.433671 
L 190.09211 79.259599 
z
" style="fill:#f0f724;"/>
    <path clip-path="url(#pafdf48813d)" d="M 304.112247 241.830381 
L 313.192359 235.137993 
L 330.112229 238.991601 
L 321.119922 245.737339 
L 304.112247 241.830381 
z
" style="fill:#0d0887;"/>
    <path clip-path="url(#pafdf48813d)" d="M 232.994033 79.272734 
L 242.609536 73.293542 
L 259.242663 76.382097 
L 249.705319 82.89683 
L 232.994033 79.272734 
z
" style="fill:#f0f921;"/>
    <path clip-path="url(#pafdf48813d)" d="M 274.059381 95.352853 
L 283.57364 88.807939 
L 297.880773 214.679848 
L 288.898166 221.064191 
L 274.059381 95.352853 
z
" style="fill:#e06363;"/>
    <path clip-path="url(#pafdf48813d)" d="M 277.952291 244.37124 
L 287.253738 237.800018 
L 304.112247 241.830381 
L 294.902708 248.296379 
L 277.952291 244.37124 
z
" style="fill:#0d0887;"/>
    <path clip-path="url(#pafdf48813d)" d="M 206.593781 82.433671 
L 216.423998 75.981647 
L 232.994033 79.272734 
L 223.242859 86.143018 
L 206.593781 82.433671 
z
" style="fill:#f0f724;"/>
    <path clip-path="url(#pafdf48813d)" d="M 249.705319 82.89683 
L 259.242663 76.382097 
L 276.018696 79.633587 
L 266.561691 86.050358 
L 249.705319 82.89683 
z
" style="fill:#f0f921;"/>
    <path clip-path="url(#pafdf48813d)" d="M 180.053938 86.100473 
L 190.09211 79.259599 
L 206.593781 82.433671 
L 196.630212 89.445835 
L 180.053938 86.100473 
z
" style="fill:#f1f426;"/>
    <path clip-path="url(#pafdf48813d)" d="M 294.902708 248.296379 
L 304.112247 241.830381 
L 321.119922 245.737339 
L 311.995896 252.438487 
L 294.902708 248.296379 
z
" style="fill:#0d0887;"/>
    <path clip-path="url(#pafdf48813d)" d="M 223.242859 86.143018 
L 232.994033 79.272734 
L 249.705319 82.89683 
L 240.030986 89.517675 
L 223.242859 86.143018 
z
" style="fill:#f1f525;"/>
    <path clip-path="url(#pafdf48813d)" d="M 264.393141 103.286172 
L 274.059381 95.352853 
L 288.898166 221.064191 
L 279.783398 227.542468 
L 264.393141 103.286172 
z
" style="fill:#de6164;"/>
    <path clip-path="url(#pafdf48813d)" d="M 266.561691 86.050358 
L 276.018696 79.633587 
L 292.942068 82.789299 
L 283.57364 88.807939 
L 266.561691 86.050358 
z
" style="fill:#f0f921;"/>
    <path clip-path="url(#pafdf48813d)" d="M 196.630212 89.445835 
L 206.593781 82.433671 
L 223.242859 86.143018 
L 213.355231 93.258496 
L 196.630212 89.445835 
z
" style="fill:#f2f227;"/>
    <path clip-path="url(#pafdf48813d)" d="M 268.546519 247.758933 
L 277.952291 244.37124 
L 294.902708 248.296379 
L 285.564766 254.111989 
L 268.546519 247.758933 
z
" style="fill:#19068c;"/>
    <path clip-path="url(#pafdf48813d)" d="M 251.751262 216.903494 
L 261.145536 240.789236 
L 277.952291 244.37124 
L 268.546519 247.758933 
L 251.751262 216.903494 
z
" style="fill:#44039e;"/>
    <path clip-path="url(#pafdf48813d)" d="M 240.030986 89.517675 
L 249.705319 82.89683 
L 266.561691 86.050358 
L 256.968359 92.363317 
L 240.030986 89.517675 
z
" style="fill:#f1f525;"/>
    <path clip-path="url(#pafdf48813d)" d="M 169.903043 94.097552 
L 180.053938 86.100473 
L 196.630212 89.445835 
L 186.542145 97.318856 
L 169.903043 94.097552 
z
" style="fill:#f4ed27;"/>
    <path clip-path="url(#pafdf48813d)" d="M 213.355231 93.258496 
L 223.242859 86.143018 
L 240.030986 89.517675 
L 230.217956 96.513825 
L 213.355231 93.258496 
z
" style="fill:#f2f227;"/>
    <path clip-path="url(#pafdf48813d)" d="M 285.564766 254.111989 
L 294.902708 248.296379 
L 311.995896 252.438487 
L 302.733044 259.188405 
L 285.564766 254.111989 
z
" style="fill:#100788;"/>
    <path clip-path="url(#pafdf48813d)" d="M 254.595379 110.960132 
L 264.393141 103.286172 
L 279.783398 227.542468 
L 270.533529 234.116766 
L 254.595379 110.960132 
z
" style="fill:#dd5e66;"/>
    <path clip-path="url(#pafdf48813d)" d="M 256.968359 92.363317 
L 266.561691 86.050358 
L 283.57364 88.807939 
L 274.059381 95.352853 
L 256.968359 92.363317 
z
" style="fill:#f0f724;"/>
    <path clip-path="url(#pafdf48813d)" d="M 186.542145 97.318856 
L 196.630212 89.445835 
L 213.355231 93.258496 
L 203.344763 101.628979 
L 186.542145 97.318856 
z
" style="fill:#f5eb27;"/>
    <path clip-path="url(#pafdf48813d)" d="M 230.217956 96.513825 
L 240.030986 89.517675 
L 256.968359 92.363317 
L 247.229079 100.36358 
L 230.217956 96.513825 
z
" style="fill:#f2f227;"/>
    <path clip-path="url(#pafdf48813d)" d="M 159.603433 101.805467 
L 169.903043 94.097552 
L 186.542145 97.318856 
L 176.332933 105.938696 
L 159.603433 101.805467 
z
" style="fill:#f7e425;"/>
    <path clip-path="url(#pafdf48813d)" d="M 258.974322 250.628987 
L 268.546519 247.758933 
L 285.564766 254.111989 
L 276.064481 260.774138 
L 258.974322 250.628987 
z
" style="fill:#240691;"/>
    <path clip-path="url(#pafdf48813d)" d="M 241.950439 234.726056 
L 251.751262 216.903494 
L 268.546519 247.758933 
L 258.974322 250.628987 
L 241.950439 234.726056 
z
" style="fill:#5002a2;"/>
    <path clip-path="url(#pafdf48813d)" d="M 203.344763 101.628979 
L 213.355231 93.258496 
L 230.217956 96.513825 
L 220.288109 106.56236 
L 203.344763 101.628979 
z
" style="fill:#f5e926;"/>
    <path clip-path="url(#pafdf48813d)" d="M 276.064481 260.774138 
L 285.564766 254.111989 
L 302.733044 259.188405 
L 293.332046 265.780491 
L 276.064481 260.774138 
z
" style="fill:#130789;"/>
    <path clip-path="url(#pafdf48813d)" d="M 244.657881 119.155197 
L 254.595379 110.960132 
L 270.533529 234.116766 
L 261.145536 240.789236 
L 244.657881 119.155197 
z
" style="fill:#db5c68;"/>
    <path clip-path="url(#pafdf48813d)" d="M 247.229079 100.36358 
L 256.968359 92.363317 
L 274.059381 95.352853 
L 264.393141 103.286172 
L 247.229079 100.36358 
z
" style="fill:#f2f227;"/>
    <path clip-path="url(#pafdf48813d)" d="M 176.332933 105.938696 
L 186.542145 97.318856 
L 203.344763 101.628979 
L 193.199821 110.050693 
L 176.332933 105.938696 
z
" style="fill:#f7e225;"/>
    <path clip-path="url(#pafdf48813d)" d="M 220.288109 106.56236 
L 230.217956 96.513825 
L 247.229079 100.36358 
L 237.357236 108.72804 
L 220.288109 106.56236 
z
" style="fill:#f6e826;"/>
    <path clip-path="url(#pafdf48813d)" d="M 149.149448 109.28412 
L 159.603433 101.805467 
L 176.332933 105.938696 
L 165.97084 114.055036 
L 149.149448 109.28412 
z
" style="fill:#f9dd25;"/>
    <path clip-path="url(#pafdf48813d)" d="M 193.199821 110.050693 
L 203.344763 101.628979 
L 220.288109 106.56236 
L 210.217933 115.05302 
L 193.199821 110.050693 
z
" style="fill:#f8df25;"/>
    <path clip-path="url(#pafdf48813d)" d="M 249.240859 248.049634 
L 258.974322 250.628987 
L 276.064481 260.774138 
L 266.471591 262.215383 
L 249.240859 248.049634 
z
" style="fill:#3a049a;"/>
    <path clip-path="url(#pafdf48813d)" d="M 237.357236 108.72804 
L 247.229079 100.36358 
L 264.393141 103.286172 
L 254.595379 110.960132 
L 237.357236 108.72804 
z
" style="fill:#f5e926;"/>
    <path clip-path="url(#pafdf48813d)" d="M 165.97084 114.055036 
L 176.332933 105.938696 
L 193.199821 110.050693 
L 182.937599 119.429004 
L 165.97084 114.055036 
z
" style="fill:#fada24;"/>
    <path clip-path="url(#pafdf48813d)" d="M 266.471591 262.215383 
L 276.064481 260.774138 
L 293.332046 265.780491 
L 283.798887 271.521105 
L 266.471591 262.215383 
z
" style="fill:#220690;"/>
    <path clip-path="url(#pafdf48813d)" d="M 210.217933 115.05302 
L 220.288109 106.56236 
L 237.357236 108.72804 
L 227.356807 118.150761 
L 210.217933 115.05302 
z
" style="fill:#f9dd25;"/>
    <path clip-path="url(#pafdf48813d)" d="M 234.588628 130.271367 
L 244.657881 119.155197 
L 261.145536 240.789236 
L 251.751262 216.903494 
L 234.588628 130.271367 
z
" style="fill:#e26561;"/>
    <path clip-path="url(#pafdf48813d)" d="M 231.957557 217.109688 
L 241.950439 234.726056 
L 258.974322 250.628987 
L 249.240859 248.049634 
L 231.957557 217.109688 
z
" style="fill:#7100a8;"/>
    <path clip-path="url(#pafdf48813d)" d="M 138.587896 117.879576 
L 149.149448 109.28412 
L 165.97084 114.055036 
L 155.465984 122.28311 
L 138.587896 117.879576 
z
" style="fill:#fbd724;"/>
    <path clip-path="url(#pafdf48813d)" d="M 182.937599 119.429004 
L 193.199821 110.050693 
L 210.217933 115.05302 
L 200.000526 122.963692 
L 182.937599 119.429004 
z
" style="fill:#fbd524;"/>
    <path clip-path="url(#pafdf48813d)" d="M 227.356807 118.150761 
L 237.357236 108.72804 
L 254.595379 110.960132 
L 244.657881 119.155197 
L 227.356807 118.150761 
z
" style="fill:#f8e125;"/>
    <path clip-path="url(#pafdf48813d)" d="M 155.465984 122.28311 
L 165.97084 114.055036 
L 182.937599 119.429004 
L 172.504011 127.474731 
L 155.465984 122.28311 
z
" style="fill:#fcd225;"/>
    <path clip-path="url(#pafdf48813d)" d="M 200.000526 122.963692 
L 210.217933 115.05302 
L 227.356807 118.150761 
L 217.228862 127.824996 
L 200.000526 122.963692 
z
" style="fill:#fbd324;"/>
    <path clip-path="url(#pafdf48813d)" d="M 224.424461 145.169221 
L 234.588628 130.271367 
L 251.751262 216.903494 
L 241.950439 234.726056 
L 224.424461 145.169221 
z
" style="fill:#e16462;"/>
    <path clip-path="url(#pafdf48813d)" d="M 127.847004 125.759772 
L 138.587896 117.879576 
L 155.465984 122.28311 
L 144.801462 130.258445 
L 127.847004 125.759772 
z
" style="fill:#fcd025;"/>
    <path clip-path="url(#pafdf48813d)" d="M 256.683693 263.598979 
L 266.471591 262.215383 
L 283.798887 271.521105 
L 274.101708 277.618547 
L 256.683693 263.598979 
z
" style="fill:#310597;"/>
    <path clip-path="url(#pafdf48813d)" d="M 172.504011 127.474731 
L 182.937599 119.429004 
L 200.000526 122.963692 
L 189.671128 132.596619 
L 172.504011 127.474731 
z
" style="fill:#fccd25;"/>
    <path clip-path="url(#pafdf48813d)" d="M 239.270732 236.994994 
L 249.240859 248.049634 
L 266.471591 262.215383 
L 256.683693 263.598979 
L 239.270732 236.994994 
z
" style="fill:#6100a7;"/>
    <path clip-path="url(#pafdf48813d)" d="M 217.228862 127.824996 
L 227.356807 118.150761 
L 244.657881 119.155197 
L 234.588628 130.271367 
L 217.228862 127.824996 
z
" style="fill:#fbd524;"/>
    <path clip-path="url(#pafdf48813d)" d="M 144.801462 130.258445 
L 155.465984 122.28311 
L 172.504011 127.474731 
L 161.918132 135.47753 
L 144.801462 130.258445 
z
" style="fill:#fdcb26;"/>
    <path clip-path="url(#pafdf48813d)" d="M 189.671128 132.596619 
L 200.000526 122.963692 
L 217.228862 127.824996 
L 206.988355 138.929906 
L 189.671128 132.596619 
z
" style="fill:#fdca26;"/>
    <path clip-path="url(#pafdf48813d)" d="M 214.14543 157.959222 
L 224.424461 145.169221 
L 241.950439 234.726056 
L 231.957557 217.109688 
L 214.14543 157.959222 
z
" style="fill:#df6263;"/>
    <path clip-path="url(#pafdf48813d)" d="M 221.662782 206.778106 
L 231.957557 217.109688 
L 249.240859 248.049634 
L 239.270732 236.994994 
L 221.662782 206.778106 
z
" style="fill:#a31e9a;"/>
    <path clip-path="url(#pafdf48813d)" d="M 116.89823 132.630314 
L 127.847004 125.759772 
L 144.801462 130.258445 
L 133.947096 137.458063 
L 116.89823 132.630314 
z
" style="fill:#fdcb26;"/>
    <path clip-path="url(#pafdf48813d)" d="M 161.918132 135.47753 
L 172.504011 127.474731 
L 189.671128 132.596619 
L 179.232088 143.342637 
L 161.918132 135.47753 
z
" style="fill:#fdc527;"/>
    <path clip-path="url(#pafdf48813d)" d="M 206.988355 138.929906 
L 217.228862 127.824996 
L 234.588628 130.271367 
L 224.424461 145.169221 
L 206.988355 138.929906 
z
" style="fill:#fdc328;"/>
    <path clip-path="url(#pafdf48813d)" d="M 179.232088 143.342637 
L 189.671128 132.596619 
L 206.988355 138.929906 
L 196.616307 149.607239 
L 179.232088 143.342637 
z
" style="fill:#febb2b;"/>
    <path clip-path="url(#pafdf48813d)" d="M 133.947096 137.458063 
L 144.801462 130.258445 
L 161.918132 135.47753 
L 151.162304 143.09027 
L 133.947096 137.458063 
z
" style="fill:#fdc827;"/>
    <path clip-path="url(#pafdf48813d)" d="M 196.616307 149.607239 
L 206.988355 138.929906 
L 224.424461 145.169221 
L 214.14543 157.959222 
L 196.616307 149.607239 
z
" style="fill:#fdb22f;"/>
    <path clip-path="url(#pafdf48813d)" d="M 151.162304 143.09027 
L 161.918132 135.47753 
L 179.232088 143.342637 
L 168.577875 151.190929 
L 151.162304 143.09027 
z
" style="fill:#febe2a;"/>
    <path clip-path="url(#pafdf48813d)" d="M 203.892058 180.030271 
L 214.14543 157.959222 
L 231.957557 217.109688 
L 221.662782 206.778106 
L 203.892058 180.030271 
z
" style="fill:#e16462;"/>
    <path clip-path="url(#pafdf48813d)" d="M 168.577875 151.190929 
L 179.232088 143.342637 
L 196.616307 149.607239 
L 186.149619 161.96851 
L 168.577875 151.190929 
z
" style="fill:#fdb130;"/>
    <path clip-path="url(#pafdf48813d)" d="M 186.149619 161.96851 
L 196.616307 149.607239 
L 214.14543 157.959222 
L 203.892058 180.030271 
L 186.149619 161.96851 
z
" style="fill:#fa9c3c;"/>
   </g>
  </g>
 </g>
 <defs>
  <clipPath id="pafdf48813d">
   <rect height="266.112" width="357.12" x="57.6" y="41.472"/>
  </clipPath>
 </defs>
</svg>
