<?xml version="1.0" encoding="utf-8" standalone="no"?>
<!DOCTYPE svg PUBLIC "-//W3C//DTD SVG 1.1//EN"
  "http://www.w3.org/Graphics/SVG/1.1/DTD/svg11.dtd">
<!-- Created with matplotlib (http://matplotlib.org/) -->
<svg height="345pt" version="1.1" viewBox="0 0 460 345" width="460pt" xmlns="http://www.w3.org/2000/svg" xmlns:xlink="http://www.w3.org/1999/xlink">
 <defs>
  <style type="text/css">
*{stroke-linecap:butt;stroke-linejoin:round;}
  </style>
 </defs>
 <g id="figure_1">
  <g id="patch_1">
   <path d="M 0 345.6 
L 460.8 345.6 
L 460.8 0 
L 0 0 
z
" style="fill:#ffffff;"/>
  </g>
  <g id="patch_2">
   <path d="M 57.6 307.584 
L 414.72 307.584 
L 414.72 41.472 
L 57.6 41.472 
z
" style="fill:#ffffff;"/>
  </g>
  <g id="pane3d_1">
   <g id="patch_3">
    <path d="M 104.941774 248.782626 
L 207.151387 183.537994 
L 205.449705 58.866209 
L 97.541237 117.48717 
" style="fill:#f2f2f2;opacity:0.5;stroke:#f2f2f2;stroke-linejoin:miter;"/>
   </g>
  </g>
  <g id="pane3d_2">
   <g id="patch_4">
    <path d="M 207.151387 183.537994 
L 372.72135 220.013954 
L 379.648599 91.582742 
L 205.449705 58.866209 
" style="fill:#e6e6e6;opacity:0.5;stroke:#e6e6e6;stroke-linejoin:miter;"/>
   </g>
  </g>
  <g id="pane3d_3">
   <g id="patch_5">
    <path d="M 104.941774 248.782626 
L 279.143747 291.264825 
L 372.72135 220.013954 
L 207.151387 183.537994 
" style="fill:#ececec;opacity:0.5;stroke:#ececec;stroke-linejoin:miter;"/>
   </g>
  </g>
  <g id="axis3d_1">
   <g id="line2d_1">
    <path d="M 104.941774 248.782626 
L 279.143747 291.264825 
" style="fill:none;stroke:#000000;stroke-linecap:square;stroke-width:0.8;"/>
   </g>
   <g id="Line3DCollection_1">
    <path d="M 115.562252 251.372616 
L 217.277438 185.768818 
L 216.081723 60.863023 
" style="fill:none;stroke:#b0b0b0;stroke-width:0.8;"/>
    <path d="M 148.306252 259.357813 
L 248.470984 192.640925 
L 248.851709 67.017599 
" style="fill:none;stroke:#b0b0b0;stroke-width:0.8;"/>
    <path d="M 181.629397 267.484245 
L 280.175868 199.625682 
L 282.186433 73.278239 
" style="fill:none;stroke:#b0b0b0;stroke-width:0.8;"/>
    <path d="M 215.547191 275.755692 
L 312.404765 206.725883 
L 316.10062 79.647709 
" style="fill:none;stroke:#b0b0b0;stroke-width:0.8;"/>
    <path d="M 250.075693 284.176071 
L 345.170776 213.944413 
L 350.609512 86.128871 
" style="fill:none;stroke:#b0b0b0;stroke-width:0.8;"/>
   </g>
   <g id="xtick_1">
    <g id="line2d_2">
     <path d="M 116.438581 250.807405 
L 113.806326 252.505145 
" style="fill:none;stroke:#000000;stroke-linecap:square;stroke-width:0.8;"/>
    </g>
    <g id="text_1">
     <!-- 0 -->
     <defs>
      <path d="M 31.78125 66.40625 
Q 24.171875 66.40625 20.328125 58.90625 
Q 16.5 51.421875 16.5 36.375 
Q 16.5 21.390625 20.328125 13.890625 
Q 24.171875 6.390625 31.78125 6.390625 
Q 39.453125 6.390625 43.28125 13.890625 
Q 47.125 21.390625 47.125 36.375 
Q 47.125 51.421875 43.28125 58.90625 
Q 39.453125 66.40625 31.78125 66.40625 
z
M 31.78125 74.21875 
Q 44.046875 74.21875 50.515625 64.515625 
Q 56.984375 54.828125 56.984375 36.375 
Q 56.984375 17.96875 50.515625 8.265625 
Q 44.046875 -1.421875 31.78125 -1.421875 
Q 19.53125 -1.421875 13.0625 8.265625 
Q 6.59375 17.96875 6.59375 36.375 
Q 6.59375 54.828125 13.0625 64.515625 
Q 19.53125 74.21875 31.78125 74.21875 
z
" id="DejaVuSans-30"/>
     </defs>
     <g transform="translate(105.060879 272.84452)scale(0.1 -0.1)">
      <use xlink:href="#DejaVuSans-30"/>
     </g>
    </g>
   </g>
   <g id="xtick_2">
    <g id="line2d_3">
     <path d="M 149.169762 258.782653 
L 146.575981 260.510297 
" style="fill:none;stroke:#000000;stroke-linecap:square;stroke-width:0.8;"/>
    </g>
    <g id="text_2">
     <!-- 2 -->
     <defs>
      <path d="M 19.1875 8.296875 
L 53.609375 8.296875 
L 53.609375 0 
L 7.328125 0 
L 7.328125 8.296875 
Q 12.9375 14.109375 22.625 23.890625 
Q 32.328125 33.6875 34.8125 36.53125 
Q 39.546875 41.84375 41.421875 45.53125 
Q 43.3125 49.21875 43.3125 52.78125 
Q 43.3125 58.59375 39.234375 62.25 
Q 35.15625 65.921875 28.609375 65.921875 
Q 23.96875 65.921875 18.8125 64.3125 
Q 13.671875 62.703125 7.8125 59.421875 
L 7.8125 69.390625 
Q 13.765625 71.78125 18.9375 73 
Q 24.125 74.21875 28.421875 74.21875 
Q 39.75 74.21875 46.484375 68.546875 
Q 53.21875 62.890625 53.21875 53.421875 
Q 53.21875 48.921875 51.53125 44.890625 
Q 49.859375 40.875 45.40625 35.40625 
Q 44.1875 33.984375 37.640625 27.21875 
Q 31.109375 20.453125 19.1875 8.296875 
z
" id="DejaVuSans-32"/>
     </defs>
     <g transform="translate(137.80125 280.96635)scale(0.1 -0.1)">
      <use xlink:href="#DejaVuSans-32"/>
     </g>
    </g>
   </g>
   <g id="xtick_3">
    <g id="line2d_4">
     <path d="M 182.479498 266.89887 
L 179.925969 268.657216 
" style="fill:none;stroke:#000000;stroke-linecap:square;stroke-width:0.8;"/>
    </g>
    <g id="text_3">
     <!-- 4 -->
     <defs>
      <path d="M 37.796875 64.3125 
L 12.890625 25.390625 
L 37.796875 25.390625 
z
M 35.203125 72.90625 
L 47.609375 72.90625 
L 47.609375 25.390625 
L 58.015625 25.390625 
L 58.015625 17.1875 
L 47.609375 17.1875 
L 47.609375 0 
L 37.796875 0 
L 37.796875 17.1875 
L 4.890625 17.1875 
L 4.890625 26.703125 
z
" id="DejaVuSans-34"/>
     </defs>
     <g transform="translate(171.121785 289.232101)scale(0.1 -0.1)">
      <use xlink:href="#DejaVuSans-34"/>
     </g>
    </g>
   </g>
   <g id="xtick_4">
    <g id="line2d_5">
     <path d="M 216.383263 275.159828 
L 213.871843 276.949702 
" style="fill:none;stroke:#000000;stroke-linecap:square;stroke-width:0.8;"/>
    </g>
    <g id="text_4">
     <!-- 6 -->
     <defs>
      <path d="M 33.015625 40.375 
Q 26.375 40.375 22.484375 35.828125 
Q 18.609375 31.296875 18.609375 23.390625 
Q 18.609375 15.53125 22.484375 10.953125 
Q 26.375 6.390625 33.015625 6.390625 
Q 39.65625 6.390625 43.53125 10.953125 
Q 47.40625 15.53125 47.40625 23.390625 
Q 47.40625 31.296875 43.53125 35.828125 
Q 39.65625 40.375 33.015625 40.375 
z
M 52.59375 71.296875 
L 52.59375 62.3125 
Q 48.875 64.0625 45.09375 64.984375 
Q 41.3125 65.921875 37.59375 65.921875 
Q 27.828125 65.921875 22.671875 59.328125 
Q 17.53125 52.734375 16.796875 39.40625 
Q 19.671875 43.65625 24.015625 45.921875 
Q 28.375 48.1875 33.59375 48.1875 
Q 44.578125 48.1875 50.953125 41.515625 
Q 57.328125 34.859375 57.328125 23.390625 
Q 57.328125 12.15625 50.6875 5.359375 
Q 44.046875 -1.421875 33.015625 -1.421875 
Q 20.359375 -1.421875 13.671875 8.265625 
Q 6.984375 17.96875 6.984375 36.375 
Q 6.984375 53.65625 15.1875 63.9375 
Q 23.390625 74.21875 37.203125 74.21875 
Q 40.921875 74.21875 44.703125 73.484375 
Q 48.484375 72.75 52.59375 71.296875 
z
" id="DejaVuSans-36"/>
     </defs>
     <g transform="translate(205.038042 297.64563)scale(0.1 -0.1)">
      <use xlink:href="#DejaVuSans-36"/>
     </g>
    </g>
   </g>
   <g id="xtick_5">
    <g id="line2d_6">
     <path d="M 250.897092 283.569434 
L 248.429719 285.391691 
" style="fill:none;stroke:#000000;stroke-linecap:square;stroke-width:0.8;"/>
    </g>
    <g id="text_5">
     <!-- 8 -->
     <defs>
      <path d="M 31.78125 34.625 
Q 24.75 34.625 20.71875 30.859375 
Q 16.703125 27.09375 16.703125 20.515625 
Q 16.703125 13.921875 20.71875 10.15625 
Q 24.75 6.390625 31.78125 6.390625 
Q 38.8125 6.390625 42.859375 10.171875 
Q 46.921875 13.96875 46.921875 20.515625 
Q 46.921875 27.09375 42.890625 30.859375 
Q 38.875 34.625 31.78125 34.625 
z
M 21.921875 38.8125 
Q 15.578125 40.375 12.03125 44.71875 
Q 8.5 49.078125 8.5 55.328125 
Q 8.5 64.0625 14.71875 69.140625 
Q 20.953125 74.21875 31.78125 74.21875 
Q 42.671875 74.21875 48.875 69.140625 
Q 55.078125 64.0625 55.078125 55.328125 
Q 55.078125 49.078125 51.53125 44.71875 
Q 48 40.375 41.703125 38.8125 
Q 48.828125 37.15625 52.796875 32.3125 
Q 56.78125 27.484375 56.78125 20.515625 
Q 56.78125 9.90625 50.3125 4.234375 
Q 43.84375 -1.421875 31.78125 -1.421875 
Q 19.734375 -1.421875 13.25 4.234375 
Q 6.78125 9.90625 6.78125 20.515625 
Q 6.78125 27.484375 10.78125 32.3125 
Q 14.796875 37.15625 21.921875 38.8125 
z
M 18.3125 54.390625 
Q 18.3125 48.734375 21.84375 45.5625 
Q 25.390625 42.390625 31.78125 42.390625 
Q 38.140625 42.390625 41.71875 45.5625 
Q 45.3125 48.734375 45.3125 54.390625 
Q 45.3125 60.0625 41.71875 63.234375 
Q 38.140625 66.40625 31.78125 66.40625 
Q 25.390625 66.40625 21.84375 63.234375 
Q 18.3125 60.0625 18.3125 54.390625 
z
" id="DejaVuSans-38"/>
     </defs>
     <g transform="translate(239.566142 306.210938)scale(0.1 -0.1)">
      <use xlink:href="#DejaVuSans-38"/>
     </g>
    </g>
   </g>
  </g>
  <g id="axis3d_2">
   <g id="line2d_7">
    <path d="M 372.72135 220.013954 
L 279.143747 291.264825 
" style="fill:none;stroke:#000000;stroke-linecap:square;stroke-width:0.8;"/>
   </g>
   <g id="Line3DCollection_2">
    <path d="M 104.930092 113.473196 
L 111.915028 244.331309 
L 285.548062 286.38852 
" style="fill:none;stroke:#b0b0b0;stroke-width:0.8;"/>
    <path d="M 126.984969 101.491948 
L 132.751513 231.030517 
L 304.667047 271.831144 
" style="fill:none;stroke:#b0b0b0;stroke-width:0.8;"/>
    <path d="M 148.366618 89.876429 
L 152.983668 218.115494 
L 323.206496 257.715032 
" style="fill:none;stroke:#b0b0b0;stroke-width:0.8;"/>
    <path d="M 169.105401 78.610146 
L 172.637407 205.569698 
L 341.192365 244.020421 
" style="fill:none;stroke:#b0b0b0;stroke-width:0.8;"/>
    <path d="M 189.229881 67.677581 
L 191.737187 193.377517 
L 358.649085 230.728709 
" style="fill:none;stroke:#b0b0b0;stroke-width:0.8;"/>
   </g>
   <g id="xtick_6">
    <g id="line2d_8">
     <path d="M 284.094906 286.036538 
L 288.457621 287.09327 
" style="fill:none;stroke:#000000;stroke-linecap:square;stroke-width:0.8;"/>
    </g>
    <g id="text_6">
     <!-- 0 -->
     <g transform="translate(295.066159 306.144728)scale(0.1 -0.1)">
      <use xlink:href="#DejaVuSans-30"/>
     </g>
    </g>
   </g>
   <g id="xtick_7">
    <g id="line2d_9">
     <path d="M 303.229241 271.48991 
L 307.545822 272.514362 
" style="fill:none;stroke:#000000;stroke-linecap:square;stroke-width:0.8;"/>
    </g>
    <g id="text_7">
     <!-- 2 -->
     <g transform="translate(313.980212 291.407653)scale(0.1 -0.1)">
      <use xlink:href="#DejaVuSans-32"/>
     </g>
    </g>
   </g>
   <g id="xtick_8">
    <g id="line2d_10">
     <path d="M 321.783784 257.384061 
L 326.055002 258.37769 
" style="fill:none;stroke:#000000;stroke-linecap:square;stroke-width:0.8;"/>
    </g>
    <g id="text_8">
     <!-- 4 -->
     <g transform="translate(332.321224 277.117069)scale(0.1 -0.1)">
      <use xlink:href="#DejaVuSans-34"/>
     </g>
    </g>
   </g>
   <g id="xtick_9">
    <g id="line2d_11">
     <path d="M 339.784494 243.699257 
L 344.011113 244.663433 
" style="fill:none;stroke:#000000;stroke-linecap:square;stroke-width:0.8;"/>
    </g>
    <g id="text_9">
     <!-- 6 -->
     <g transform="translate(350.114849 263.252987)scale(0.1 -0.1)">
      <use xlink:href="#DejaVuSans-36"/>
     </g>
    </g>
   </g>
   <g id="xtick_10">
    <g id="line2d_12">
     <path d="M 357.255803 230.416924 
L 361.438579 231.352936 
" style="fill:none;stroke:#000000;stroke-linecap:square;stroke-width:0.8;"/>
    </g>
    <g id="text_10">
     <!-- 8 -->
     <g transform="translate(367.385231 249.796595)scale(0.1 -0.1)">
      <use xlink:href="#DejaVuSans-38"/>
     </g>
    </g>
   </g>
  </g>
  <g id="axis3d_3">
   <g id="line2d_13">
    <path d="M 372.72135 220.013954 
L 379.648599 91.582742 
" style="fill:none;stroke:#000000;stroke-linecap:square;stroke-width:0.8;"/>
   </g>
   <g id="Line3DCollection_3">
    <path d="M 373.386746 207.677503 
L 206.98761 171.539053 
L 104.232022 236.190661 
" style="fill:none;stroke:#b0b0b0;stroke-width:0.8;"/>
    <path d="M 374.152476 193.480867 
L 206.799222 157.737038 
L 103.414957 221.694832 
" style="fill:none;stroke:#b0b0b0;stroke-width:0.8;"/>
    <path d="M 374.927115 179.119065 
L 206.608735 143.781214 
L 102.58807 207.024745 
" style="fill:none;stroke:#b0b0b0;stroke-width:0.8;"/>
    <path d="M 375.710818 164.589199 
L 206.416113 129.668996 
L 101.751182 192.177238 
" style="fill:none;stroke:#b0b0b0;stroke-width:0.8;"/>
    <path d="M 376.503747 149.8883 
L 206.221321 115.39774 
L 100.904112 177.149075 
" style="fill:none;stroke:#b0b0b0;stroke-width:0.8;"/>
    <path d="M 377.306064 135.013332 
L 206.02432 100.964743 
L 100.046672 161.936937 
" style="fill:none;stroke:#b0b0b0;stroke-width:0.8;"/>
    <path d="M 378.117939 119.961183 
L 205.825075 86.367239 
L 99.17867 146.537425 
" style="fill:none;stroke:#b0b0b0;stroke-width:0.8;"/>
    <path d="M 378.939541 104.72867 
L 205.623545 71.602399 
L 98.299911 130.947056 
" style="fill:none;stroke:#b0b0b0;stroke-width:0.8;"/>
   </g>
   <g id="xtick_11">
    <g id="line2d_14">
     <path d="M 371.998152 207.375929 
L 376.166835 208.281281 
" style="fill:none;stroke:#000000;stroke-linecap:square;stroke-width:0.8;"/>
    </g>
    <g id="text_11">
     <!-- −0.15 -->
     <defs>
      <path d="M 10.59375 35.5 
L 73.1875 35.5 
L 73.1875 27.203125 
L 10.59375 27.203125 
z
" id="DejaVuSans-2212"/>
      <path d="M 10.6875 12.40625 
L 21 12.40625 
L 21 0 
L 10.6875 0 
z
" id="DejaVuSans-2e"/>
      <path d="M 12.40625 8.296875 
L 28.515625 8.296875 
L 28.515625 63.921875 
L 10.984375 60.40625 
L 10.984375 69.390625 
L 28.421875 72.90625 
L 38.28125 72.90625 
L 38.28125 8.296875 
L 54.390625 8.296875 
L 54.390625 0 
L 12.40625 0 
z
" id="DejaVuSans-31"/>
      <path d="M 10.796875 72.90625 
L 49.515625 72.90625 
L 49.515625 64.59375 
L 19.828125 64.59375 
L 19.828125 46.734375 
Q 21.96875 47.46875 24.109375 47.828125 
Q 26.265625 48.1875 28.421875 48.1875 
Q 40.625 48.1875 47.75 41.5 
Q 54.890625 34.8125 54.890625 23.390625 
Q 54.890625 11.625 47.5625 5.09375 
Q 40.234375 -1.421875 26.90625 -1.421875 
Q 22.3125 -1.421875 17.546875 -0.640625 
Q 12.796875 0.140625 7.71875 1.703125 
L 7.71875 11.625 
Q 12.109375 9.234375 16.796875 8.0625 
Q 21.484375 6.890625 26.703125 6.890625 
Q 35.15625 6.890625 40.078125 11.328125 
Q 45.015625 15.765625 45.015625 23.390625 
Q 45.015625 31 40.078125 35.4375 
Q 35.15625 39.890625 26.703125 39.890625 
Q 22.75 39.890625 18.8125 39.015625 
Q 14.890625 38.140625 10.796875 36.28125 
z
" id="DejaVuSans-35"/>
     </defs>
     <g transform="translate(376.486808 213.324312)scale(0.1 -0.1)">
      <use xlink:href="#DejaVuSans-2212"/>
      <use x="83.789062" xlink:href="#DejaVuSans-30"/>
      <use x="147.412109" xlink:href="#DejaVuSans-2e"/>
      <use x="179.199219" xlink:href="#DejaVuSans-31"/>
      <use x="242.822266" xlink:href="#DejaVuSans-35"/>
     </g>
    </g>
   </g>
   <g id="xtick_12">
    <g id="line2d_15">
     <path d="M 372.755586 193.182515 
L 376.949191 194.078198 
" style="fill:none;stroke:#000000;stroke-linecap:square;stroke-width:0.8;"/>
    </g>
    <g id="text_12">
     <!-- −0.10 -->
     <g transform="translate(377.35711 199.148547)scale(0.1 -0.1)">
      <use xlink:href="#DejaVuSans-2212"/>
      <use x="83.789062" xlink:href="#DejaVuSans-30"/>
      <use x="147.412109" xlink:href="#DejaVuSans-2e"/>
      <use x="179.199219" xlink:href="#DejaVuSans-31"/>
      <use x="242.822266" xlink:href="#DejaVuSans-30"/>
     </g>
    </g>
   </g>
   <g id="xtick_13">
    <g id="line2d_16">
     <path d="M 373.521829 178.82403 
L 377.740655 179.709758 
" style="fill:none;stroke:#000000;stroke-linecap:square;stroke-width:0.8;"/>
    </g>
    <g id="text_13">
     <!-- −0.05 -->
     <g transform="translate(378.237514 184.808235)scale(0.1 -0.1)">
      <use xlink:href="#DejaVuSans-2212"/>
      <use x="83.789062" xlink:href="#DejaVuSans-30"/>
      <use x="147.412109" xlink:href="#DejaVuSans-2e"/>
      <use x="179.199219" xlink:href="#DejaVuSans-30"/>
      <use x="242.822266" xlink:href="#DejaVuSans-35"/>
     </g>
    </g>
   </g>
   <g id="xtick_14">
    <g id="line2d_17">
     <path d="M 374.297036 164.29758 
L 378.541388 165.173057 
" style="fill:none;stroke:#000000;stroke-linecap:square;stroke-width:0.8;"/>
    </g>
    <g id="text_14">
     <!-- 0.00 -->
     <g transform="translate(383.318041 170.300494)scale(0.1 -0.1)">
      <use xlink:href="#DejaVuSans-30"/>
      <use x="63.623047" xlink:href="#DejaVuSans-2e"/>
      <use x="95.410156" xlink:href="#DejaVuSans-30"/>
      <use x="159.033203" xlink:href="#DejaVuSans-30"/>
     </g>
    </g>
   </g>
   <g id="xtick_15">
    <g id="line2d_18">
     <path d="M 375.081364 149.600198 
L 379.351553 150.465121 
" style="fill:none;stroke:#000000;stroke-linecap:square;stroke-width:0.8;"/>
    </g>
    <g id="text_15">
     <!-- 0.05 -->
     <g transform="translate(384.219184 155.622374)scale(0.1 -0.1)">
      <use xlink:href="#DejaVuSans-30"/>
      <use x="63.623047" xlink:href="#DejaVuSans-2e"/>
      <use x="95.410156" xlink:href="#DejaVuSans-30"/>
      <use x="159.033203" xlink:href="#DejaVuSans-35"/>
     </g>
    </g>
   </g>
   <g id="xtick_16">
    <g id="line2d_19">
     <path d="M 375.874976 134.72885 
L 380.171318 135.582907 
" style="fill:none;stroke:#000000;stroke-linecap:square;stroke-width:0.8;"/>
    </g>
    <g id="text_16">
     <!-- 0.10 -->
     <g transform="translate(385.130973 140.770857)scale(0.1 -0.1)">
      <use xlink:href="#DejaVuSans-30"/>
      <use x="63.623047" xlink:href="#DejaVuSans-2e"/>
      <use x="95.410156" xlink:href="#DejaVuSans-31"/>
      <use x="159.033203" xlink:href="#DejaVuSans-30"/>
     </g>
    </g>
   </g>
   <g id="xtick_17">
    <g id="line2d_20">
     <path d="M 376.678038 119.680429 
L 381.000854 120.523299 
" style="fill:none;stroke:#000000;stroke-linecap:square;stroke-width:0.8;"/>
    </g>
    <g id="text_17">
     <!-- 0.15 -->
     <g transform="translate(386.053598 125.742851)scale(0.1 -0.1)">
      <use xlink:href="#DejaVuSans-30"/>
      <use x="63.623047" xlink:href="#DejaVuSans-2e"/>
      <use x="95.410156" xlink:href="#DejaVuSans-31"/>
      <use x="159.033203" xlink:href="#DejaVuSans-35"/>
     </g>
    </g>
   </g>
   <g id="xtick_18">
    <g id="line2d_21">
     <path d="M 377.490719 104.451753 
L 381.840338 105.283106 
" style="fill:none;stroke:#000000;stroke-linecap:square;stroke-width:0.8;"/>
    </g>
    <g id="text_18">
     <!-- 0.20 -->
     <g transform="translate(386.987251 110.535192)scale(0.1 -0.1)">
      <use xlink:href="#DejaVuSans-30"/>
      <use x="63.623047" xlink:href="#DejaVuSans-2e"/>
      <use x="95.410156" xlink:href="#DejaVuSans-32"/>
      <use x="159.033203" xlink:href="#DejaVuSans-30"/>
     </g>
    </g>
   </g>
  </g>
  <g id="axes_1">
   <g id="Poly3DCollection_1">
    <path clip-path="url(#pa7f2892126)" d="M 265.555042 187.453764 
L 274.512616 190.667912 
L 290.48472 204.795542 
L 281.560614 210.455429 
L 265.555042 187.453764 
z
" style="fill:#0d0887;"/>
    <path clip-path="url(#pa7f2892126)" d="M 249.419112 167.566853 
L 258.640134 161.728403 
L 274.512616 190.667912 
L 265.555042 187.453764 
L 249.419112 167.566853 
z
" style="fill:#6100a7;"/>
    <path clip-path="url(#pa7f2892126)" d="M 233.204365 147.255326 
L 242.566719 141.573334 
L 258.640134 161.728403 
L 249.419112 167.566853 
L 233.204365 147.255326 
z
" style="fill:#a51f99;"/>
    <path clip-path="url(#pa7f2892126)" d="M 281.560614 210.455429 
L 290.48472 204.795542 
L 308.143672 155.775135 
L 299.109597 161.81381 
L 281.560614 210.455429 
z
" style="fill:#44039e;"/>
    <path clip-path="url(#pa7f2892126)" d="M 216.894655 125.542521 
L 226.411022 121.097043 
L 242.566719 141.573334 
L 233.204365 147.255326 
L 216.894655 125.542521 
z
" style="fill:#d35171;"/>
    <path clip-path="url(#pa7f2892126)" d="M 256.359101 190.333923 
L 265.555042 187.453764 
L 281.560614 210.455429 
L 272.555812 212.054213 
L 256.359101 190.333923 
z
" style="fill:#260591;"/>
    <path clip-path="url(#pa7f2892126)" d="M 200.54985 107.807383 
L 210.308953 111.993543 
L 226.411022 121.097043 
L 216.894655 125.542521 
L 200.54985 107.807383 
z
" style="fill:#ed7a52;"/>
    <path clip-path="url(#pa7f2892126)" d="M 240.057874 161.958485 
L 249.419112 167.566853 
L 265.555042 187.453764 
L 256.359101 190.333923 
L 240.057874 161.958485 
z
" style="fill:#7d03a8;"/>
    <path clip-path="url(#pa7f2892126)" d="M 272.555812 212.054213 
L 281.560614 210.455429 
L 299.109597 161.81381 
L 289.940704 167.942602 
L 272.555812 212.054213 
z
" style="fill:#4c02a1;"/>
    <path clip-path="url(#pa7f2892126)" d="M 223.587999 136.256361 
L 233.204365 147.255326 
L 249.419112 167.566853 
L 240.057874 161.958485 
L 223.587999 136.256361 
z
" style="fill:#be3885;"/>
    <path clip-path="url(#pa7f2892126)" d="M 247.001841 193.616361 
L 256.359101 190.333923 
L 272.555812 212.054213 
L 263.462147 205.071448 
L 247.001841 193.616361 
z
" style="fill:#3f049c;"/>
    <path clip-path="url(#pa7f2892126)" d="M 207.069681 118.133664 
L 216.894655 125.542521 
L 233.204365 147.255326 
L 223.587999 136.256361 
L 207.069681 118.133664 
z
" style="fill:#e56a5d;"/>
    <path clip-path="url(#pa7f2892126)" d="M 190.528473 101.407338 
L 200.54985 107.807383 
L 216.894655 125.542521 
L 207.069681 118.133664 
L 190.528473 101.407338 
z
" style="fill:#f9983e;"/>
    <path clip-path="url(#pa7f2892126)" d="M 230.524836 169.639408 
L 240.057874 161.958485 
L 256.359101 190.333923 
L 247.001841 193.616361 
L 230.524836 169.639408 
z
" style="fill:#8707a6;"/>
    <path clip-path="url(#pa7f2892126)" d="M 299.109597 161.81381 
L 308.143672 155.775135 
L 324.887428 159.250686 
L 315.939097 165.34128 
L 299.109597 161.81381 
z
" style="fill:#b6308b;"/>
    <path clip-path="url(#pa7f2892126)" d="M 263.462147 205.071448 
L 272.555812 212.054213 
L 289.940704 167.942602 
L 280.633951 174.163545 
L 263.462147 205.071448 
z
" style="fill:#6600a7;"/>
    <path clip-path="url(#pa7f2892126)" d="M 213.846971 138.98093 
L 223.587999 136.256361 
L 240.057874 161.958485 
L 230.524836 169.639408 
L 213.846971 138.98093 
z
" style="fill:#ce4b75;"/>
    <path clip-path="url(#pa7f2892126)" d="M 237.480866 195.731364 
L 247.001841 193.616361 
L 263.462147 205.071448 
L 254.039299 215.211103 
L 237.480866 195.731364 
z
" style="fill:#5102a3;"/>
    <path clip-path="url(#pa7f2892126)" d="M 220.843596 175.155496 
L 230.524836 169.639408 
L 247.001841 193.616361 
L 237.480866 195.731364 
L 220.843596 175.155496 
z
" style="fill:#8d0ba5;"/>
    <path clip-path="url(#pa7f2892126)" d="M 315.939097 165.34128 
L 324.887428 159.250686 
L 341.774545 162.755996 
L 332.913775 168.89892 
L 315.939097 165.34128 
z
" style="fill:#b6308b;"/>
    <path clip-path="url(#pa7f2892126)" d="M 197.117128 117.690354 
L 207.069681 118.133664 
L 223.587999 136.256361 
L 213.846971 138.98093 
L 197.117128 117.690354 
z
" style="fill:#f3854b;"/>
    <path clip-path="url(#pa7f2892126)" d="M 180.398409 100.665175 
L 190.528473 101.407338 
L 207.069681 118.133664 
L 197.117128 117.690354 
L 180.398409 100.665175 
z
" style="fill:#feb82c;"/>
    <path clip-path="url(#pa7f2892126)" d="M 289.940704 167.942602 
L 299.109597 161.81381 
L 315.939097 165.34128 
L 306.856618 171.524358 
L 289.940704 167.942602 
z
" style="fill:#b6308b;"/>
    <path clip-path="url(#pa7f2892126)" d="M 227.860052 212.094704 
L 237.480866 195.731364 
L 254.039299 215.211103 
L 244.506713 223.856482 
L 227.860052 212.094704 
z
" style="fill:#3f049c;"/>
    <path clip-path="url(#pa7f2892126)" d="M 332.913775 168.89892 
L 341.774545 162.755996 
L 358.806871 166.291445 
L 350.035508 172.487493 
L 332.913775 168.89892 
z
" style="fill:#b6308b;"/>
    <path clip-path="url(#pa7f2892126)" d="M 204.008512 146.784375 
L 213.846971 138.98093 
L 230.524836 169.639408 
L 220.843596 175.155496 
L 204.008512 146.784375 
z
" style="fill:#cd4a76;"/>
    <path clip-path="url(#pa7f2892126)" d="M 254.039299 215.211103 
L 263.462147 205.071448 
L 280.633951 174.163545 
L 271.186205 180.478731 
L 254.039299 215.211103 
z
" style="fill:#6c00a8;"/>
    <path clip-path="url(#pa7f2892126)" d="M 211.066599 185.315448 
L 220.843596 175.155496 
L 237.480866 195.731364 
L 227.860052 212.094704 
L 211.066599 185.315448 
z
" style="fill:#8405a7;"/>
    <path clip-path="url(#pa7f2892126)" d="M 306.856618 171.524358 
L 315.939097 165.34128 
L 332.913775 168.89892 
L 323.919623 175.134335 
L 306.856618 171.524358 
z
" style="fill:#b6308b;"/>
    <path clip-path="url(#pa7f2892126)" d="M 187.039056 120.730361 
L 197.117128 117.690354 
L 213.846971 138.98093 
L 204.008512 146.784375 
L 187.039056 120.730361 
z
" style="fill:#f68f44;"/>
    <path clip-path="url(#pa7f2892126)" d="M 218.090288 219.727685 
L 227.860052 212.094704 
L 244.506713 223.856482 
L 234.845404 231.9054 
L 218.090288 219.727685 
z
" style="fill:#310597;"/>
    <path clip-path="url(#pa7f2892126)" d="M 280.633951 174.163545 
L 289.940704 167.942602 
L 306.856618 171.524358 
L 297.636595 177.818292 
L 280.633951 174.163545 
z
" style="fill:#b6308b;"/>
    <path clip-path="url(#pa7f2892126)" d="M 194.015028 153.592245 
L 204.008512 146.784375 
L 220.843596 175.155496 
L 211.066599 185.315448 
L 194.015028 153.592245 
z
" style="fill:#cb4679;"/>
    <path clip-path="url(#pa7f2892126)" d="M 244.506713 223.856482 
L 254.039299 215.211103 
L 271.186205 180.478731 
L 261.594239 186.89032 
L 244.506713 223.856482 
z
" style="fill:#6600a7;"/>
    <path clip-path="url(#pa7f2892126)" d="M 323.919623 175.134335 
L 332.913775 168.89892 
L 350.035508 172.487493 
L 341.131533 178.777218 
L 323.919623 175.134335 
z
" style="fill:#b6308b;"/>
    <path clip-path="url(#pa7f2892126)" d="M 169.961452 96.207931 
L 180.398409 100.665175 
L 197.117128 117.690354 
L 187.039056 120.730361 
L 169.961452 96.207931 
z
" style="fill:#fbd324;"/>
    <path clip-path="url(#pa7f2892126)" d="M 201.078373 189.746255 
L 211.066599 185.315448 
L 227.860052 212.094704 
L 218.090288 219.727685 
L 201.078373 189.746255 
z
" style="fill:#7b02a8;"/>
    <path clip-path="url(#pa7f2892126)" d="M 297.636595 177.818292 
L 306.856618 171.524358 
L 323.919623 175.134335 
L 314.788929 181.468583 
L 297.636595 177.818292 
z
" style="fill:#b6308b;"/>
    <path clip-path="url(#pa7f2892126)" d="M 176.926555 129.411141 
L 187.039056 120.730361 
L 204.008512 146.784375 
L 194.015028 153.592245 
L 176.926555 129.411141 
z
" style="fill:#f58b47;"/>
    <path clip-path="url(#pa7f2892126)" d="M 208.167713 226.467346 
L 218.090288 219.727685 
L 234.845404 231.9054 
L 225.051851 240.527723 
L 208.167713 226.467346 
z
" style="fill:#2e0595;"/>
    <path clip-path="url(#pa7f2892126)" d="M 234.845404 231.9054 
L 244.506713 223.856482 
L 261.594239 186.89032 
L 251.80252 205.259402 
L 234.845404 231.9054 
z
" style="fill:#5801a4;"/>
    <path clip-path="url(#pa7f2892126)" d="M 271.186205 180.478731 
L 280.633951 174.163545 
L 297.636595 177.818292 
L 288.274713 184.297471 
L 271.186205 180.478731 
z
" style="fill:#b6308b;"/>
    <path clip-path="url(#pa7f2892126)" d="M 183.938367 163.270259 
L 194.015028 153.592245 
L 211.066599 185.315448 
L 201.078373 189.746255 
L 183.938367 163.270259 
z
" style="fill:#c7427c;"/>
    <path clip-path="url(#pa7f2892126)" d="M 314.788929 181.468583 
L 323.919623 175.134335 
L 341.131533 178.777218 
L 332.091915 185.16276 
L 314.788929 181.468583 
z
" style="fill:#b6308b;"/>
    <path clip-path="url(#pa7f2892126)" d="M 190.95499 195.890317 
L 201.078373 189.746255 
L 218.090288 219.727685 
L 208.167713 226.467346 
L 190.95499 195.890317 
z
" style="fill:#7d03a8;"/>
    <path clip-path="url(#pa7f2892126)" d="M 159.615363 102.180809 
L 169.961452 96.207931 
L 187.039056 120.730361 
L 176.926555 129.411141 
L 159.615363 102.180809 
z
" style="fill:#f9dc24;"/>
    <path clip-path="url(#pa7f2892126)" d="M 288.274713 184.297471 
L 297.636595 177.818292 
L 314.788929 181.468583 
L 305.518946 187.890948 
L 288.274713 184.297471 
z
" style="fill:#b6308b;"/>
    <path clip-path="url(#pa7f2892126)" d="M 225.051851 240.527723 
L 234.845404 231.9054 
L 251.80252 205.259402 
L 241.959923 210.853259 
L 225.051851 240.527723 
z
" style="fill:#4c02a1;"/>
    <path clip-path="url(#pa7f2892126)" d="M 198.048321 230.706389 
L 208.167713 226.467346 
L 225.051851 240.527723 
L 215.110946 248.049468 
L 198.048321 230.706389 
z
" style="fill:#2f0596;"/>
    <path clip-path="url(#pa7f2892126)" d="M 166.290612 124.918011 
L 176.926555 129.411141 
L 194.015028 153.592245 
L 183.938367 163.270259 
L 166.290612 124.918011 
z
" style="fill:#f89441;"/>
    <path clip-path="url(#pa7f2892126)" d="M 261.594239 186.89032 
L 271.186205 180.478731 
L 288.274713 184.297471 
L 278.770126 190.87555 
L 261.594239 186.89032 
z
" style="fill:#b6308b;"/>
    <path clip-path="url(#pa7f2892126)" d="M 180.931321 212.65727 
L 190.95499 195.890317 
L 208.167713 226.467346 
L 198.048321 230.706389 
L 180.931321 212.65727 
z
" style="fill:#6f00a8;"/>
    <path clip-path="url(#pa7f2892126)" d="M 173.497789 164.260236 
L 183.938367 163.270259 
L 201.078373 189.746255 
L 190.95499 195.890317 
L 173.497789 164.260236 
z
" style="fill:#cb4679;"/>
    <path clip-path="url(#pa7f2892126)" d="M 305.518946 187.890948 
L 314.788929 181.468583 
L 332.091915 185.16276 
L 322.913531 191.646326 
L 305.518946 187.890948 
z
" style="fill:#b6308b;"/>
    <path clip-path="url(#pa7f2892126)" d="M 149.034173 106.079408 
L 159.615363 102.180809 
L 176.926555 129.411141 
L 166.290612 124.918011 
L 149.034173 106.079408 
z
" style="fill:#f7e425;"/>
    <path clip-path="url(#pa7f2892126)" d="M 278.770126 190.87555 
L 288.274713 184.297471 
L 305.518946 187.890948 
L 296.099545 194.70869 
L 278.770126 190.87555 
z
" style="fill:#b6308b;"/>
    <path clip-path="url(#pa7f2892126)" d="M 215.110946 248.049468 
L 225.051851 240.527723 
L 241.959923 210.853259 
L 232.021544 234.440191 
L 215.110946 248.049468 
z
" style="fill:#3c049b;"/>
    <path clip-path="url(#pa7f2892126)" d="M 251.80252 205.259402 
L 261.594239 186.89032 
L 278.770126 190.87555 
L 269.099366 199.323049 
L 251.80252 205.259402 
z
" style="fill:#a72197;"/>
    <path clip-path="url(#pa7f2892126)" d="M 155.986628 137.747221 
L 166.290612 124.918011 
L 183.938367 163.270259 
L 173.497789 164.260236 
L 155.986628 137.747221 
z
" style="fill:#f79342;"/>
    <path clip-path="url(#pa7f2892126)" d="M 187.701827 232.74587 
L 198.048321 230.706389 
L 215.110946 248.049468 
L 205.033684 256.428963 
L 187.701827 232.74587 
z
" style="fill:#38049a;"/>
    <path clip-path="url(#pa7f2892126)" d="M 162.992343 169.807994 
L 173.497789 164.260236 
L 190.95499 195.890317 
L 180.931321 212.65727 
L 162.992343 169.807994 
z
" style="fill:#ca457a;"/>
    <path clip-path="url(#pa7f2892126)" d="M 296.099545 194.70869 
L 305.518946 187.890948 
L 322.913531 191.646326 
L 313.587721 198.414824 
L 296.099545 194.70869 
z
" style="fill:#b6308b;"/>
    <path clip-path="url(#pa7f2892126)" d="M 205.033684 256.428963 
L 215.110946 248.049468 
L 232.021544 234.440191 
L 222.072664 258.86641 
L 205.033684 256.428963 
z
" style="fill:#19068c;"/>
    <path clip-path="url(#pa7f2892126)" d="M 170.42102 215.113396 
L 180.931321 212.65727 
L 198.048321 230.706389 
L 187.701827 232.74587 
L 170.42102 215.113396 
z
" style="fill:#7401a8;"/>
    <path clip-path="url(#pa7f2892126)" d="M 269.099366 199.323049 
L 278.770126 190.87555 
L 296.099545 194.70869 
L 286.527763 202.088144 
L 269.099366 199.323049 
z
" style="fill:#b32c8e;"/>
    <path clip-path="url(#pa7f2892126)" d="M 138.385736 112.856045 
L 149.034173 106.079408 
L 166.290612 124.918011 
L 155.986628 137.747221 
L 138.385736 112.856045 
z
" style="fill:#f6e826;"/>
    <path clip-path="url(#pa7f2892126)" d="M 241.959923 210.853259 
L 251.80252 205.259402 
L 269.099366 199.323049 
L 259.27435 210.403276 
L 241.959923 210.853259 
z
" style="fill:#9e199d;"/>
    <path clip-path="url(#pa7f2892126)" d="M 145.038423 136.496625 
L 155.986628 137.747221 
L 173.497789 164.260236 
L 162.992343 169.807994 
L 145.038423 136.496625 
z
" style="fill:#fa9c3c;"/>
    <path clip-path="url(#pa7f2892126)" d="M 232.021544 234.440191 
L 241.959923 210.853259 
L 259.27435 210.403276 
L 249.317293 225.694834 
L 232.021544 234.440191 
z
" style="fill:#8004a8;"/>
    <path clip-path="url(#pa7f2892126)" d="M 286.527763 202.088144 
L 296.099545 194.70869 
L 313.587721 198.414824 
L 304.115949 205.36568 
L 286.527763 202.088144 
z
" style="fill:#b52f8c;"/>
    <path clip-path="url(#pa7f2892126)" d="M 152.180181 171.638825 
L 162.992343 169.807994 
L 180.931321 212.65727 
L 170.42102 215.113396 
L 152.180181 171.638825 
z
" style="fill:#cc4778;"/>
    <path clip-path="url(#pa7f2892126)" d="M 222.072664 258.86641 
L 232.021544 234.440191 
L 249.317293 225.694834 
L 239.278198 247.552472 
L 222.072664 258.86641 
z
" style="fill:#46039f;"/>
    <path clip-path="url(#pa7f2892126)" d="M 259.27435 210.403276 
L 269.099366 199.323049 
L 286.527763 202.088144 
L 276.812546 209.55866 
L 259.27435 210.403276 
z
" style="fill:#ac2694;"/>
    <path clip-path="url(#pa7f2892126)" d="M 127.427883 116.362881 
L 138.385736 112.856045 
L 155.986628 137.747221 
L 145.038423 136.496625 
L 127.427883 116.362881 
z
" style="fill:#f5eb27;"/>
    <path clip-path="url(#pa7f2892126)" d="M 276.812546 209.55866 
L 286.527763 202.088144 
L 304.115949 205.36568 
L 294.486211 212.938319 
L 276.812546 209.55866 
z
" style="fill:#b32c8e;"/>
    <path clip-path="url(#pa7f2892126)" d="M 249.317293 225.694834 
L 259.27435 210.403276 
L 276.812546 209.55866 
L 266.89177 222.643985 
L 249.317293 225.694834 
z
" style="fill:#9c179e;"/>
    <path clip-path="url(#pa7f2892126)" d="M 134.163719 142.567967 
L 145.038423 136.496625 
L 162.992343 169.807994 
L 152.180181 171.638825 
L 134.163719 142.567967 
z
" style="fill:#fca537;"/>
    <path clip-path="url(#pa7f2892126)" d="M 239.278198 247.552472 
L 249.317293 225.694834 
L 266.89177 222.643985 
L 256.863288 236.154917 
L 239.278198 247.552472 
z
" style="fill:#7801a8;"/>
    <path clip-path="url(#pa7f2892126)" d="M 116.207433 118.54713 
L 127.427883 116.362881 
L 145.038423 136.496625 
L 134.163719 142.567967 
L 116.207433 118.54713 
z
" style="fill:#f0f921;"/>
    <path clip-path="url(#pa7f2892126)" d="M 266.89177 222.643985 
L 276.812546 209.55866 
L 294.486211 212.938319 
L 284.689147 221.804982 
L 266.89177 222.643985 
z
" style="fill:#aa2395;"/>
    <path clip-path="url(#pa7f2892126)" d="M 256.863288 236.154917 
L 266.89177 222.643985 
L 284.689147 221.804982 
L 274.751092 230.854316 
L 256.863288 236.154917 
z
" style="fill:#9c179e;"/>
   </g>
  </g>
 </g>
 <defs>
  <clipPath id="pa7f2892126">
   <rect height="266.112" width="357.12" x="57.6" y="41.472"/>
  </clipPath>
 </defs>
</svg>
