<?xml version="1.0" encoding="utf-8" standalone="no"?>
<!DOCTYPE svg PUBLIC "-//W3C//DTD SVG 1.1//EN"
  "http://www.w3.org/Graphics/SVG/1.1/DTD/svg11.dtd">
<!-- Created with matplotlib (http://matplotlib.org/) -->
<svg height="345pt" version="1.1" viewBox="0 0 460 345" width="460pt" xmlns="http://www.w3.org/2000/svg" xmlns:xlink="http://www.w3.org/1999/xlink">
 <defs>
  <style type="text/css">
*{stroke-linecap:butt;stroke-linejoin:round;}
  </style>
 </defs>
 <g id="figure_1">
  <g id="patch_1">
   <path d="M 0 345.6 
L 460.8 345.6 
L 460.8 0 
L 0 0 
z
" style="fill:#ffffff;"/>
  </g>
  <g id="patch_2">
   <path d="M 57.6 307.584 
L 414.72 307.584 
L 414.72 41.472 
L 57.6 41.472 
z
" style="fill:#ffffff;"/>
  </g>
  <g id="pane3d_1">
   <g id="patch_3">
    <path d="M 104.941774 248.782626 
L 207.151387 183.537994 
L 205.449705 58.866209 
L 97.541237 117.48717 
" style="fill:#f2f2f2;opacity:0.5;stroke:#f2f2f2;stroke-linejoin:miter;"/>
   </g>
  </g>
  <g id="pane3d_2">
   <g id="patch_4">
    <path d="M 207.151387 183.537994 
L 372.72135 220.013954 
L 379.648599 91.582742 
L 205.449705 58.866209 
" style="fill:#e6e6e6;opacity:0.5;stroke:#e6e6e6;stroke-linejoin:miter;"/>
   </g>
  </g>
  <g id="pane3d_3">
   <g id="patch_5">
    <path d="M 104.941774 248.782626 
L 279.143747 291.264825 
L 372.72135 220.013954 
L 207.151387 183.537994 
" style="fill:#ececec;opacity:0.5;stroke:#ececec;stroke-linejoin:miter;"/>
   </g>
  </g>
  <g id="axis3d_1">
   <g id="line2d_1">
    <path d="M 104.941774 248.782626 
L 279.143747 291.264825 
" style="fill:none;stroke:#000000;stroke-linecap:square;stroke-width:0.8;"/>
   </g>
   <g id="Line3DCollection_1">
    <path d="M 115.562252 251.372616 
L 217.277438 185.768818 
L 216.081723 60.863023 
" style="fill:none;stroke:#b0b0b0;stroke-width:0.8;"/>
    <path d="M 148.306252 259.357813 
L 248.470984 192.640925 
L 248.851709 67.017599 
" style="fill:none;stroke:#b0b0b0;stroke-width:0.8;"/>
    <path d="M 181.629397 267.484245 
L 280.175868 199.625682 
L 282.186433 73.278239 
" style="fill:none;stroke:#b0b0b0;stroke-width:0.8;"/>
    <path d="M 215.547191 275.755692 
L 312.404765 206.725883 
L 316.10062 79.647709 
" style="fill:none;stroke:#b0b0b0;stroke-width:0.8;"/>
    <path d="M 250.075693 284.176071 
L 345.170776 213.944413 
L 350.609512 86.128871 
" style="fill:none;stroke:#b0b0b0;stroke-width:0.8;"/>
   </g>
   <g id="xtick_1">
    <g id="line2d_2">
     <path d="M 116.438581 250.807405 
L 113.806326 252.505145 
" style="fill:none;stroke:#000000;stroke-linecap:square;stroke-width:0.8;"/>
    </g>
    <g id="text_1">
     <!-- 0 -->
     <defs>
      <path d="M 31.78125 66.40625 
Q 24.171875 66.40625 20.328125 58.90625 
Q 16.5 51.421875 16.5 36.375 
Q 16.5 21.390625 20.328125 13.890625 
Q 24.171875 6.390625 31.78125 6.390625 
Q 39.453125 6.390625 43.28125 13.890625 
Q 47.125 21.390625 47.125 36.375 
Q 47.125 51.421875 43.28125 58.90625 
Q 39.453125 66.40625 31.78125 66.40625 
z
M 31.78125 74.21875 
Q 44.046875 74.21875 50.515625 64.515625 
Q 56.984375 54.828125 56.984375 36.375 
Q 56.984375 17.96875 50.515625 8.265625 
Q 44.046875 -1.421875 31.78125 -1.421875 
Q 19.53125 -1.421875 13.0625 8.265625 
Q 6.59375 17.96875 6.59375 36.375 
Q 6.59375 54.828125 13.0625 64.515625 
Q 19.53125 74.21875 31.78125 74.21875 
z
" id="DejaVuSans-30"/>
     </defs>
     <g transform="translate(105.060879 272.84452)scale(0.1 -0.1)">
      <use xlink:href="#DejaVuSans-30"/>
     </g>
    </g>
   </g>
   <g id="xtick_2">
    <g id="line2d_3">
     <path d="M 149.169762 258.782653 
L 146.575981 260.510297 
" style="fill:none;stroke:#000000;stroke-linecap:square;stroke-width:0.8;"/>
    </g>
    <g id="text_2">
     <!-- 2 -->
     <defs>
      <path d="M 19.1875 8.296875 
L 53.609375 8.296875 
L 53.609375 0 
L 7.328125 0 
L 7.328125 8.296875 
Q 12.9375 14.109375 22.625 23.890625 
Q 32.328125 33.6875 34.8125 36.53125 
Q 39.546875 41.84375 41.421875 45.53125 
Q 43.3125 49.21875 43.3125 52.78125 
Q 43.3125 58.59375 39.234375 62.25 
Q 35.15625 65.921875 28.609375 65.921875 
Q 23.96875 65.921875 18.8125 64.3125 
Q 13.671875 62.703125 7.8125 59.421875 
L 7.8125 69.390625 
Q 13.765625 71.78125 18.9375 73 
Q 24.125 74.21875 28.421875 74.21875 
Q 39.75 74.21875 46.484375 68.546875 
Q 53.21875 62.890625 53.21875 53.421875 
Q 53.21875 48.921875 51.53125 44.890625 
Q 49.859375 40.875 45.40625 35.40625 
Q 44.1875 33.984375 37.640625 27.21875 
Q 31.109375 20.453125 19.1875 8.296875 
z
" id="DejaVuSans-32"/>
     </defs>
     <g transform="translate(137.80125 280.96635)scale(0.1 -0.1)">
      <use xlink:href="#DejaVuSans-32"/>
     </g>
    </g>
   </g>
   <g id="xtick_3">
    <g id="line2d_4">
     <path d="M 182.479498 266.89887 
L 179.925969 268.657216 
" style="fill:none;stroke:#000000;stroke-linecap:square;stroke-width:0.8;"/>
    </g>
    <g id="text_3">
     <!-- 4 -->
     <defs>
      <path d="M 37.796875 64.3125 
L 12.890625 25.390625 
L 37.796875 25.390625 
z
M 35.203125 72.90625 
L 47.609375 72.90625 
L 47.609375 25.390625 
L 58.015625 25.390625 
L 58.015625 17.1875 
L 47.609375 17.1875 
L 47.609375 0 
L 37.796875 0 
L 37.796875 17.1875 
L 4.890625 17.1875 
L 4.890625 26.703125 
z
" id="DejaVuSans-34"/>
     </defs>
     <g transform="translate(171.121785 289.232101)scale(0.1 -0.1)">
      <use xlink:href="#DejaVuSans-34"/>
     </g>
    </g>
   </g>
   <g id="xtick_4">
    <g id="line2d_5">
     <path d="M 216.383263 275.159828 
L 213.871843 276.949702 
" style="fill:none;stroke:#000000;stroke-linecap:square;stroke-width:0.8;"/>
    </g>
    <g id="text_4">
     <!-- 6 -->
     <defs>
      <path d="M 33.015625 40.375 
Q 26.375 40.375 22.484375 35.828125 
Q 18.609375 31.296875 18.609375 23.390625 
Q 18.609375 15.53125 22.484375 10.953125 
Q 26.375 6.390625 33.015625 6.390625 
Q 39.65625 6.390625 43.53125 10.953125 
Q 47.40625 15.53125 47.40625 23.390625 
Q 47.40625 31.296875 43.53125 35.828125 
Q 39.65625 40.375 33.015625 40.375 
z
M 52.59375 71.296875 
L 52.59375 62.3125 
Q 48.875 64.0625 45.09375 64.984375 
Q 41.3125 65.921875 37.59375 65.921875 
Q 27.828125 65.921875 22.671875 59.328125 
Q 17.53125 52.734375 16.796875 39.40625 
Q 19.671875 43.65625 24.015625 45.921875 
Q 28.375 48.1875 33.59375 48.1875 
Q 44.578125 48.1875 50.953125 41.515625 
Q 57.328125 34.859375 57.328125 23.390625 
Q 57.328125 12.15625 50.6875 5.359375 
Q 44.046875 -1.421875 33.015625 -1.421875 
Q 20.359375 -1.421875 13.671875 8.265625 
Q 6.984375 17.96875 6.984375 36.375 
Q 6.984375 53.65625 15.1875 63.9375 
Q 23.390625 74.21875 37.203125 74.21875 
Q 40.921875 74.21875 44.703125 73.484375 
Q 48.484375 72.75 52.59375 71.296875 
z
" id="DejaVuSans-36"/>
     </defs>
     <g transform="translate(205.038042 297.64563)scale(0.1 -0.1)">
      <use xlink:href="#DejaVuSans-36"/>
     </g>
    </g>
   </g>
   <g id="xtick_5">
    <g id="line2d_6">
     <path d="M 250.897092 283.569434 
L 248.429719 285.391691 
" style="fill:none;stroke:#000000;stroke-linecap:square;stroke-width:0.8;"/>
    </g>
    <g id="text_5">
     <!-- 8 -->
     <defs>
      <path d="M 31.78125 34.625 
Q 24.75 34.625 20.71875 30.859375 
Q 16.703125 27.09375 16.703125 20.515625 
Q 16.703125 13.921875 20.71875 10.15625 
Q 24.75 6.390625 31.78125 6.390625 
Q 38.8125 6.390625 42.859375 10.171875 
Q 46.921875 13.96875 46.921875 20.515625 
Q 46.921875 27.09375 42.890625 30.859375 
Q 38.875 34.625 31.78125 34.625 
z
M 21.921875 38.8125 
Q 15.578125 40.375 12.03125 44.71875 
Q 8.5 49.078125 8.5 55.328125 
Q 8.5 64.0625 14.71875 69.140625 
Q 20.953125 74.21875 31.78125 74.21875 
Q 42.671875 74.21875 48.875 69.140625 
Q 55.078125 64.0625 55.078125 55.328125 
Q 55.078125 49.078125 51.53125 44.71875 
Q 48 40.375 41.703125 38.8125 
Q 48.828125 37.15625 52.796875 32.3125 
Q 56.78125 27.484375 56.78125 20.515625 
Q 56.78125 9.90625 50.3125 4.234375 
Q 43.84375 -1.421875 31.78125 -1.421875 
Q 19.734375 -1.421875 13.25 4.234375 
Q 6.78125 9.90625 6.78125 20.515625 
Q 6.78125 27.484375 10.78125 32.3125 
Q 14.796875 37.15625 21.921875 38.8125 
z
M 18.3125 54.390625 
Q 18.3125 48.734375 21.84375 45.5625 
Q 25.390625 42.390625 31.78125 42.390625 
Q 38.140625 42.390625 41.71875 45.5625 
Q 45.3125 48.734375 45.3125 54.390625 
Q 45.3125 60.0625 41.71875 63.234375 
Q 38.140625 66.40625 31.78125 66.40625 
Q 25.390625 66.40625 21.84375 63.234375 
Q 18.3125 60.0625 18.3125 54.390625 
z
" id="DejaVuSans-38"/>
     </defs>
     <g transform="translate(239.566142 306.210938)scale(0.1 -0.1)">
      <use xlink:href="#DejaVuSans-38"/>
     </g>
    </g>
   </g>
  </g>
  <g id="axis3d_2">
   <g id="line2d_7">
    <path d="M 372.72135 220.013954 
L 279.143747 291.264825 
" style="fill:none;stroke:#000000;stroke-linecap:square;stroke-width:0.8;"/>
   </g>
   <g id="Line3DCollection_2">
    <path d="M 104.930092 113.473196 
L 111.915028 244.331309 
L 285.548062 286.38852 
" style="fill:none;stroke:#b0b0b0;stroke-width:0.8;"/>
    <path d="M 126.984969 101.491948 
L 132.751513 231.030517 
L 304.667047 271.831144 
" style="fill:none;stroke:#b0b0b0;stroke-width:0.8;"/>
    <path d="M 148.366618 89.876429 
L 152.983668 218.115494 
L 323.206496 257.715032 
" style="fill:none;stroke:#b0b0b0;stroke-width:0.8;"/>
    <path d="M 169.105401 78.610146 
L 172.637407 205.569698 
L 341.192365 244.020421 
" style="fill:none;stroke:#b0b0b0;stroke-width:0.8;"/>
    <path d="M 189.229881 67.677581 
L 191.737187 193.377517 
L 358.649085 230.728709 
" style="fill:none;stroke:#b0b0b0;stroke-width:0.8;"/>
   </g>
   <g id="xtick_6">
    <g id="line2d_8">
     <path d="M 284.094906 286.036538 
L 288.457621 287.09327 
" style="fill:none;stroke:#000000;stroke-linecap:square;stroke-width:0.8;"/>
    </g>
    <g id="text_6">
     <!-- 0 -->
     <g transform="translate(295.066159 306.144728)scale(0.1 -0.1)">
      <use xlink:href="#DejaVuSans-30"/>
     </g>
    </g>
   </g>
   <g id="xtick_7">
    <g id="line2d_9">
     <path d="M 303.229241 271.48991 
L 307.545822 272.514362 
" style="fill:none;stroke:#000000;stroke-linecap:square;stroke-width:0.8;"/>
    </g>
    <g id="text_7">
     <!-- 2 -->
     <g transform="translate(313.980212 291.407653)scale(0.1 -0.1)">
      <use xlink:href="#DejaVuSans-32"/>
     </g>
    </g>
   </g>
   <g id="xtick_8">
    <g id="line2d_10">
     <path d="M 321.783784 257.384061 
L 326.055002 258.37769 
" style="fill:none;stroke:#000000;stroke-linecap:square;stroke-width:0.8;"/>
    </g>
    <g id="text_8">
     <!-- 4 -->
     <g transform="translate(332.321224 277.117069)scale(0.1 -0.1)">
      <use xlink:href="#DejaVuSans-34"/>
     </g>
    </g>
   </g>
   <g id="xtick_9">
    <g id="line2d_11">
     <path d="M 339.784494 243.699257 
L 344.011113 244.663433 
" style="fill:none;stroke:#000000;stroke-linecap:square;stroke-width:0.8;"/>
    </g>
    <g id="text_9">
     <!-- 6 -->
     <g transform="translate(350.114849 263.252987)scale(0.1 -0.1)">
      <use xlink:href="#DejaVuSans-36"/>
     </g>
    </g>
   </g>
   <g id="xtick_10">
    <g id="line2d_12">
     <path d="M 357.255803 230.416924 
L 361.438579 231.352936 
" style="fill:none;stroke:#000000;stroke-linecap:square;stroke-width:0.8;"/>
    </g>
    <g id="text_10">
     <!-- 8 -->
     <g transform="translate(367.385231 249.796595)scale(0.1 -0.1)">
      <use xlink:href="#DejaVuSans-38"/>
     </g>
    </g>
   </g>
  </g>
  <g id="axis3d_3">
   <g id="line2d_13">
    <path d="M 372.72135 220.013954 
L 379.648599 91.582742 
" style="fill:none;stroke:#000000;stroke-linecap:square;stroke-width:0.8;"/>
   </g>
   <g id="Line3DCollection_3">
    <path d="M 373.005927 214.737881 
L 207.081334 178.405653 
L 104.638255 243.397785 
" style="fill:none;stroke:#b0b0b0;stroke-width:0.8;"/>
    <path d="M 373.827952 199.497543 
L 206.879052 163.585658 
L 103.761275 227.838983 
" style="fill:none;stroke:#b0b0b0;stroke-width:0.8;"/>
    <path d="M 374.660277 184.066228 
L 206.674341 148.587763 
L 102.872941 212.078739 
" style="fill:none;stroke:#b0b0b0;stroke-width:0.8;"/>
    <path d="M 375.503099 168.440322 
L 206.467158 133.408744 
L 101.97303 196.113115 
" style="fill:none;stroke:#b0b0b0;stroke-width:0.8;"/>
    <path d="M 376.356615 152.616123 
L 206.257458 118.045302 
L 101.061315 179.93807 
" style="fill:none;stroke:#b0b0b0;stroke-width:0.8;"/>
    <path d="M 377.221032 136.589831 
L 206.045194 102.494055 
L 100.137562 163.549457 
" style="fill:none;stroke:#b0b0b0;stroke-width:0.8;"/>
    <path d="M 378.09656 120.35755 
L 205.83032 86.751538 
L 99.201531 146.943018 
" style="fill:none;stroke:#b0b0b0;stroke-width:0.8;"/>
    <path d="M 378.983413 103.915282 
L 205.612787 70.814199 
L 98.252976 130.11438 
" style="fill:none;stroke:#b0b0b0;stroke-width:0.8;"/>
   </g>
   <g id="xtick_11">
    <g id="line2d_14">
     <path d="M 371.621458 214.434726 
L 375.77775 215.344823 
" style="fill:none;stroke:#000000;stroke-linecap:square;stroke-width:0.8;"/>
    </g>
    <g id="text_11">
     <!-- −0.20 -->
     <defs>
      <path d="M 10.59375 35.5 
L 73.1875 35.5 
L 73.1875 27.203125 
L 10.59375 27.203125 
z
" id="DejaVuSans-2212"/>
      <path d="M 10.6875 12.40625 
L 21 12.40625 
L 21 0 
L 10.6875 0 
z
" id="DejaVuSans-2e"/>
     </defs>
     <g transform="translate(376.053974 220.374449)scale(0.1 -0.1)">
      <use xlink:href="#DejaVuSans-2212"/>
      <use x="83.789062" xlink:href="#DejaVuSans-30"/>
      <use x="147.412109" xlink:href="#DejaVuSans-2e"/>
      <use x="179.199219" xlink:href="#DejaVuSans-32"/>
      <use x="242.822266" xlink:href="#DejaVuSans-30"/>
     </g>
    </g>
   </g>
   <g id="xtick_12">
    <g id="line2d_15">
     <path d="M 372.434578 199.197819 
L 376.61762 200.097621 
" style="fill:none;stroke:#000000;stroke-linecap:square;stroke-width:0.8;"/>
    </g>
    <g id="text_12">
     <!-- −0.15 -->
     <defs>
      <path d="M 12.40625 8.296875 
L 28.515625 8.296875 
L 28.515625 63.921875 
L 10.984375 60.40625 
L 10.984375 69.390625 
L 28.421875 72.90625 
L 38.28125 72.90625 
L 38.28125 8.296875 
L 54.390625 8.296875 
L 54.390625 0 
L 12.40625 0 
z
" id="DejaVuSans-31"/>
      <path d="M 10.796875 72.90625 
L 49.515625 72.90625 
L 49.515625 64.59375 
L 19.828125 64.59375 
L 19.828125 46.734375 
Q 21.96875 47.46875 24.109375 47.828125 
Q 26.265625 48.1875 28.421875 48.1875 
Q 40.625 48.1875 47.75 41.5 
Q 54.890625 34.8125 54.890625 23.390625 
Q 54.890625 11.625 47.5625 5.09375 
Q 40.234375 -1.421875 26.90625 -1.421875 
Q 22.3125 -1.421875 17.546875 -0.640625 
Q 12.796875 0.140625 7.71875 1.703125 
L 7.71875 11.625 
Q 12.109375 9.234375 16.796875 8.0625 
Q 21.484375 6.890625 26.703125 6.890625 
Q 35.15625 6.890625 40.078125 11.328125 
Q 45.015625 15.765625 45.015625 23.390625 
Q 45.015625 31 40.078125 35.4375 
Q 35.15625 39.890625 26.703125 39.890625 
Q 22.75 39.890625 18.8125 39.015625 
Q 14.890625 38.140625 10.796875 36.28125 
z
" id="DejaVuSans-35"/>
     </defs>
     <g transform="translate(376.98827 205.156334)scale(0.1 -0.1)">
      <use xlink:href="#DejaVuSans-2212"/>
      <use x="83.789062" xlink:href="#DejaVuSans-30"/>
      <use x="147.412109" xlink:href="#DejaVuSans-2e"/>
      <use x="179.199219" xlink:href="#DejaVuSans-31"/>
      <use x="242.822266" xlink:href="#DejaVuSans-35"/>
     </g>
    </g>
   </g>
   <g id="xtick_13">
    <g id="line2d_16">
     <path d="M 373.257884 183.770044 
L 377.468022 184.65922 
" style="fill:none;stroke:#000000;stroke-linecap:square;stroke-width:0.8;"/>
    </g>
    <g id="text_13">
     <!-- −0.10 -->
     <g transform="translate(377.934247 189.747953)scale(0.1 -0.1)">
      <use xlink:href="#DejaVuSans-2212"/>
      <use x="83.789062" xlink:href="#DejaVuSans-30"/>
      <use x="147.412109" xlink:href="#DejaVuSans-2e"/>
      <use x="179.199219" xlink:href="#DejaVuSans-31"/>
      <use x="242.822266" xlink:href="#DejaVuSans-30"/>
     </g>
    </g>
   </g>
   <g id="xtick_14">
    <g id="line2d_17">
     <path d="M 374.091568 168.147792 
L 378.329154 169.026003 
" style="fill:none;stroke:#000000;stroke-linecap:square;stroke-width:0.8;"/>
    </g>
    <g id="text_14">
     <!-- −0.05 -->
     <g transform="translate(378.892125 174.145715)scale(0.1 -0.1)">
      <use xlink:href="#DejaVuSans-2212"/>
      <use x="83.789062" xlink:href="#DejaVuSans-30"/>
      <use x="147.412109" xlink:href="#DejaVuSans-2e"/>
      <use x="179.199219" xlink:href="#DejaVuSans-30"/>
      <use x="242.822266" xlink:href="#DejaVuSans-35"/>
     </g>
    </g>
   </g>
   <g id="xtick_15">
    <g id="line2d_18">
     <path d="M 374.935829 152.327363 
L 379.201223 153.194258 
" style="fill:none;stroke:#000000;stroke-linecap:square;stroke-width:0.8;"/>
    </g>
    <g id="text_15">
     <!-- 0.00 -->
     <g transform="translate(384.051975 158.34594)scale(0.1 -0.1)">
      <use xlink:href="#DejaVuSans-30"/>
      <use x="63.623047" xlink:href="#DejaVuSans-2e"/>
      <use x="95.410156" xlink:href="#DejaVuSans-30"/>
      <use x="159.033203" xlink:href="#DejaVuSans-30"/>
     </g>
    </g>
   </g>
   <g id="xtick_16">
    <g id="line2d_19">
     <path d="M 375.790867 136.304962 
L 380.084436 137.16018 
" style="fill:none;stroke:#000000;stroke-linecap:square;stroke-width:0.8;"/>
    </g>
    <g id="text_16">
     <!-- 0.05 -->
     <g transform="translate(385.03434 142.344851)scale(0.1 -0.1)">
      <use xlink:href="#DejaVuSans-30"/>
      <use x="63.623047" xlink:href="#DejaVuSans-2e"/>
      <use x="95.410156" xlink:href="#DejaVuSans-30"/>
      <use x="159.033203" xlink:href="#DejaVuSans-35"/>
     </g>
    </g>
   </g>
   <g id="xtick_17">
    <g id="line2d_20">
     <path d="M 376.656891 120.076696 
L 380.97901 120.919863 
" style="fill:none;stroke:#000000;stroke-linecap:square;stroke-width:0.8;"/>
    </g>
    <g id="text_17">
     <!-- 0.10 -->
     <g transform="translate(386.029303 126.138577)scale(0.1 -0.1)">
      <use xlink:href="#DejaVuSans-30"/>
      <use x="63.623047" xlink:href="#DejaVuSans-2e"/>
      <use x="95.410156" xlink:href="#DejaVuSans-31"/>
      <use x="159.033203" xlink:href="#DejaVuSans-30"/>
     </g>
    </g>
   </g>
   <g id="xtick_18">
    <g id="line2d_21">
     <path d="M 377.534115 103.638573 
L 381.885165 104.469304 
" style="fill:none;stroke:#000000;stroke-linecap:square;stroke-width:0.8;"/>
    </g>
    <g id="text_18">
     <!-- 0.15 -->
     <g transform="translate(387.037106 109.723144)scale(0.1 -0.1)">
      <use xlink:href="#DejaVuSans-30"/>
      <use x="63.623047" xlink:href="#DejaVuSans-2e"/>
      <use x="95.410156" xlink:href="#DejaVuSans-31"/>
      <use x="159.033203" xlink:href="#DejaVuSans-35"/>
     </g>
    </g>
   </g>
  </g>
  <g id="axes_1">
   <g id="Poly3DCollection_1">
    <path clip-path="url(#p780bae212d)" d="M 200.152108 82.679711 
L 209.822199 71.526228 
L 226.150265 75.631376 
L 216.509539 84.989309 
L 200.152108 82.679711 
z
" style="fill:#f3ee27;"/>
    <path clip-path="url(#p780bae212d)" d="M 190.500968 100.011277 
L 200.152108 82.679711 
L 216.509539 84.989309 
L 206.849744 101.63487 
L 190.500968 100.011277 
z
" style="fill:#fcce25;"/>
    <path clip-path="url(#p780bae212d)" d="M 216.509539 84.989309 
L 226.150265 75.631376 
L 242.607104 77.171282 
L 233.020978 87.981667 
L 216.509539 84.989309 
z
" style="fill:#f3f027;"/>
    <path clip-path="url(#p780bae212d)" d="M 161.815878 171.416834 
L 171.4193 148.881308 
L 187.607475 147.510892 
L 178.074522 174.803027 
L 161.815878 171.416834 
z
" style="fill:#c03a83;"/>
    <path clip-path="url(#p780bae212d)" d="M 171.4193 148.881308 
L 180.845889 119.585224 
L 197.193668 122.130205 
L 187.607475 147.510892 
L 171.4193 148.881308 
z
" style="fill:#e56b5d;"/>
    <path clip-path="url(#p780bae212d)" d="M 299.387267 149.867988 
L 308.46213 143.88892 
L 325.286988 147.330113 
L 316.298713 153.360754 
L 299.387267 149.867988 
z
" style="fill:#d6556d;"/>
    <path clip-path="url(#p780bae212d)" d="M 180.845889 119.585224 
L 190.500968 100.011277 
L 206.849744 101.63487 
L 197.193668 122.130205 
L 180.845889 119.585224 
z
" style="fill:#fba238;"/>
    <path clip-path="url(#p780bae212d)" d="M 152.076702 190.663372 
L 161.815878 171.416834 
L 178.074522 174.803027 
L 168.466534 198.836109 
L 152.076702 190.663372 
z
" style="fill:#9511a1;"/>
    <path clip-path="url(#p780bae212d)" d="M 142.485074 214.721312 
L 152.076702 190.663372 
L 168.466534 198.836109 
L 158.62759 216.188797 
L 142.485074 214.721312 
z
" style="fill:#6100a7;"/>
    <path clip-path="url(#p780bae212d)" d="M 206.849744 101.63487 
L 216.509539 84.989309 
L 233.020978 87.981667 
L 223.395768 108.345 
L 206.849744 101.63487 
z
" style="fill:#fcce25;"/>
    <path clip-path="url(#p780bae212d)" d="M 233.020978 87.981667 
L 242.607104 77.171282 
L 259.22769 78.50289 
L 249.667266 94.15443 
L 233.020978 87.981667 
z
" style="fill:#f2f227;"/>
    <path clip-path="url(#p780bae212d)" d="M 132.61056 232.560955 
L 142.485074 214.721312 
L 158.62759 216.188797 
L 148.763901 234.572699 
L 132.61056 232.560955 
z
" style="fill:#310597;"/>
    <path clip-path="url(#p780bae212d)" d="M 197.193668 122.130205 
L 206.849744 101.63487 
L 223.395768 108.345 
L 213.726464 127.776083 
L 197.193668 122.130205 
z
" style="fill:#fba139;"/>
    <path clip-path="url(#p780bae212d)" d="M 168.466534 198.836109 
L 178.074522 174.803027 
L 194.468554 177.815855 
L 184.850284 203.219187 
L 168.466534 198.836109 
z
" style="fill:#8f0da4;"/>
    <path clip-path="url(#p780bae212d)" d="M 178.074522 174.803027 
L 187.607475 147.510892 
L 204.113768 153.945042 
L 194.468554 177.815855 
L 178.074522 174.803027 
z
" style="fill:#c23c81;"/>
    <path clip-path="url(#p780bae212d)" d="M 316.298713 153.360754 
L 325.286988 147.330113 
L 342.25659 150.800911 
L 333.356743 156.883691 
L 316.298713 153.360754 
z
" style="fill:#d6556d;"/>
    <path clip-path="url(#p780bae212d)" d="M 187.607475 147.510892 
L 197.193668 122.130205 
L 213.726464 127.776083 
L 204.113768 153.945042 
L 187.607475 147.510892 
z
" style="fill:#e76f5a;"/>
    <path clip-path="url(#p780bae212d)" d="M 223.395768 108.345 
L 233.020978 87.981667 
L 249.667266 94.15443 
L 240.038738 110.402777 
L 223.395768 108.345 
z
" style="fill:#fdca26;"/>
    <path clip-path="url(#p780bae212d)" d="M 158.62759 216.188797 
L 168.466534 198.836109 
L 184.850284 203.219187 
L 175.004091 220.017189 
L 158.62759 216.188797 
z
" style="fill:#6100a7;"/>
    <path clip-path="url(#p780bae212d)" d="M 249.667266 94.15443 
L 259.22769 78.50289 
L 276.002878 80.79976 
L 266.469109 95.376482 
L 249.667266 94.15443 
z
" style="fill:#f3f027;"/>
    <path clip-path="url(#p780bae212d)" d="M 290.176325 155.936714 
L 299.387267 149.867988 
L 316.298713 153.360754 
L 307.175059 159.482696 
L 290.176325 155.936714 
z
" style="fill:#d6556d;"/>
    <path clip-path="url(#p780bae212d)" d="M 194.468554 177.815855 
L 204.113768 153.945042 
L 220.747315 163.266438 
L 211.052344 184.13528 
L 194.468554 177.815855 
z
" style="fill:#bd3786;"/>
    <path clip-path="url(#p780bae212d)" d="M 204.113768 153.945042 
L 213.726464 127.776083 
L 230.346505 127.145431 
L 220.747315 163.266438 
L 204.113768 153.945042 
z
" style="fill:#e4695e;"/>
    <path clip-path="url(#p780bae212d)" d="M 213.726464 127.776083 
L 223.395768 108.345 
L 240.038738 110.402777 
L 230.346505 127.145431 
L 213.726464 127.776083 
z
" style="fill:#fb9f3a;"/>
    <path clip-path="url(#p780bae212d)" d="M 122.380971 244.406173 
L 132.61056 232.560955 
L 148.763901 234.572699 
L 138.514938 245.208508 
L 122.380971 244.406173 
z
" style="fill:#0d0887;"/>
    <path clip-path="url(#p780bae212d)" d="M 333.356743 156.883691 
L 342.25659 150.800911 
L 359.372812 154.301697 
L 350.563265 160.437341 
L 333.356743 156.883691 
z
" style="fill:#d6556d;"/>
    <path clip-path="url(#p780bae212d)" d="M 184.850284 203.219187 
L 194.468554 177.815855 
L 211.052344 184.13528 
L 201.248817 200.306809 
L 184.850284 203.219187 
z
" style="fill:#910ea3;"/>
    <path clip-path="url(#p780bae212d)" d="M 283.515961 92.293499 
L 292.942689 82.758427 
L 308.46213 143.88892 
L 299.387267 149.867988 
L 283.515961 92.293499 
z
" style="fill:#fdb42f;"/>
    <path clip-path="url(#p780bae212d)" d="M 148.763901 234.572699 
L 158.62759 216.188797 
L 175.004091 220.017189 
L 164.977025 233.236016 
L 148.763901 234.572699 
z
" style="fill:#3c049b;"/>
    <path clip-path="url(#p780bae212d)" d="M 240.038738 110.402777 
L 249.667266 94.15443 
L 266.469109 95.376482 
L 256.875254 107.334866 
L 240.038738 110.402777 
z
" style="fill:#fcce25;"/>
    <path clip-path="url(#p780bae212d)" d="M 175.004091 220.017189 
L 184.850284 203.219187 
L 201.248817 200.306809 
L 191.429885 219.302394 
L 175.004091 220.017189 
z
" style="fill:#6900a8;"/>
    <path clip-path="url(#p780bae212d)" d="M 307.175059 159.482696 
L 316.298713 153.360754 
L 333.356743 156.883691 
L 324.322274 163.058488 
L 307.175059 159.482696 
z
" style="fill:#d6556d;"/>
    <path clip-path="url(#p780bae212d)" d="M 266.469109 95.376482 
L 276.002878 80.79976 
L 292.942689 82.758427 
L 283.515961 92.293499 
L 266.469109 95.376482 
z
" style="fill:#f0f921;"/>
    <path clip-path="url(#p780bae212d)" d="M 220.747315 163.266438 
L 230.346505 127.145431 
L 247.151945 132.017235 
L 237.425422 156.713208 
L 220.747315 163.266438 
z
" style="fill:#e56a5d;"/>
    <path clip-path="url(#p780bae212d)" d="M 211.052344 184.13528 
L 220.747315 163.266438 
L 237.425422 156.713208 
L 227.682871 179.019257 
L 211.052344 184.13528 
z
" style="fill:#c03a83;"/>
    <path clip-path="url(#p780bae212d)" d="M 230.346505 127.145431 
L 240.038738 110.402777 
L 256.875254 107.334866 
L 247.151945 132.017235 
L 230.346505 127.145431 
z
" style="fill:#fca835;"/>
    <path clip-path="url(#p780bae212d)" d="M 138.514938 245.208508 
L 148.763901 234.572699 
L 164.977025 233.236016 
L 154.825388 245.829376 
L 138.514938 245.208508 
z
" style="fill:#20068f;"/>
    <path clip-path="url(#p780bae212d)" d="M 273.920556 106.127899 
L 283.515961 92.293499 
L 299.387267 149.867988 
L 290.176325 155.936714 
L 273.920556 106.127899 
z
" style="fill:#fca636;"/>
    <path clip-path="url(#p780bae212d)" d="M 280.82622 162.097129 
L 290.176325 155.936714 
L 307.175059 159.482696 
L 297.912802 165.704445 
L 280.82622 162.097129 
z
" style="fill:#d6556d;"/>
    <path clip-path="url(#p780bae212d)" d="M 201.248817 200.306809 
L 211.052344 184.13528 
L 227.682871 179.019257 
L 217.901642 199.601697 
L 201.248817 200.306809 
z
" style="fill:#a01a9c;"/>
    <path clip-path="url(#p780bae212d)" d="M 164.977025 233.236016 
L 175.004091 220.017189 
L 191.429885 219.302394 
L 181.42133 232.645586 
L 164.977025 233.236016 
z
" style="fill:#4903a0;"/>
    <path clip-path="url(#p780bae212d)" d="M 324.322274 163.058488 
L 333.356743 156.883691 
L 350.563265 160.437341 
L 341.61988 166.666201 
L 324.322274 163.058488 
z
" style="fill:#d6556d;"/>
    <path clip-path="url(#p780bae212d)" d="M 256.875254 107.334866 
L 266.469109 95.376482 
L 283.515961 92.293499 
L 273.920556 106.127899 
L 256.875254 107.334866 
z
" style="fill:#f8e125;"/>
    <path clip-path="url(#p780bae212d)" d="M 191.429885 219.302394 
L 201.248817 200.306809 
L 217.901642 199.601697 
L 208.07581 219.645879 
L 191.429885 219.302394 
z
" style="fill:#7801a8;"/>
    <path clip-path="url(#p780bae212d)" d="M 264.136504 131.344248 
L 273.920556 106.127899 
L 290.176325 155.936714 
L 280.82622 162.097129 
L 264.136504 131.344248 
z
" style="fill:#f58b47;"/>
    <path clip-path="url(#p780bae212d)" d="M 247.151945 132.017235 
L 256.875254 107.334866 
L 273.920556 106.127899 
L 264.136504 131.344248 
L 247.151945 132.017235 
z
" style="fill:#fdb130;"/>
    <path clip-path="url(#p780bae212d)" d="M 297.912802 165.704445 
L 307.175059 159.482696 
L 324.322274 163.058488 
L 315.150058 169.329076 
L 297.912802 165.704445 
z
" style="fill:#d6556d;"/>
    <path clip-path="url(#p780bae212d)" d="M 237.425422 156.713208 
L 247.151945 132.017235 
L 264.136504 131.344248 
L 254.391496 149.183074 
L 237.425422 156.713208 
z
" style="fill:#ef7c51;"/>
    <path clip-path="url(#p780bae212d)" d="M 154.825388 245.829376 
L 164.977025 233.236016 
L 181.42133 232.645586 
L 171.233985 243.307972 
L 154.825388 245.829376 
z
" style="fill:#330597;"/>
    <path clip-path="url(#p780bae212d)" d="M 227.682871 179.019257 
L 237.425422 156.713208 
L 254.391496 149.183074 
L 244.586947 168.284977 
L 227.682871 179.019257 
z
" style="fill:#d6556d;"/>
    <path clip-path="url(#p780bae212d)" d="M 181.42133 232.645586 
L 191.429885 219.302394 
L 208.07581 219.645879 
L 198.09652 233.436015 
L 181.42133 232.645586 
z
" style="fill:#5801a4;"/>
    <path clip-path="url(#p780bae212d)" d="M 271.333773 168.351327 
L 280.82622 162.097129 
L 297.912802 165.704445 
L 288.508231 172.060336 
L 271.333773 168.351327 
z
" style="fill:#d6556d;"/>
    <path clip-path="url(#p780bae212d)" d="M 217.901642 199.601697 
L 227.682871 179.019257 
L 244.586947 168.284977 
L 234.753197 195.409093 
L 217.901642 199.601697 
z
" style="fill:#b52f8c;"/>
    <path clip-path="url(#p780bae212d)" d="M 254.391496 149.183074 
L 264.136504 131.344248 
L 280.82622 162.097129 
L 271.333773 168.351327 
L 254.391496 149.183074 
z
" style="fill:#ea7457;"/>
    <path clip-path="url(#p780bae212d)" d="M 208.07581 219.645879 
L 217.901642 199.601697 
L 234.753197 195.409093 
L 224.926745 221.512499 
L 208.07581 219.645879 
z
" style="fill:#8707a6;"/>
    <path clip-path="url(#p780bae212d)" d="M 315.150058 169.329076 
L 324.322274 163.058488 
L 341.61988 166.666201 
L 332.539582 172.990417 
L 315.150058 169.329076 
z
" style="fill:#d6556d;"/>
    <path clip-path="url(#p780bae212d)" d="M 171.233985 243.307972 
L 181.42133 232.645586 
L 198.09652 233.436015 
L 187.997031 246.206578 
L 171.233985 243.307972 
z
" style="fill:#44039e;"/>
    <path clip-path="url(#p780bae212d)" d="M 288.508231 172.060336 
L 297.912802 165.704445 
L 315.150058 169.329076 
L 305.837071 175.692547 
L 288.508231 172.060336 
z
" style="fill:#d6556d;"/>
    <path clip-path="url(#p780bae212d)" d="M 198.09652 233.436015 
L 208.07581 219.645879 
L 224.926745 221.512499 
L 214.95514 233.511518 
L 198.09652 233.436015 
z
" style="fill:#6300a7;"/>
    <path clip-path="url(#p780bae212d)" d="M 244.586947 168.284977 
L 254.391496 149.183074 
L 271.333773 168.351327 
L 261.69571 174.701466 
L 244.586947 168.284977 
z
" style="fill:#de5f65;"/>
    <path clip-path="url(#p780bae212d)" d="M 234.753197 195.409093 
L 244.586947 168.284977 
L 261.69571 174.701466 
L 251.875006 188.793281 
L 234.753197 195.409093 
z
" style="fill:#c6417d;"/>
    <path clip-path="url(#p780bae212d)" d="M 261.69571 174.701466 
L 271.333773 168.351327 
L 288.508231 172.060336 
L 278.95903 178.519125 
L 261.69571 174.701466 
z
" style="fill:#d6556d;"/>
    <path clip-path="url(#p780bae212d)" d="M 305.837071 175.692547 
L 315.150058 169.329076 
L 332.539582 172.990417 
L 323.319204 179.412196 
L 305.837071 175.692547 
z
" style="fill:#d6556d;"/>
    <path clip-path="url(#p780bae212d)" d="M 224.926745 221.512499 
L 234.753197 195.409093 
L 251.875006 188.793281 
L 241.965957 195.664735 
L 224.926745 221.512499 
z
" style="fill:#a62098;"/>
    <path clip-path="url(#p780bae212d)" d="M 187.997031 246.206578 
L 198.09652 233.436015 
L 214.95514 233.511518 
L 204.810548 241.496469 
L 187.997031 246.206578 
z
" style="fill:#5102a3;"/>
    <path clip-path="url(#p780bae212d)" d="M 278.95903 178.519125 
L 288.508231 172.060336 
L 305.837071 175.692547 
L 296.37705 182.283551 
L 278.95903 178.519125 
z
" style="fill:#d6556d;"/>
    <path clip-path="url(#p780bae212d)" d="M 214.95514 233.511518 
L 224.926745 221.512499 
L 241.965957 195.664735 
L 231.962013 218.316548 
L 214.95514 233.511518 
z
" style="fill:#8a09a5;"/>
    <path clip-path="url(#p780bae212d)" d="M 251.875006 188.793281 
L 261.69571 174.701466 
L 278.95903 178.519125 
L 269.250105 186.116509 
L 251.875006 188.793281 
z
" style="fill:#d04d73;"/>
    <path clip-path="url(#p780bae212d)" d="M 296.37705 182.283551 
L 305.837071 175.692547 
L 323.319204 179.412196 
L 313.953431 186.003283 
L 296.37705 182.283551 
z
" style="fill:#d6556d;"/>
    <path clip-path="url(#p780bae212d)" d="M 204.810548 241.496469 
L 214.95514 233.511518 
L 231.962013 218.316548 
L 221.910612 238.272586 
L 204.810548 241.496469 
z
" style="fill:#7201a8;"/>
    <path clip-path="url(#p780bae212d)" d="M 269.250105 186.116509 
L 278.95903 178.519125 
L 296.37705 182.283551 
L 286.765281 189.2567 
L 269.250105 186.116509 
z
" style="fill:#d5546e;"/>
    <path clip-path="url(#p780bae212d)" d="M 241.965957 195.664735 
L 251.875006 188.793281 
L 269.250105 186.116509 
L 259.382838 195.857975 
L 241.965957 195.664735 
z
" style="fill:#cc4778;"/>
    <path clip-path="url(#p780bae212d)" d="M 286.765281 189.2567 
L 296.37705 182.283551 
L 313.953431 186.003283 
L 304.440038 192.752107 
L 286.765281 189.2567 
z
" style="fill:#d6556d;"/>
    <path clip-path="url(#p780bae212d)" d="M 231.962013 218.316548 
L 241.965957 195.664735 
L 259.382838 195.857975 
L 249.374206 209.049144 
L 231.962013 218.316548 
z
" style="fill:#ba3388;"/>
    <path clip-path="url(#p780bae212d)" d="M 259.382838 195.857975 
L 269.250105 186.116509 
L 286.765281 189.2567 
L 277.005526 196.346448 
L 259.382838 195.857975 
z
" style="fill:#d24f71;"/>
    <path clip-path="url(#p780bae212d)" d="M 221.910612 238.272586 
L 231.962013 218.316548 
L 249.374206 209.049144 
L 239.264225 227.794118 
L 221.910612 238.272586 
z
" style="fill:#99159f;"/>
    <path clip-path="url(#p780bae212d)" d="M 277.005526 196.346448 
L 286.765281 189.2567 
L 304.440038 192.752107 
L 294.771937 199.856701 
L 277.005526 196.346448 
z
" style="fill:#d5546e;"/>
    <path clip-path="url(#p780bae212d)" d="M 249.374206 209.049144 
L 259.382838 195.857975 
L 277.005526 196.346448 
L 267.056052 207.172344 
L 249.374206 209.049144 
z
" style="fill:#cb4679;"/>
    <path clip-path="url(#p780bae212d)" d="M 239.264225 227.794118 
L 249.374206 209.049144 
L 267.056052 207.172344 
L 256.979627 218.376917 
L 239.264225 227.794118 
z
" style="fill:#ba3388;"/>
    <path clip-path="url(#p780bae212d)" d="M 267.056052 207.172344 
L 277.005526 196.346448 
L 294.771937 199.856701 
L 284.939842 207.805045 
L 267.056052 207.172344 
z
" style="fill:#d24f71;"/>
    <path clip-path="url(#p780bae212d)" d="M 256.979627 218.376917 
L 267.056052 207.172344 
L 284.939842 207.805045 
L 274.959809 215.823945 
L 256.979627 218.376917 
z
" style="fill:#cc4778;"/>
   </g>
  </g>
 </g>
 <defs>
  <clipPath id="p780bae212d">
   <rect height="266.112" width="357.12" x="57.6" y="41.472"/>
  </clipPath>
 </defs>
</svg>
