<?xml version="1.0" encoding="utf-8" standalone="no"?>
<!DOCTYPE svg PUBLIC "-//W3C//DTD SVG 1.1//EN"
  "http://www.w3.org/Graphics/SVG/1.1/DTD/svg11.dtd">
<!-- Created with matplotlib (http://matplotlib.org/) -->
<svg height="345pt" version="1.1" viewBox="0 0 460 345" width="460pt" xmlns="http://www.w3.org/2000/svg" xmlns:xlink="http://www.w3.org/1999/xlink">
 <defs>
  <style type="text/css">
*{stroke-linecap:butt;stroke-linejoin:round;}
  </style>
 </defs>
 <g id="figure_1">
  <g id="patch_1">
   <path d="M 0 345.6 
L 460.8 345.6 
L 460.8 0 
L 0 0 
z
" style="fill:#ffffff;"/>
  </g>
  <g id="patch_2">
   <path d="M 57.6 307.584 
L 414.72 307.584 
L 414.72 41.472 
L 57.6 41.472 
z
" style="fill:#ffffff;"/>
  </g>
  <g id="pane3d_1">
   <g id="patch_3">
    <path d="M 104.941774 248.782626 
L 207.151387 183.537994 
L 205.449705 58.866209 
L 97.541237 117.48717 
" style="fill:#f2f2f2;opacity:0.5;stroke:#f2f2f2;stroke-linejoin:miter;"/>
   </g>
  </g>
  <g id="pane3d_2">
   <g id="patch_4">
    <path d="M 207.151387 183.537994 
L 372.72135 220.013954 
L 379.648599 91.582742 
L 205.449705 58.866209 
" style="fill:#e6e6e6;opacity:0.5;stroke:#e6e6e6;stroke-linejoin:miter;"/>
   </g>
  </g>
  <g id="pane3d_3">
   <g id="patch_5">
    <path d="M 104.941774 248.782626 
L 279.143747 291.264825 
L 372.72135 220.013954 
L 207.151387 183.537994 
" style="fill:#ececec;opacity:0.5;stroke:#ececec;stroke-linejoin:miter;"/>
   </g>
  </g>
  <g id="axis3d_1">
   <g id="line2d_1">
    <path d="M 104.941774 248.782626 
L 279.143747 291.264825 
" style="fill:none;stroke:#000000;stroke-linecap:square;stroke-width:0.8;"/>
   </g>
   <g id="Line3DCollection_1">
    <path d="M 115.562252 251.372616 
L 217.277438 185.768818 
L 216.081723 60.863023 
" style="fill:none;stroke:#b0b0b0;stroke-width:0.8;"/>
    <path d="M 148.306252 259.357813 
L 248.470984 192.640925 
L 248.851709 67.017599 
" style="fill:none;stroke:#b0b0b0;stroke-width:0.8;"/>
    <path d="M 181.629397 267.484245 
L 280.175868 199.625682 
L 282.186433 73.278239 
" style="fill:none;stroke:#b0b0b0;stroke-width:0.8;"/>
    <path d="M 215.547191 275.755692 
L 312.404765 206.725883 
L 316.10062 79.647709 
" style="fill:none;stroke:#b0b0b0;stroke-width:0.8;"/>
    <path d="M 250.075693 284.176071 
L 345.170776 213.944413 
L 350.609512 86.128871 
" style="fill:none;stroke:#b0b0b0;stroke-width:0.8;"/>
   </g>
   <g id="xtick_1">
    <g id="line2d_2">
     <path d="M 116.438581 250.807405 
L 113.806326 252.505145 
" style="fill:none;stroke:#000000;stroke-linecap:square;stroke-width:0.8;"/>
    </g>
    <g id="text_1">
     <!-- 0 -->
     <defs>
      <path d="M 31.78125 66.40625 
Q 24.171875 66.40625 20.328125 58.90625 
Q 16.5 51.421875 16.5 36.375 
Q 16.5 21.390625 20.328125 13.890625 
Q 24.171875 6.390625 31.78125 6.390625 
Q 39.453125 6.390625 43.28125 13.890625 
Q 47.125 21.390625 47.125 36.375 
Q 47.125 51.421875 43.28125 58.90625 
Q 39.453125 66.40625 31.78125 66.40625 
z
M 31.78125 74.21875 
Q 44.046875 74.21875 50.515625 64.515625 
Q 56.984375 54.828125 56.984375 36.375 
Q 56.984375 17.96875 50.515625 8.265625 
Q 44.046875 -1.421875 31.78125 -1.421875 
Q 19.53125 -1.421875 13.0625 8.265625 
Q 6.59375 17.96875 6.59375 36.375 
Q 6.59375 54.828125 13.0625 64.515625 
Q 19.53125 74.21875 31.78125 74.21875 
z
" id="DejaVuSans-30"/>
     </defs>
     <g transform="translate(105.060879 272.84452)scale(0.1 -0.1)">
      <use xlink:href="#DejaVuSans-30"/>
     </g>
    </g>
   </g>
   <g id="xtick_2">
    <g id="line2d_3">
     <path d="M 149.169762 258.782653 
L 146.575981 260.510297 
" style="fill:none;stroke:#000000;stroke-linecap:square;stroke-width:0.8;"/>
    </g>
    <g id="text_2">
     <!-- 2 -->
     <defs>
      <path d="M 19.1875 8.296875 
L 53.609375 8.296875 
L 53.609375 0 
L 7.328125 0 
L 7.328125 8.296875 
Q 12.9375 14.109375 22.625 23.890625 
Q 32.328125 33.6875 34.8125 36.53125 
Q 39.546875 41.84375 41.421875 45.53125 
Q 43.3125 49.21875 43.3125 52.78125 
Q 43.3125 58.59375 39.234375 62.25 
Q 35.15625 65.921875 28.609375 65.921875 
Q 23.96875 65.921875 18.8125 64.3125 
Q 13.671875 62.703125 7.8125 59.421875 
L 7.8125 69.390625 
Q 13.765625 71.78125 18.9375 73 
Q 24.125 74.21875 28.421875 74.21875 
Q 39.75 74.21875 46.484375 68.546875 
Q 53.21875 62.890625 53.21875 53.421875 
Q 53.21875 48.921875 51.53125 44.890625 
Q 49.859375 40.875 45.40625 35.40625 
Q 44.1875 33.984375 37.640625 27.21875 
Q 31.109375 20.453125 19.1875 8.296875 
z
" id="DejaVuSans-32"/>
     </defs>
     <g transform="translate(137.80125 280.96635)scale(0.1 -0.1)">
      <use xlink:href="#DejaVuSans-32"/>
     </g>
    </g>
   </g>
   <g id="xtick_3">
    <g id="line2d_4">
     <path d="M 182.479498 266.89887 
L 179.925969 268.657216 
" style="fill:none;stroke:#000000;stroke-linecap:square;stroke-width:0.8;"/>
    </g>
    <g id="text_3">
     <!-- 4 -->
     <defs>
      <path d="M 37.796875 64.3125 
L 12.890625 25.390625 
L 37.796875 25.390625 
z
M 35.203125 72.90625 
L 47.609375 72.90625 
L 47.609375 25.390625 
L 58.015625 25.390625 
L 58.015625 17.1875 
L 47.609375 17.1875 
L 47.609375 0 
L 37.796875 0 
L 37.796875 17.1875 
L 4.890625 17.1875 
L 4.890625 26.703125 
z
" id="DejaVuSans-34"/>
     </defs>
     <g transform="translate(171.121785 289.232101)scale(0.1 -0.1)">
      <use xlink:href="#DejaVuSans-34"/>
     </g>
    </g>
   </g>
   <g id="xtick_4">
    <g id="line2d_5">
     <path d="M 216.383263 275.159828 
L 213.871843 276.949702 
" style="fill:none;stroke:#000000;stroke-linecap:square;stroke-width:0.8;"/>
    </g>
    <g id="text_4">
     <!-- 6 -->
     <defs>
      <path d="M 33.015625 40.375 
Q 26.375 40.375 22.484375 35.828125 
Q 18.609375 31.296875 18.609375 23.390625 
Q 18.609375 15.53125 22.484375 10.953125 
Q 26.375 6.390625 33.015625 6.390625 
Q 39.65625 6.390625 43.53125 10.953125 
Q 47.40625 15.53125 47.40625 23.390625 
Q 47.40625 31.296875 43.53125 35.828125 
Q 39.65625 40.375 33.015625 40.375 
z
M 52.59375 71.296875 
L 52.59375 62.3125 
Q 48.875 64.0625 45.09375 64.984375 
Q 41.3125 65.921875 37.59375 65.921875 
Q 27.828125 65.921875 22.671875 59.328125 
Q 17.53125 52.734375 16.796875 39.40625 
Q 19.671875 43.65625 24.015625 45.921875 
Q 28.375 48.1875 33.59375 48.1875 
Q 44.578125 48.1875 50.953125 41.515625 
Q 57.328125 34.859375 57.328125 23.390625 
Q 57.328125 12.15625 50.6875 5.359375 
Q 44.046875 -1.421875 33.015625 -1.421875 
Q 20.359375 -1.421875 13.671875 8.265625 
Q 6.984375 17.96875 6.984375 36.375 
Q 6.984375 53.65625 15.1875 63.9375 
Q 23.390625 74.21875 37.203125 74.21875 
Q 40.921875 74.21875 44.703125 73.484375 
Q 48.484375 72.75 52.59375 71.296875 
z
" id="DejaVuSans-36"/>
     </defs>
     <g transform="translate(205.038042 297.64563)scale(0.1 -0.1)">
      <use xlink:href="#DejaVuSans-36"/>
     </g>
    </g>
   </g>
   <g id="xtick_5">
    <g id="line2d_6">
     <path d="M 250.897092 283.569434 
L 248.429719 285.391691 
" style="fill:none;stroke:#000000;stroke-linecap:square;stroke-width:0.8;"/>
    </g>
    <g id="text_5">
     <!-- 8 -->
     <defs>
      <path d="M 31.78125 34.625 
Q 24.75 34.625 20.71875 30.859375 
Q 16.703125 27.09375 16.703125 20.515625 
Q 16.703125 13.921875 20.71875 10.15625 
Q 24.75 6.390625 31.78125 6.390625 
Q 38.8125 6.390625 42.859375 10.171875 
Q 46.921875 13.96875 46.921875 20.515625 
Q 46.921875 27.09375 42.890625 30.859375 
Q 38.875 34.625 31.78125 34.625 
z
M 21.921875 38.8125 
Q 15.578125 40.375 12.03125 44.71875 
Q 8.5 49.078125 8.5 55.328125 
Q 8.5 64.0625 14.71875 69.140625 
Q 20.953125 74.21875 31.78125 74.21875 
Q 42.671875 74.21875 48.875 69.140625 
Q 55.078125 64.0625 55.078125 55.328125 
Q 55.078125 49.078125 51.53125 44.71875 
Q 48 40.375 41.703125 38.8125 
Q 48.828125 37.15625 52.796875 32.3125 
Q 56.78125 27.484375 56.78125 20.515625 
Q 56.78125 9.90625 50.3125 4.234375 
Q 43.84375 -1.421875 31.78125 -1.421875 
Q 19.734375 -1.421875 13.25 4.234375 
Q 6.78125 9.90625 6.78125 20.515625 
Q 6.78125 27.484375 10.78125 32.3125 
Q 14.796875 37.15625 21.921875 38.8125 
z
M 18.3125 54.390625 
Q 18.3125 48.734375 21.84375 45.5625 
Q 25.390625 42.390625 31.78125 42.390625 
Q 38.140625 42.390625 41.71875 45.5625 
Q 45.3125 48.734375 45.3125 54.390625 
Q 45.3125 60.0625 41.71875 63.234375 
Q 38.140625 66.40625 31.78125 66.40625 
Q 25.390625 66.40625 21.84375 63.234375 
Q 18.3125 60.0625 18.3125 54.390625 
z
" id="DejaVuSans-38"/>
     </defs>
     <g transform="translate(239.566142 306.210938)scale(0.1 -0.1)">
      <use xlink:href="#DejaVuSans-38"/>
     </g>
    </g>
   </g>
  </g>
  <g id="axis3d_2">
   <g id="line2d_7">
    <path d="M 372.72135 220.013954 
L 279.143747 291.264825 
" style="fill:none;stroke:#000000;stroke-linecap:square;stroke-width:0.8;"/>
   </g>
   <g id="Line3DCollection_2">
    <path d="M 104.930092 113.473196 
L 111.915028 244.331309 
L 285.548062 286.38852 
" style="fill:none;stroke:#b0b0b0;stroke-width:0.8;"/>
    <path d="M 126.984969 101.491948 
L 132.751513 231.030517 
L 304.667047 271.831144 
" style="fill:none;stroke:#b0b0b0;stroke-width:0.8;"/>
    <path d="M 148.366618 89.876429 
L 152.983668 218.115494 
L 323.206496 257.715032 
" style="fill:none;stroke:#b0b0b0;stroke-width:0.8;"/>
    <path d="M 169.105401 78.610146 
L 172.637407 205.569698 
L 341.192365 244.020421 
" style="fill:none;stroke:#b0b0b0;stroke-width:0.8;"/>
    <path d="M 189.229881 67.677581 
L 191.737187 193.377517 
L 358.649085 230.728709 
" style="fill:none;stroke:#b0b0b0;stroke-width:0.8;"/>
   </g>
   <g id="xtick_6">
    <g id="line2d_8">
     <path d="M 284.094906 286.036538 
L 288.457621 287.09327 
" style="fill:none;stroke:#000000;stroke-linecap:square;stroke-width:0.8;"/>
    </g>
    <g id="text_6">
     <!-- 0 -->
     <g transform="translate(295.066159 306.144728)scale(0.1 -0.1)">
      <use xlink:href="#DejaVuSans-30"/>
     </g>
    </g>
   </g>
   <g id="xtick_7">
    <g id="line2d_9">
     <path d="M 303.229241 271.48991 
L 307.545822 272.514362 
" style="fill:none;stroke:#000000;stroke-linecap:square;stroke-width:0.8;"/>
    </g>
    <g id="text_7">
     <!-- 2 -->
     <g transform="translate(313.980212 291.407653)scale(0.1 -0.1)">
      <use xlink:href="#DejaVuSans-32"/>
     </g>
    </g>
   </g>
   <g id="xtick_8">
    <g id="line2d_10">
     <path d="M 321.783784 257.384061 
L 326.055002 258.37769 
" style="fill:none;stroke:#000000;stroke-linecap:square;stroke-width:0.8;"/>
    </g>
    <g id="text_8">
     <!-- 4 -->
     <g transform="translate(332.321224 277.117069)scale(0.1 -0.1)">
      <use xlink:href="#DejaVuSans-34"/>
     </g>
    </g>
   </g>
   <g id="xtick_9">
    <g id="line2d_11">
     <path d="M 339.784494 243.699257 
L 344.011113 244.663433 
" style="fill:none;stroke:#000000;stroke-linecap:square;stroke-width:0.8;"/>
    </g>
    <g id="text_9">
     <!-- 6 -->
     <g transform="translate(350.114849 263.252987)scale(0.1 -0.1)">
      <use xlink:href="#DejaVuSans-36"/>
     </g>
    </g>
   </g>
   <g id="xtick_10">
    <g id="line2d_12">
     <path d="M 357.255803 230.416924 
L 361.438579 231.352936 
" style="fill:none;stroke:#000000;stroke-linecap:square;stroke-width:0.8;"/>
    </g>
    <g id="text_10">
     <!-- 8 -->
     <g transform="translate(367.385231 249.796595)scale(0.1 -0.1)">
      <use xlink:href="#DejaVuSans-38"/>
     </g>
    </g>
   </g>
  </g>
  <g id="axis3d_3">
   <g id="line2d_13">
    <path d="M 372.72135 220.013954 
L 379.648599 91.582742 
" style="fill:none;stroke:#000000;stroke-linecap:square;stroke-width:0.8;"/>
   </g>
   <g id="Line3DCollection_3">
    <path d="M 373.157315 211.931157 
L 207.044073 175.675764 
L 104.476774 240.532887 
" style="fill:none;stroke:#b0b0b0;stroke-width:0.8;"/>
    <path d="M 374.004344 196.227238 
L 206.835659 160.40655 
L 103.573044 224.499513 
" style="fill:none;stroke:#b0b0b0;stroke-width:0.8;"/>
    <path d="M 374.862299 180.320741 
L 206.62467 144.94866 
L 102.657269 208.252432 
" style="fill:none;stroke:#b0b0b0;stroke-width:0.8;"/>
    <path d="M 375.731394 164.207722 
L 206.411057 129.298578 
L 101.729205 191.787344 
" style="fill:none;stroke:#b0b0b0;stroke-width:0.8;"/>
    <path d="M 376.611847 147.884132 
L 206.194772 113.452696 
L 100.788605 175.099832 
" style="fill:none;stroke:#b0b0b0;stroke-width:0.8;"/>
    <path d="M 377.503881 131.345816 
L 205.975764 97.407317 
L 99.835212 158.185357 
" style="fill:none;stroke:#b0b0b0;stroke-width:0.8;"/>
    <path d="M 378.407727 114.588509 
L 205.753981 81.158648 
L 98.868763 141.039258 
" style="fill:none;stroke:#b0b0b0;stroke-width:0.8;"/>
    <path d="M 379.323621 97.607833 
L 205.529371 64.702803 
L 97.888988 123.656744 
" style="fill:none;stroke:#b0b0b0;stroke-width:0.8;"/>
   </g>
   <g id="xtick_11">
    <g id="line2d_14">
     <path d="M 371.771206 211.628628 
L 375.932424 212.536844 
" style="fill:none;stroke:#000000;stroke-linecap:square;stroke-width:0.8;"/>
    </g>
    <g id="text_11">
     <!-- −0.20 -->
     <defs>
      <path d="M 10.59375 35.5 
L 73.1875 35.5 
L 73.1875 27.203125 
L 10.59375 27.203125 
z
" id="DejaVuSans-2212"/>
      <path d="M 10.6875 12.40625 
L 21 12.40625 
L 21 0 
L 10.6875 0 
z
" id="DejaVuSans-2e"/>
     </defs>
     <g transform="translate(376.22604 217.571785)scale(0.1 -0.1)">
      <use xlink:href="#DejaVuSans-2212"/>
      <use x="83.789062" xlink:href="#DejaVuSans-30"/>
      <use x="147.412109" xlink:href="#DejaVuSans-2e"/>
      <use x="179.199219" xlink:href="#DejaVuSans-32"/>
      <use x="242.822266" xlink:href="#DejaVuSans-30"/>
     </g>
    </g>
   </g>
   <g id="xtick_12">
    <g id="line2d_15">
     <path d="M 372.609059 195.928258 
L 376.797842 196.825825 
" style="fill:none;stroke:#000000;stroke-linecap:square;stroke-width:0.8;"/>
    </g>
    <g id="text_12">
     <!-- −0.15 -->
     <defs>
      <path d="M 12.40625 8.296875 
L 28.515625 8.296875 
L 28.515625 63.921875 
L 10.984375 60.40625 
L 10.984375 69.390625 
L 28.421875 72.90625 
L 38.28125 72.90625 
L 38.28125 8.296875 
L 54.390625 8.296875 
L 54.390625 0 
L 12.40625 0 
z
" id="DejaVuSans-31"/>
      <path d="M 10.796875 72.90625 
L 49.515625 72.90625 
L 49.515625 64.59375 
L 19.828125 64.59375 
L 19.828125 46.734375 
Q 21.96875 47.46875 24.109375 47.828125 
Q 26.265625 48.1875 28.421875 48.1875 
Q 40.625 48.1875 47.75 41.5 
Q 54.890625 34.8125 54.890625 23.390625 
Q 54.890625 11.625 47.5625 5.09375 
Q 40.234375 -1.421875 26.90625 -1.421875 
Q 22.3125 -1.421875 17.546875 -0.640625 
Q 12.796875 0.140625 7.71875 1.703125 
L 7.71875 11.625 
Q 12.109375 9.234375 16.796875 8.0625 
Q 21.484375 6.890625 26.703125 6.890625 
Q 35.15625 6.890625 40.078125 11.328125 
Q 45.015625 15.765625 45.015625 23.390625 
Q 45.015625 31 40.078125 35.4375 
Q 35.15625 39.890625 26.703125 39.890625 
Q 22.75 39.890625 18.8125 39.015625 
Q 14.890625 38.140625 10.796875 36.28125 
z
" id="DejaVuSans-35"/>
     </defs>
     <g transform="translate(377.18875 201.890852)scale(0.1 -0.1)">
      <use xlink:href="#DejaVuSans-2212"/>
      <use x="83.789062" xlink:href="#DejaVuSans-30"/>
      <use x="147.412109" xlink:href="#DejaVuSans-2e"/>
      <use x="179.199219" xlink:href="#DejaVuSans-31"/>
      <use x="242.822266" xlink:href="#DejaVuSans-35"/>
     </g>
    </g>
   </g>
   <g id="xtick_13">
    <g id="line2d_16">
     <path d="M 373.457716 180.025427 
L 377.674432 180.911994 
" style="fill:none;stroke:#000000;stroke-linecap:square;stroke-width:0.8;"/>
    </g>
    <g id="text_13">
     <!-- −0.10 -->
     <g transform="translate(378.16385 186.008099)scale(0.1 -0.1)">
      <use xlink:href="#DejaVuSans-2212"/>
      <use x="83.789062" xlink:href="#DejaVuSans-30"/>
      <use x="147.412109" xlink:href="#DejaVuSans-2e"/>
      <use x="179.199219" xlink:href="#DejaVuSans-31"/>
      <use x="242.822266" xlink:href="#DejaVuSans-30"/>
     </g>
    </g>
   </g>
   <g id="xtick_14">
    <g id="line2d_17">
     <path d="M 374.317388 163.916194 
L 378.562411 164.791399 
" style="fill:none;stroke:#000000;stroke-linecap:square;stroke-width:0.8;"/>
    </g>
    <g id="text_14">
     <!-- −0.05 -->
     <g transform="translate(379.151581 169.919603)scale(0.1 -0.1)">
      <use xlink:href="#DejaVuSans-2212"/>
      <use x="83.789062" xlink:href="#DejaVuSans-30"/>
      <use x="147.412109" xlink:href="#DejaVuSans-2e"/>
      <use x="179.199219" xlink:href="#DejaVuSans-30"/>
      <use x="242.822266" xlink:href="#DejaVuSans-35"/>
     </g>
    </g>
   </g>
   <g id="xtick_15">
    <g id="line2d_18">
     <path d="M 375.188291 147.596514 
L 379.462003 148.459984 
" style="fill:none;stroke:#000000;stroke-linecap:square;stroke-width:0.8;"/>
    </g>
    <g id="text_15">
     <!-- 0.00 -->
     <g transform="translate(384.342035 153.621342)scale(0.1 -0.1)">
      <use xlink:href="#DejaVuSans-30"/>
      <use x="63.623047" xlink:href="#DejaVuSans-2e"/>
      <use x="95.410156" xlink:href="#DejaVuSans-30"/>
      <use x="159.033203" xlink:href="#DejaVuSans-30"/>
     </g>
    </g>
   </g>
   <g id="xtick_16">
    <g id="line2d_19">
     <path d="M 376.070646 131.062237 
L 380.373437 131.913585 
" style="fill:none;stroke:#000000;stroke-linecap:square;stroke-width:0.8;"/>
    </g>
    <g id="text_16">
     <!-- 0.05 -->
     <g transform="translate(385.355777 137.109186)scale(0.1 -0.1)">
      <use xlink:href="#DejaVuSans-30"/>
      <use x="63.623047" xlink:href="#DejaVuSans-2e"/>
      <use x="95.410156" xlink:href="#DejaVuSans-30"/>
      <use x="159.033203" xlink:href="#DejaVuSans-35"/>
     </g>
    </g>
   </g>
   <g id="xtick_17">
    <g id="line2d_20">
     <path d="M 376.96468 114.309101 
L 381.296948 115.147931 
" style="fill:none;stroke:#000000;stroke-linecap:square;stroke-width:0.8;"/>
    </g>
    <g id="text_17">
     <!-- 0.10 -->
     <g transform="translate(386.382911 120.378895)scale(0.1 -0.1)">
      <use xlink:href="#DejaVuSans-30"/>
      <use x="63.623047" xlink:href="#DejaVuSans-2e"/>
      <use x="95.410156" xlink:href="#DejaVuSans-31"/>
      <use x="159.033203" xlink:href="#DejaVuSans-30"/>
     </g>
    </g>
   </g>
   <g id="xtick_18">
    <g id="line2d_21">
     <path d="M 377.870627 97.332733 
L 382.232779 98.158633 
" style="fill:none;stroke:#000000;stroke-linecap:square;stroke-width:0.8;"/>
    </g>
    <g id="text_18">
     <!-- 0.15 -->
     <g transform="translate(387.423703 103.42612)scale(0.1 -0.1)">
      <use xlink:href="#DejaVuSans-30"/>
      <use x="63.623047" xlink:href="#DejaVuSans-2e"/>
      <use x="95.410156" xlink:href="#DejaVuSans-31"/>
      <use x="159.033203" xlink:href="#DejaVuSans-35"/>
     </g>
    </g>
   </g>
  </g>
  <g id="axes_1">
   <g id="Poly3DCollection_1">
    <path clip-path="url(#p348009c9db)" d="M 200.410772 99.021017 
L 210.062121 91.472638 
L 226.255185 93.925183 
L 216.678096 102.738527 
L 200.410772 99.021017 
z
" style="fill:#fdab33;"/>
    <path clip-path="url(#p348009c9db)" d="M 216.678096 102.738527 
L 226.255185 93.925183 
L 242.59494 96.569586 
L 233.074356 105.234354 
L 216.678096 102.738527 
z
" style="fill:#fdab33;"/>
    <path clip-path="url(#p348009c9db)" d="M 190.690214 109.616522 
L 200.410772 99.021017 
L 216.678096 102.738527 
L 207.001842 113.044622 
L 190.690214 109.616522 
z
" style="fill:#fa9e3b;"/>
    <path clip-path="url(#p348009c9db)" d="M 233.074356 105.234354 
L 242.59494 96.569586 
L 259.070326 100.793027 
L 249.616511 109.16929 
L 233.074356 105.234354 
z
" style="fill:#fdab33;"/>
    <path clip-path="url(#p348009c9db)" d="M 207.001842 113.044622 
L 216.678096 102.738527 
L 233.074356 105.234354 
L 223.452542 116.588482 
L 207.001842 113.044622 
z
" style="fill:#fa9e3b;"/>
    <path clip-path="url(#p348009c9db)" d="M 180.925618 122.956267 
L 190.690214 109.616522 
L 207.001842 113.044622 
L 197.249237 125.353614 
L 180.925618 122.956267 
z
" style="fill:#f58c46;"/>
    <path clip-path="url(#p348009c9db)" d="M 249.616511 109.16929 
L 259.070326 100.793027 
L 275.690173 103.853663 
L 266.296222 112.791988 
L 249.616511 109.16929 
z
" style="fill:#fca934;"/>
    <path clip-path="url(#p348009c9db)" d="M 223.452542 116.588482 
L 233.074356 105.234354 
L 249.616511 109.16929 
L 240.042637 120.90769 
L 223.452542 116.588482 
z
" style="fill:#fa9e3b;"/>
    <path clip-path="url(#p348009c9db)" d="M 197.249237 125.353614 
L 207.001842 113.044622 
L 223.452542 116.588482 
L 213.710977 126.33604 
L 197.249237 125.353614 
z
" style="fill:#f68d45;"/>
    <path clip-path="url(#p348009c9db)" d="M 171.013694 134.226382 
L 180.925618 122.956267 
L 197.249237 125.353614 
L 187.464031 140.752666 
L 171.013694 134.226382 
z
" style="fill:#ed7953;"/>
    <path clip-path="url(#p348009c9db)" d="M 266.296222 112.791988 
L 275.690173 103.853663 
L 292.460184 106.714604 
L 283.137781 115.146974 
L 266.296222 112.791988 
z
" style="fill:#fdab33;"/>
    <path clip-path="url(#p348009c9db)" d="M 283.137781 115.146974 
L 292.460184 106.714604 
L 308.587982 139.191595 
L 299.553492 142.716747 
L 283.137781 115.146974 
z
" style="fill:#f58c46;"/>
    <path clip-path="url(#p348009c9db)" d="M 240.042637 120.90769 
L 249.616511 109.16929 
L 266.296222 112.791988 
L 256.763966 125.230365 
L 240.042637 120.90769 
z
" style="fill:#fa9b3d;"/>
    <path clip-path="url(#p348009c9db)" d="M 161.106403 149.094252 
L 171.013694 134.226382 
L 187.464031 140.752666 
L 177.618117 156.756252 
L 161.106403 149.094252 
z
" style="fill:#df6263;"/>
    <path clip-path="url(#p348009c9db)" d="M 187.464031 140.752666 
L 197.249237 125.353614 
L 213.710977 126.33604 
L 203.948471 142.699744 
L 187.464031 140.752666 
z
" style="fill:#ec7754;"/>
    <path clip-path="url(#p348009c9db)" d="M 213.710977 126.33604 
L 223.452542 116.588482 
L 240.042637 120.90769 
L 230.370655 132.899924 
L 213.710977 126.33604 
z
" style="fill:#f68d45;"/>
    <path clip-path="url(#p348009c9db)" d="M 256.763966 125.230365 
L 266.296222 112.791988 
L 283.137781 115.146974 
L 273.6487 127.228314 
L 256.763966 125.230365 
z
" style="fill:#fa9b3d;"/>
    <path clip-path="url(#p348009c9db)" d="M 299.553492 142.716747 
L 308.587982 139.191595 
L 326.926389 98.419828 
L 317.904797 99.854444 
L 299.553492 142.716747 
z
" style="fill:#f79342;"/>
    <path clip-path="url(#p348009c9db)" d="M 230.370655 132.899924 
L 240.042637 120.90769 
L 256.763966 125.230365 
L 247.140323 136.786824 
L 230.370655 132.899924 
z
" style="fill:#f48948;"/>
    <path clip-path="url(#p348009c9db)" d="M 151.150264 164.907867 
L 161.106403 149.094252 
L 177.618117 156.756252 
L 167.643446 170.875032 
L 151.150264 164.907867 
z
" style="fill:#ce4b75;"/>
    <path clip-path="url(#p348009c9db)" d="M 177.618117 156.756252 
L 187.464031 140.752666 
L 203.948471 142.699744 
L 194.064513 156.235353 
L 177.618117 156.756252 
z
" style="fill:#dd5e66;"/>
    <path clip-path="url(#p348009c9db)" d="M 273.6487 127.228314 
L 283.137781 115.146974 
L 299.553492 142.716747 
L 290.278163 150.747656 
L 273.6487 127.228314 
z
" style="fill:#f1834c;"/>
    <path clip-path="url(#p348009c9db)" d="M 203.948471 142.699744 
L 213.710977 126.33604 
L 230.370655 132.899924 
L 220.606126 145.83197 
L 203.948471 142.699744 
z
" style="fill:#ed7953;"/>
    <path clip-path="url(#p348009c9db)" d="M 141.177184 182.221284 
L 151.150264 164.907867 
L 167.643446 170.875032 
L 157.668978 187.716207 
L 141.177184 182.221284 
z
" style="fill:#b83289;"/>
    <path clip-path="url(#p348009c9db)" d="M 167.643446 170.875032 
L 177.618117 156.756252 
L 194.064513 156.235353 
L 184.198259 174.655492 
L 167.643446 170.875032 
z
" style="fill:#cc4977;"/>
    <path clip-path="url(#p348009c9db)" d="M 247.140323 136.786824 
L 256.763966 125.230365 
L 273.6487 127.228314 
L 264.042322 141.641148 
L 247.140323 136.786824 
z
" style="fill:#f48849;"/>
    <path clip-path="url(#p348009c9db)" d="M 220.606126 145.83197 
L 230.370655 132.899924 
L 247.140323 136.786824 
L 237.418755 152.021088 
L 220.606126 145.83197 
z
" style="fill:#eb7655;"/>
    <path clip-path="url(#p348009c9db)" d="M 194.064513 156.235353 
L 203.948471 142.699744 
L 220.606126 145.83197 
L 210.778153 161.434527 
L 194.064513 156.235353 
z
" style="fill:#e06363;"/>
    <path clip-path="url(#p348009c9db)" d="M 264.042322 141.641148 
L 273.6487 127.228314 
L 290.278163 150.747656 
L 281.021253 149.857289 
L 264.042322 141.641148 
z
" style="fill:#ed7a52;"/>
    <path clip-path="url(#p348009c9db)" d="M 290.278163 150.747656 
L 299.553492 142.716747 
L 317.904797 99.854444 
L 308.621189 104.798056 
L 290.278163 150.747656 
z
" style="fill:#f89540;"/>
    <path clip-path="url(#p348009c9db)" d="M 131.060463 197.807035 
L 141.177184 182.221284 
L 157.668978 187.716207 
L 147.465019 200.378634 
L 131.060463 197.807035 
z
" style="fill:#a11b9b;"/>
    <path clip-path="url(#p348009c9db)" d="M 157.668978 187.716207 
L 167.643446 170.875032 
L 184.198259 174.655492 
L 174.186646 189.758835 
L 157.668978 187.716207 
z
" style="fill:#b6308b;"/>
    <path clip-path="url(#p348009c9db)" d="M 237.418755 152.021088 
L 247.140323 136.786824 
L 264.042322 141.641148 
L 254.35304 156.392614 
L 237.418755 152.021088 
z
" style="fill:#e97158;"/>
    <path clip-path="url(#p348009c9db)" d="M 184.198259 174.655492 
L 194.064513 156.235353 
L 210.778153 161.434527 
L 200.866263 176.604086 
L 184.198259 174.655492 
z
" style="fill:#cd4a76;"/>
    <path clip-path="url(#p348009c9db)" d="M 210.778153 161.434527 
L 220.606126 145.83197 
L 237.418755 152.021088 
L 227.606062 164.680762 
L 210.778153 161.434527 
z
" style="fill:#de6164;"/>
    <path clip-path="url(#p348009c9db)" d="M 147.465019 200.378634 
L 157.668978 187.716207 
L 174.186646 189.758835 
L 164.029256 202.946464 
L 147.465019 200.378634 
z
" style="fill:#a21d9a;"/>
    <path clip-path="url(#p348009c9db)" d="M 174.186646 189.758835 
L 184.198259 174.655492 
L 200.866263 176.604086 
L 190.903986 193.375869 
L 174.186646 189.758835 
z
" style="fill:#b83289;"/>
    <path clip-path="url(#p348009c9db)" d="M 254.35304 156.392614 
L 264.042322 141.641148 
L 281.021253 149.857289 
L 271.443511 159.332923 
L 254.35304 156.392614 
z
" style="fill:#e76e5b;"/>
    <path clip-path="url(#p348009c9db)" d="M 120.508513 206.232642 
L 131.060463 197.807035 
L 147.465019 200.378634 
L 137.036638 210.337017 
L 120.508513 206.232642 
z
" style="fill:#9410a2;"/>
    <path clip-path="url(#p348009c9db)" d="M 227.606062 164.680762 
L 237.418755 152.021088 
L 254.35304 156.392614 
L 244.585398 169.35806 
L 227.606062 164.680762 
z
" style="fill:#dd5e66;"/>
    <path clip-path="url(#p348009c9db)" d="M 200.866263 176.604086 
L 210.778153 161.434527 
L 227.606062 164.680762 
L 217.71 179.156047 
L 200.866263 176.604086 
z
" style="fill:#cf4c74;"/>
    <path clip-path="url(#p348009c9db)" d="M 317.904797 99.854444 
L 326.926389 98.419828 
L 343.986606 107.895223 
L 335.287197 104.521231 
L 317.904797 99.854444 
z
" style="fill:#f5e926;"/>
    <path clip-path="url(#p348009c9db)" d="M 335.287197 104.521231 
L 343.986606 107.895223 
L 359.667355 148.061649 
L 352.67587 112.200762 
L 335.287197 104.521231 
z
" style="fill:#fdc527;"/>
    <path clip-path="url(#p348009c9db)" d="M 281.021253 149.857289 
L 290.278163 150.747656 
L 308.621189 104.798056 
L 299.056206 115.557312 
L 281.021253 149.857289 
z
" style="fill:#f99a3e;"/>
    <path clip-path="url(#p348009c9db)" d="M 244.585398 169.35806 
L 254.35304 156.392614 
L 271.443511 159.332923 
L 261.63494 182.001265 
L 244.585398 169.35806 
z
" style="fill:#d9586a;"/>
    <path clip-path="url(#p348009c9db)" d="M 164.029256 202.946464 
L 174.186646 189.758835 
L 190.903986 193.375869 
L 180.822693 208.22614 
L 164.029256 202.946464 
z
" style="fill:#a31e9a;"/>
    <path clip-path="url(#p348009c9db)" d="M 190.903986 193.375869 
L 200.866263 176.604086 
L 217.71 179.156047 
L 207.735504 194.386807 
L 190.903986 193.375869 
z
" style="fill:#bc3587;"/>
    <path clip-path="url(#p348009c9db)" d="M 137.036638 210.337017 
L 147.465019 200.378634 
L 164.029256 202.946464 
L 153.722211 214.888405 
L 137.036638 210.337017 
z
" style="fill:#9410a2;"/>
    <path clip-path="url(#p348009c9db)" d="M 217.71 179.156047 
L 227.606062 164.680762 
L 244.585398 169.35806 
L 234.715371 180.437355 
L 217.71 179.156047 
z
" style="fill:#d04d73;"/>
    <path clip-path="url(#p348009c9db)" d="M 285.920754 234.880513 
L 295.49776 221.653266 
L 312.704326 228.395642 
L 303.152955 242.845445 
L 285.920754 234.880513 
z
" style="fill:#5901a5;"/>
    <path clip-path="url(#p348009c9db)" d="M 268.913832 215.577992 
L 278.683084 196.569086 
L 295.49776 221.653266 
L 285.920754 234.880513 
L 268.913832 215.577992 
z
" style="fill:#8104a7;"/>
    <path clip-path="url(#p348009c9db)" d="M 295.49776 221.653266 
L 305.962824 170.870591 
L 323.479569 174.57597 
L 312.704326 228.395642 
L 295.49776 221.653266 
z
" style="fill:#a11b9b;"/>
    <path clip-path="url(#p348009c9db)" d="M 251.822195 200.78993 
L 261.63494 182.001265 
L 278.683084 196.569086 
L 268.913832 215.577992 
L 251.822195 200.78993 
z
" style="fill:#aa2395;"/>
    <path clip-path="url(#p348009c9db)" d="M 261.63494 182.001265 
L 271.443511 159.332923 
L 289.046354 143.860887 
L 278.683084 196.569086 
L 261.63494 182.001265 
z
" style="fill:#d5546e;"/>
    <path clip-path="url(#p348009c9db)" d="M 234.715371 180.437355 
L 244.585398 169.35806 
L 261.63494 182.001265 
L 251.822195 200.78993 
L 234.715371 180.437355 
z
" style="fill:#c8437b;"/>
    <path clip-path="url(#p348009c9db)" d="M 278.683084 196.569086 
L 289.046354 143.860887 
L 305.962824 170.870591 
L 295.49776 221.653266 
L 278.683084 196.569086 
z
" style="fill:#c33d80;"/>
    <path clip-path="url(#p348009c9db)" d="M 180.822693 208.22614 
L 190.903986 193.375869 
L 207.735504 194.386807 
L 197.734994 212.96175 
L 180.822693 208.22614 
z
" style="fill:#a31e9a;"/>
    <path clip-path="url(#p348009c9db)" d="M 271.443511 159.332923 
L 281.021253 149.857289 
L 299.056206 115.557312 
L 289.046354 143.860887 
L 271.443511 159.332923 
z
" style="fill:#f58b47;"/>
    <path clip-path="url(#p348009c9db)" d="M 153.722211 214.888405 
L 164.029256 202.946464 
L 180.822693 208.22614 
L 170.551964 219.654695 
L 153.722211 214.888405 
z
" style="fill:#920fa3;"/>
    <path clip-path="url(#p348009c9db)" d="M 241.955076 223.053027 
L 251.822195 200.78993 
L 268.913832 215.577992 
L 259.093488 234.65213 
L 241.955076 223.053027 
z
" style="fill:#8305a7;"/>
    <path clip-path="url(#p348009c9db)" d="M 207.735504 194.386807 
L 217.71 179.156047 
L 234.715371 180.437355 
L 224.769593 197.626707 
L 207.735504 194.386807 
z
" style="fill:#c03a83;"/>
    <path clip-path="url(#p348009c9db)" d="M 259.093488 234.65213 
L 268.913832 215.577992 
L 285.920754 234.880513 
L 276.271388 246.60843 
L 259.093488 234.65213 
z
" style="fill:#6100a7;"/>
    <path clip-path="url(#p348009c9db)" d="M 308.621189 104.798056 
L 317.904797 99.854444 
L 335.287197 104.521231 
L 326.166434 107.750499 
L 308.621189 104.798056 
z
" style="fill:#f1f525;"/>
    <path clip-path="url(#p348009c9db)" d="M 276.271388 246.60843 
L 285.920754 234.880513 
L 303.152955 242.845445 
L 293.612304 252.949206 
L 276.271388 246.60843 
z
" style="fill:#46039f;"/>
    <path clip-path="url(#p348009c9db)" d="M 224.769593 197.626707 
L 234.715371 180.437355 
L 251.822195 200.78993 
L 241.955076 223.053027 
L 224.769593 197.626707 
z
" style="fill:#b02991;"/>
    <path clip-path="url(#p348009c9db)" d="M 232.056441 243.89187 
L 241.955076 223.053027 
L 259.093488 234.65213 
L 249.216804 255.085144 
L 232.056441 243.89187 
z
" style="fill:#5302a3;"/>
    <path clip-path="url(#p348009c9db)" d="M 170.551964 219.654695 
L 180.822693 208.22614 
L 197.734994 212.96175 
L 187.564378 226.47852 
L 170.551964 219.654695 
z
" style="fill:#8e0ca4;"/>
    <path clip-path="url(#p348009c9db)" d="M 197.734994 212.96175 
L 207.735504 194.386807 
L 224.769593 197.626707 
L 214.748108 214.193838 
L 197.734994 212.96175 
z
" style="fill:#a62098;"/>
    <path clip-path="url(#p348009c9db)" d="M 249.216804 255.085144 
L 259.093488 234.65213 
L 276.271388 246.60843 
L 266.478003 261.611491 
L 249.216804 255.085144 
z
" style="fill:#3c049b;"/>
    <path clip-path="url(#p348009c9db)" d="M 214.748108 214.193838 
L 224.769593 197.626707 
L 241.955076 223.053027 
L 232.056441 243.89187 
L 214.748108 214.193838 
z
" style="fill:#8e0ca4;"/>
    <path clip-path="url(#p348009c9db)" d="M 326.166434 107.750499 
L 335.287197 104.521231 
L 352.67587 112.200762 
L 343.894247 110.261872 
L 326.166434 107.750499 
z
" style="fill:#f1f426;"/>
    <path clip-path="url(#p348009c9db)" d="M 266.478003 261.611491 
L 276.271388 246.60843 
L 293.612304 252.949206 
L 283.827143 269.943192 
L 266.478003 261.611491 
z
" style="fill:#2c0594;"/>
    <path clip-path="url(#p348009c9db)" d="M 187.564378 226.47852 
L 197.734994 212.96175 
L 214.748108 214.193838 
L 204.723318 235.658961 
L 187.564378 226.47852 
z
" style="fill:#8808a6;"/>
    <path clip-path="url(#p348009c9db)" d="M 222.002997 250.013023 
L 232.056441 243.89187 
L 249.216804 255.085144 
L 239.290291 264.653289 
L 222.002997 250.013023 
z
" style="fill:#3f049c;"/>
    <path clip-path="url(#p348009c9db)" d="M 289.046354 143.860887 
L 299.056206 115.557312 
L 316.749602 115.559671 
L 305.962824 170.870591 
L 289.046354 143.860887 
z
" style="fill:#fdac33;"/>
    <path clip-path="url(#p348009c9db)" d="M 299.056206 115.557312 
L 308.621189 104.798056 
L 326.166434 107.750499 
L 316.749602 115.559671 
L 299.056206 115.557312 
z
" style="fill:#f3f027;"/>
    <path clip-path="url(#p348009c9db)" d="M 204.723318 235.658961 
L 214.748108 214.193838 
L 232.056441 243.89187 
L 222.002997 250.013023 
L 204.723318 235.658961 
z
" style="fill:#6c00a8;"/>
    <path clip-path="url(#p348009c9db)" d="M 239.290291 264.653289 
L 249.216804 255.085144 
L 266.478003 261.611491 
L 256.617589 273.700398 
L 239.290291 264.653289 
z
" style="fill:#220690;"/>
    <path clip-path="url(#p348009c9db)" d="M 305.962824 170.870591 
L 316.749602 115.559671 
L 334.72214 113.645366 
L 323.479569 174.57597 
L 305.962824 170.870591 
z
" style="fill:#f89540;"/>
    <path clip-path="url(#p348009c9db)" d="M 256.617589 273.700398 
L 266.478003 261.611491 
L 283.827143 269.943192 
L 274.054133 281.044572 
L 256.617589 273.700398 
z
" style="fill:#0d0887;"/>
    <path clip-path="url(#p348009c9db)" d="M 316.749602 115.559671 
L 326.166434 107.750499 
L 343.894247 110.261872 
L 334.72214 113.645366 
L 316.749602 115.559671 
z
" style="fill:#f0f921;"/>
   </g>
  </g>
 </g>
 <defs>
  <clipPath id="p348009c9db">
   <rect height="266.112" width="357.12" x="57.6" y="41.472"/>
  </clipPath>
 </defs>
</svg>
