<?xml version="1.0" encoding="utf-8" standalone="no"?>
<!DOCTYPE svg PUBLIC "-//W3C//DTD SVG 1.1//EN"
  "http://www.w3.org/Graphics/SVG/1.1/DTD/svg11.dtd">
<!-- Created with matplotlib (http://matplotlib.org/) -->
<svg height="345pt" version="1.1" viewBox="0 0 460 345" width="460pt" xmlns="http://www.w3.org/2000/svg" xmlns:xlink="http://www.w3.org/1999/xlink">
 <defs>
  <style type="text/css">
*{stroke-linecap:butt;stroke-linejoin:round;}
  </style>
 </defs>
 <g id="figure_1">
  <g id="patch_1">
   <path d="M 0 345.6 
L 460.8 345.6 
L 460.8 0 
L 0 0 
z
" style="fill:#ffffff;"/>
  </g>
  <g id="patch_2">
   <path d="M 57.6 307.584 
L 414.72 307.584 
L 414.72 41.472 
L 57.6 41.472 
z
" style="fill:#ffffff;"/>
  </g>
  <g id="pane3d_1">
   <g id="patch_3">
    <path d="M 104.941774 248.782626 
L 207.151387 183.537994 
L 205.449705 58.866209 
L 97.541237 117.48717 
" style="fill:#f2f2f2;opacity:0.5;stroke:#f2f2f2;stroke-linejoin:miter;"/>
   </g>
  </g>
  <g id="pane3d_2">
   <g id="patch_4">
    <path d="M 207.151387 183.537994 
L 372.72135 220.013954 
L 379.648599 91.582742 
L 205.449705 58.866209 
" style="fill:#e6e6e6;opacity:0.5;stroke:#e6e6e6;stroke-linejoin:miter;"/>
   </g>
  </g>
  <g id="pane3d_3">
   <g id="patch_5">
    <path d="M 104.941774 248.782626 
L 279.143747 291.264825 
L 372.72135 220.013954 
L 207.151387 183.537994 
" style="fill:#ececec;opacity:0.5;stroke:#ececec;stroke-linejoin:miter;"/>
   </g>
  </g>
  <g id="axis3d_1">
   <g id="line2d_1">
    <path d="M 104.941774 248.782626 
L 279.143747 291.264825 
" style="fill:none;stroke:#000000;stroke-linecap:square;stroke-width:0.8;"/>
   </g>
   <g id="Line3DCollection_1">
    <path d="M 115.562252 251.372616 
L 217.277438 185.768818 
L 216.081723 60.863023 
" style="fill:none;stroke:#b0b0b0;stroke-width:0.8;"/>
    <path d="M 148.306252 259.357813 
L 248.470984 192.640925 
L 248.851709 67.017599 
" style="fill:none;stroke:#b0b0b0;stroke-width:0.8;"/>
    <path d="M 181.629397 267.484245 
L 280.175868 199.625682 
L 282.186433 73.278239 
" style="fill:none;stroke:#b0b0b0;stroke-width:0.8;"/>
    <path d="M 215.547191 275.755692 
L 312.404765 206.725883 
L 316.10062 79.647709 
" style="fill:none;stroke:#b0b0b0;stroke-width:0.8;"/>
    <path d="M 250.075693 284.176071 
L 345.170776 213.944413 
L 350.609512 86.128871 
" style="fill:none;stroke:#b0b0b0;stroke-width:0.8;"/>
   </g>
   <g id="xtick_1">
    <g id="line2d_2">
     <path d="M 116.438581 250.807405 
L 113.806326 252.505145 
" style="fill:none;stroke:#000000;stroke-linecap:square;stroke-width:0.8;"/>
    </g>
    <g id="text_1">
     <!-- 0 -->
     <defs>
      <path d="M 31.78125 66.40625 
Q 24.171875 66.40625 20.328125 58.90625 
Q 16.5 51.421875 16.5 36.375 
Q 16.5 21.390625 20.328125 13.890625 
Q 24.171875 6.390625 31.78125 6.390625 
Q 39.453125 6.390625 43.28125 13.890625 
Q 47.125 21.390625 47.125 36.375 
Q 47.125 51.421875 43.28125 58.90625 
Q 39.453125 66.40625 31.78125 66.40625 
z
M 31.78125 74.21875 
Q 44.046875 74.21875 50.515625 64.515625 
Q 56.984375 54.828125 56.984375 36.375 
Q 56.984375 17.96875 50.515625 8.265625 
Q 44.046875 -1.421875 31.78125 -1.421875 
Q 19.53125 -1.421875 13.0625 8.265625 
Q 6.59375 17.96875 6.59375 36.375 
Q 6.59375 54.828125 13.0625 64.515625 
Q 19.53125 74.21875 31.78125 74.21875 
z
" id="DejaVuSans-30"/>
     </defs>
     <g transform="translate(105.060879 272.84452)scale(0.1 -0.1)">
      <use xlink:href="#DejaVuSans-30"/>
     </g>
    </g>
   </g>
   <g id="xtick_2">
    <g id="line2d_3">
     <path d="M 149.169762 258.782653 
L 146.575981 260.510297 
" style="fill:none;stroke:#000000;stroke-linecap:square;stroke-width:0.8;"/>
    </g>
    <g id="text_2">
     <!-- 2 -->
     <defs>
      <path d="M 19.1875 8.296875 
L 53.609375 8.296875 
L 53.609375 0 
L 7.328125 0 
L 7.328125 8.296875 
Q 12.9375 14.109375 22.625 23.890625 
Q 32.328125 33.6875 34.8125 36.53125 
Q 39.546875 41.84375 41.421875 45.53125 
Q 43.3125 49.21875 43.3125 52.78125 
Q 43.3125 58.59375 39.234375 62.25 
Q 35.15625 65.921875 28.609375 65.921875 
Q 23.96875 65.921875 18.8125 64.3125 
Q 13.671875 62.703125 7.8125 59.421875 
L 7.8125 69.390625 
Q 13.765625 71.78125 18.9375 73 
Q 24.125 74.21875 28.421875 74.21875 
Q 39.75 74.21875 46.484375 68.546875 
Q 53.21875 62.890625 53.21875 53.421875 
Q 53.21875 48.921875 51.53125 44.890625 
Q 49.859375 40.875 45.40625 35.40625 
Q 44.1875 33.984375 37.640625 27.21875 
Q 31.109375 20.453125 19.1875 8.296875 
z
" id="DejaVuSans-32"/>
     </defs>
     <g transform="translate(137.80125 280.96635)scale(0.1 -0.1)">
      <use xlink:href="#DejaVuSans-32"/>
     </g>
    </g>
   </g>
   <g id="xtick_3">
    <g id="line2d_4">
     <path d="M 182.479498 266.89887 
L 179.925969 268.657216 
" style="fill:none;stroke:#000000;stroke-linecap:square;stroke-width:0.8;"/>
    </g>
    <g id="text_3">
     <!-- 4 -->
     <defs>
      <path d="M 37.796875 64.3125 
L 12.890625 25.390625 
L 37.796875 25.390625 
z
M 35.203125 72.90625 
L 47.609375 72.90625 
L 47.609375 25.390625 
L 58.015625 25.390625 
L 58.015625 17.1875 
L 47.609375 17.1875 
L 47.609375 0 
L 37.796875 0 
L 37.796875 17.1875 
L 4.890625 17.1875 
L 4.890625 26.703125 
z
" id="DejaVuSans-34"/>
     </defs>
     <g transform="translate(171.121785 289.232101)scale(0.1 -0.1)">
      <use xlink:href="#DejaVuSans-34"/>
     </g>
    </g>
   </g>
   <g id="xtick_4">
    <g id="line2d_5">
     <path d="M 216.383263 275.159828 
L 213.871843 276.949702 
" style="fill:none;stroke:#000000;stroke-linecap:square;stroke-width:0.8;"/>
    </g>
    <g id="text_4">
     <!-- 6 -->
     <defs>
      <path d="M 33.015625 40.375 
Q 26.375 40.375 22.484375 35.828125 
Q 18.609375 31.296875 18.609375 23.390625 
Q 18.609375 15.53125 22.484375 10.953125 
Q 26.375 6.390625 33.015625 6.390625 
Q 39.65625 6.390625 43.53125 10.953125 
Q 47.40625 15.53125 47.40625 23.390625 
Q 47.40625 31.296875 43.53125 35.828125 
Q 39.65625 40.375 33.015625 40.375 
z
M 52.59375 71.296875 
L 52.59375 62.3125 
Q 48.875 64.0625 45.09375 64.984375 
Q 41.3125 65.921875 37.59375 65.921875 
Q 27.828125 65.921875 22.671875 59.328125 
Q 17.53125 52.734375 16.796875 39.40625 
Q 19.671875 43.65625 24.015625 45.921875 
Q 28.375 48.1875 33.59375 48.1875 
Q 44.578125 48.1875 50.953125 41.515625 
Q 57.328125 34.859375 57.328125 23.390625 
Q 57.328125 12.15625 50.6875 5.359375 
Q 44.046875 -1.421875 33.015625 -1.421875 
Q 20.359375 -1.421875 13.671875 8.265625 
Q 6.984375 17.96875 6.984375 36.375 
Q 6.984375 53.65625 15.1875 63.9375 
Q 23.390625 74.21875 37.203125 74.21875 
Q 40.921875 74.21875 44.703125 73.484375 
Q 48.484375 72.75 52.59375 71.296875 
z
" id="DejaVuSans-36"/>
     </defs>
     <g transform="translate(205.038042 297.64563)scale(0.1 -0.1)">
      <use xlink:href="#DejaVuSans-36"/>
     </g>
    </g>
   </g>
   <g id="xtick_5">
    <g id="line2d_6">
     <path d="M 250.897092 283.569434 
L 248.429719 285.391691 
" style="fill:none;stroke:#000000;stroke-linecap:square;stroke-width:0.8;"/>
    </g>
    <g id="text_5">
     <!-- 8 -->
     <defs>
      <path d="M 31.78125 34.625 
Q 24.75 34.625 20.71875 30.859375 
Q 16.703125 27.09375 16.703125 20.515625 
Q 16.703125 13.921875 20.71875 10.15625 
Q 24.75 6.390625 31.78125 6.390625 
Q 38.8125 6.390625 42.859375 10.171875 
Q 46.921875 13.96875 46.921875 20.515625 
Q 46.921875 27.09375 42.890625 30.859375 
Q 38.875 34.625 31.78125 34.625 
z
M 21.921875 38.8125 
Q 15.578125 40.375 12.03125 44.71875 
Q 8.5 49.078125 8.5 55.328125 
Q 8.5 64.0625 14.71875 69.140625 
Q 20.953125 74.21875 31.78125 74.21875 
Q 42.671875 74.21875 48.875 69.140625 
Q 55.078125 64.0625 55.078125 55.328125 
Q 55.078125 49.078125 51.53125 44.71875 
Q 48 40.375 41.703125 38.8125 
Q 48.828125 37.15625 52.796875 32.3125 
Q 56.78125 27.484375 56.78125 20.515625 
Q 56.78125 9.90625 50.3125 4.234375 
Q 43.84375 -1.421875 31.78125 -1.421875 
Q 19.734375 -1.421875 13.25 4.234375 
Q 6.78125 9.90625 6.78125 20.515625 
Q 6.78125 27.484375 10.78125 32.3125 
Q 14.796875 37.15625 21.921875 38.8125 
z
M 18.3125 54.390625 
Q 18.3125 48.734375 21.84375 45.5625 
Q 25.390625 42.390625 31.78125 42.390625 
Q 38.140625 42.390625 41.71875 45.5625 
Q 45.3125 48.734375 45.3125 54.390625 
Q 45.3125 60.0625 41.71875 63.234375 
Q 38.140625 66.40625 31.78125 66.40625 
Q 25.390625 66.40625 21.84375 63.234375 
Q 18.3125 60.0625 18.3125 54.390625 
z
" id="DejaVuSans-38"/>
     </defs>
     <g transform="translate(239.566142 306.210938)scale(0.1 -0.1)">
      <use xlink:href="#DejaVuSans-38"/>
     </g>
    </g>
   </g>
  </g>
  <g id="axis3d_2">
   <g id="line2d_7">
    <path d="M 372.72135 220.013954 
L 279.143747 291.264825 
" style="fill:none;stroke:#000000;stroke-linecap:square;stroke-width:0.8;"/>
   </g>
   <g id="Line3DCollection_2">
    <path d="M 104.930092 113.473196 
L 111.915028 244.331309 
L 285.548062 286.38852 
" style="fill:none;stroke:#b0b0b0;stroke-width:0.8;"/>
    <path d="M 126.984969 101.491948 
L 132.751513 231.030517 
L 304.667047 271.831144 
" style="fill:none;stroke:#b0b0b0;stroke-width:0.8;"/>
    <path d="M 148.366618 89.876429 
L 152.983668 218.115494 
L 323.206496 257.715032 
" style="fill:none;stroke:#b0b0b0;stroke-width:0.8;"/>
    <path d="M 169.105401 78.610146 
L 172.637407 205.569698 
L 341.192365 244.020421 
" style="fill:none;stroke:#b0b0b0;stroke-width:0.8;"/>
    <path d="M 189.229881 67.677581 
L 191.737187 193.377517 
L 358.649085 230.728709 
" style="fill:none;stroke:#b0b0b0;stroke-width:0.8;"/>
   </g>
   <g id="xtick_6">
    <g id="line2d_8">
     <path d="M 284.094906 286.036538 
L 288.457621 287.09327 
" style="fill:none;stroke:#000000;stroke-linecap:square;stroke-width:0.8;"/>
    </g>
    <g id="text_6">
     <!-- 0 -->
     <g transform="translate(295.066159 306.144728)scale(0.1 -0.1)">
      <use xlink:href="#DejaVuSans-30"/>
     </g>
    </g>
   </g>
   <g id="xtick_7">
    <g id="line2d_9">
     <path d="M 303.229241 271.48991 
L 307.545822 272.514362 
" style="fill:none;stroke:#000000;stroke-linecap:square;stroke-width:0.8;"/>
    </g>
    <g id="text_7">
     <!-- 2 -->
     <g transform="translate(313.980212 291.407653)scale(0.1 -0.1)">
      <use xlink:href="#DejaVuSans-32"/>
     </g>
    </g>
   </g>
   <g id="xtick_8">
    <g id="line2d_10">
     <path d="M 321.783784 257.384061 
L 326.055002 258.37769 
" style="fill:none;stroke:#000000;stroke-linecap:square;stroke-width:0.8;"/>
    </g>
    <g id="text_8">
     <!-- 4 -->
     <g transform="translate(332.321224 277.117069)scale(0.1 -0.1)">
      <use xlink:href="#DejaVuSans-34"/>
     </g>
    </g>
   </g>
   <g id="xtick_9">
    <g id="line2d_11">
     <path d="M 339.784494 243.699257 
L 344.011113 244.663433 
" style="fill:none;stroke:#000000;stroke-linecap:square;stroke-width:0.8;"/>
    </g>
    <g id="text_9">
     <!-- 6 -->
     <g transform="translate(350.114849 263.252987)scale(0.1 -0.1)">
      <use xlink:href="#DejaVuSans-36"/>
     </g>
    </g>
   </g>
   <g id="xtick_10">
    <g id="line2d_12">
     <path d="M 357.255803 230.416924 
L 361.438579 231.352936 
" style="fill:none;stroke:#000000;stroke-linecap:square;stroke-width:0.8;"/>
    </g>
    <g id="text_10">
     <!-- 8 -->
     <g transform="translate(367.385231 249.796595)scale(0.1 -0.1)">
      <use xlink:href="#DejaVuSans-38"/>
     </g>
    </g>
   </g>
  </g>
  <g id="axis3d_3">
   <g id="line2d_13">
    <path d="M 372.72135 220.013954 
L 379.648599 91.582742 
" style="fill:none;stroke:#000000;stroke-linecap:square;stroke-width:0.8;"/>
   </g>
   <g id="Line3DCollection_3">
    <path d="M 373.389972 207.617697 
L 206.986816 171.480896 
L 104.22858 236.129607 
" style="fill:none;stroke:#b0b0b0;stroke-width:0.8;"/>
    <path d="M 374.505976 186.92698 
L 206.712283 151.367571 
L 103.037653 215.000961 
" style="fill:none;stroke:#b0b0b0;stroke-width:0.8;"/>
    <path d="M 375.640953 165.884502 
L 206.433281 130.926784 
L 101.825802 193.501093 
" style="fill:none;stroke:#b0b0b0;stroke-width:0.8;"/>
    <path d="M 376.795391 144.481217 
L 206.149699 110.150472 
L 100.59247 171.620132 
" style="fill:none;stroke:#b0b0b0;stroke-width:0.8;"/>
    <path d="M 377.969795 122.707765 
L 205.861424 89.030306 
L 99.337081 149.347854 
" style="fill:none;stroke:#b0b0b0;stroke-width:0.8;"/>
    <path d="M 379.164687 100.554459 
L 205.568338 67.557677 
L 98.059039 126.673669 
" style="fill:none;stroke:#b0b0b0;stroke-width:0.8;"/>
   </g>
   <g id="xtick_11">
    <g id="line2d_14">
     <path d="M 372.001343 207.316137 
L 376.170131 208.221448 
" style="fill:none;stroke:#000000;stroke-linecap:square;stroke-width:0.8;"/>
    </g>
    <g id="text_11">
     <!-- −0.25 -->
     <defs>
      <path d="M 10.59375 35.5 
L 73.1875 35.5 
L 73.1875 27.203125 
L 10.59375 27.203125 
z
" id="DejaVuSans-2212"/>
      <path d="M 10.6875 12.40625 
L 21 12.40625 
L 21 0 
L 10.6875 0 
z
" id="DejaVuSans-2e"/>
      <path d="M 10.796875 72.90625 
L 49.515625 72.90625 
L 49.515625 64.59375 
L 19.828125 64.59375 
L 19.828125 46.734375 
Q 21.96875 47.46875 24.109375 47.828125 
Q 26.265625 48.1875 28.421875 48.1875 
Q 40.625 48.1875 47.75 41.5 
Q 54.890625 34.8125 54.890625 23.390625 
Q 54.890625 11.625 47.5625 5.09375 
Q 40.234375 -1.421875 26.90625 -1.421875 
Q 22.3125 -1.421875 17.546875 -0.640625 
Q 12.796875 0.140625 7.71875 1.703125 
L 7.71875 11.625 
Q 12.109375 9.234375 16.796875 8.0625 
Q 21.484375 6.890625 26.703125 6.890625 
Q 35.15625 6.890625 40.078125 11.328125 
Q 45.015625 15.765625 45.015625 23.390625 
Q 45.015625 31 40.078125 35.4375 
Q 35.15625 39.890625 26.703125 39.890625 
Q 22.75 39.890625 18.8125 39.015625 
Q 14.890625 38.140625 10.796875 36.28125 
z
" id="DejaVuSans-35"/>
     </defs>
     <g transform="translate(376.490474 213.264594)scale(0.1 -0.1)">
      <use xlink:href="#DejaVuSans-2212"/>
      <use x="83.789062" xlink:href="#DejaVuSans-30"/>
      <use x="147.412109" xlink:href="#DejaVuSans-2e"/>
      <use x="179.199219" xlink:href="#DejaVuSans-32"/>
      <use x="242.822266" xlink:href="#DejaVuSans-35"/>
     </g>
    </g>
   </g>
   <g id="xtick_12">
    <g id="line2d_15">
     <path d="M 373.105255 186.630134 
L 377.310368 187.521296 
" style="fill:none;stroke:#000000;stroke-linecap:square;stroke-width:0.8;"/>
    </g>
    <g id="text_12">
     <!-- −0.20 -->
     <g transform="translate(377.758878 192.60442)scale(0.1 -0.1)">
      <use xlink:href="#DejaVuSans-2212"/>
      <use x="83.789062" xlink:href="#DejaVuSans-30"/>
      <use x="147.412109" xlink:href="#DejaVuSans-2e"/>
      <use x="179.199219" xlink:href="#DejaVuSans-32"/>
      <use x="242.822266" xlink:href="#DejaVuSans-30"/>
     </g>
    </g>
   </g>
   <g id="xtick_13">
    <g id="line2d_16">
     <path d="M 374.227928 165.592576 
L 378.470004 166.468974 
" style="fill:none;stroke:#000000;stroke-linecap:square;stroke-width:0.8;"/>
    </g>
    <g id="text_13">
     <!-- −0.15 -->
     <defs>
      <path d="M 12.40625 8.296875 
L 28.515625 8.296875 
L 28.515625 63.921875 
L 10.984375 60.40625 
L 10.984375 69.390625 
L 28.421875 72.90625 
L 38.28125 72.90625 
L 38.28125 8.296875 
L 54.390625 8.296875 
L 54.390625 0 
L 12.40625 0 
z
" id="DejaVuSans-31"/>
     </defs>
     <g transform="translate(379.048796 171.593809)scale(0.1 -0.1)">
      <use xlink:href="#DejaVuSans-2212"/>
      <use x="83.789062" xlink:href="#DejaVuSans-30"/>
      <use x="147.412109" xlink:href="#DejaVuSans-2e"/>
      <use x="179.199219" xlink:href="#DejaVuSans-31"/>
      <use x="242.822266" xlink:href="#DejaVuSans-35"/>
     </g>
    </g>
   </g>
   <g id="xtick_14">
    <g id="line2d_17">
     <path d="M 375.369844 144.194424 
L 379.649539 145.055419 
" style="fill:none;stroke:#000000;stroke-linecap:square;stroke-width:0.8;"/>
    </g>
    <g id="text_14">
     <!-- −0.10 -->
     <g transform="translate(380.360781 150.223769)scale(0.1 -0.1)">
      <use xlink:href="#DejaVuSans-2212"/>
      <use x="83.789062" xlink:href="#DejaVuSans-30"/>
      <use x="147.412109" xlink:href="#DejaVuSans-2e"/>
      <use x="179.199219" xlink:href="#DejaVuSans-31"/>
      <use x="242.822266" xlink:href="#DejaVuSans-30"/>
     </g>
    </g>
   </g>
   <g id="xtick_15">
    <g id="line2d_18">
     <path d="M 376.531503 122.426326 
L 380.849487 123.271252 
" style="fill:none;stroke:#000000;stroke-linecap:square;stroke-width:0.8;"/>
    </g>
    <g id="text_15">
     <!-- −0.05 -->
     <g transform="translate(381.695404 128.484997)scale(0.1 -0.1)">
      <use xlink:href="#DejaVuSans-2212"/>
      <use x="83.789062" xlink:href="#DejaVuSans-30"/>
      <use x="147.412109" xlink:href="#DejaVuSans-2e"/>
      <use x="179.199219" xlink:href="#DejaVuSans-30"/>
      <use x="242.822266" xlink:href="#DejaVuSans-35"/>
     </g>
    </g>
   </g>
   <g id="xtick_16">
    <g id="line2d_19">
     <path d="M 377.71342 100.278606 
L 382.070385 101.106767 
" style="fill:none;stroke:#000000;stroke-linecap:square;stroke-width:0.8;"/>
    </g>
    <g id="text_16">
     <!-- 0.00 -->
     <g transform="translate(387.243099 106.367867)scale(0.1 -0.1)">
      <use xlink:href="#DejaVuSans-30"/>
      <use x="63.623047" xlink:href="#DejaVuSans-2e"/>
      <use x="95.410156" xlink:href="#DejaVuSans-30"/>
      <use x="159.033203" xlink:href="#DejaVuSans-30"/>
     </g>
    </g>
   </g>
  </g>
  <g id="axes_1">
   <g id="Poly3DCollection_1">
    <path clip-path="url(#p1da94f293f)" d="M 314.611975 209.554071 
L 323.701214 194.640504 
L 340.718844 188.938164 
L 331.370908 210.74831 
L 314.611975 209.554071 
z
" style="fill:#43039e;"/>
    <path clip-path="url(#p1da94f293f)" d="M 305.546514 221.065246 
L 314.611975 209.554071 
L 331.370908 210.74831 
L 322.281994 224.2483 
L 305.546514 221.065246 
z
" style="fill:#220690;"/>
    <path clip-path="url(#p1da94f293f)" d="M 322.281994 224.2483 
L 331.370908 210.74831 
L 348.52982 206.866487 
L 339.204183 226.575507 
L 322.281994 224.2483 
z
" style="fill:#2c0594;"/>
    <path clip-path="url(#p1da94f293f)" d="M 296.497177 227.790579 
L 305.546514 221.065246 
L 322.281994 224.2483 
L 313.235798 233.677748 
L 296.497177 227.790579 
z
" style="fill:#100788;"/>
    <path clip-path="url(#p1da94f293f)" d="M 199.993902 72.684908 
L 209.768519 67.063471 
L 226.11858 70.106677 
L 216.423327 75.911002 
L 199.993902 72.684908 
z
" style="fill:#f0f921;"/>
    <path clip-path="url(#p1da94f293f)" d="M 331.370908 210.74831 
L 340.718844 188.938164 
L 361.936801 99.982248 
L 348.52982 206.866487 
L 331.370908 210.74831 
z
" style="fill:#8e0ca4;"/>
    <path clip-path="url(#p1da94f293f)" d="M 313.235798 233.677748 
L 322.281994 224.2483 
L 339.204183 226.575507 
L 330.112229 238.991601 
L 313.235798 233.677748 
z
" style="fill:#0d0887;"/>
    <path clip-path="url(#p1da94f293f)" d="M 216.423327 75.911002 
L 226.11858 70.106677 
L 242.609589 73.209333 
L 232.993272 79.026591 
L 216.423327 75.911002 
z
" style="fill:#f0f921;"/>
    <path clip-path="url(#p1da94f293f)" d="M 190.081211 78.706426 
L 199.993902 72.684908 
L 216.423327 75.911002 
L 206.587589 81.969144 
L 190.081211 78.706426 
z
" style="fill:#f0f921;"/>
    <path clip-path="url(#p1da94f293f)" d="M 300.606889 97.397854 
L 309.846478 92.219116 
L 323.701214 194.640504 
L 314.611975 209.554071 
L 300.606889 97.397854 
z
" style="fill:#e3685f;"/>
    <path clip-path="url(#p1da94f293f)" d="M 232.993272 79.026591 
L 242.609589 73.209333 
L 259.241704 76.517945 
L 249.707137 82.358964 
L 232.993272 79.026591 
z
" style="fill:#f0f921;"/>
    <path clip-path="url(#p1da94f293f)" d="M 206.587589 81.969144 
L 216.423327 75.911002 
L 232.993272 79.026591 
L 223.236837 85.268695 
L 206.587589 81.969144 
z
" style="fill:#f0f724;"/>
    <path clip-path="url(#p1da94f293f)" d="M 249.707137 82.358964 
L 259.241704 76.517945 
L 276.017842 79.69654 
L 266.565598 85.656763 
L 249.707137 82.358964 
z
" style="fill:#f0f921;"/>
    <path clip-path="url(#p1da94f293f)" d="M 291.187427 104.416947 
L 300.606889 97.397854 
L 314.611975 209.554071 
L 305.546514 221.065246 
L 291.187427 104.416947 
z
" style="fill:#de5f65;"/>
    <path clip-path="url(#p1da94f293f)" d="M 180.031513 85.152281 
L 190.081211 78.706426 
L 206.587589 81.969144 
L 196.611017 88.33237 
L 180.031513 85.152281 
z
" style="fill:#f1f525;"/>
    <path clip-path="url(#p1da94f293f)" d="M 223.236837 85.268695 
L 232.993272 79.026591 
L 249.707137 82.358964 
L 240.030682 88.698213 
L 223.236837 85.268695 
z
" style="fill:#f0f724;"/>
    <path clip-path="url(#p1da94f293f)" d="M 287.531453 223.246813 
L 296.497177 227.790579 
L 313.235798 233.677748 
L 307.221355 122.612643 
L 287.531453 223.246813 
z
" style="fill:#7701a8;"/>
    <path clip-path="url(#p1da94f293f)" d="M 266.565598 85.656763 
L 276.017842 79.69654 
L 292.940111 82.886447 
L 283.573103 88.840429 
L 266.565598 85.656763 
z
" style="fill:#f0f921;"/>
    <path clip-path="url(#p1da94f293f)" d="M 281.390603 126.677674 
L 291.187427 104.416947 
L 305.546514 221.065246 
L 296.497177 227.790579 
L 281.390603 126.677674 
z
" style="fill:#d04d73;"/>
    <path clip-path="url(#p1da94f293f)" d="M 196.611017 88.33237 
L 206.587589 81.969144 
L 223.236837 85.268695 
L 213.335124 91.38887 
L 196.611017 88.33237 
z
" style="fill:#f1f525;"/>
    <path clip-path="url(#p1da94f293f)" d="M 240.030682 88.698213 
L 249.707137 82.358964 
L 266.565598 85.656763 
L 256.969694 92.148506 
L 240.030682 88.698213 
z
" style="fill:#f0f724;"/>
    <path clip-path="url(#p1da94f293f)" d="M 283.573103 88.840429 
L 292.940111 82.886447 
L 309.846478 92.219116 
L 300.606889 97.397854 
L 283.573103 88.840429 
z
" style="fill:#f2f227;"/>
    <path clip-path="url(#p1da94f293f)" d="M 169.8298 91.451197 
L 180.031513 85.152281 
L 196.611017 88.33237 
L 186.497145 95.19872 
L 169.8298 91.451197 
z
" style="fill:#f2f227;"/>
    <path clip-path="url(#p1da94f293f)" d="M 213.335124 91.38887 
L 223.236837 85.268695 
L 240.030682 88.698213 
L 230.21229 95.163683 
L 213.335124 91.38887 
z
" style="fill:#f1f525;"/>
    <path clip-path="url(#p1da94f293f)" d="M 256.969694 92.148506 
L 266.565598 85.656763 
L 283.573103 88.840429 
L 274.059715 95.3269 
L 256.969694 92.148506 
z
" style="fill:#f0f724;"/>
    <path clip-path="url(#p1da94f293f)" d="M 186.497145 95.19872 
L 196.611017 88.33237 
L 213.335124 91.38887 
L 203.297203 98.393455 
L 186.497145 95.19872 
z
" style="fill:#f2f227;"/>
    <path clip-path="url(#p1da94f293f)" d="M 271.835879 127.087394 
L 281.390603 126.677674 
L 296.497177 227.790579 
L 287.531453 223.246813 
L 271.835879 127.087394 
z
" style="fill:#d24f71;"/>
    <path clip-path="url(#p1da94f293f)" d="M 230.21229 95.163683 
L 240.030682 88.698213 
L 256.969694 92.148506 
L 247.233341 98.614714 
L 230.21229 95.163683 
z
" style="fill:#f1f525;"/>
    <path clip-path="url(#p1da94f293f)" d="M 274.059715 95.3269 
L 283.573103 88.840429 
L 300.606889 97.397854 
L 291.187427 104.416947 
L 274.059715 95.3269 
z
" style="fill:#f3f027;"/>
    <path clip-path="url(#p1da94f293f)" d="M 159.492466 98.314045 
L 169.8298 91.451197 
L 186.497145 95.19872 
L 176.241428 102.320475 
L 159.492466 98.314045 
z
" style="fill:#f3ee27;"/>
    <path clip-path="url(#p1da94f293f)" d="M 203.297203 98.393455 
L 213.335124 91.38887 
L 230.21229 95.163683 
L 220.250277 101.89073 
L 203.297203 98.393455 
z
" style="fill:#f2f227;"/>
    <path clip-path="url(#p1da94f293f)" d="M 247.233341 98.614714 
L 256.969694 92.148506 
L 274.059715 95.3269 
L 264.402727 102.238171 
L 247.233341 98.614714 
z
" style="fill:#f1f426;"/>
    <path clip-path="url(#p1da94f293f)" d="M 176.241428 102.320475 
L 186.497145 95.19872 
L 203.297203 98.393455 
L 193.1102 105.263869 
L 176.241428 102.320475 
z
" style="fill:#f3ee27;"/>
    <path clip-path="url(#p1da94f293f)" d="M 278.658654 198.167108 
L 287.531453 223.246813 
L 307.221355 122.612643 
L 296.055366 196.686772 
L 278.658654 198.167108 
z
" style="fill:#bc3587;"/>
    <path clip-path="url(#p1da94f293f)" d="M 264.402727 102.238171 
L 274.059715 95.3269 
L 291.187427 104.416947 
L 281.390603 126.677674 
L 264.402727 102.238171 
z
" style="fill:#f8e125;"/>
    <path clip-path="url(#p1da94f293f)" d="M 220.250277 101.89073 
L 230.21229 95.163683 
L 247.233341 98.614714 
L 237.353045 105.778845 
L 220.250277 101.89073 
z
" style="fill:#f2f227;"/>
    <path clip-path="url(#p1da94f293f)" d="M 149.011656 105.453417 
L 159.492466 98.314045 
L 176.241428 102.320475 
L 165.830439 109.285491 
L 149.011656 105.453417 
z
" style="fill:#f5eb27;"/>
    <path clip-path="url(#p1da94f293f)" d="M 261.989898 139.363227 
L 271.835879 127.087394 
L 287.531453 223.246813 
L 278.658654 198.167108 
L 261.989898 139.363227 
z
" style="fill:#df6263;"/>
    <path clip-path="url(#p1da94f293f)" d="M 307.221355 122.612643 
L 313.235798 233.677748 
L 330.112229 238.991601 
L 325.084647 126.1706 
L 307.221355 122.612643 
z
" style="fill:#da5a6a;"/>
    <path clip-path="url(#p1da94f293f)" d="M 193.1102 105.263869 
L 203.297203 98.393455 
L 220.250277 101.89073 
L 210.146492 109.138233 
L 193.1102 105.263869 
z
" style="fill:#f3ee27;"/>
    <path clip-path="url(#p1da94f293f)" d="M 237.353045 105.778845 
L 247.233341 98.614714 
L 264.402727 102.238171 
L 254.603795 109.38237 
L 237.353045 105.778845 
z
" style="fill:#f3f027;"/>
    <path clip-path="url(#p1da94f293f)" d="M 165.830439 109.285491 
L 176.241428 102.320475 
L 193.1102 105.263869 
L 182.79173 113.038851 
L 165.830439 109.285491 
z
" style="fill:#f5e926;"/>
    <path clip-path="url(#p1da94f293f)" d="M 254.603795 109.38237 
L 264.402727 102.238171 
L 281.390603 126.677674 
L 271.835879 127.087394 
L 254.603795 109.38237 
z
" style="fill:#fbd724;"/>
    <path clip-path="url(#p1da94f293f)" d="M 210.146492 109.138233 
L 220.250277 101.89073 
L 237.353045 105.778845 
L 227.327649 112.707688 
L 210.146492 109.138233 
z
" style="fill:#f4ed27;"/>
    <path clip-path="url(#p1da94f293f)" d="M 269.314656 180.461106 
L 278.658654 198.167108 
L 296.055366 196.686772 
L 286.653896 195.274062 
L 269.314656 180.461106 
z
" style="fill:#c6417d;"/>
    <path clip-path="url(#p1da94f293f)" d="M 138.387215 112.89281 
L 149.011656 105.453417 
L 165.830439 109.285491 
L 155.286002 116.937298 
L 138.387215 112.89281 
z
" style="fill:#f6e626;"/>
    <path clip-path="url(#p1da94f293f)" d="M 182.79173 113.038851 
L 193.1102 105.263869 
L 210.146492 109.138233 
L 199.899247 116.688516 
L 182.79173 113.038851 
z
" style="fill:#f5e926;"/>
    <path clip-path="url(#p1da94f293f)" d="M 286.653896 195.274062 
L 296.055366 196.686772 
L 313.474588 202.25434 
L 304.220797 201.284991 
L 286.653896 195.274062 
z
" style="fill:#bd3786;"/>
    <path clip-path="url(#p1da94f293f)" d="M 227.327649 112.707688 
L 237.353045 105.778845 
L 254.603795 109.38237 
L 244.661799 116.441637 
L 227.327649 112.707688 
z
" style="fill:#f4ed27;"/>
    <path clip-path="url(#p1da94f293f)" d="M 296.055366 196.686772 
L 307.221355 122.612643 
L 325.084647 126.1706 
L 313.474588 202.25434 
L 296.055366 196.686772 
z
" style="fill:#e56b5d;"/>
    <path clip-path="url(#p1da94f293f)" d="M 155.286002 116.937298 
L 165.830439 109.285491 
L 182.79173 113.038851 
L 172.320308 120.674815 
L 155.286002 116.937298 
z
" style="fill:#f7e425;"/>
    <path clip-path="url(#p1da94f293f)" d="M 252.055963 147.68648 
L 261.989898 139.363227 
L 278.658654 198.167108 
L 269.314656 180.461106 
L 252.055963 147.68648 
z
" style="fill:#ed7a52;"/>
    <path clip-path="url(#p1da94f293f)" d="M 244.661799 116.441637 
L 254.603795 109.38237 
L 271.835879 127.087394 
L 261.989898 139.363227 
L 244.661799 116.441637 
z
" style="fill:#fbd524;"/>
    <path clip-path="url(#p1da94f293f)" d="M 199.899247 116.688516 
L 210.146492 109.138233 
L 227.327649 112.707688 
L 217.15736 120.19673 
L 199.899247 116.688516 
z
" style="fill:#f6e826;"/>
    <path clip-path="url(#p1da94f293f)" d="M 127.604234 120.316746 
L 138.387215 112.89281 
L 155.286002 116.937298 
L 144.568912 124.136393 
L 127.604234 120.316746 
z
" style="fill:#f8e125;"/>
    <path clip-path="url(#p1da94f293f)" d="M 172.320308 120.674815 
L 182.79173 113.038851 
L 199.899247 116.688516 
L 189.509327 124.61994 
L 172.320308 120.674815 
z
" style="fill:#f7e225;"/>
    <path clip-path="url(#p1da94f293f)" d="M 217.15736 120.19673 
L 227.327649 112.707688 
L 244.661799 116.441637 
L 234.571357 123.43529 
L 217.15736 120.19673 
z
" style="fill:#f6e826;"/>
    <path clip-path="url(#p1da94f293f)" d="M 144.568912 124.136393 
L 155.286002 116.937298 
L 172.320308 120.674815 
L 161.690956 128.217268 
L 144.568912 124.136393 
z
" style="fill:#f8df25;"/>
    <path clip-path="url(#p1da94f293f)" d="M 234.571357 123.43529 
L 244.661799 116.441637 
L 261.989898 139.363227 
L 252.055963 147.68648 
L 234.571357 123.43529 
z
" style="fill:#fcce25;"/>
    <path clip-path="url(#p1da94f293f)" d="M 259.510891 178.689437 
L 269.314656 180.461106 
L 286.653896 195.274062 
L 277.058945 192.689174 
L 259.510891 178.689437 
z
" style="fill:#db5c68;"/>
    <path clip-path="url(#p1da94f293f)" d="M 189.509327 124.61994 
L 199.899247 116.688516 
L 217.15736 120.19673 
L 206.844418 128.246272 
L 189.509327 124.61994 
z
" style="fill:#f7e225;"/>
    <path clip-path="url(#p1da94f293f)" d="M 277.058945 192.689174 
L 286.653896 195.274062 
L 304.220797 201.284991 
L 294.727199 201.904952 
L 277.058945 192.689174 
z
" style="fill:#cd4a76;"/>
    <path clip-path="url(#p1da94f293f)" d="M 241.981279 157.100634 
L 252.055963 147.68648 
L 269.314656 180.461106 
L 259.510891 178.689437 
L 241.981279 157.100634 
z
" style="fill:#f3874a;"/>
    <path clip-path="url(#p1da94f293f)" d="M 116.607264 126.698429 
L 127.604234 120.316746 
L 144.568912 124.136393 
L 133.666452 130.837972 
L 116.607264 126.698429 
z
" style="fill:#f8df25;"/>
    <path clip-path="url(#p1da94f293f)" d="M 161.690956 128.217268 
L 172.320308 120.674815 
L 189.509327 124.61994 
L 178.984789 133.254891 
L 161.690956 128.217268 
z
" style="fill:#f9dd25;"/>
    <path clip-path="url(#p1da94f293f)" d="M 206.844418 128.246272 
L 217.15736 120.19673 
L 234.571357 123.43529 
L 224.339548 132.263131 
L 206.844418 128.246272 
z
" style="fill:#f7e225;"/>
    <path clip-path="url(#p1da94f293f)" d="M 224.339548 132.263131 
L 234.571357 123.43529 
L 252.055963 147.68648 
L 241.981279 157.100634 
L 224.339548 132.263131 
z
" style="fill:#fdc627;"/>
    <path clip-path="url(#p1da94f293f)" d="M 133.666452 130.837972 
L 144.568912 124.136393 
L 161.690956 128.217268 
L 150.893019 135.537584 
L 133.666452 130.837972 
z
" style="fill:#f9dc24;"/>
    <path clip-path="url(#p1da94f293f)" d="M 178.984789 133.254891 
L 189.509327 124.61994 
L 206.844418 128.246272 
L 196.414767 138.193473 
L 178.984789 133.254891 
z
" style="fill:#fada24;"/>
    <path clip-path="url(#p1da94f293f)" d="M 249.460499 183.81085 
L 259.510891 178.689437 
L 277.058945 192.689174 
L 267.169008 196.534398 
L 249.460499 183.81085 
z
" style="fill:#e26660;"/>
    <path clip-path="url(#p1da94f293f)" d="M 231.780163 169.063873 
L 241.981279 157.100634 
L 259.510891 178.689437 
L 249.460499 183.81085 
L 231.780163 169.063873 
z
" style="fill:#f2844b;"/>
    <path clip-path="url(#p1da94f293f)" d="M 150.893019 135.537584 
L 161.690956 128.217268 
L 178.984789 133.254891 
L 168.279863 140.855535 
L 150.893019 135.537584 
z
" style="fill:#fad824;"/>
    <path clip-path="url(#p1da94f293f)" d="M 267.169008 196.534398 
L 277.058945 192.689174 
L 294.727199 201.904952 
L 284.996018 204.667924 
L 267.169008 196.534398 
z
" style="fill:#d6556d;"/>
    <path clip-path="url(#p1da94f293f)" d="M 196.414767 138.193473 
L 206.844418 128.246272 
L 224.339548 132.263131 
L 213.974796 142.037824 
L 196.414767 138.193473 
z
" style="fill:#fad824;"/>
    <path clip-path="url(#p1da94f293f)" d="M 213.974796 142.037824 
L 224.339548 132.263131 
L 241.981279 157.100634 
L 231.780163 169.063873 
L 213.974796 142.037824 
z
" style="fill:#febb2b;"/>
    <path clip-path="url(#p1da94f293f)" d="M 168.279863 140.855535 
L 178.984789 133.254891 
L 196.414767 138.193473 
L 185.836575 147.694343 
L 168.279863 140.855535 
z
" style="fill:#fbd324;"/>
    <path clip-path="url(#p1da94f293f)" d="M 185.836575 147.694343 
L 196.414767 138.193473 
L 213.974796 142.037824 
L 203.553225 157.355199 
L 185.836575 147.694343 
z
" style="fill:#fdca26;"/>
    <path clip-path="url(#p1da94f293f)" d="M 221.375261 170.239634 
L 231.780163 169.063873 
L 249.460499 183.81085 
L 239.235224 186.785171 
L 221.375261 170.239634 
z
" style="fill:#f48948;"/>
    <path clip-path="url(#p1da94f293f)" d="M 239.235224 186.785171 
L 249.460499 183.81085 
L 267.169008 196.534398 
L 257.096615 200.499836 
L 239.235224 186.785171 
z
" style="fill:#e76e5b;"/>
    <path clip-path="url(#p1da94f293f)" d="M 203.553225 157.355199 
L 213.974796 142.037824 
L 231.780163 169.063873 
L 221.375261 170.239634 
L 203.553225 157.355199 
z
" style="fill:#fdae32;"/>
    <path clip-path="url(#p1da94f293f)" d="M 257.096615 200.499836 
L 267.169008 196.534398 
L 284.996018 204.667924 
L 275.040623 210.004266 
L 257.096615 200.499836 
z
" style="fill:#db5c68;"/>
   </g>
  </g>
 </g>
 <defs>
  <clipPath id="p1da94f293f">
   <rect height="266.112" width="357.12" x="57.6" y="41.472"/>
  </clipPath>
 </defs>
</svg>
