<?xml version="1.0" encoding="utf-8" standalone="no"?>
<!DOCTYPE svg PUBLIC "-//W3C//DTD SVG 1.1//EN"
  "http://www.w3.org/Graphics/SVG/1.1/DTD/svg11.dtd">
<!-- Created with matplotlib (http://matplotlib.org/) -->
<svg height="345pt" version="1.1" viewBox="0 0 460 345" width="460pt" xmlns="http://www.w3.org/2000/svg" xmlns:xlink="http://www.w3.org/1999/xlink">
 <defs>
  <style type="text/css">
*{stroke-linecap:butt;stroke-linejoin:round;}
  </style>
 </defs>
 <g id="figure_1">
  <g id="patch_1">
   <path d="M 0 345.6 
L 460.8 345.6 
L 460.8 0 
L 0 0 
z
" style="fill:#ffffff;"/>
  </g>
  <g id="patch_2">
   <path d="M 57.6 307.584 
L 414.72 307.584 
L 414.72 41.472 
L 57.6 41.472 
z
" style="fill:#ffffff;"/>
  </g>
  <g id="pane3d_1">
   <g id="patch_3">
    <path d="M 104.941774 248.782626 
L 207.151387 183.537994 
L 205.449705 58.866209 
L 97.541237 117.48717 
" style="fill:#f2f2f2;opacity:0.5;stroke:#f2f2f2;stroke-linejoin:miter;"/>
   </g>
  </g>
  <g id="pane3d_2">
   <g id="patch_4">
    <path d="M 207.151387 183.537994 
L 372.72135 220.013954 
L 379.648599 91.582742 
L 205.449705 58.866209 
" style="fill:#e6e6e6;opacity:0.5;stroke:#e6e6e6;stroke-linejoin:miter;"/>
   </g>
  </g>
  <g id="pane3d_3">
   <g id="patch_5">
    <path d="M 104.941774 248.782626 
L 279.143747 291.264825 
L 372.72135 220.013954 
L 207.151387 183.537994 
" style="fill:#ececec;opacity:0.5;stroke:#ececec;stroke-linejoin:miter;"/>
   </g>
  </g>
  <g id="axis3d_1">
   <g id="line2d_1">
    <path d="M 104.941774 248.782626 
L 279.143747 291.264825 
" style="fill:none;stroke:#000000;stroke-linecap:square;stroke-width:0.8;"/>
   </g>
   <g id="Line3DCollection_1">
    <path d="M 115.562252 251.372616 
L 217.277438 185.768818 
L 216.081723 60.863023 
" style="fill:none;stroke:#b0b0b0;stroke-width:0.8;"/>
    <path d="M 148.306252 259.357813 
L 248.470984 192.640925 
L 248.851709 67.017599 
" style="fill:none;stroke:#b0b0b0;stroke-width:0.8;"/>
    <path d="M 181.629397 267.484245 
L 280.175868 199.625682 
L 282.186433 73.278239 
" style="fill:none;stroke:#b0b0b0;stroke-width:0.8;"/>
    <path d="M 215.547191 275.755692 
L 312.404765 206.725883 
L 316.10062 79.647709 
" style="fill:none;stroke:#b0b0b0;stroke-width:0.8;"/>
    <path d="M 250.075693 284.176071 
L 345.170776 213.944413 
L 350.609512 86.128871 
" style="fill:none;stroke:#b0b0b0;stroke-width:0.8;"/>
   </g>
   <g id="xtick_1">
    <g id="line2d_2">
     <path d="M 116.438581 250.807405 
L 113.806326 252.505145 
" style="fill:none;stroke:#000000;stroke-linecap:square;stroke-width:0.8;"/>
    </g>
    <g id="text_1">
     <!-- 0 -->
     <defs>
      <path d="M 31.78125 66.40625 
Q 24.171875 66.40625 20.328125 58.90625 
Q 16.5 51.421875 16.5 36.375 
Q 16.5 21.390625 20.328125 13.890625 
Q 24.171875 6.390625 31.78125 6.390625 
Q 39.453125 6.390625 43.28125 13.890625 
Q 47.125 21.390625 47.125 36.375 
Q 47.125 51.421875 43.28125 58.90625 
Q 39.453125 66.40625 31.78125 66.40625 
z
M 31.78125 74.21875 
Q 44.046875 74.21875 50.515625 64.515625 
Q 56.984375 54.828125 56.984375 36.375 
Q 56.984375 17.96875 50.515625 8.265625 
Q 44.046875 -1.421875 31.78125 -1.421875 
Q 19.53125 -1.421875 13.0625 8.265625 
Q 6.59375 17.96875 6.59375 36.375 
Q 6.59375 54.828125 13.0625 64.515625 
Q 19.53125 74.21875 31.78125 74.21875 
z
" id="DejaVuSans-30"/>
     </defs>
     <g transform="translate(105.060879 272.84452)scale(0.1 -0.1)">
      <use xlink:href="#DejaVuSans-30"/>
     </g>
    </g>
   </g>
   <g id="xtick_2">
    <g id="line2d_3">
     <path d="M 149.169762 258.782653 
L 146.575981 260.510297 
" style="fill:none;stroke:#000000;stroke-linecap:square;stroke-width:0.8;"/>
    </g>
    <g id="text_2">
     <!-- 2 -->
     <defs>
      <path d="M 19.1875 8.296875 
L 53.609375 8.296875 
L 53.609375 0 
L 7.328125 0 
L 7.328125 8.296875 
Q 12.9375 14.109375 22.625 23.890625 
Q 32.328125 33.6875 34.8125 36.53125 
Q 39.546875 41.84375 41.421875 45.53125 
Q 43.3125 49.21875 43.3125 52.78125 
Q 43.3125 58.59375 39.234375 62.25 
Q 35.15625 65.921875 28.609375 65.921875 
Q 23.96875 65.921875 18.8125 64.3125 
Q 13.671875 62.703125 7.8125 59.421875 
L 7.8125 69.390625 
Q 13.765625 71.78125 18.9375 73 
Q 24.125 74.21875 28.421875 74.21875 
Q 39.75 74.21875 46.484375 68.546875 
Q 53.21875 62.890625 53.21875 53.421875 
Q 53.21875 48.921875 51.53125 44.890625 
Q 49.859375 40.875 45.40625 35.40625 
Q 44.1875 33.984375 37.640625 27.21875 
Q 31.109375 20.453125 19.1875 8.296875 
z
" id="DejaVuSans-32"/>
     </defs>
     <g transform="translate(137.80125 280.96635)scale(0.1 -0.1)">
      <use xlink:href="#DejaVuSans-32"/>
     </g>
    </g>
   </g>
   <g id="xtick_3">
    <g id="line2d_4">
     <path d="M 182.479498 266.89887 
L 179.925969 268.657216 
" style="fill:none;stroke:#000000;stroke-linecap:square;stroke-width:0.8;"/>
    </g>
    <g id="text_3">
     <!-- 4 -->
     <defs>
      <path d="M 37.796875 64.3125 
L 12.890625 25.390625 
L 37.796875 25.390625 
z
M 35.203125 72.90625 
L 47.609375 72.90625 
L 47.609375 25.390625 
L 58.015625 25.390625 
L 58.015625 17.1875 
L 47.609375 17.1875 
L 47.609375 0 
L 37.796875 0 
L 37.796875 17.1875 
L 4.890625 17.1875 
L 4.890625 26.703125 
z
" id="DejaVuSans-34"/>
     </defs>
     <g transform="translate(171.121785 289.232101)scale(0.1 -0.1)">
      <use xlink:href="#DejaVuSans-34"/>
     </g>
    </g>
   </g>
   <g id="xtick_4">
    <g id="line2d_5">
     <path d="M 216.383263 275.159828 
L 213.871843 276.949702 
" style="fill:none;stroke:#000000;stroke-linecap:square;stroke-width:0.8;"/>
    </g>
    <g id="text_4">
     <!-- 6 -->
     <defs>
      <path d="M 33.015625 40.375 
Q 26.375 40.375 22.484375 35.828125 
Q 18.609375 31.296875 18.609375 23.390625 
Q 18.609375 15.53125 22.484375 10.953125 
Q 26.375 6.390625 33.015625 6.390625 
Q 39.65625 6.390625 43.53125 10.953125 
Q 47.40625 15.53125 47.40625 23.390625 
Q 47.40625 31.296875 43.53125 35.828125 
Q 39.65625 40.375 33.015625 40.375 
z
M 52.59375 71.296875 
L 52.59375 62.3125 
Q 48.875 64.0625 45.09375 64.984375 
Q 41.3125 65.921875 37.59375 65.921875 
Q 27.828125 65.921875 22.671875 59.328125 
Q 17.53125 52.734375 16.796875 39.40625 
Q 19.671875 43.65625 24.015625 45.921875 
Q 28.375 48.1875 33.59375 48.1875 
Q 44.578125 48.1875 50.953125 41.515625 
Q 57.328125 34.859375 57.328125 23.390625 
Q 57.328125 12.15625 50.6875 5.359375 
Q 44.046875 -1.421875 33.015625 -1.421875 
Q 20.359375 -1.421875 13.671875 8.265625 
Q 6.984375 17.96875 6.984375 36.375 
Q 6.984375 53.65625 15.1875 63.9375 
Q 23.390625 74.21875 37.203125 74.21875 
Q 40.921875 74.21875 44.703125 73.484375 
Q 48.484375 72.75 52.59375 71.296875 
z
" id="DejaVuSans-36"/>
     </defs>
     <g transform="translate(205.038042 297.64563)scale(0.1 -0.1)">
      <use xlink:href="#DejaVuSans-36"/>
     </g>
    </g>
   </g>
   <g id="xtick_5">
    <g id="line2d_6">
     <path d="M 250.897092 283.569434 
L 248.429719 285.391691 
" style="fill:none;stroke:#000000;stroke-linecap:square;stroke-width:0.8;"/>
    </g>
    <g id="text_5">
     <!-- 8 -->
     <defs>
      <path d="M 31.78125 34.625 
Q 24.75 34.625 20.71875 30.859375 
Q 16.703125 27.09375 16.703125 20.515625 
Q 16.703125 13.921875 20.71875 10.15625 
Q 24.75 6.390625 31.78125 6.390625 
Q 38.8125 6.390625 42.859375 10.171875 
Q 46.921875 13.96875 46.921875 20.515625 
Q 46.921875 27.09375 42.890625 30.859375 
Q 38.875 34.625 31.78125 34.625 
z
M 21.921875 38.8125 
Q 15.578125 40.375 12.03125 44.71875 
Q 8.5 49.078125 8.5 55.328125 
Q 8.5 64.0625 14.71875 69.140625 
Q 20.953125 74.21875 31.78125 74.21875 
Q 42.671875 74.21875 48.875 69.140625 
Q 55.078125 64.0625 55.078125 55.328125 
Q 55.078125 49.078125 51.53125 44.71875 
Q 48 40.375 41.703125 38.8125 
Q 48.828125 37.15625 52.796875 32.3125 
Q 56.78125 27.484375 56.78125 20.515625 
Q 56.78125 9.90625 50.3125 4.234375 
Q 43.84375 -1.421875 31.78125 -1.421875 
Q 19.734375 -1.421875 13.25 4.234375 
Q 6.78125 9.90625 6.78125 20.515625 
Q 6.78125 27.484375 10.78125 32.3125 
Q 14.796875 37.15625 21.921875 38.8125 
z
M 18.3125 54.390625 
Q 18.3125 48.734375 21.84375 45.5625 
Q 25.390625 42.390625 31.78125 42.390625 
Q 38.140625 42.390625 41.71875 45.5625 
Q 45.3125 48.734375 45.3125 54.390625 
Q 45.3125 60.0625 41.71875 63.234375 
Q 38.140625 66.40625 31.78125 66.40625 
Q 25.390625 66.40625 21.84375 63.234375 
Q 18.3125 60.0625 18.3125 54.390625 
z
" id="DejaVuSans-38"/>
     </defs>
     <g transform="translate(239.566142 306.210938)scale(0.1 -0.1)">
      <use xlink:href="#DejaVuSans-38"/>
     </g>
    </g>
   </g>
  </g>
  <g id="axis3d_2">
   <g id="line2d_7">
    <path d="M 372.72135 220.013954 
L 279.143747 291.264825 
" style="fill:none;stroke:#000000;stroke-linecap:square;stroke-width:0.8;"/>
   </g>
   <g id="Line3DCollection_2">
    <path d="M 104.930092 113.473196 
L 111.915028 244.331309 
L 285.548062 286.38852 
" style="fill:none;stroke:#b0b0b0;stroke-width:0.8;"/>
    <path d="M 126.984969 101.491948 
L 132.751513 231.030517 
L 304.667047 271.831144 
" style="fill:none;stroke:#b0b0b0;stroke-width:0.8;"/>
    <path d="M 148.366618 89.876429 
L 152.983668 218.115494 
L 323.206496 257.715032 
" style="fill:none;stroke:#b0b0b0;stroke-width:0.8;"/>
    <path d="M 169.105401 78.610146 
L 172.637407 205.569698 
L 341.192365 244.020421 
" style="fill:none;stroke:#b0b0b0;stroke-width:0.8;"/>
    <path d="M 189.229881 67.677581 
L 191.737187 193.377517 
L 358.649085 230.728709 
" style="fill:none;stroke:#b0b0b0;stroke-width:0.8;"/>
   </g>
   <g id="xtick_6">
    <g id="line2d_8">
     <path d="M 284.094906 286.036538 
L 288.457621 287.09327 
" style="fill:none;stroke:#000000;stroke-linecap:square;stroke-width:0.8;"/>
    </g>
    <g id="text_6">
     <!-- 0 -->
     <g transform="translate(295.066159 306.144728)scale(0.1 -0.1)">
      <use xlink:href="#DejaVuSans-30"/>
     </g>
    </g>
   </g>
   <g id="xtick_7">
    <g id="line2d_9">
     <path d="M 303.229241 271.48991 
L 307.545822 272.514362 
" style="fill:none;stroke:#000000;stroke-linecap:square;stroke-width:0.8;"/>
    </g>
    <g id="text_7">
     <!-- 2 -->
     <g transform="translate(313.980212 291.407653)scale(0.1 -0.1)">
      <use xlink:href="#DejaVuSans-32"/>
     </g>
    </g>
   </g>
   <g id="xtick_8">
    <g id="line2d_10">
     <path d="M 321.783784 257.384061 
L 326.055002 258.37769 
" style="fill:none;stroke:#000000;stroke-linecap:square;stroke-width:0.8;"/>
    </g>
    <g id="text_8">
     <!-- 4 -->
     <g transform="translate(332.321224 277.117069)scale(0.1 -0.1)">
      <use xlink:href="#DejaVuSans-34"/>
     </g>
    </g>
   </g>
   <g id="xtick_9">
    <g id="line2d_11">
     <path d="M 339.784494 243.699257 
L 344.011113 244.663433 
" style="fill:none;stroke:#000000;stroke-linecap:square;stroke-width:0.8;"/>
    </g>
    <g id="text_9">
     <!-- 6 -->
     <g transform="translate(350.114849 263.252987)scale(0.1 -0.1)">
      <use xlink:href="#DejaVuSans-36"/>
     </g>
    </g>
   </g>
   <g id="xtick_10">
    <g id="line2d_12">
     <path d="M 357.255803 230.416924 
L 361.438579 231.352936 
" style="fill:none;stroke:#000000;stroke-linecap:square;stroke-width:0.8;"/>
    </g>
    <g id="text_10">
     <!-- 8 -->
     <g transform="translate(367.385231 249.796595)scale(0.1 -0.1)">
      <use xlink:href="#DejaVuSans-38"/>
     </g>
    </g>
   </g>
  </g>
  <g id="axis3d_3">
   <g id="line2d_13">
    <path d="M 372.72135 220.013954 
L 379.648599 91.582742 
" style="fill:none;stroke:#000000;stroke-linecap:square;stroke-width:0.8;"/>
   </g>
   <g id="Line3DCollection_3">
    <path d="M 373.012145 214.622601 
L 207.079804 178.293524 
L 104.631623 243.280119 
" style="fill:none;stroke:#b0b0b0;stroke-width:0.8;"/>
    <path d="M 374.159869 193.343807 
L 206.797404 157.603821 
L 103.407067 221.554857 
" style="fill:none;stroke:#b0b0b0;stroke-width:0.8;"/>
    <path d="M 375.327722 171.69181 
L 206.51026 136.56658 
L 102.160317 199.435843 
" style="fill:none;stroke:#b0b0b0;stroke-width:0.8;"/>
    <path d="M 376.516239 149.656704 
L 206.218253 115.172969 
L 100.890764 176.912275 
" style="fill:none;stroke:#b0b0b0;stroke-width:0.8;"/>
    <path d="M 377.725973 127.22823 
L 205.921256 93.413857 
L 99.597777 153.972952 
" style="fill:none;stroke:#b0b0b0;stroke-width:0.8;"/>
    <path d="M 378.957497 104.39576 
L 205.619142 71.279796 
L 98.280701 130.606253 
" style="fill:none;stroke:#b0b0b0;stroke-width:0.8;"/>
   </g>
   <g id="xtick_11">
    <g id="line2d_14">
     <path d="M 371.627608 214.319472 
L 375.784103 215.229491 
" style="fill:none;stroke:#000000;stroke-linecap:square;stroke-width:0.8;"/>
    </g>
    <g id="text_11">
     <!-- −0.3 -->
     <defs>
      <path d="M 10.59375 35.5 
L 73.1875 35.5 
L 73.1875 27.203125 
L 10.59375 27.203125 
z
" id="DejaVuSans-2212"/>
      <path d="M 10.6875 12.40625 
L 21 12.40625 
L 21 0 
L 10.6875 0 
z
" id="DejaVuSans-2e"/>
      <path d="M 40.578125 39.3125 
Q 47.65625 37.796875 51.625 33 
Q 55.609375 28.21875 55.609375 21.1875 
Q 55.609375 10.40625 48.1875 4.484375 
Q 40.765625 -1.421875 27.09375 -1.421875 
Q 22.515625 -1.421875 17.65625 -0.515625 
Q 12.796875 0.390625 7.625 2.203125 
L 7.625 11.71875 
Q 11.71875 9.328125 16.59375 8.109375 
Q 21.484375 6.890625 26.8125 6.890625 
Q 36.078125 6.890625 40.9375 10.546875 
Q 45.796875 14.203125 45.796875 21.1875 
Q 45.796875 27.640625 41.28125 31.265625 
Q 36.765625 34.90625 28.71875 34.90625 
L 20.21875 34.90625 
L 20.21875 43.015625 
L 29.109375 43.015625 
Q 36.375 43.015625 40.234375 45.921875 
Q 44.09375 48.828125 44.09375 54.296875 
Q 44.09375 59.90625 40.109375 62.90625 
Q 36.140625 65.921875 28.71875 65.921875 
Q 24.65625 65.921875 20.015625 65.03125 
Q 15.375 64.15625 9.8125 62.3125 
L 9.8125 71.09375 
Q 15.4375 72.65625 20.34375 73.4375 
Q 25.25 74.21875 29.59375 74.21875 
Q 40.828125 74.21875 47.359375 69.109375 
Q 53.90625 64.015625 53.90625 55.328125 
Q 53.90625 49.265625 50.4375 45.09375 
Q 46.96875 40.921875 40.578125 39.3125 
z
" id="DejaVuSans-33"/>
     </defs>
     <g transform="translate(379.242291 220.259335)scale(0.1 -0.1)">
      <use xlink:href="#DejaVuSans-2212"/>
      <use x="83.789062" xlink:href="#DejaVuSans-30"/>
      <use x="147.412109" xlink:href="#DejaVuSans-2e"/>
      <use x="179.199219" xlink:href="#DejaVuSans-33"/>
     </g>
    </g>
   </g>
   <g id="xtick_12">
    <g id="line2d_15">
     <path d="M 372.762898 193.045487 
L 376.956744 193.941076 
" style="fill:none;stroke:#000000;stroke-linecap:square;stroke-width:0.8;"/>
    </g>
    <g id="text_12">
     <!-- −0.2 -->
     <g transform="translate(380.546762 199.011691)scale(0.1 -0.1)">
      <use xlink:href="#DejaVuSans-2212"/>
      <use x="83.789062" xlink:href="#DejaVuSans-30"/>
      <use x="147.412109" xlink:href="#DejaVuSans-2e"/>
      <use x="179.199219" xlink:href="#DejaVuSans-32"/>
     </g>
    </g>
   </g>
   <g id="xtick_13">
    <g id="line2d_16">
     <path d="M 373.918093 171.398514 
L 378.149966 172.279024 
" style="fill:none;stroke:#000000;stroke-linecap:square;stroke-width:0.8;"/>
    </g>
    <g id="text_13">
     <!-- −0.1 -->
     <defs>
      <path d="M 12.40625 8.296875 
L 28.515625 8.296875 
L 28.515625 63.921875 
L 10.984375 60.40625 
L 10.984375 69.390625 
L 28.421875 72.90625 
L 38.28125 72.90625 
L 38.28125 8.296875 
L 54.390625 8.296875 
L 54.390625 0 
L 12.40625 0 
z
" id="DejaVuSans-31"/>
     </defs>
     <g transform="translate(381.874059 177.392242)scale(0.1 -0.1)">
      <use xlink:href="#DejaVuSans-2212"/>
      <use x="83.789062" xlink:href="#DejaVuSans-30"/>
      <use x="147.412109" xlink:href="#DejaVuSans-2e"/>
      <use x="179.199219" xlink:href="#DejaVuSans-31"/>
     </g>
    </g>
   </g>
   <g id="xtick_14">
    <g id="line2d_17">
     <path d="M 375.09372 149.368657 
L 379.364316 150.233413 
" style="fill:none;stroke:#000000;stroke-linecap:square;stroke-width:0.8;"/>
    </g>
    <g id="text_14">
     <!-- 0.0 -->
     <g transform="translate(387.414631 155.39114)scale(0.1 -0.1)">
      <use xlink:href="#DejaVuSans-30"/>
      <use x="63.623047" xlink:href="#DejaVuSans-2e"/>
      <use x="95.410156" xlink:href="#DejaVuSans-30"/>
     </g>
    </g>
   </g>
   <g id="xtick_15">
    <g id="line2d_18">
     <path d="M 376.290327 126.945668 
L 380.60036 127.793963 
" style="fill:none;stroke:#000000;stroke-linecap:square;stroke-width:0.8;"/>
    </g>
    <g id="text_15">
     <!-- 0.1 -->
     <g transform="translate(388.789416 132.99819)scale(0.1 -0.1)">
      <use xlink:href="#DejaVuSans-30"/>
      <use x="63.623047" xlink:href="#DejaVuSans-2e"/>
      <use x="95.410156" xlink:href="#DejaVuSans-31"/>
     </g>
    </g>
   </g>
   <g id="xtick_16">
    <g id="line2d_19">
     <path d="M 377.508481 104.118928 
L 381.858685 104.950026 
" style="fill:none;stroke:#000000;stroke-linecap:square;stroke-width:0.8;"/>
    </g>
    <g id="text_16">
     <!-- 0.2 -->
     <g transform="translate(390.188906 110.20283)scale(0.1 -0.1)">
      <use xlink:href="#DejaVuSans-30"/>
      <use x="63.623047" xlink:href="#DejaVuSans-2e"/>
      <use x="95.410156" xlink:href="#DejaVuSans-32"/>
     </g>
    </g>
   </g>
  </g>
  <g id="axes_1">
   <g id="Poly3DCollection_1">
    <path clip-path="url(#p9af850a03d)" d="M 201.512246 168.607487 
L 210.914734 162.356392 
L 226.627091 158.770879 
L 217.228174 160.662494 
L 201.512246 168.607487 
z
" style="fill:#5502a4;"/>
    <path clip-path="url(#p9af850a03d)" d="M 191.830545 167.494307 
L 201.512246 168.607487 
L 217.228174 160.662494 
L 207.678821 163.828758 
L 191.830545 167.494307 
z
" style="fill:#6600a7;"/>
    <path clip-path="url(#p9af850a03d)" d="M 217.228174 160.662494 
L 226.627091 158.770879 
L 242.562873 147.706437 
L 233.206478 147.93842 
L 217.228174 160.662494 
z
" style="fill:#8707a6;"/>
    <path clip-path="url(#p9af850a03d)" d="M 207.678821 163.828758 
L 217.228174 160.662494 
L 233.206478 147.93842 
L 223.704652 153.194145 
L 207.678821 163.828758 
z
" style="fill:#920fa3;"/>
    <path clip-path="url(#p9af850a03d)" d="M 233.206478 147.93842 
L 242.562873 147.706437 
L 258.821278 136.069899 
L 249.53554 133.123362 
L 233.206478 147.93842 
z
" style="fill:#bc3587;"/>
    <path clip-path="url(#p9af850a03d)" d="M 181.79911 159.888725 
L 191.830545 167.494307 
L 207.678821 163.828758 
L 197.811163 157.949218 
L 181.79911 159.888725 
z
" style="fill:#8d0ba5;"/>
    <path clip-path="url(#p9af850a03d)" d="M 197.811163 157.949218 
L 207.678821 163.828758 
L 223.704652 153.194145 
L 213.982042 151.53998 
L 197.811163 157.949218 
z
" style="fill:#aa2395;"/>
    <path clip-path="url(#p9af850a03d)" d="M 223.704652 153.194145 
L 233.206478 147.93842 
L 249.53554 133.123362 
L 240.05039 141.795761 
L 223.704652 153.194145 
z
" style="fill:#c23c81;"/>
    <path clip-path="url(#p9af850a03d)" d="M 249.53554 133.123362 
L 258.821278 136.069899 
L 275.567018 112.933157 
L 266.199962 122.488705 
L 249.53554 133.123362 
z
" style="fill:#e56b5d;"/>
    <path clip-path="url(#p9af850a03d)" d="M 171.268424 143.430019 
L 181.79911 159.888725 
L 197.811163 157.949218 
L 187.646705 149.359192 
L 171.268424 143.430019 
z
" style="fill:#c23c81;"/>
    <path clip-path="url(#p9af850a03d)" d="M 213.982042 151.53998 
L 223.704652 153.194145 
L 240.05039 141.795761 
L 230.410774 142.459843 
L 213.982042 151.53998 
z
" style="fill:#cc4778;"/>
    <path clip-path="url(#p9af850a03d)" d="M 240.05039 141.795761 
L 249.53554 133.123362 
L 266.199962 122.488705 
L 256.744088 128.426762 
L 240.05039 141.795761 
z
" style="fill:#e56b5d;"/>
    <path clip-path="url(#p9af850a03d)" d="M 187.646705 149.359192 
L 197.811163 157.949218 
L 213.982042 151.53998 
L 204.039974 148.9248 
L 187.646705 149.359192 
z
" style="fill:#ca457a;"/>
    <path clip-path="url(#p9af850a03d)" d="M 299.455899 146.915366 
L 308.540839 140.951159 
L 325.385745 144.383786 
L 316.387599 150.399553 
L 299.455899 146.915366 
z
" style="fill:#d5536f;"/>
    <path clip-path="url(#p9af850a03d)" d="M 266.199962 122.488705 
L 275.567018 112.933157 
L 292.484881 105.488424 
L 283.224446 109.909799 
L 266.199962 122.488705 
z
" style="fill:#fba238;"/>
    <path clip-path="url(#p9af850a03d)" d="M 283.224446 109.909799 
L 292.484881 105.488424 
L 308.540839 140.951159 
L 299.455899 146.915366 
L 283.224446 109.909799 
z
" style="fill:#f79143;"/>
    <path clip-path="url(#p9af850a03d)" d="M 316.387599 150.399553 
L 325.385745 144.383786 
L 342.375737 147.845979 
L 333.466235 153.913767 
L 316.387599 150.399553 
z
" style="fill:#d5536f;"/>
    <path clip-path="url(#p9af850a03d)" d="M 230.410774 142.459843 
L 240.05039 141.795761 
L 256.744088 128.426762 
L 247.147863 133.692606 
L 230.410774 142.459843 
z
" style="fill:#e87059;"/>
    <path clip-path="url(#p9af850a03d)" d="M 204.039974 148.9248 
L 213.982042 151.53998 
L 230.410774 142.459843 
L 220.6157 147.014174 
L 204.039974 148.9248 
z
" style="fill:#da5a6a;"/>
    <path clip-path="url(#p9af850a03d)" d="M 290.234566 152.969113 
L 299.455899 146.915366 
L 316.387599 150.399553 
L 307.253751 156.506998 
L 290.234566 152.969113 
z
" style="fill:#d5536f;"/>
    <path clip-path="url(#p9af850a03d)" d="M 160.62002 133.790907 
L 171.268424 143.430019 
L 187.646705 149.359192 
L 177.22297 141.131741 
L 160.62002 133.790907 
z
" style="fill:#e76e5b;"/>
    <path clip-path="url(#p9af850a03d)" d="M 256.744088 128.426762 
L 266.199962 122.488705 
L 283.224446 109.909799 
L 273.770827 117.749328 
L 256.744088 128.426762 
z
" style="fill:#fa9e3b;"/>
    <path clip-path="url(#p9af850a03d)" d="M 333.466235 153.913767 
L 342.375737 147.845979 
L 359.512699 151.33812 
L 350.69372 157.4587 
L 333.466235 153.913767 
z
" style="fill:#d5536f;"/>
    <path clip-path="url(#p9af850a03d)" d="M 273.770827 117.749328 
L 283.224446 109.909799 
L 299.455899 146.915366 
L 290.234566 152.969113 
L 273.770827 117.749328 
z
" style="fill:#f68f44;"/>
    <path clip-path="url(#p9af850a03d)" d="M 177.22297 141.131741 
L 187.646705 149.359192 
L 204.039974 148.9248 
L 193.918855 148.455483 
L 177.22297 141.131741 
z
" style="fill:#e3685f;"/>
    <path clip-path="url(#p9af850a03d)" d="M 307.253751 156.506998 
L 316.387599 150.399553 
L 333.466235 153.913767 
L 324.421805 160.073464 
L 307.253751 156.506998 
z
" style="fill:#d5536f;"/>
    <path clip-path="url(#p9af850a03d)" d="M 220.6157 147.014174 
L 230.410774 142.459843 
L 247.147863 133.692606 
L 237.405351 142.588552 
L 220.6157 147.014174 
z
" style="fill:#ea7457;"/>
    <path clip-path="url(#p9af850a03d)" d="M 280.873747 159.114432 
L 290.234566 152.969113 
L 307.253751 156.506998 
L 297.980818 162.721408 
L 280.873747 159.114432 
z
" style="fill:#d5536f;"/>
    <path clip-path="url(#p9af850a03d)" d="M 247.147863 133.692606 
L 256.744088 128.426762 
L 273.770827 117.749328 
L 264.132089 131.82688 
L 247.147863 133.692606 
z
" style="fill:#f9983e;"/>
    <path clip-path="url(#p9af850a03d)" d="M 193.918855 148.455483 
L 204.039974 148.9248 
L 220.6157 147.014174 
L 210.683183 153.571818 
L 193.918855 148.455483 
z
" style="fill:#e3685f;"/>
    <path clip-path="url(#p9af850a03d)" d="M 324.421805 160.073464 
L 333.466235 153.913767 
L 350.69372 157.4587 
L 341.740599 163.672378 
L 324.421805 160.073464 
z
" style="fill:#d5536f;"/>
    <path clip-path="url(#p9af850a03d)" d="M 264.132089 131.82688 
L 273.770827 117.749328 
L 290.234566 152.969113 
L 280.873747 159.114432 
L 264.132089 131.82688 
z
" style="fill:#f1834c;"/>
    <path clip-path="url(#p9af850a03d)" d="M 297.980818 162.721408 
L 307.253751 156.506998 
L 324.421805 160.073464 
L 315.239256 166.330619 
L 297.980818 162.721408 
z
" style="fill:#d5536f;"/>
    <path clip-path="url(#p9af850a03d)" d="M 149.829931 128.2019 
L 160.62002 133.790907 
L 177.22297 141.131741 
L 166.568413 134.355171 
L 149.829931 128.2019 
z
" style="fill:#f9983e;"/>
    <path clip-path="url(#p9af850a03d)" d="M 210.683183 153.571818 
L 220.6157 147.014174 
L 237.405351 142.588552 
L 227.559325 155.956206 
L 210.683183 153.571818 
z
" style="fill:#e76f5a;"/>
    <path clip-path="url(#p9af850a03d)" d="M 237.405351 142.588552 
L 247.147863 133.692606 
L 264.132089 131.82688 
L 254.446736 138.826946 
L 237.405351 142.588552 
z
" style="fill:#f68f44;"/>
    <path clip-path="url(#p9af850a03d)" d="M 166.568413 134.355171 
L 177.22297 141.131741 
L 193.918855 148.455483 
L 183.670207 151.522802 
L 166.568413 134.355171 
z
" style="fill:#f3874a;"/>
    <path clip-path="url(#p9af850a03d)" d="M 271.370252 165.353417 
L 280.873747 159.114432 
L 297.980818 162.721408 
L 288.564795 169.096192 
L 271.370252 165.353417 
z
" style="fill:#d5536f;"/>
    <path clip-path="url(#p9af850a03d)" d="M 254.446736 138.826946 
L 264.132089 131.82688 
L 280.873747 159.114432 
L 271.370252 165.353417 
L 254.446736 138.826946 
z
" style="fill:#ef7c51;"/>
    <path clip-path="url(#p9af850a03d)" d="M 315.239256 166.330619 
L 324.421805 160.073464 
L 341.740599 163.672378 
L 332.65025 169.981296 
L 315.239256 166.330619 
z
" style="fill:#d5536f;"/>
    <path clip-path="url(#p9af850a03d)" d="M 183.670207 151.522802 
L 193.918855 148.455483 
L 210.683183 153.571818 
L 200.637852 162.451899 
L 183.670207 151.522802 
z
" style="fill:#e76e5b;"/>
    <path clip-path="url(#p9af850a03d)" d="M 200.637852 162.451899 
L 210.683183 153.571818 
L 227.559325 155.956206 
L 217.665955 174.456988 
L 200.637852 162.451899 
z
" style="fill:#de5f65;"/>
    <path clip-path="url(#p9af850a03d)" d="M 288.564795 169.096192 
L 297.980818 162.721408 
L 315.239256 166.330619 
L 305.915717 172.676924 
L 288.564795 169.096192 
z
" style="fill:#d5536f;"/>
    <path clip-path="url(#p9af850a03d)" d="M 227.559325 155.956206 
L 237.405351 142.588552 
L 254.446736 138.826946 
L 244.613622 149.8097 
L 227.559325 155.956206 
z
" style="fill:#f07f4f;"/>
    <path clip-path="url(#p9af850a03d)" d="M 190.578538 177.331444 
L 200.637852 162.451899 
L 217.665955 174.456988 
L 207.782738 197.892681 
L 190.578538 177.331444 
z
" style="fill:#c8437b;"/>
    <path clip-path="url(#p9af850a03d)" d="M 261.720795 171.688225 
L 271.370252 165.353417 
L 288.564795 169.096192 
L 279.00412 175.569733 
L 261.720795 171.688225 
z
" style="fill:#d5536f;"/>
    <path clip-path="url(#p9af850a03d)" d="M 244.613622 149.8097 
L 254.446736 138.826946 
L 271.370252 165.353417 
L 261.720795 171.688225 
L 244.613622 149.8097 
z
" style="fill:#eb7655;"/>
    <path clip-path="url(#p9af850a03d)" d="M 217.665955 174.456988 
L 227.559325 155.956206 
L 244.613622 149.8097 
L 234.699467 174.142325 
L 217.665955 174.456988 
z
" style="fill:#dd5e66;"/>
    <path clip-path="url(#p9af850a03d)" d="M 207.782738 197.892681 
L 217.665955 174.456988 
L 234.699467 174.142325 
L 224.850369 209.904035 
L 207.782738 197.892681 
z
" style="fill:#b02991;"/>
    <path clip-path="url(#p9af850a03d)" d="M 173.278682 156.149822 
L 183.670207 151.522802 
L 200.637852 162.451899 
L 190.578538 177.331444 
L 173.278682 156.149822 
z
" style="fill:#e56a5d;"/>
    <path clip-path="url(#p9af850a03d)" d="M 305.915717 172.676924 
L 315.239256 166.330619 
L 332.65025 169.981296 
L 323.419495 176.387658 
L 305.915717 172.676924 
z
" style="fill:#d5536f;"/>
    <path clip-path="url(#p9af850a03d)" d="M 197.764473 214.631209 
L 207.782738 197.892681 
L 224.850369 209.904035 
L 214.920124 230.24426 
L 197.764473 214.631209 
z
" style="fill:#7801a8;"/>
    <path clip-path="url(#p9af850a03d)" d="M 156.008292 138.390686 
L 166.568413 134.355171 
L 183.670207 151.522802 
L 173.278682 156.149822 
L 156.008292 138.390686 
z
" style="fill:#f89540;"/>
    <path clip-path="url(#p9af850a03d)" d="M 138.708458 120.875438 
L 149.829931 128.2019 
L 166.568413 134.355171 
L 156.008292 138.390686 
L 138.708458 120.875438 
z
" style="fill:#febe2a;"/>
    <path clip-path="url(#p9af850a03d)" d="M 180.622309 200.052142 
L 190.578538 177.331444 
L 207.782738 197.892681 
L 197.764473 214.631209 
L 180.622309 200.052142 
z
" style="fill:#a21d9a;"/>
    <path clip-path="url(#p9af850a03d)" d="M 205.029195 256.128554 
L 214.920124 230.24426 
L 232.001015 228.880172 
L 222.148519 268.506173 
L 205.029195 256.128554 
z
" style="fill:#0d0887;"/>
    <path clip-path="url(#p9af850a03d)" d="M 279.00412 175.569733 
L 288.564795 169.096192 
L 305.915717 172.676924 
L 296.440851 179.426889 
L 279.00412 175.569733 
z
" style="fill:#d5536f;"/>
    <path clip-path="url(#p9af850a03d)" d="M 187.649935 230.379704 
L 197.764473 214.631209 
L 214.920124 230.24426 
L 205.029195 256.128554 
L 187.649935 230.379704 
z
" style="fill:#48039f;"/>
    <path clip-path="url(#p9af850a03d)" d="M 234.699467 174.142325 
L 244.613622 149.8097 
L 261.720795 171.688225 
L 251.9131 180.139768 
L 234.699467 174.142325 
z
" style="fill:#dc5d67;"/>
    <path clip-path="url(#p9af850a03d)" d="M 224.850369 209.904035 
L 234.699467 174.142325 
L 251.9131 180.139768 
L 241.966589 194.075532 
L 224.850369 209.904035 
z
" style="fill:#b32c8e;"/>
    <path clip-path="url(#p9af850a03d)" d="M 214.920124 230.24426 
L 224.850369 209.904035 
L 241.966589 194.075532 
L 232.001015 228.880172 
L 214.920124 230.24426 
z
" style="fill:#7401a8;"/>
    <path clip-path="url(#p9af850a03d)" d="M 162.794441 163.483308 
L 173.278682 156.149822 
L 190.578538 177.331444 
L 180.622309 200.052142 
L 162.794441 163.483308 
z
" style="fill:#db5c68;"/>
    <path clip-path="url(#p9af850a03d)" d="M 170.212355 207.876645 
L 180.622309 200.052142 
L 197.764473 214.631209 
L 187.649935 230.379704 
L 170.212355 207.876645 
z
" style="fill:#8808a6;"/>
    <path clip-path="url(#p9af850a03d)" d="M 251.9131 180.139768 
L 261.720795 171.688225 
L 279.00412 175.569733 
L 269.282525 183.276171 
L 251.9131 180.139768 
z
" style="fill:#d35171;"/>
    <path clip-path="url(#p9af850a03d)" d="M 296.440851 179.426889 
L 305.915717 172.676924 
L 323.419495 176.387658 
L 314.037957 183.13463 
L 296.440851 179.426889 
z
" style="fill:#d5536f;"/>
    <path clip-path="url(#p9af850a03d)" d="M 222.148519 268.506173 
L 232.001015 228.880172 
L 249.339919 219.077292 
L 239.280734 251.138919 
L 222.148519 268.506173 
z
" style="fill:#2a0593;"/>
    <path clip-path="url(#p9af850a03d)" d="M 144.999197 135.463978 
L 156.008292 138.390686 
L 173.278682 156.149822 
L 162.794441 163.483308 
L 144.999197 135.463978 
z
" style="fill:#fca338;"/>
    <path clip-path="url(#p9af850a03d)" d="M 269.282525 183.276171 
L 279.00412 175.569733 
L 296.440851 179.426889 
L 286.811712 186.748384 
L 269.282525 183.276171 
z
" style="fill:#d35171;"/>
    <path clip-path="url(#p9af850a03d)" d="M 241.966589 194.075532 
L 251.9131 180.139768 
L 269.282525 183.276171 
L 259.367913 197.859003 
L 241.966589 194.075532 
z
" style="fill:#c7427c;"/>
    <path clip-path="url(#p9af850a03d)" d="M 127.511244 118.231867 
L 138.708458 120.875438 
L 156.008292 138.390686 
L 144.999197 135.463978 
L 127.511244 118.231867 
z
" style="fill:#f8e125;"/>
    <path clip-path="url(#p9af850a03d)" d="M 152.055669 168.146609 
L 162.794441 163.483308 
L 180.622309 200.052142 
L 170.212355 207.876645 
L 152.055669 168.146609 
z
" style="fill:#d5536f;"/>
    <path clip-path="url(#p9af850a03d)" d="M 232.001015 228.880172 
L 241.966589 194.075532 
L 259.367913 197.859003 
L 249.339919 219.077292 
L 232.001015 228.880172 
z
" style="fill:#9410a2;"/>
    <path clip-path="url(#p9af850a03d)" d="M 286.811712 186.748384 
L 296.440851 179.426889 
L 314.037957 183.13463 
L 304.505113 190.219398 
L 286.811712 186.748384 
z
" style="fill:#d45270;"/>
    <path clip-path="url(#p9af850a03d)" d="M 259.367913 197.859003 
L 269.282525 183.276171 
L 286.811712 186.748384 
L 277.024382 195.055522 
L 259.367913 197.859003 
z
" style="fill:#cb4679;"/>
    <path clip-path="url(#p9af850a03d)" d="M 134.10834 141.261627 
L 144.999197 135.463978 
L 162.794441 163.483308 
L 152.055669 168.146609 
L 134.10834 141.261627 
z
" style="fill:#fdab33;"/>
    <path clip-path="url(#p9af850a03d)" d="M 249.339919 219.077292 
L 259.367913 197.859003 
L 277.024382 195.055522 
L 266.993395 213.073232 
L 249.339919 219.077292 
z
" style="fill:#b12a90;"/>
    <path clip-path="url(#p9af850a03d)" d="M 239.280734 251.138919 
L 249.339919 219.077292 
L 266.993395 213.073232 
L 256.889867 232.093296 
L 239.280734 251.138919 
z
" style="fill:#7401a8;"/>
    <path clip-path="url(#p9af850a03d)" d="M 116.207433 118.54713 
L 127.511244 118.231867 
L 144.999197 135.463978 
L 134.10834 141.261627 
L 116.207433 118.54713 
z
" style="fill:#f0f921;"/>
    <path clip-path="url(#p9af850a03d)" d="M 277.024382 195.055522 
L 286.811712 186.748384 
L 304.505113 190.219398 
L 294.8012 198.516927 
L 277.024382 195.055522 
z
" style="fill:#d14e72;"/>
    <path clip-path="url(#p9af850a03d)" d="M 266.993395 213.073232 
L 277.024382 195.055522 
L 294.8012 198.516927 
L 284.915673 209.154759 
L 266.993395 213.073232 
z
" style="fill:#c33d80;"/>
    <path clip-path="url(#p9af850a03d)" d="M 256.889867 232.093296 
L 266.993395 213.073232 
L 284.915673 209.154759 
L 274.896909 220.353616 
L 256.889867 232.093296 
z
" style="fill:#ac2694;"/>
   </g>
  </g>
 </g>
 <defs>
  <clipPath id="p9af850a03d">
   <rect height="266.112" width="357.12" x="57.6" y="41.472"/>
  </clipPath>
 </defs>
</svg>
