<?xml version="1.0" encoding="utf-8" standalone="no"?>
<!DOCTYPE svg PUBLIC "-//W3C//DTD SVG 1.1//EN"
  "http://www.w3.org/Graphics/SVG/1.1/DTD/svg11.dtd">
<!-- Created with matplotlib (http://matplotlib.org/) -->
<svg height="345pt" version="1.1" viewBox="0 0 460 345" width="460pt" xmlns="http://www.w3.org/2000/svg" xmlns:xlink="http://www.w3.org/1999/xlink">
 <defs>
  <style type="text/css">
*{stroke-linecap:butt;stroke-linejoin:round;}
  </style>
 </defs>
 <g id="figure_1">
  <g id="patch_1">
   <path d="M 0 345.6 
L 460.8 345.6 
L 460.8 0 
L 0 0 
z
" style="fill:#ffffff;"/>
  </g>
  <g id="patch_2">
   <path d="M 57.6 307.584 
L 414.72 307.584 
L 414.72 41.472 
L 57.6 41.472 
z
" style="fill:#ffffff;"/>
  </g>
  <g id="pane3d_1">
   <g id="patch_3">
    <path d="M 104.941774 248.782626 
L 207.151387 183.537994 
L 205.449705 58.866209 
L 97.541237 117.48717 
" style="fill:#f2f2f2;opacity:0.5;stroke:#f2f2f2;stroke-linejoin:miter;"/>
   </g>
  </g>
  <g id="pane3d_2">
   <g id="patch_4">
    <path d="M 207.151387 183.537994 
L 372.72135 220.013954 
L 379.648599 91.582742 
L 205.449705 58.866209 
" style="fill:#e6e6e6;opacity:0.5;stroke:#e6e6e6;stroke-linejoin:miter;"/>
   </g>
  </g>
  <g id="pane3d_3">
   <g id="patch_5">
    <path d="M 104.941774 248.782626 
L 279.143747 291.264825 
L 372.72135 220.013954 
L 207.151387 183.537994 
" style="fill:#ececec;opacity:0.5;stroke:#ececec;stroke-linejoin:miter;"/>
   </g>
  </g>
  <g id="axis3d_1">
   <g id="line2d_1">
    <path d="M 104.941774 248.782626 
L 279.143747 291.264825 
" style="fill:none;stroke:#000000;stroke-linecap:square;stroke-width:0.8;"/>
   </g>
   <g id="Line3DCollection_1">
    <path d="M 115.562252 251.372616 
L 217.277438 185.768818 
L 216.081723 60.863023 
" style="fill:none;stroke:#b0b0b0;stroke-width:0.8;"/>
    <path d="M 148.306252 259.357813 
L 248.470984 192.640925 
L 248.851709 67.017599 
" style="fill:none;stroke:#b0b0b0;stroke-width:0.8;"/>
    <path d="M 181.629397 267.484245 
L 280.175868 199.625682 
L 282.186433 73.278239 
" style="fill:none;stroke:#b0b0b0;stroke-width:0.8;"/>
    <path d="M 215.547191 275.755692 
L 312.404765 206.725883 
L 316.10062 79.647709 
" style="fill:none;stroke:#b0b0b0;stroke-width:0.8;"/>
    <path d="M 250.075693 284.176071 
L 345.170776 213.944413 
L 350.609512 86.128871 
" style="fill:none;stroke:#b0b0b0;stroke-width:0.8;"/>
   </g>
   <g id="xtick_1">
    <g id="line2d_2">
     <path d="M 116.438581 250.807405 
L 113.806326 252.505145 
" style="fill:none;stroke:#000000;stroke-linecap:square;stroke-width:0.8;"/>
    </g>
    <g id="text_1">
     <!-- 0 -->
     <defs>
      <path d="M 31.78125 66.40625 
Q 24.171875 66.40625 20.328125 58.90625 
Q 16.5 51.421875 16.5 36.375 
Q 16.5 21.390625 20.328125 13.890625 
Q 24.171875 6.390625 31.78125 6.390625 
Q 39.453125 6.390625 43.28125 13.890625 
Q 47.125 21.390625 47.125 36.375 
Q 47.125 51.421875 43.28125 58.90625 
Q 39.453125 66.40625 31.78125 66.40625 
z
M 31.78125 74.21875 
Q 44.046875 74.21875 50.515625 64.515625 
Q 56.984375 54.828125 56.984375 36.375 
Q 56.984375 17.96875 50.515625 8.265625 
Q 44.046875 -1.421875 31.78125 -1.421875 
Q 19.53125 -1.421875 13.0625 8.265625 
Q 6.59375 17.96875 6.59375 36.375 
Q 6.59375 54.828125 13.0625 64.515625 
Q 19.53125 74.21875 31.78125 74.21875 
z
" id="DejaVuSans-30"/>
     </defs>
     <g transform="translate(105.060879 272.84452)scale(0.1 -0.1)">
      <use xlink:href="#DejaVuSans-30"/>
     </g>
    </g>
   </g>
   <g id="xtick_2">
    <g id="line2d_3">
     <path d="M 149.169762 258.782653 
L 146.575981 260.510297 
" style="fill:none;stroke:#000000;stroke-linecap:square;stroke-width:0.8;"/>
    </g>
    <g id="text_2">
     <!-- 2 -->
     <defs>
      <path d="M 19.1875 8.296875 
L 53.609375 8.296875 
L 53.609375 0 
L 7.328125 0 
L 7.328125 8.296875 
Q 12.9375 14.109375 22.625 23.890625 
Q 32.328125 33.6875 34.8125 36.53125 
Q 39.546875 41.84375 41.421875 45.53125 
Q 43.3125 49.21875 43.3125 52.78125 
Q 43.3125 58.59375 39.234375 62.25 
Q 35.15625 65.921875 28.609375 65.921875 
Q 23.96875 65.921875 18.8125 64.3125 
Q 13.671875 62.703125 7.8125 59.421875 
L 7.8125 69.390625 
Q 13.765625 71.78125 18.9375 73 
Q 24.125 74.21875 28.421875 74.21875 
Q 39.75 74.21875 46.484375 68.546875 
Q 53.21875 62.890625 53.21875 53.421875 
Q 53.21875 48.921875 51.53125 44.890625 
Q 49.859375 40.875 45.40625 35.40625 
Q 44.1875 33.984375 37.640625 27.21875 
Q 31.109375 20.453125 19.1875 8.296875 
z
" id="DejaVuSans-32"/>
     </defs>
     <g transform="translate(137.80125 280.96635)scale(0.1 -0.1)">
      <use xlink:href="#DejaVuSans-32"/>
     </g>
    </g>
   </g>
   <g id="xtick_3">
    <g id="line2d_4">
     <path d="M 182.479498 266.89887 
L 179.925969 268.657216 
" style="fill:none;stroke:#000000;stroke-linecap:square;stroke-width:0.8;"/>
    </g>
    <g id="text_3">
     <!-- 4 -->
     <defs>
      <path d="M 37.796875 64.3125 
L 12.890625 25.390625 
L 37.796875 25.390625 
z
M 35.203125 72.90625 
L 47.609375 72.90625 
L 47.609375 25.390625 
L 58.015625 25.390625 
L 58.015625 17.1875 
L 47.609375 17.1875 
L 47.609375 0 
L 37.796875 0 
L 37.796875 17.1875 
L 4.890625 17.1875 
L 4.890625 26.703125 
z
" id="DejaVuSans-34"/>
     </defs>
     <g transform="translate(171.121785 289.232101)scale(0.1 -0.1)">
      <use xlink:href="#DejaVuSans-34"/>
     </g>
    </g>
   </g>
   <g id="xtick_4">
    <g id="line2d_5">
     <path d="M 216.383263 275.159828 
L 213.871843 276.949702 
" style="fill:none;stroke:#000000;stroke-linecap:square;stroke-width:0.8;"/>
    </g>
    <g id="text_4">
     <!-- 6 -->
     <defs>
      <path d="M 33.015625 40.375 
Q 26.375 40.375 22.484375 35.828125 
Q 18.609375 31.296875 18.609375 23.390625 
Q 18.609375 15.53125 22.484375 10.953125 
Q 26.375 6.390625 33.015625 6.390625 
Q 39.65625 6.390625 43.53125 10.953125 
Q 47.40625 15.53125 47.40625 23.390625 
Q 47.40625 31.296875 43.53125 35.828125 
Q 39.65625 40.375 33.015625 40.375 
z
M 52.59375 71.296875 
L 52.59375 62.3125 
Q 48.875 64.0625 45.09375 64.984375 
Q 41.3125 65.921875 37.59375 65.921875 
Q 27.828125 65.921875 22.671875 59.328125 
Q 17.53125 52.734375 16.796875 39.40625 
Q 19.671875 43.65625 24.015625 45.921875 
Q 28.375 48.1875 33.59375 48.1875 
Q 44.578125 48.1875 50.953125 41.515625 
Q 57.328125 34.859375 57.328125 23.390625 
Q 57.328125 12.15625 50.6875 5.359375 
Q 44.046875 -1.421875 33.015625 -1.421875 
Q 20.359375 -1.421875 13.671875 8.265625 
Q 6.984375 17.96875 6.984375 36.375 
Q 6.984375 53.65625 15.1875 63.9375 
Q 23.390625 74.21875 37.203125 74.21875 
Q 40.921875 74.21875 44.703125 73.484375 
Q 48.484375 72.75 52.59375 71.296875 
z
" id="DejaVuSans-36"/>
     </defs>
     <g transform="translate(205.038042 297.64563)scale(0.1 -0.1)">
      <use xlink:href="#DejaVuSans-36"/>
     </g>
    </g>
   </g>
   <g id="xtick_5">
    <g id="line2d_6">
     <path d="M 250.897092 283.569434 
L 248.429719 285.391691 
" style="fill:none;stroke:#000000;stroke-linecap:square;stroke-width:0.8;"/>
    </g>
    <g id="text_5">
     <!-- 8 -->
     <defs>
      <path d="M 31.78125 34.625 
Q 24.75 34.625 20.71875 30.859375 
Q 16.703125 27.09375 16.703125 20.515625 
Q 16.703125 13.921875 20.71875 10.15625 
Q 24.75 6.390625 31.78125 6.390625 
Q 38.8125 6.390625 42.859375 10.171875 
Q 46.921875 13.96875 46.921875 20.515625 
Q 46.921875 27.09375 42.890625 30.859375 
Q 38.875 34.625 31.78125 34.625 
z
M 21.921875 38.8125 
Q 15.578125 40.375 12.03125 44.71875 
Q 8.5 49.078125 8.5 55.328125 
Q 8.5 64.0625 14.71875 69.140625 
Q 20.953125 74.21875 31.78125 74.21875 
Q 42.671875 74.21875 48.875 69.140625 
Q 55.078125 64.0625 55.078125 55.328125 
Q 55.078125 49.078125 51.53125 44.71875 
Q 48 40.375 41.703125 38.8125 
Q 48.828125 37.15625 52.796875 32.3125 
Q 56.78125 27.484375 56.78125 20.515625 
Q 56.78125 9.90625 50.3125 4.234375 
Q 43.84375 -1.421875 31.78125 -1.421875 
Q 19.734375 -1.421875 13.25 4.234375 
Q 6.78125 9.90625 6.78125 20.515625 
Q 6.78125 27.484375 10.78125 32.3125 
Q 14.796875 37.15625 21.921875 38.8125 
z
M 18.3125 54.390625 
Q 18.3125 48.734375 21.84375 45.5625 
Q 25.390625 42.390625 31.78125 42.390625 
Q 38.140625 42.390625 41.71875 45.5625 
Q 45.3125 48.734375 45.3125 54.390625 
Q 45.3125 60.0625 41.71875 63.234375 
Q 38.140625 66.40625 31.78125 66.40625 
Q 25.390625 66.40625 21.84375 63.234375 
Q 18.3125 60.0625 18.3125 54.390625 
z
" id="DejaVuSans-38"/>
     </defs>
     <g transform="translate(239.566142 306.210938)scale(0.1 -0.1)">
      <use xlink:href="#DejaVuSans-38"/>
     </g>
    </g>
   </g>
  </g>
  <g id="axis3d_2">
   <g id="line2d_7">
    <path d="M 372.72135 220.013954 
L 279.143747 291.264825 
" style="fill:none;stroke:#000000;stroke-linecap:square;stroke-width:0.8;"/>
   </g>
   <g id="Line3DCollection_2">
    <path d="M 104.930092 113.473196 
L 111.915028 244.331309 
L 285.548062 286.38852 
" style="fill:none;stroke:#b0b0b0;stroke-width:0.8;"/>
    <path d="M 126.984969 101.491948 
L 132.751513 231.030517 
L 304.667047 271.831144 
" style="fill:none;stroke:#b0b0b0;stroke-width:0.8;"/>
    <path d="M 148.366618 89.876429 
L 152.983668 218.115494 
L 323.206496 257.715032 
" style="fill:none;stroke:#b0b0b0;stroke-width:0.8;"/>
    <path d="M 169.105401 78.610146 
L 172.637407 205.569698 
L 341.192365 244.020421 
" style="fill:none;stroke:#b0b0b0;stroke-width:0.8;"/>
    <path d="M 189.229881 67.677581 
L 191.737187 193.377517 
L 358.649085 230.728709 
" style="fill:none;stroke:#b0b0b0;stroke-width:0.8;"/>
   </g>
   <g id="xtick_6">
    <g id="line2d_8">
     <path d="M 284.094906 286.036538 
L 288.457621 287.09327 
" style="fill:none;stroke:#000000;stroke-linecap:square;stroke-width:0.8;"/>
    </g>
    <g id="text_6">
     <!-- 0 -->
     <g transform="translate(295.066159 306.144728)scale(0.1 -0.1)">
      <use xlink:href="#DejaVuSans-30"/>
     </g>
    </g>
   </g>
   <g id="xtick_7">
    <g id="line2d_9">
     <path d="M 303.229241 271.48991 
L 307.545822 272.514362 
" style="fill:none;stroke:#000000;stroke-linecap:square;stroke-width:0.8;"/>
    </g>
    <g id="text_7">
     <!-- 2 -->
     <g transform="translate(313.980212 291.407653)scale(0.1 -0.1)">
      <use xlink:href="#DejaVuSans-32"/>
     </g>
    </g>
   </g>
   <g id="xtick_8">
    <g id="line2d_10">
     <path d="M 321.783784 257.384061 
L 326.055002 258.37769 
" style="fill:none;stroke:#000000;stroke-linecap:square;stroke-width:0.8;"/>
    </g>
    <g id="text_8">
     <!-- 4 -->
     <g transform="translate(332.321224 277.117069)scale(0.1 -0.1)">
      <use xlink:href="#DejaVuSans-34"/>
     </g>
    </g>
   </g>
   <g id="xtick_9">
    <g id="line2d_11">
     <path d="M 339.784494 243.699257 
L 344.011113 244.663433 
" style="fill:none;stroke:#000000;stroke-linecap:square;stroke-width:0.8;"/>
    </g>
    <g id="text_9">
     <!-- 6 -->
     <g transform="translate(350.114849 263.252987)scale(0.1 -0.1)">
      <use xlink:href="#DejaVuSans-36"/>
     </g>
    </g>
   </g>
   <g id="xtick_10">
    <g id="line2d_12">
     <path d="M 357.255803 230.416924 
L 361.438579 231.352936 
" style="fill:none;stroke:#000000;stroke-linecap:square;stroke-width:0.8;"/>
    </g>
    <g id="text_10">
     <!-- 8 -->
     <g transform="translate(367.385231 249.796595)scale(0.1 -0.1)">
      <use xlink:href="#DejaVuSans-38"/>
     </g>
    </g>
   </g>
  </g>
  <g id="axis3d_3">
   <g id="line2d_13">
    <path d="M 372.72135 220.013954 
L 379.648599 91.582742 
" style="fill:none;stroke:#000000;stroke-linecap:square;stroke-width:0.8;"/>
   </g>
   <g id="Line3DCollection_3">
    <path d="M 372.895856 216.778603 
L 207.108428 180.390672 
L 104.755658 245.480668 
" style="fill:none;stroke:#b0b0b0;stroke-width:0.8;"/>
    <path d="M 373.727149 201.36644 
L 206.903852 165.402596 
L 103.868837 229.747274 
" style="fill:none;stroke:#b0b0b0;stroke-width:0.8;"/>
    <path d="M 374.568985 185.758791 
L 206.696789 150.232403 
L 102.970394 213.807699 
" style="fill:none;stroke:#b0b0b0;stroke-width:0.8;"/>
    <path d="M 375.421567 169.951913 
L 206.487195 134.876754 
L 102.0601 197.657861 
" style="fill:none;stroke:#b0b0b0;stroke-width:0.8;"/>
    <path d="M 376.285103 153.941967 
L 206.275024 119.332225 
L 101.137719 181.293574 
" style="fill:none;stroke:#b0b0b0;stroke-width:0.8;"/>
    <path d="M 377.159803 137.725014 
L 206.060226 103.595312 
L 100.203007 164.710537 
" style="fill:none;stroke:#b0b0b0;stroke-width:0.8;"/>
    <path d="M 378.045887 121.297014 
L 205.842753 87.66242 
L 99.255717 147.904334 
" style="fill:none;stroke:#b0b0b0;stroke-width:0.8;"/>
    <path d="M 378.943578 104.653819 
L 205.622555 71.529866 
L 98.295592 130.870431 
" style="fill:none;stroke:#b0b0b0;stroke-width:0.8;"/>
   </g>
   <g id="xtick_11">
    <g id="line2d_14">
     <path d="M 371.512578 216.474994 
L 375.66529 217.386454 
" style="fill:none;stroke:#000000;stroke-linecap:square;stroke-width:0.8;"/>
    </g>
    <g id="text_11">
     <!-- −0.10 -->
     <defs>
      <path d="M 10.59375 35.5 
L 73.1875 35.5 
L 73.1875 27.203125 
L 10.59375 27.203125 
z
" id="DejaVuSans-2212"/>
      <path d="M 10.6875 12.40625 
L 21 12.40625 
L 21 0 
L 10.6875 0 
z
" id="DejaVuSans-2e"/>
      <path d="M 12.40625 8.296875 
L 28.515625 8.296875 
L 28.515625 63.921875 
L 10.984375 60.40625 
L 10.984375 69.390625 
L 28.421875 72.90625 
L 38.28125 72.90625 
L 38.28125 8.296875 
L 54.390625 8.296875 
L 54.390625 0 
L 12.40625 0 
z
" id="DejaVuSans-31"/>
     </defs>
     <g transform="translate(375.928867 222.412227)scale(0.1 -0.1)">
      <use xlink:href="#DejaVuSans-2212"/>
      <use x="83.789062" xlink:href="#DejaVuSans-30"/>
      <use x="147.412109" xlink:href="#DejaVuSans-2e"/>
      <use x="179.199219" xlink:href="#DejaVuSans-31"/>
      <use x="242.822266" xlink:href="#DejaVuSans-30"/>
     </g>
    </g>
   </g>
   <g id="xtick_12">
    <g id="line2d_15">
     <path d="M 372.334867 201.066291 
L 376.514628 201.967366 
" style="fill:none;stroke:#000000;stroke-linecap:square;stroke-width:0.8;"/>
    </g>
    <g id="text_12">
     <!-- −0.05 -->
     <defs>
      <path d="M 10.796875 72.90625 
L 49.515625 72.90625 
L 49.515625 64.59375 
L 19.828125 64.59375 
L 19.828125 46.734375 
Q 21.96875 47.46875 24.109375 47.828125 
Q 26.265625 48.1875 28.421875 48.1875 
Q 40.625 48.1875 47.75 41.5 
Q 54.890625 34.8125 54.890625 23.390625 
Q 54.890625 11.625 47.5625 5.09375 
Q 40.234375 -1.421875 26.90625 -1.421875 
Q 22.3125 -1.421875 17.546875 -0.640625 
Q 12.796875 0.140625 7.71875 1.703125 
L 7.71875 11.625 
Q 12.109375 9.234375 16.796875 8.0625 
Q 21.484375 6.890625 26.703125 6.890625 
Q 35.15625 6.890625 40.078125 11.328125 
Q 45.015625 15.765625 45.015625 23.390625 
Q 45.015625 31 40.078125 35.4375 
Q 35.15625 39.890625 26.703125 39.890625 
Q 22.75 39.890625 18.8125 39.015625 
Q 14.890625 38.140625 10.796875 36.28125 
z
" id="DejaVuSans-35"/>
     </defs>
     <g transform="translate(376.8737 207.022482)scale(0.1 -0.1)">
      <use xlink:href="#DejaVuSans-2212"/>
      <use x="83.789062" xlink:href="#DejaVuSans-30"/>
      <use x="147.412109" xlink:href="#DejaVuSans-2e"/>
      <use x="179.199219" xlink:href="#DejaVuSans-30"/>
      <use x="242.822266" xlink:href="#DejaVuSans-35"/>
     </g>
    </g>
   </g>
   <g id="xtick_13">
    <g id="line2d_16">
     <path d="M 373.167581 185.462215 
L 377.374746 186.352568 
" style="fill:none;stroke:#000000;stroke-linecap:square;stroke-width:0.8;"/>
    </g>
    <g id="text_13">
     <!-- 0.00 -->
     <g transform="translate(382.020333 191.437979)scale(0.1 -0.1)">
      <use xlink:href="#DejaVuSans-30"/>
      <use x="63.623047" xlink:href="#DejaVuSans-2e"/>
      <use x="95.410156" xlink:href="#DejaVuSans-30"/>
      <use x="159.033203" xlink:href="#DejaVuSans-30"/>
     </g>
    </g>
   </g>
   <g id="xtick_14">
    <g id="line2d_17">
     <path d="M 374.010921 169.659026 
L 378.245851 170.538308 
" style="fill:none;stroke:#000000;stroke-linecap:square;stroke-width:0.8;"/>
    </g>
    <g id="text_14">
     <!-- 0.05 -->
     <g transform="translate(382.989308 175.654997)scale(0.1 -0.1)">
      <use xlink:href="#DejaVuSans-30"/>
      <use x="63.623047" xlink:href="#DejaVuSans-2e"/>
      <use x="95.410156" xlink:href="#DejaVuSans-30"/>
      <use x="159.033203" xlink:href="#DejaVuSans-35"/>
     </g>
    </g>
   </g>
   <g id="xtick_15">
    <g id="line2d_18">
     <path d="M 374.865092 153.652889 
L 379.128155 154.520741 
" style="fill:none;stroke:#000000;stroke-linecap:square;stroke-width:0.8;"/>
    </g>
    <g id="text_15">
     <!-- 0.10 -->
     <g transform="translate(383.970703 159.669721)scale(0.1 -0.1)">
      <use xlink:href="#DejaVuSans-30"/>
      <use x="63.623047" xlink:href="#DejaVuSans-2e"/>
      <use x="95.410156" xlink:href="#DejaVuSans-31"/>
      <use x="159.033203" xlink:href="#DejaVuSans-30"/>
     </g>
    </g>
   </g>
   <g id="xtick_16">
    <g id="line2d_19">
     <path d="M 375.730302 137.439868 
L 380.021876 138.29592 
" style="fill:none;stroke:#000000;stroke-linecap:square;stroke-width:0.8;"/>
    </g>
    <g id="text_16">
     <!-- 0.15 -->
     <g transform="translate(384.964758 143.478234)scale(0.1 -0.1)">
      <use xlink:href="#DejaVuSans-30"/>
      <use x="63.623047" xlink:href="#DejaVuSans-2e"/>
      <use x="95.410156" xlink:href="#DejaVuSans-31"/>
      <use x="159.033203" xlink:href="#DejaVuSans-35"/>
     </g>
    </g>
   </g>
   <g id="xtick_17">
    <g id="line2d_20">
     <path d="M 376.606769 121.015926 
L 380.927235 121.859797 
" style="fill:none;stroke:#000000;stroke-linecap:square;stroke-width:0.8;"/>
    </g>
    <g id="text_17">
     <!-- 0.20 -->
     <g transform="translate(385.971719 127.076523)scale(0.1 -0.1)">
      <use xlink:href="#DejaVuSans-30"/>
      <use x="63.623047" xlink:href="#DejaVuSans-2e"/>
      <use x="95.410156" xlink:href="#DejaVuSans-32"/>
      <use x="159.033203" xlink:href="#DejaVuSans-30"/>
     </g>
    </g>
   </g>
   <g id="xtick_18">
    <g id="line2d_21">
     <path d="M 377.494713 104.376922 
L 381.844463 105.208217 
" style="fill:none;stroke:#000000;stroke-linecap:square;stroke-width:0.8;"/>
    </g>
    <g id="text_18">
     <!-- 0.25 -->
     <g transform="translate(386.991839 110.460465)scale(0.1 -0.1)">
      <use xlink:href="#DejaVuSans-30"/>
      <use x="63.623047" xlink:href="#DejaVuSans-2e"/>
      <use x="95.410156" xlink:href="#DejaVuSans-32"/>
      <use x="159.033203" xlink:href="#DejaVuSans-35"/>
     </g>
    </g>
   </g>
  </g>
  <g id="axes_1">
   <g id="Poly3DCollection_1">
    <path clip-path="url(#p9704ba2c15)" d="M 201.17206 147.115964 
L 210.640679 139.572292 
L 226.53081 141.983293 
L 217.133504 150.693631 
L 201.17206 147.115964 
z
" style="fill:#b52f8c;"/>
    <path clip-path="url(#p9704ba2c15)" d="M 217.133504 150.693631 
L 226.53081 141.983293 
L 242.564948 144.396617 
L 233.222554 153.134258 
L 217.133504 150.693631 
z
" style="fill:#b7318a;"/>
    <path clip-path="url(#p9704ba2c15)" d="M 191.635805 157.610233 
L 201.17206 147.115964 
L 217.133504 150.693631 
L 207.636711 160.669868 
L 191.635805 157.610233 
z
" style="fill:#ac2694;"/>
    <path clip-path="url(#p9704ba2c15)" d="M 233.222554 153.134258 
L 242.564948 144.396617 
L 258.735716 148.189484 
L 249.456358 156.548094 
L 233.222554 153.134258 
z
" style="fill:#b83289;"/>
    <path clip-path="url(#p9704ba2c15)" d="M 207.636711 160.669868 
L 217.133504 150.693631 
L 233.222554 153.134258 
L 223.778073 163.854623 
L 207.636711 160.669868 
z
" style="fill:#ad2793;"/>
    <path clip-path="url(#p9704ba2c15)" d="M 182.044995 170.285051 
L 191.635805 157.610233 
L 207.636711 160.669868 
L 198.062421 172.523941 
L 182.044995 170.285051 
z
" style="fill:#9c179e;"/>
    <path clip-path="url(#p9704ba2c15)" d="M 314.517213 212.711028 
L 323.343921 205.300066 
L 340.032111 205.969656 
L 331.1717 216.151726 
L 314.517213 212.711028 
z
" style="fill:#280592;"/>
    <path clip-path="url(#p9704ba2c15)" d="M 249.456358 156.548094 
L 258.735716 148.189484 
L 275.047919 151.203227 
L 265.828011 159.956656 
L 249.456358 156.548094 
z
" style="fill:#b83289;"/>
    <path clip-path="url(#p9704ba2c15)" d="M 223.778073 163.854623 
L 233.222554 153.134258 
L 249.456358 156.548094 
L 240.059966 167.595326 
L 223.778073 163.854623 
z
" style="fill:#ad2793;"/>
    <path clip-path="url(#p9704ba2c15)" d="M 298.655381 181.354954 
L 307.580527 176.79413 
L 323.343921 205.300066 
L 314.517213 212.711028 
L 298.655381 181.354954 
z
" style="fill:#6400a7;"/>
    <path clip-path="url(#p9704ba2c15)" d="M 198.062421 172.523941 
L 207.636711 160.669868 
L 223.778073 163.854623 
L 214.216614 173.350671 
L 198.062421 172.523941 
z
" style="fill:#a01a9c;"/>
    <path clip-path="url(#p9704ba2c15)" d="M 172.30911 181.03099 
L 182.044995 170.285051 
L 198.062421 172.523941 
L 188.438962 186.685631 
L 172.30911 181.03099 
z
" style="fill:#8808a6;"/>
    <path clip-path="url(#p9704ba2c15)" d="M 265.828011 159.956656 
L 275.047919 151.203227 
L 291.509248 153.928184 
L 282.36 162.148415 
L 265.828011 159.956656 
z
" style="fill:#ba3388;"/>
    <path clip-path="url(#p9704ba2c15)" d="M 240.059966 167.595326 
L 249.456358 156.548094 
L 265.828011 159.956656 
L 256.476741 171.417017 
L 240.059966 167.595326 
z
" style="fill:#ad2793;"/>
    <path clip-path="url(#p9704ba2c15)" d="M 282.36 162.148415 
L 291.509248 153.928184 
L 307.580527 176.79413 
L 298.655381 181.354954 
L 282.36 162.148415 
z
" style="fill:#a82296;"/>
    <path clip-path="url(#p9704ba2c15)" d="M 331.1717 216.151726 
L 340.032111 205.969656 
L 357.71253 189.475618 
L 348.032238 218.227642 
L 331.1717 216.151726 
z
" style="fill:#3e049c;"/>
    <path clip-path="url(#p9704ba2c15)" d="M 214.216614 173.350671 
L 223.778073 163.854623 
L 240.059966 167.595326 
L 230.563376 178.823021 
L 214.216614 173.350671 
z
" style="fill:#a11b9b;"/>
    <path clip-path="url(#p9704ba2c15)" d="M 305.635658 217.694323 
L 314.517213 212.711028 
L 331.1717 216.151726 
L 322.346638 222.30955 
L 305.635658 217.694323 
z
" style="fill:#260591;"/>
    <path clip-path="url(#p9704ba2c15)" d="M 188.438962 186.685631 
L 198.062421 172.523941 
L 214.216614 173.350671 
L 204.623093 188.594811 
L 188.438962 186.685631 
z
" style="fill:#8a09a5;"/>
    <path clip-path="url(#p9704ba2c15)" d="M 162.550562 194.532628 
L 172.30911 181.03099 
L 188.438962 186.685631 
L 178.729602 200.705591 
L 162.550562 194.532628 
z
" style="fill:#7100a8;"/>
    <path clip-path="url(#p9704ba2c15)" d="M 289.523731 189.189093 
L 298.655381 181.354954 
L 314.517213 212.711028 
L 305.635658 217.694323 
L 289.523731 189.189093 
z
" style="fill:#6300a7;"/>
    <path clip-path="url(#p9704ba2c15)" d="M 256.476741 171.417017 
L 265.828011 159.956656 
L 282.36 162.148415 
L 273.053751 173.406051 
L 256.476741 171.417017 
z
" style="fill:#ae2892;"/>
    <path clip-path="url(#p9704ba2c15)" d="M 230.563376 178.823021 
L 240.059966 167.595326 
L 256.476741 171.417017 
L 247.029591 182.228482 
L 230.563376 178.823021 
z
" style="fill:#9e199d;"/>
    <path clip-path="url(#p9704ba2c15)" d="M 322.346638 222.30955 
L 331.1717 216.151726 
L 348.032238 218.227642 
L 339.147449 227.982521 
L 322.346638 222.30955 
z
" style="fill:#240691;"/>
    <path clip-path="url(#p9704ba2c15)" d="M 178.729602 200.705591 
L 188.438962 186.685631 
L 204.623093 188.594811 
L 194.892987 200.485532 
L 178.729602 200.705591 
z
" style="fill:#6f00a8;"/>
    <path clip-path="url(#p9704ba2c15)" d="M 152.71329 208.360853 
L 162.550562 194.532628 
L 178.729602 200.705591 
L 168.891131 213.260068 
L 152.71329 208.360853 
z
" style="fill:#5601a4;"/>
    <path clip-path="url(#p9704ba2c15)" d="M 204.623093 188.594811 
L 214.216614 173.350671 
L 230.563376 178.823021 
L 220.967621 190.470408 
L 204.623093 188.594811 
z
" style="fill:#8e0ca4;"/>
    <path clip-path="url(#p9704ba2c15)" d="M 273.053751 173.406051 
L 282.36 162.148415 
L 298.655381 181.354954 
L 289.523731 189.189093 
L 273.053751 173.406051 
z
" style="fill:#a11b9b;"/>
    <path clip-path="url(#p9704ba2c15)" d="M 247.029591 182.228482 
L 256.476741 171.417017 
L 273.053751 173.406051 
L 263.633861 186.298076 
L 247.029591 182.228482 
z
" style="fill:#a01a9c;"/>
    <path clip-path="url(#p9704ba2c15)" d="M 296.718256 218.094558 
L 305.635658 217.694323 
L 322.346638 222.30955 
L 313.490708 225.108835 
L 296.718256 218.094558 
z
" style="fill:#350498;"/>
    <path clip-path="url(#p9704ba2c15)" d="M 168.891131 213.260068 
L 178.729602 200.705591 
L 194.892987 200.485532 
L 185.125464 215.274135 
L 168.891131 213.260068 
z
" style="fill:#5801a4;"/>
    <path clip-path="url(#p9704ba2c15)" d="M 142.830684 223.309427 
L 152.71329 208.360853 
L 168.891131 213.260068 
L 158.974662 226.497512 
L 142.830684 223.309427 
z
" style="fill:#3a049a;"/>
    <path clip-path="url(#p9704ba2c15)" d="M 220.967621 190.470408 
L 230.563376 178.823021 
L 247.029591 182.228482 
L 237.479977 195.105656 
L 220.967621 190.470408 
z
" style="fill:#8e0ca4;"/>
    <path clip-path="url(#p9704ba2c15)" d="M 194.892987 200.485532 
L 204.623093 188.594811 
L 220.967621 190.470408 
L 211.289676 203.784407 
L 194.892987 200.485532 
z
" style="fill:#7801a8;"/>
    <path clip-path="url(#p9704ba2c15)" d="M 280.279963 196.379086 
L 289.523731 189.189093 
L 305.635658 217.694323 
L 296.718256 218.094558 
L 280.279963 196.379086 
z
" style="fill:#6600a7;"/>
    <path clip-path="url(#p9704ba2c15)" d="M 263.633861 186.298076 
L 273.053751 173.406051 
L 289.523731 189.189093 
L 280.279963 196.379086 
L 263.633861 186.298076 
z
" style="fill:#9511a1;"/>
    <path clip-path="url(#p9704ba2c15)" d="M 313.490708 225.108835 
L 322.346638 222.30955 
L 339.147449 227.982521 
L 330.263867 234.868485 
L 313.490708 225.108835 
z
" style="fill:#280592;"/>
    <path clip-path="url(#p9704ba2c15)" d="M 237.479977 195.105656 
L 247.029591 182.228482 
L 263.633861 186.298076 
L 254.126535 198.856552 
L 237.479977 195.105656 
z
" style="fill:#8d0ba5;"/>
    <path clip-path="url(#p9704ba2c15)" d="M 158.974662 226.497512 
L 168.891131 213.260068 
L 185.125464 215.274135 
L 175.172057 226.234618 
L 158.974662 226.497512 
z
" style="fill:#3f049c;"/>
    <path clip-path="url(#p9704ba2c15)" d="M 132.770586 236.148807 
L 142.830684 223.309427 
L 158.974662 226.497512 
L 148.835027 236.445137 
L 132.770586 236.148807 
z
" style="fill:#1d068e;"/>
    <path clip-path="url(#p9704ba2c15)" d="M 211.289676 203.784407 
L 220.967621 190.470408 
L 237.479977 195.105656 
L 227.827252 205.971786 
L 211.289676 203.784407 
z
" style="fill:#7a02a8;"/>
    <path clip-path="url(#p9704ba2c15)" d="M 185.125464 215.274135 
L 194.892987 200.485532 
L 211.289676 203.784407 
L 201.4873 215.083014 
L 185.125464 215.274135 
z
" style="fill:#6001a6;"/>
    <path clip-path="url(#p9704ba2c15)" d="M 254.126535 198.856552 
L 263.633861 186.298076 
L 280.279963 196.379086 
L 270.936299 201.016442 
L 254.126535 198.856552 
z
" style="fill:#8808a6;"/>
    <path clip-path="url(#p9704ba2c15)" d="M 227.827252 205.971786 
L 237.479977 195.105656 
L 254.126535 198.856552 
L 244.527081 209.748763 
L 227.827252 205.971786 
z
" style="fill:#7b02a8;"/>
    <path clip-path="url(#p9704ba2c15)" d="M 175.172057 226.234618 
L 185.125464 215.274135 
L 201.4873 215.083014 
L 191.596526 227.517694 
L 175.172057 226.234618 
z
" style="fill:#4b03a1;"/>
    <path clip-path="url(#p9704ba2c15)" d="M 201.4873 215.083014 
L 211.289676 203.784407 
L 227.827252 205.971786 
L 218.064591 216.986171 
L 201.4873 215.083014 
z
" style="fill:#6700a8;"/>
    <path clip-path="url(#p9704ba2c15)" d="M 148.835027 236.445137 
L 158.974662 226.497512 
L 175.172057 226.234618 
L 165.04813 235.508439 
L 148.835027 236.445137 
z
" style="fill:#2e0595;"/>
    <path clip-path="url(#p9704ba2c15)" d="M 270.936299 201.016442 
L 280.279963 196.379086 
L 296.718256 218.094558 
L 287.929408 202.392613 
L 270.936299 201.016442 
z
" style="fill:#7d03a8;"/>
    <path clip-path="url(#p9704ba2c15)" d="M 122.380971 244.406173 
L 132.770586 236.148807 
L 148.835027 236.445137 
L 138.532218 245.61613 
L 122.380971 244.406173 
z
" style="fill:#0d0887;"/>
    <path clip-path="url(#p9704ba2c15)" d="M 287.929408 202.392613 
L 296.718256 218.094558 
L 313.490708 225.108835 
L 304.956681 209.450848 
L 287.929408 202.392613 
z
" style="fill:#6f00a8;"/>
    <path clip-path="url(#p9704ba2c15)" d="M 244.527081 209.748763 
L 254.126535 198.856552 
L 270.936299 201.016442 
L 261.493741 198.962349 
L 244.527081 209.748763 
z
" style="fill:#8606a6;"/>
    <path clip-path="url(#p9704ba2c15)" d="M 218.064591 216.986171 
L 227.827252 205.971786 
L 244.527081 209.748763 
L 234.811731 218.577596 
L 218.064591 216.986171 
z
" style="fill:#6e00a8;"/>
    <path clip-path="url(#p9704ba2c15)" d="M 191.596526 227.517694 
L 201.4873 215.083014 
L 218.064591 216.986171 
L 208.171265 226.730978 
L 191.596526 227.517694 
z
" style="fill:#5601a4;"/>
    <path clip-path="url(#p9704ba2c15)" d="M 304.956681 209.450848 
L 313.490708 225.108835 
L 330.263867 234.868485 
L 322.196574 213.268067 
L 304.956681 209.450848 
z
" style="fill:#6300a7;"/>
    <path clip-path="url(#p9704ba2c15)" d="M 165.04813 235.508439 
L 175.172057 226.234618 
L 191.596526 227.517694 
L 181.456826 234.093543 
L 165.04813 235.508439 
z
" style="fill:#3f049c;"/>
    <path clip-path="url(#p9704ba2c15)" d="M 138.532218 245.61613 
L 148.835027 236.445137 
L 165.04813 235.508439 
L 154.788765 244.802221 
L 138.532218 245.61613 
z
" style="fill:#220690;"/>
    <path clip-path="url(#p9704ba2c15)" d="M 208.171265 226.730978 
L 218.064591 216.986171 
L 234.811731 218.577596 
L 224.967991 227.781588 
L 208.171265 226.730978 
z
" style="fill:#6300a7;"/>
    <path clip-path="url(#p9704ba2c15)" d="M 181.456826 234.093543 
L 191.596526 227.517694 
L 208.171265 226.730978 
L 198.090897 233.117541 
L 181.456826 234.093543 
z
" style="fill:#5102a3;"/>
    <path clip-path="url(#p9704ba2c15)" d="M 234.811731 218.577596 
L 244.527081 209.748763 
L 261.493741 198.962349 
L 251.829489 199.133167 
L 234.811731 218.577596 
z
" style="fill:#8a09a5;"/>
    <path clip-path="url(#p9704ba2c15)" d="M 154.788765 244.802221 
L 165.04813 235.508439 
L 181.456826 234.093543 
L 171.188218 241.720742 
L 154.788765 244.802221 
z
" style="fill:#38049a;"/>
    <path clip-path="url(#p9704ba2c15)" d="M 261.493741 198.962349 
L 270.936299 201.016442 
L 287.929408 202.392613 
L 279.164124 165.103659 
L 261.493741 198.962349 
z
" style="fill:#b02991;"/>
    <path clip-path="url(#p9704ba2c15)" d="M 198.090897 233.117541 
L 208.171265 226.730978 
L 224.967991 227.781588 
L 214.946632 232.717625 
L 198.090897 233.117541 
z
" style="fill:#6001a6;"/>
    <path clip-path="url(#p9704ba2c15)" d="M 171.188218 241.720742 
L 181.456826 234.093543 
L 198.090897 233.117541 
L 187.765792 235.662541 
L 171.188218 241.720742 
z
" style="fill:#5302a3;"/>
    <path clip-path="url(#p9704ba2c15)" d="M 224.967991 227.781588 
L 234.811731 218.577596 
L 251.829489 199.133167 
L 241.966036 195.465707 
L 224.967991 227.781588 
z
" style="fill:#8f0da4;"/>
    <path clip-path="url(#p9704ba2c15)" d="M 251.829489 199.133167 
L 261.493741 198.962349 
L 279.164124 165.103659 
L 269.400109 172.974431 
L 251.829489 199.133167 
z
" style="fill:#cc4977;"/>
    <path clip-path="url(#p9704ba2c15)" d="M 279.164124 165.103659 
L 287.929408 202.392613 
L 304.956681 209.450848 
L 297.329441 139.640783 
L 279.164124 165.103659 
z
" style="fill:#db5c68;"/>
    <path clip-path="url(#p9704ba2c15)" d="M 187.765792 235.662541 
L 198.090897 233.117541 
L 214.946632 232.717625 
L 204.527659 222.565281 
L 187.765792 235.662541 
z
" style="fill:#7401a8;"/>
    <path clip-path="url(#p9704ba2c15)" d="M 214.946632 232.717625 
L 224.967991 227.781588 
L 241.966036 195.465707 
L 231.846987 187.162708 
L 214.946632 232.717625 
z
" style="fill:#a01a9c;"/>
    <path clip-path="url(#p9704ba2c15)" d="M 297.329441 139.640783 
L 304.956681 209.450848 
L 322.196574 213.268067 
L 315.409668 136.581215 
L 297.329441 139.640783 
z
" style="fill:#ef7c51;"/>
    <path clip-path="url(#p9704ba2c15)" d="M 241.966036 195.465707 
L 251.829489 199.133167 
L 269.400109 172.974431 
L 259.555244 172.742972 
L 241.966036 195.465707 
z
" style="fill:#da5a6a;"/>
    <path clip-path="url(#p9704ba2c15)" d="M 204.527659 222.565281 
L 214.946632 232.717625 
L 231.846987 187.162708 
L 221.648337 204.942458 
L 204.527659 222.565281 
z
" style="fill:#b52f8c;"/>
    <path clip-path="url(#p9704ba2c15)" d="M 269.400109 172.974431 
L 279.164124 165.103659 
L 297.329441 139.640783 
L 287.594836 144.441765 
L 269.400109 172.974431 
z
" style="fill:#fb9f3a;"/>
    <path clip-path="url(#p9704ba2c15)" d="M 231.846987 187.162708 
L 241.966036 195.465707 
L 259.555244 172.742972 
L 249.515482 167.729826 
L 231.846987 187.162708 
z
" style="fill:#ec7754;"/>
    <path clip-path="url(#p9704ba2c15)" d="M 259.555244 172.742972 
L 269.400109 172.974431 
L 287.594836 144.441765 
L 277.61424 154.671521 
L 259.555244 172.742972 
z
" style="fill:#fca537;"/>
    <path clip-path="url(#p9704ba2c15)" d="M 287.594836 144.441765 
L 297.329441 139.640783 
L 315.409668 136.581215 
L 305.798197 139.892501 
L 287.594836 144.441765 
z
" style="fill:#f6e826;"/>
    <path clip-path="url(#p9704ba2c15)" d="M 221.648337 204.942458 
L 231.846987 187.162708 
L 249.515482 167.729826 
L 239.229536 178.742461 
L 221.648337 204.942458 
z
" style="fill:#ec7754;"/>
    <path clip-path="url(#p9704ba2c15)" d="M 249.515482 167.729826 
L 259.555244 172.742972 
L 277.61424 154.671521 
L 267.604424 155.528042 
L 249.515482 167.729826 
z
" style="fill:#feb82c;"/>
    <path clip-path="url(#p9704ba2c15)" d="M 277.61424 154.671521 
L 287.594836 144.441765 
L 305.798197 139.892501 
L 295.882714 149.000985 
L 277.61424 154.671521 
z
" style="fill:#f7e425;"/>
    <path clip-path="url(#p9704ba2c15)" d="M 239.229536 178.742461 
L 249.515482 167.729826 
L 267.604424 155.528042 
L 257.355134 160.995316 
L 239.229536 178.742461 
z
" style="fill:#fec029;"/>
    <path clip-path="url(#p9704ba2c15)" d="M 267.604424 155.528042 
L 277.61424 154.671521 
L 295.882714 149.000985 
L 286.014072 147.815233 
L 267.604424 155.528042 
z
" style="fill:#f4ed27;"/>
    <path clip-path="url(#p9704ba2c15)" d="M 257.355134 160.995316 
L 267.604424 155.528042 
L 286.014072 147.815233 
L 275.848924 151.796032 
L 257.355134 160.995316 
z
" style="fill:#f0f921;"/>
   </g>
  </g>
 </g>
 <defs>
  <clipPath id="p9704ba2c15">
   <rect height="266.112" width="357.12" x="57.6" y="41.472"/>
  </clipPath>
 </defs>
</svg>
